<?xml version="1.0" standalone="no"?><!DOCTYPE svg PUBLIC "-//W3C//DTD SVG 1.1//EN" "http://www.w3.org/Graphics/SVG/1.1/DTD/svg11.dtd"><svg t="1610443469866" class="icon" viewBox="0 0 1024 1024" version="1.1" xmlns="http://www.w3.org/2000/svg" p-id="9599" xmlns:xlink="http://www.w3.org/1999/xlink" width="200" height="200"><defs><style type="text/css"></style></defs><path d="M63.424 706.56h6.4c-0.64 0.768-2.56 0-6.4 0z m385.024 189.248V768H63.36c-34.432 0-62.336-28.736-62.336-64.384V129.28c0-35.52 27.584-64.32 62.4-64.32h896.384c63.936 0 63.936 63.872 63.936 63.872v574.848c0 35.584-27.84 64.512-62.4 64.512h-134.784L576.32 768v127.808H768v64H256.64v-64h191.744z m378.112-191.68H960c-0.192 0.064-0.192-191.68-0.192-575.36 0 1.024-0.512-1.92-1.28-3.392 0.512 0.96 4.16 3.392 1.28 3.392H64.768c0.128 0 0.128 191.68 0.128 574.848 0 0.128 47.168 0.32 141.632 0.448l620.032 0.064zM211.904 569.856a32 32 0 1 1-38.336-51.2l212.48-159.36 126.08 110.4 266.56-236.992a32 32 0 0 1 42.56 47.808L512.512 554.944 382.976 441.6 211.904 569.856z" p-id="9600" fill="#1e81f1"></path></svg>