<?xml version="1.0" encoding="UTF-8"?>
<svg width="16px" height="14px" viewBox="0 0 16 14" version="1.1" xmlns="http://www.w3.org/2000/svg" xmlns:xlink="http://www.w3.org/1999/xlink">
    <title>关闭</title>
    <g id="业务会审" stroke="none" stroke-width="1" fill="none" fill-rule="evenodd">
        <g id="会议管理-待办会议-详情（会审意见）" transform="translate(-1249.000000, -314.000000)" fill="#20B86B" fill-rule="nonzero">
            <g id="意见list" transform="translate(575.000000, 298.000000)">
                <g id="关闭" transform="translate(674.000000, 15.000000)">
                    <path d="M14.3688187,1.01298901 C15.2496099,1.01298901 15.9639835,1.75575824 15.9639835,2.66494505 L15.9639835,2.66494505 L15.9639835,11.5025714 C15.9639835,12.4119341 15.2496099,13.1545275 14.3688187,13.1545275 L14.3688187,13.1545275 L9.62393956,13.1545275 L8.4875,14.6603736 C8.20336813,15.0135165 7.70815934,15.0947473 7.36723626,14.8025275 C7.31245226,14.7645626 7.26559944,14.7162765 7.2293022,14.6603736 L7.2293022,14.6603736 L6.09277473,13.1545275 L1.60371978,13.1545275 C0.72706044,13.1545275 0.00451098901,12.4119341 0.00451098901,11.5025714 L0.00451098901,11.5025714 L0.00451098901,2.66494505 C0.00451098901,1.75575824 0.726972527,1.01298901 1.60371978,1.01298901 L1.60371978,1.01298901 Z M4.39624725,6 C3.83607143,6 3.39774176,6.45459341 3.39774176,7.03498901 C3.39774176,7.61142857 3.83607143,8.06593407 4.39624725,8.06593407 C4.95633516,8.06593407 5.39466484,7.61142857 5.39466484,7.03498901 C5.39466484,6.45459341 4.95633516,6 4.39624725,6 Z M7.9842033,6 C7.42815934,6 6.98578571,6.45459341 6.98578571,7.03498901 C6.98578571,7.61142857 7.42815934,8.06593407 7.9842033,8.06593407 C8.54437912,8.06593407 8.98262088,7.61142857 8.98262088,7.03498901 C8.98262088,6.45459341 8.54437912,6 7.9842033,6 Z M11.5762912,6 C11.0201593,6 10.5818297,6.45459341 10.5818297,7.03498901 C10.5818297,7.61142857 11.0202473,8.06593407 11.5762912,8.06593407 C12.1324231,8.06593407 12.5747967,7.61142857 12.5747088,7.03498901 C12.5747088,6.45459341 12.1324231,6 11.5762912,6 Z" id="形状结合"></path>
                </g>
            </g>
        </g>
    </g>
</svg>