<?xml version="1.0" standalone="no"?><!DOCTYPE svg PUBLIC "-//W3C//DTD SVG 1.1//EN" "http://www.w3.org/Graphics/SVG/1.1/DTD/svg11.dtd"><svg t="1610517441894" class="icon" viewBox="0 0 1024 1024" version="1.1" xmlns="http://www.w3.org/2000/svg" p-id="6030" xmlns:xlink="http://www.w3.org/1999/xlink" width="200" height="200"><defs><style type="text/css"></style></defs><path d="M870.4 1024a51.2 51.2 0 0 1-25.3952-6.7584L512 826.88 178.9952 1017.2416A51.2 51.2 0 0 1 102.4 972.8V51.2a51.2 51.2 0 0 1 51.2-51.2h716.8a51.2 51.2 0 0 1 51.2 51.2v921.6a51.2 51.2 0 0 1-51.2 51.2zM512 716.8a51.2 51.2 0 0 1 25.3952 6.7584L819.2 884.5568V102.4H204.8v782.1568l281.8048-160.9984A51.2 51.2 0 0 1 512 716.8z m204.8-358.4h-153.6V204.8h-102.4v153.6H307.2v102.4h153.6v153.6h102.4v-153.6h153.6v-102.4z" fill="#1E81F1" p-id="6031"></path></svg>