<?xml version="1.0" standalone="no"?><!DOCTYPE svg PUBLIC "-//W3C//DTD SVG 1.1//EN" "http://www.w3.org/Graphics/SVG/1.1/DTD/svg11.dtd"><svg t="1611650283514" class="icon" viewBox="0 0 1024 1024" version="1.1" xmlns="http://www.w3.org/2000/svg" p-id="7949" xmlns:xlink="http://www.w3.org/1999/xlink" width="200" height="200"><defs><style type="text/css"></style></defs><path d="M440.706763 3.87953a498.348689 498.348689 0 0 1 369.969663 102.588024c218.039551 170.233403 256.822048 486.125163 86.588645 704.100716a498.348689 498.348689 0 0 1-334.19505 189.112672 497.772711 497.772711 0 0 1-369.905666-102.588024A500.076622 500.076622 0 0 1 8.979492 408.407854a36.094601 36.094601 0 1 1 70.909252 13.439479 428.271404 428.271404 0 0 0 157.625892 418.351789 429.93534 429.93534 0 0 0 602.85664-74.04513 429.999338 429.999338 0 0 0-74.045131-602.85664 426.863459 426.863459 0 0 0-316.787725-87.804597 426.607469 426.607469 0 0 0-286.068914 161.913725 36.094601 36.094601 0 0 1-56.893796-44.414278A498.284691 498.284691 0 0 1 440.706763 3.87953z m36.222596 272.117455c17.919306 0 32.76673 13.119492 35.582621 30.270827l0.447983 5.823774v203.640109h196.408389a36.094601 36.094601 0 0 1 5.823774 71.677223l-5.823774 0.447983H476.929359a36.094601 36.094601 0 0 1-35.646619-30.20683l-0.447982-5.823774V312.091586c0-19.903229 16.127375-36.094601 36.094601-36.094601z" p-id="7950"></path></svg>