<?xml version="1.0" standalone="no"?><!DOCTYPE svg PUBLIC "-//W3C//DTD SVG 1.1//EN" "http://www.w3.org/Graphics/SVG/1.1/DTD/svg11.dtd"><svg t="1612418628226" class="icon" viewBox="0 0 1024 1024" version="1.1" xmlns="http://www.w3.org/2000/svg" p-id="9578" xmlns:xlink="http://www.w3.org/1999/xlink" width="200" height="200"><defs><style type="text/css"></style></defs><path d="M512 0c285.549714 0 512 227.035429 512 512s-227.035429 512-512 512-512-227.035429-512-512 226.450286-512 512-512z m256.146286 311.003429L442.075429 589.092571 329.289143 456.850286c-23.186286-24.137143-56.32-30.72-78.262857-8.704-23.186286 22.235429-29.696 55.296-7.68 77.385143l137.289143 173.933714 7.533714 6.875428c11.849143 8.704 25.6 14.701714 36.059428 14.701715 18.432 0 26.550857-0.950857 35.181715-7.094857l4.388571-3.437715c1.389714-1.170286 1.389714-1.170286 2.633143-2.413714l364.544-306.176c21.942857-21.869714 29.476571-51.053714 13.897143-72.484571l-4.900572-5.632c-20.553143-21.430857-50.102857-28.745143-71.826285-12.8z" p-id="9579"></path></svg>