<?xml version="1.0" encoding="UTF-8"?>
<svg width="12px" height="12px" viewBox="0 0 12 12" version="1.1" xmlns="http://www.w3.org/2000/svg" xmlns:xlink="http://www.w3.org/1999/xlink">
    <title>海南/icon/操作图标/保存</title>
    <g id="业务会审" stroke="none" stroke-width="1" fill="none" fill-rule="evenodd">
        <g id="议题管理-待办议题" transform="translate(-1794.000000, -456.000000)" fill="#1E81F1">
            <g id="编组-3" transform="translate(1792.000000, 454.000000)">
                <g id="海南/icon/操作图标/保存" transform="translate(2.909091, 2.909091)">
                    <path d="M9.09090909,0 C9.65796081,0 10.1239627,0.432645879 10.1768243,0.985847265 L10.1818182,1.09090909 L10.1818182,9.09090909 C10.1818182,9.65796081 9.7491723,10.1239627 9.19597092,10.1768243 L9.09090909,10.1818182 L1.09090909,10.1818182 C0.523857369,10.1818182 0.0578555068,9.7491723 0.00499387495,9.19597092 L0,9.09090909 L0,1.09090909 C0,0.523857369 0.432645879,0.0578555068 0.985847265,0.00499387495 L1.09090909,0 L9.09090909,0 Z M6.18181818,6.54545455 L2.54545455,6.54545455 C2.34462373,6.54545455 2.18181818,6.70826009 2.18181818,6.90909091 C2.18181818,7.10992173 2.34462373,7.27272727 2.54545455,7.27272727 L2.54545455,7.27272727 L6.18181818,7.27272727 C6.382649,7.27272727 6.54545455,7.10992173 6.54545455,6.90909091 C6.54545455,6.70826009 6.382649,6.54545455 6.18181818,6.54545455 L6.18181818,6.54545455 Z M7.63636364,4.36363636 L2.54545455,4.36363636 C2.34462373,4.36363636 2.18181818,4.52644191 2.18181818,4.72727273 C2.18181818,4.92810355 2.34462373,5.09090909 2.54545455,5.09090909 L2.54545455,5.09090909 L7.63636364,5.09090909 C7.83719445,5.09090909 8,4.92810355 8,4.72727273 C8,4.52644191 7.83719445,4.36363636 7.63636364,4.36363636 L7.63636364,4.36363636 Z M7.63636364,2.18181818 L2.54545455,2.18181818 C2.34462373,2.18181818 2.18181818,2.34462373 2.18181818,2.54545455 C2.18181818,2.74628536 2.34462373,2.90909091 2.54545455,2.90909091 L2.54545455,2.90909091 L7.63636364,2.90909091 C7.83719445,2.90909091 8,2.74628536 8,2.54545455 C8,2.34462373 7.83719445,2.18181818 7.63636364,2.18181818 L7.63636364,2.18181818 Z" id="海南/形状结合"></path>
                </g>
            </g>
        </g>
    </g>
</svg>