<?xml version="1.0" standalone="no"?><!DOCTYPE svg PUBLIC "-//W3C//DTD SVG 1.1//EN" "http://www.w3.org/Graphics/SVG/1.1/DTD/svg11.dtd"><svg t="1612232097022" class="icon" viewBox="0 0 1024 1024" version="1.1" xmlns="http://www.w3.org/2000/svg" p-id="8352" xmlns:xlink="http://www.w3.org/1999/xlink" width="200" height="200"><defs><style type="text/css"></style></defs><path d="M512.128 0A512 512 0 0 0 512 1024a512 512 0 0 0 512-512c0.128-282.624-229.12-511.872-511.872-512z m112.128 794.88c-27.328 10.368-49.024 18.304-65.408 23.872a178.368 178.368 0 0 1-56.64 8.192c-33.152 0-58.88-7.744-77.12-23.424a75.328 75.328 0 0 1-27.52-59.776c0-9.344 0.512-19.072 2.048-28.8a354.56 354.56 0 0 1 6.592-33.152l34.24-117.376c3.008-11.264 5.632-21.888 7.68-31.936 2.24-10.176 3.2-19.264 3.2-27.52 0-15.168-3.392-25.664-9.728-31.552-6.4-6.016-18.56-8.896-36.544-8.896-8.96 0-18.048 1.28-27.136 4.032-9.216 2.688-17.28 5.12-23.872 7.68l8.96-36.16c22.528-8.768 43.776-16.384 64.192-22.72 20.416-6.4 39.808-9.472 58.176-9.472 32.832 0 58.24 7.68 76.032 23.04 17.728 15.488 26.752 35.456 26.752 60.16 0 5.12-0.448 14.208-1.728 27.008a195.904 195.904 0 0 1-6.784 35.392l-34.176 117.12a319.36 319.36 0 0 0-7.488 32.192 171.52 171.52 0 0 0-3.392 27.328c0 15.488 3.712 25.984 10.752 31.744 7.168 5.632 19.52 8.512 37.12 8.512 9.408-0.064 18.944-1.472 28.096-4.096 7.68-2.112 15.36-4.416 22.72-7.552l-8.96 36.16z m-5.952-475.072a82.112 82.112 0 0 1-57.408 21.632c-22.4 0-41.6-7.296-57.408-21.632a67.392 67.392 0 0 1-24.128-52.032 68.288 68.288 0 0 1 24.128-52.352c16-14.528 35.2-21.76 57.408-21.76 21.248-0.256 41.792 7.424 57.408 21.76 15.36 12.928 24 32.064 23.872 52.352a68.48 68.48 0 0 1-23.872 52.032z" p-id="8353" fill="#8a8a8a"></path></svg>