<?xml version="1.0" standalone="no"?><!DOCTYPE svg PUBLIC "-//W3C//DTD SVG 1.1//EN" "http://www.w3.org/Graphics/SVG/1.1/DTD/svg11.dtd"><svg t="1612232021111" class="icon" viewBox="0 0 1024 1024" version="1.1" xmlns="http://www.w3.org/2000/svg" p-id="7999" xmlns:xlink="http://www.w3.org/1999/xlink" width="200" height="200"><defs><style type="text/css"></style></defs><path d="M896 0a128 128 0 0 1 128 128v768a128 128 0 0 1-128 128H128a128 128 0 0 1-128-128V128a128 128 0 0 1 128-128z m-88.96 747.072H214.784c-10.88 0-19.776 7.04-19.776 15.808v32.384c0 8.704 8.96 15.808 19.776 15.808h592.128c10.88 0 19.712-7.104 19.84-15.808v-32.384c0-8.704-8.896-15.808-19.712-15.808zM524.8 189.696a20.032 20.032 0 0 0-28.224 0.256L304.448 384.64a18.88 18.88 0 0 0-5.568 13.952c0 10.944 8.96 19.968 20.032 19.968h113.28v223.296c0 10.944 8.96 19.968 20.032 19.968h118.784a19.968 19.968 0 0 0 20.032-19.968v-223.36h112.128a19.904 19.904 0 0 0 14.208-33.92L525.056 190.08z" p-id="8000" fill="#1E81F1"></path></svg>