<?xml version="1.0" standalone="no"?><!DOCTYPE svg PUBLIC "-//W3C//DTD SVG 1.1//EN" "http://www.w3.org/Graphics/SVG/1.1/DTD/svg11.dtd"><svg t="1612232076197" class="icon" viewBox="0 0 1024 1024" version="1.1" xmlns="http://www.w3.org/2000/svg" p-id="8190" xmlns:xlink="http://www.w3.org/1999/xlink" width="200" height="200"><defs><style type="text/css"></style></defs><path d="M933.060205 511.68024A140.054959 140.054959 0 0 1 1023.232576 380.898326a524.726455 524.726455 0 0 0-57.301025-138.52011A139.927055 139.927055 0 0 1 781.046215 57.364976 527.028728 527.028728 0 0 0 642.334249 0.063952 140.310767 140.310767 0 0 1 511.616288 90.236323 140.054959 140.054959 0 0 1 380.834374 0.063952C331.527354 12.598551 285.034224 32.03997 242.378216 57.364976a140.054959 140.054959 0 0 1-28.650512 156.234824c-42.208344 42.272296-104.689483 51.609293-156.234824 28.778416A521.209093 521.209093 0 0 0 0 380.898326 140.310767 140.310767 0 0 1 90.172371 511.68024 140.054959 140.054959 0 0 1 0 642.462153c12.534599 49.30702 31.976018 95.80015 57.301024 138.52011a139.927055 139.927055 0 0 1 184.949288 185.01324c42.847864 25.325006 89.277042 44.766425 138.584062 57.301025A140.310767 140.310767 0 0 1 511.616288 933.124157 140.054959 140.054959 0 0 1 642.398201 1023.296528a524.726455 524.726455 0 0 0 138.52011-57.301025 140.054959 140.054959 0 0 1 28.650512-156.234824 140.374719 140.374719 0 0 1 156.234824-28.778416A521.209093 521.209093 0 0 0 1023.232576 642.462153 140.054959 140.054959 0 0 1 933.060205 511.68024zM511.616288 652.118911a140.502623 140.502623 0 1 1 0.063952-281.005246A140.502623 140.502623 0 0 1 511.616288 652.118911z" p-id="8191" fill="#1E81F1"></path></svg>