<?xml version="1.0" encoding="UTF-8"?>
<svg width="20px" height="20px" viewBox="0 0 20 20" version="1.1" xmlns="http://www.w3.org/2000/svg" xmlns:xlink="http://www.w3.org/1999/xlink">
    <title>切片</title>
    <g id="页面-1" stroke="none" stroke-width="1" fill="none" fill-rule="evenodd">
        <g id="表单配置-表单编辑（在线vue表单）" transform="translate(-406.000000, -996.000000)">
            <g id="控件" transform="translate(226.000000, 219.000000)">
                <g id="编组-10" transform="translate(16.000000, 0.000000)">
                    <g transform="translate(-16.000000, 11.000000)" id="编组-3">
                        <g transform="translate(0.000000, 358.000000)">
                            <g id="编组-15" transform="translate(168.000000, 400.000000)">
                                <g id="单选按钮列表" transform="translate(12.000000, 8.000000)">
                                    <rect id="矩形" x="0" y="0" width="20" height="20"></rect>
                                    <path d="M15.5,3 C16.8807119,3 18,4.11928813 18,5.5 L18,14.5 C18,15.8807119 16.8807119,17 15.5,17 L4.5,17 C3.11928813,17 2,15.8807119 2,14.5 L2,5.5 C2,4.11928813 3.11928813,3 4.5,3 L15.5,3 Z M3,7 L3,14.5 C3,15.3284271 3.67157288,16 4.5,16 L15.5,16 C16.3284271,16 17,15.3284271 17,14.5 L17,7 L3,7 Z M3,6 L17,6 L17,5.5 C17,4.67157288 16.3284271,4 15.5,4 L4.5,4 C3.67157288,4 3,4.67157288 3,5.5 L3,6 Z" id="形状结合" fill="#313131" fill-rule="nonzero"></path>
                                    <path d="M10.5256584,8.34202177 C10.6129822,8.08005011 10.8961422,7.93847012 11.1581139,8.025794 C11.4200855,8.11311789 11.5616655,8.39627788 11.4743416,8.65824953 L11.4743416,8.65824953 L9.47434165,14.6582495 C9.38701776,14.9202212 9.10385778,15.0618012 8.84188612,14.9744773 C8.57991446,14.8871534 8.43833446,14.6039934 8.52565835,14.3420218 L8.52565835,14.3420218 Z M12.8535534,9.28275486 L14.9748737,11.4040752 C15.0725048,11.5017063 15.1213203,11.6296674 15.1213203,11.7576286 C15.1213203,11.8855898 15.0725048,12.0135509 14.9748737,12.111182 L12.8535534,14.2325023 C12.6582912,14.4277645 12.3417088,14.4277645 12.1464466,14.2325023 C11.9511845,14.0372402 11.9511845,13.7206577 12.1464466,13.5253955 L13.9142136,11.7576286 L12.1464466,9.98986164 C11.9511845,9.79459949 11.9511845,9.478017 12.1464466,9.28275486 C12.3417088,9.08749271 12.6582912,9.08749271 12.8535534,9.28275486 Z M7.97487373,9.14658226 C8.17013588,9.34184441 8.17013588,9.6584269 7.97487373,9.85368904 L6.20710678,11.621456 L7.97487373,13.3892229 C8.17013588,13.5844851 8.17013588,13.9010676 7.97487373,14.0963297 C7.77961159,14.2915919 7.4630291,14.2915919 7.26776695,14.0963297 L5.14644661,11.9750094 C5.04881554,11.8773783 5,11.7494172 5,11.621456 C5,11.4934948 5.04881554,11.3655337 5.14644661,11.2679026 L7.26776695,9.14658226 C7.4630291,8.95132011 7.77961159,8.95132011 7.97487373,9.14658226 Z" id="形状结合" fill="#489DFF"></path>
                                </g>
                            </g>
                        </g>
                    </g>
                </g>
            </g>
        </g>
    </g>
</svg>