<?xml version="1.0" encoding="UTF-8"?>
<svg width="16px" height="16px" viewBox="0 0 16 16" version="1.1" xmlns="http://www.w3.org/2000/svg" xmlns:xlink="http://www.w3.org/1999/xlink">
    <title>切片</title>
    <g id="页面-1" stroke="none" stroke-width="1" fill="none" fill-rule="evenodd">
        <g id="表单配置-表单编辑（在线vue表单）" transform="translate(-388.000000, -124.000000)" fill="#909399">
            <g id="Icon-图标/通用/问题-填充" transform="translate(388.000000, 124.000000)">
                <path d="M8,0 C12.418278,0 16,3.581722 16,8 C16,12.418278 12.418278,16 8,16 C3.581722,16 0,12.418278 0,8 C0,3.581722 3.581722,0 8,0 Z M8,1 C4.13400675,1 1,4.13400675 1,8 C1,11.8659932 4.13400675,15 8,15 C11.8659932,15 15,11.8659932 15,8 C15,4.13400675 11.8659932,1 8,1 Z M7.86796875,11.0341846 C8.19491701,11.0341846 8.45996094,11.2992285 8.45996094,11.6261768 C8.45996094,11.8376752 8.34712787,12.0331079 8.16396485,12.1388571 C7.98080183,12.2446063 7.75513567,12.2446063 7.57197265,12.1388571 C7.38880963,12.0331079 7.27597656,11.8376752 7.27597656,11.6261768 C7.27597656,11.2992285 7.54102049,11.0341846 7.86796875,11.0341846 Z M7.94863281,4 C8.6390625,3.99863772 9.30625,4.28301272 9.77792969,4.77930178 C10.2167969,5.24141116 10.4410156,5.83613772 10.4082031,6.45410647 C10.3740234,7.08711428 10.1798828,7.58613772 9.20917969,8.55684084 C8.71699219,9.04902834 8.40664062,9.41816897 8.37519531,9.74219241 C8.35058594,9.99648928 8.1359375,10.1865283 7.88574219,10.1865283 C7.86933594,10.1865283 7.85292969,10.1851612 7.83652344,10.183794 C7.56582031,10.1578174 7.36894531,9.91582522 7.39492187,9.64512209 C7.46191406,8.96289553 7.96230469,8.41191897 8.51328125,7.86094241 C9.39511719,6.97910647 9.41015625,6.69883303 9.42519531,6.40215334 C9.44296875,6.05625491 9.31582031,5.72129397 9.06425781,5.45742678 C8.77851563,5.15664553 8.37382812,4.98437991 7.95410156,4.98437991 L7.95136719,4.98437991 C7.14335938,4.98574709 6.484375,5.64473147 6.484375,6.45410647 C6.484375,6.72617678 6.26425781,6.94629397 5.9921875,6.94629397 C5.72011719,6.94629397 5.5,6.72617678 5.5,6.45410647 C5.5,5.79922366 5.75429688,5.18398928 6.21640625,4.72051272 C6.67851563,4.25703616 7.29375,4.00137209 7.94863281,4 Z" id="形状结合"></path>
            </g>
        </g>
    </g>
</svg>