<?xml version="1.0" standalone="no"?><!DOCTYPE svg PUBLIC "-//W3C//DTD SVG 1.1//EN" "http://www.w3.org/Graphics/SVG/1.1/DTD/svg11.dtd"><svg t="1655101661193" class="icon" viewBox="0 0 1024 1024" version="1.1" xmlns="http://www.w3.org/2000/svg" p-id="15676" xmlns:xlink="http://www.w3.org/1999/xlink" width="16" height="16"><defs><style type="text/css">@font-face { font-family: feedback-iconfont; src: url("//at.alicdn.com/t/font_1031158_u69w8yhxdu.woff2?t=1630033759944") format("woff2"), url("//at.alicdn.com/t/font_1031158_u69w8yhxdu.woff?t=1630033759944") format("woff"), url("//at.alicdn.com/t/font_1031158_u69w8yhxdu.ttf?t=1630033759944") format("truetype"); }
</style></defs><path d="M793.6 665.6a76.8 76.8 0 0 1 0 153.6h-256a76.8 76.8 0 0 1 0-153.6h256z m0-204.8a76.8 76.8 0 0 1 0 153.6h-256a76.8 76.8 0 0 1 0-153.6h256z m-307.2-307.2a76.8 76.8 0 0 1 0 153.6h-256a76.8 76.8 0 0 1 0-153.6h256z" fill="#FF9C3E" p-id="15677"></path><path d="M486.4 153.6a76.8 76.8 0 0 1 0 153.6H358.4v204.8h106.752A76.8 76.8 0 0 1 537.6 460.8h256a76.8 76.8 0 0 1 0 153.6h-256a76.8 76.8 0 0 1-72.3968-51.2H358.4v153.6h106.752a76.8 76.8 0 0 1 72.448-51.2h256a76.8 76.8 0 0 1 0 153.6h-256a76.8 76.8 0 0 1-72.3968-51.2H358.4v128a25.6 25.6 0 1 1-51.2 0V307.2H230.4a76.8 76.8 0 0 1 0-153.6h256z m307.2 563.2h-256a25.6 25.6 0 1 0 0 51.2h256a25.6 25.6 0 1 0 0-51.2z m0-204.8h-256a25.6 25.6 0 1 0 0 51.2h256a25.6 25.6 0 1 0 0-51.2z m-307.2-307.2h-256a25.6 25.6 0 0 0 0 51.2h256a25.6 25.6 0 0 0 0-51.2z" fill="#313131" p-id="15678"></path></svg>