<?xml version="1.0" encoding="UTF-8"?>
<svg width="20px" height="20px" viewBox="0 0 20 20" version="1.1" xmlns="http://www.w3.org/2000/svg" xmlns:xlink="http://www.w3.org/1999/xlink">
    <title>切片</title>
    <g id="页面-1" stroke="none" stroke-width="1" fill="none" fill-rule="evenodd">
        <g id="表单配置-表单编辑（在线vue表单）" transform="translate(-254.000000, -736.000000)" fill-rule="nonzero">
            <g id="控件" transform="translate(226.000000, 219.000000)">
                <g id="编组-10" transform="translate(16.000000, 0.000000)">
                    <g transform="translate(-16.000000, 11.000000)" id="编组-3">
                        <g transform="translate(0.000000, 358.000000)">
                            <g id="编组-6" transform="translate(16.000000, 140.000000)">
                                <g id="下拉框控件" transform="translate(12.000000, 8.000000)">
                                    <path d="M16,2 C17.1045695,2 18,2.8954305 18,4 L18,16 C18,17.1045695 17.1045695,18 16,18 L4,18 C2.8954305,18 2,17.1045695 2,16 L2,4 C2,2.8954305 2.8954305,2 4,2 L16,2 Z M16,3 L4,3 C3.48716416,3 3.06449284,3.38604019 3.00672773,3.88337887 L3,4 L3,16 C3,16.5128358 3.38604019,16.9355072 3.88337887,16.9932723 L4,17 L16,17 C16.5128358,17 16.9355072,16.6139598 16.9932723,16.1166211 L17,16 L17,4 C17,3.48716416 16.6139598,3.06449284 16.1166211,3.00672773 L16,3 Z" id="矩形" fill="#313131"></path>
                                    <path d="M14.1158894,6.1799078 C14.2926714,5.96776935 14.6079538,5.93910732 14.8200922,6.11588936 C15.0086597,6.27302895 15.0522582,6.53960089 14.9354591,6.74589071 L14.8841106,6.8200922 L9.88411064,12.8200922 C9.7168002,13.0208647 9.42835193,13.0554138 9.22030273,12.9145976 L9.14644661,12.8535534 L6.14644661,9.85355339 C5.95118446,9.65829124 5.95118446,9.34170876 6.14644661,9.14644661 C6.32001296,8.97288026 6.58943736,8.95359511 6.7843055,9.08859116 L6.85355339,9.14644661 L9.465,11.758 L14.1158894,6.1799078 Z" id="路径-5" fill="#489DFF"></path>
                                </g>
                            </g>
                        </g>
                    </g>
                </g>
            </g>
        </g>
    </g>
</svg>