<?xml version="1.0" standalone="no"?><!DOCTYPE svg PUBLIC "-//W3C//DTD SVG 1.1//EN" "http://www.w3.org/Graphics/SVG/1.1/DTD/svg11.dtd"><svg t="1655101780293" class="icon" viewBox="0 0 1024 1024" version="1.1" xmlns="http://www.w3.org/2000/svg" p-id="16359" xmlns:xlink="http://www.w3.org/1999/xlink" width="16" height="16"><defs><style type="text/css">@font-face { font-family: feedback-iconfont; src: url("//at.alicdn.com/t/font_1031158_u69w8yhxdu.woff2?t=1630033759944") format("woff2"), url("//at.alicdn.com/t/font_1031158_u69w8yhxdu.woff?t=1630033759944") format("woff"), url("//at.alicdn.com/t/font_1031158_u69w8yhxdu.ttf?t=1630033759944") format("truetype"); }
</style></defs><path d="M844.8 102.4a76.8 76.8 0 0 1 25.6 149.1968v520.8064A76.8 76.8 0 1 1 772.4544 870.4H251.5968A76.8 76.8 0 1 1 153.6 772.352V251.648A76.8 76.8 0 1 1 251.648 153.6h520.704A76.8 76.8 0 0 1 844.8 102.4z m-72.3968 102.4H251.5968c-7.68 21.8112-24.9856 39.1168-46.7456 46.7968v520.8064c21.8112 7.68 39.0656 24.9856 46.7968 46.7968h520.704c7.68-21.8112 25.0368-39.1168 46.848-46.848V251.648A77.0048 77.0048 0 0 1 772.4032 204.8zM691.2 307.2a25.4976 25.4976 0 0 1 25.6 25.6v51.2a25.6 25.6 0 1 1-51.2 0V358.4h-128v358.4h51.2a25.6 25.6 0 1 1 0 51.2h-153.6a25.6 25.6 0 1 1 0-51.2h51.2V358.4H358.4v25.6a25.6 25.6 0 0 1-51.2 0v-51.2a25.6 25.6 0 0 1 25.6-25.6h358.4z" fill="#313131" p-id="16360"></path></svg>