<?xml version="1.0" encoding="UTF-8"?>
<svg width="20px" height="20px" viewBox="0 0 20 20" version="1.1" xmlns="http://www.w3.org/2000/svg" xmlns:xlink="http://www.w3.org/1999/xlink">
    <title>切片</title>
    <g id="页面-1" stroke="none" stroke-width="1" fill="none" fill-rule="evenodd">
        <g id="表单配置-表单编辑（在线vue表单）" transform="translate(-406.000000, -326.000000)">
            <g id="控件" transform="translate(226.000000, 219.000000)">
                <g id="编组-10" transform="translate(16.000000, 0.000000)">
                    <g transform="translate(-16.000000, 11.000000)" id="编组-3">
                        <g id="编组-5" transform="translate(168.000000, 88.000000)">
                            <g id="文本控件" transform="translate(12.000000, 8.000000)">
                                <rect id="矩形" x="0" y="0" width="20" height="20"></rect>
                                <path d="M3.5,5 L16.5,5 C17.3284271,5 18,5.67157288 18,6.5 L18,13.5 C18,14.3284271 17.3284271,15 16.5,15 L3.5,15 C2.67157288,15 2,14.3284271 2,13.5 L2,6.5 C2,5.67157288 2.67157288,5 3.5,5 Z M3.5,6 C3.22385763,6 3,6.22385763 3,6.5 L3,13.5 C3,13.7761424 3.22385763,14 3.5,14 L16.5,14 C16.7761424,14 17,13.7761424 17,13.5 L17,6.5 C17,6.22385763 16.7761424,6 16.5,6 L3.5,6 Z M14.5,7 L16,9 L13,9 L14.5,7 Z M14.5,13 L13,11 L16,11 L14.5,13 Z" id="形状" fill="#313131" fill-rule="nonzero"></path>
                                <rect id="矩形" fill="#489DFF" x="4" y="7" width="1" height="6"></rect>
                            </g>
                        </g>
                    </g>
                </g>
            </g>
        </g>
    </g>
</svg>