<?xml version="1.0" standalone="no"?><!DOCTYPE svg PUBLIC "-//W3C//DTD SVG 1.1//EN" "http://www.w3.org/Graphics/SVG/1.1/DTD/svg11.dtd"><svg t="1655101956937" class="icon" viewBox="0 0 1024 1024" version="1.1" xmlns="http://www.w3.org/2000/svg" p-id="17685" xmlns:xlink="http://www.w3.org/1999/xlink" width="16" height="16"><defs><style type="text/css">@font-face { font-family: feedback-iconfont; src: url("//at.alicdn.com/t/font_1031158_u69w8yhxdu.woff2?t=1630033759944") format("woff2"), url("//at.alicdn.com/t/font_1031158_u69w8yhxdu.woff?t=1630033759944") format("woff"), url("//at.alicdn.com/t/font_1031158_u69w8yhxdu.ttf?t=1630033759944") format("truetype"); }
</style></defs><path d="M672 0L960 288V960a64 64 0 0 1-56.512 63.552L896 1024H128a64 64 0 0 1-63.552-56.512L64 960V64a64 64 0 0 1 56.512-63.552L128 0h544zM640 64H128v896h768V320H639.872L640 64z m32 640a32 32 0 1 1 0 64h-384a32 32 0 1 1 0-64h384z m0-192a32 32 0 1 1 0 64h-384a32 32 0 0 1 0-64h384z m-192-192a32 32 0 0 1 0 64h-192a32 32 0 0 1 0-64h192zM704 128v128h128l-128-128z" p-id="17686"></path></svg>