<?xml version="1.0" encoding="UTF-8"?>
<svg width="20px" height="20px" viewBox="0 0 20 20" version="1.1" xmlns="http://www.w3.org/2000/svg" xmlns:xlink="http://www.w3.org/1999/xlink">
    <title>切片</title>
    <g id="页面-1" stroke="none" stroke-width="1" fill="none" fill-rule="evenodd">
        <g id="表单配置-表单编辑（在线vue表单）" transform="translate(-406.000000, -788.000000)">
            <g id="控件" transform="translate(226.000000, 219.000000)">
                <g id="编组-10" transform="translate(16.000000, 0.000000)">
                    <g transform="translate(-16.000000, 11.000000)" id="编组-3">
                        <g transform="translate(0.000000, 358.000000)">
                            <g id="编组-7" transform="translate(168.000000, 192.000000)">
                                <g id="复选框" transform="translate(12.000000, 8.000000)">
                                    <rect id="矩形" x="0" y="0" width="20" height="20"></rect>
                                    <path d="M3.5,5 L16.5,5 C17.3284271,5 18,5.67157288 18,6.5 L18,13.5 C18,14.3284271 17.3284271,15 16.5,15 L3.5,15 C2.67157288,15 2,14.3284271 2,13.5 L2,6.5 C2,5.67157288 2.67157288,5 3.5,5 Z M3.5,6 C3.22385763,6 3,6.22385763 3,6.5 L3,13.5 C3,13.7761424 3.22385763,14 3.5,14 L16.5,14 C16.7761424,14 17,13.7761424 17,13.5 L17,6.5 C17,6.22385763 16.7761424,6 16.5,6 L3.5,6 Z" id="形状备份" fill="#313131" fill-rule="nonzero"></path>
                                    <path d="M5.73798922,9.1659919 C5.72674004,8.77192785 5.53456948,8.57130008 5.16147176,8.56410256 C4.78649918,8.57130008 4.59526603,8.77192785 4.58776658,9.1659919 L4.58776658,10.8340081 C4.59526603,11.2316709 4.78649918,11.4322987 5.16147176,11.4358974 C5.53456948,11.4322987 5.72674004,11.2316709 5.73798922,10.8340081 L5.73798922,9.1659919 Z M4,9.13090418 C4.00374973,8.76742958 4.12467657,8.48763031 4.36278416,8.29149798 C4.58589284,8.09716502 4.85211938,8 5.16147176,8 C5.48019845,8 5.75111208,8.09716502 5.97422076,8.29149798 C6.20107918,8.48763031 6.31825635,8.76742958 6.3257558,9.13090418 L6.3257558,10.8663968 C6.31825635,11.228072 6.20107918,11.5069716 5.97422076,11.7031039 C5.75111208,11.8974369 5.48019845,11.9964012 5.16147176,12 C4.85211938,11.9964012 4.58589284,11.8974369 4.36278416,11.7031039 C4.12467657,11.5069716 4.00374973,11.228072 4,10.8663968 L4,9.13090418 Z M8.50246075,9.1659919 C8.49121157,8.77192785 8.299041,8.57130008 7.92594329,8.56410256 C7.55097071,8.57130008 7.35973756,8.77192785 7.35223811,9.1659919 L7.35223811,10.8340081 C7.35973756,11.2316709 7.55097071,11.4322987 7.92594329,11.4358974 C8.299041,11.4322987 8.49121157,11.2316709 8.50246075,10.8340081 L8.50246075,9.1659919 Z M6.76447153,9.13090418 C6.76822125,8.76742958 6.88914809,8.48763031 7.12725568,8.29149798 C7.35036437,8.09716502 7.61659091,8 7.92594329,8 C8.24466998,8 8.5155836,8.09716502 8.73869229,8.29149798 C8.9655507,8.48763031 9.08272787,8.76742958 9.09022733,9.13090418 L9.09022733,10.8663968 C9.08272787,11.228072 8.9655507,11.5069716 8.73869229,11.7031039 C8.5155836,11.8974369 8.24466998,11.9964012 7.92594329,12 C7.61659091,11.9964012 7.35036437,11.8974369 7.12725568,11.7031039 C6.88914809,11.5069716 6.76822125,11.228072 6.76447153,10.8663968 L6.76447153,9.13090418 Z M9.70611671,9.17858749 L10.2938833,9.17858749 L10.2938833,9.74269006 L9.70611671,9.74269006 L9.70611671,9.17858749 Z M9.70611671,10.4336482 L10.2938833,10.4336482 L10.2938833,10.9977508 L9.70611671,10.9977508 L9.70611671,10.4336482 Z M12.6477619,9.1659919 C12.6365127,8.77192785 12.4443422,8.57130008 12.0712444,8.56410256 C11.6962719,8.57130008 11.5050387,8.77192785 11.4975393,9.1659919 L11.4975393,10.8340081 C11.5050387,11.2316709 11.6962719,11.4322987 12.0712444,11.4358974 C12.4443422,11.4322987 12.6365127,11.2316709 12.6477619,10.8340081 L12.6477619,9.1659919 Z M10.9097727,9.13090418 C10.9135224,8.76742958 11.0344492,8.48763031 11.2725568,8.29149798 C11.4956655,8.09716502 11.7618921,8 12.0712444,8 C12.3899711,8 12.6608848,8.09716502 12.8839934,8.29149798 C13.1108518,8.48763031 13.228029,8.76742958 13.2355285,9.13090418 L13.2355285,10.8663968 C13.228029,11.228072 13.1108518,11.5069716 12.8839934,11.7031039 C12.6608848,11.8974369 12.3899711,11.9964012 12.0712444,12 C11.7618921,11.9964012 11.4956655,11.8974369 11.2725568,11.7031039 C11.0344492,11.5069716 10.9135224,11.228072 10.9097727,10.8663968 L10.9097727,9.13090418 Z M15.4122334,9.1659919 C15.4009842,8.77192785 15.2088137,8.57130008 14.835716,8.56410256 C14.4607434,8.57130008 14.2695102,8.77192785 14.2620108,9.1659919 L14.2620108,10.8340081 C14.2695102,11.2316709 14.4607434,11.4322987 14.835716,11.4358974 C15.2088137,11.4322987 15.4009842,11.2316709 15.4122334,10.8340081 L15.4122334,9.1659919 Z M13.6742442,9.13090418 C13.6779939,8.76742958 13.7989208,8.48763031 14.0370284,8.29149798 C14.260137,8.09716502 14.5263636,8 14.835716,8 C15.1544427,8 15.4253563,8.09716502 15.648465,8.29149798 C15.8753234,8.48763031 15.9925005,8.76742958 16,9.13090418 L16,10.8663968 C15.9925005,11.228072 15.8753234,11.5069716 15.648465,11.7031039 C15.4253563,11.8974369 15.1544427,11.9964012 14.835716,12 C14.5263636,11.9964012 14.260137,11.8974369 14.0370284,11.7031039 C13.7989208,11.5069716 13.6779939,11.228072 13.6742442,10.8663968 L13.6742442,9.13090418 Z" id="00:00" fill="#B2B2B2" fill-rule="nonzero"></path>
                                    <rect id="矩形" fill="#489DFF" x="6" y="7" width="1" height="6"></rect>
                                </g>
                            </g>
                        </g>
                    </g>
                </g>
            </g>
        </g>
    </g>
</svg>