<?xml version="1.0" encoding="UTF-8"?>
<svg width="20px" height="20px" viewBox="0 0 20 20" version="1.1" xmlns="http://www.w3.org/2000/svg" xmlns:xlink="http://www.w3.org/1999/xlink">
    <title>切片</title>
    <g id="页面-1" stroke="none" stroke-width="1" fill="none" fill-rule="evenodd">
        <g id="表单配置-表单编辑（在线vue表单）" transform="translate(-406.000000, -378.000000)">
            <g id="控件" transform="translate(226.000000, 219.000000)">
                <g id="编组-10" transform="translate(16.000000, 0.000000)">
                    <g transform="translate(-16.000000, 11.000000)" id="编组-3">
                        <g id="编组-6" transform="translate(168.000000, 140.000000)">
                            <g id="下拉框控件" transform="translate(12.000000, 8.000000)">
                                <g id="Tab页签" transform="translate(2.000000, 3.000000)">
                                    <path d="M6,0 L6,3.50044444 L16,3.50044444 L16,13 C16,13.5522847 15.5522847,14 15,14 L1,14 C0.44771525,14 6.76353751e-17,13.5522847 0,13 L0,1 C-6.76353751e-17,0.44771525 0.44771525,1.01453063e-16 1,0 L6,0 Z M5,1.00088889 L1,1.00088889 L1,13.0008889 L15,13.0008889 L15,4.49955556 L5,4.49955556 L5,1.00088889 Z" id="形状结合" fill="#303133"></path>
                                    <path d="M11,0 L10.99921,3 L7,3 L7,0 L11,0 Z M10,1 L8,1 L8,2 L10,2 L10,1 Z" id="形状结合" fill="#409EFF" fill-rule="nonzero"></path>
                                    <path d="M16,0 L15.99921,3 L12,3 L12,0 L16,0 Z M15,1 L13,1 L13,2 L15,2 L15,1 Z" id="形状结合" fill="#409EFF" fill-rule="nonzero"></path>
                                </g>
                            </g>
                        </g>
                    </g>
                </g>
            </g>
        </g>
    </g>
</svg>