<?xml version="1.0" encoding="UTF-8"?>
<svg width="20px" height="20px" viewBox="0 0 20 20" version="1.1" xmlns="http://www.w3.org/2000/svg" xmlns:xlink="http://www.w3.org/1999/xlink">
    <title>切片</title>
    <g id="页面-1" stroke="none" stroke-width="1" fill="none" fill-rule="evenodd">
        <g id="表单配置-表单编辑（在线vue表单）" transform="translate(-406.000000, -944.000000)" fill-rule="nonzero">
            <g id="控件" transform="translate(226.000000, 219.000000)">
                <g id="编组-10" transform="translate(16.000000, 0.000000)">
                    <g transform="translate(-16.000000, 11.000000)" id="编组-3">
                        <g transform="translate(0.000000, 358.000000)">
                            <g id="编组-9" transform="translate(168.000000, 348.000000)">
                                <g id="二维码" transform="translate(12.000000, 8.000000)">
                                    <path d="M16,8 C17.1045695,8 18,8.8954305 18,10 C18,11.1045695 17.1045695,12 16,12 L4,12 C2.8954305,12 2,11.1045695 2,10 C2,8.8954305 2.8954305,8 4,8 L16,8 Z M16,9 L4,9 C3.44771525,9 3,9.44771525 3,10 C3,10.5128358 3.38604019,10.9355072 3.88337887,10.9932723 L4,11 L16,11 C16.5522847,11 17,10.5522847 17,10 C17,9.48716416 16.6139598,9.06449284 16.1166211,9.00672773 L16,9 Z" id="矩形" fill="#313131"></path>
                                    <path d="M9,5 C9.55228475,5 10,5.44771525 10,6 L10,14 C10,14.5522847 9.55228475,15 9,15 L6,15 C5.44771525,15 5,14.5522847 5,14 L5,6 C5,5.44771525 5.44771525,5 6,5 L9,5 Z M9,6 L6,6 L6,14 L9,14 L9,6 Z" id="矩形" fill="#489DFF"></path>
                                    <rect id="矩形" fill="#D7EAFF" x="6" y="6" width="3" height="8"></rect>
                                </g>
                            </g>
                        </g>
                    </g>
                </g>
            </g>
        </g>
    </g>
</svg>