<?xml version="1.0" standalone="no"?><!DOCTYPE svg PUBLIC "-//W3C//DTD SVG 1.1//EN" "http://www.w3.org/Graphics/SVG/1.1/DTD/svg11.dtd"><svg t="1655103191368" class="icon" viewBox="0 0 1024 1024" version="1.1" xmlns="http://www.w3.org/2000/svg" p-id="19705" xmlns:xlink="http://www.w3.org/1999/xlink" width="16" height="16"><defs><style type="text/css">@font-face { font-family: feedback-iconfont; src: url("//at.alicdn.com/t/font_1031158_u69w8yhxdu.woff2?t=1630033759944") format("woff2"), url("//at.alicdn.com/t/font_1031158_u69w8yhxdu.woff?t=1630033759944") format("woff"), url("//at.alicdn.com/t/font_1031158_u69w8yhxdu.ttf?t=1630033759944") format("truetype"); }
</style></defs><path d="M192 320H96a32 32 0 0 1-32-32v-192a32 32 0 0 1 32-32h640a32 32 0 0 1 32 32v192a32 32 0 0 1-32 32H256v192h672a32 32 0 0 1 32 32v384a32 32 0 0 1-32 32h-704a32 32 0 0 1-32-32V320z m704 448H256v128h640v-128z m0-192H256v128h640V576z m-192-448H128v128h576V128z" p-id="19706"></path></svg>