<?xml version="1.0" encoding="UTF-8"?>
<svg width="20px" height="20px" viewBox="0 0 20 20" version="1.1" xmlns="http://www.w3.org/2000/svg" xmlns:xlink="http://www.w3.org/1999/xlink">
    <title>切片</title>
    <g id="页面-1" stroke="none" stroke-width="1" fill="none" fill-rule="evenodd">
        <g id="表单配置-表单编辑（在线vue表单）" transform="translate(-254.000000, -996.000000)">
            <g id="控件" transform="translate(226.000000, 219.000000)">
                <g id="编组-10" transform="translate(16.000000, 0.000000)">
                    <g transform="translate(-16.000000, 11.000000)" id="编组-3">
                        <g transform="translate(0.000000, 358.000000)">
                            <g id="编组-15" transform="translate(16.000000, 400.000000)">
                                <g id="单选按钮列表" transform="translate(12.000000, 8.000000)">
                                    <rect id="矩形" x="0" y="0" width="20" height="20"></rect>
                                    <path d="M16.5,2 C17.3284271,2 18,2.67157288 18,3.5 C18,4.1528467 17.5829319,4.70828193 17.000703,4.91439849 L17.000703,15.0856015 C17.5829319,15.2917181 18,15.8471533 18,16.5 C18,17.3284271 17.3284271,18 16.5,18 C15.8471533,18 15.2917181,17.5829319 15.0856015,17.000703 L4.91439849,17.000703 C4.70828193,17.5829319 4.1528467,18 3.5,18 C2.67157288,18 2,17.3284271 2,16.5 C2,15.8467813 2.41754351,15.2910851 3.00029246,15.0852495 L3.00029246,4.91475048 C2.41754351,4.70891488 2,4.15321869 2,3.5 C2,2.67157288 2.67157288,2 3.5,2 C4.15321869,2 4.70891488,2.41754351 4.91475048,3.00029246 L15.0852495,3.00029246 C15.2910851,2.41754351 15.8467813,2 16.5,2 Z M15.0856015,4.00070296 L4.91439849,4.00070296 C4.76371613,4.42634385 4.42634385,4.76371613 4.00070296,4.91439849 L4.00070296,15.0856015 C4.4266756,15.2364013 4.76424199,15.5741822 4.91475048,16.0002925 L15.0852495,16.0002925 C15.2358752,15.5738503 15.5738503,15.2358752 16.0002925,15.0852495 L16.0002925,4.91475048 C15.5741822,4.76424199 15.2364013,4.4266756 15.0856015,4.00070296 Z" id="形状结合" fill="#313131" fill-rule="nonzero"></path>
                                    <path d="M9.21649485,6 L10.7835052,6 L14,14 L12.5272459,14 L11.7614138,11.9943978 L8.23858616,11.9943978 L7.47275405,14 L6,14 L9.21649485,6 Z M8.65095729,10.9187675 L11.3490427,10.9187675 L10.0294551,7.41176471 L9.98232695,7.41176471 L8.65095729,10.9187675 Z" id="A" fill="#313131" fill-rule="nonzero"></path>
                                </g>
                            </g>
                        </g>
                    </g>
                </g>
            </g>
        </g>
    </g>
</svg>