<?xml version="1.0" encoding="UTF-8"?>
<svg width="20px" height="20px" viewBox="0 0 20 20" version="1.1" xmlns="http://www.w3.org/2000/svg" xmlns:xlink="http://www.w3.org/1999/xlink">
    <title>切片</title>
    <g id="页面-1" stroke="none" stroke-width="1" fill="none" fill-rule="evenodd">
        <g id="表单配置-表单编辑（在线vue表单）" transform="translate(-254.000000, -944.000000)">
            <g id="控件" transform="translate(226.000000, 219.000000)">
                <g id="编组-10" transform="translate(16.000000, 0.000000)">
                    <g transform="translate(-16.000000, 11.000000)" id="编组-3">
                        <g transform="translate(0.000000, 358.000000)">
                            <g id="编组-11" transform="translate(16.000000, 348.000000)">
                                <g id="签名" transform="translate(12.000000, 8.000000)">
                                    <g id="Icon-图标/辅助工具/色彩分析" transform="translate(2.002985, 2.000000)">
                                        <path d="M7.96119403,0 C13.5174129,0 15.921393,4.72636816 15.921393,7.13830846 C15.921393,9.70348259 13.9562189,11.1492537 12.7970149,11.6 C11.9751244,11.918408 10.8248756,11.9452736 9.84875622,11.918408 L9.39900498,11.9054726 C9.41890547,11.9124378 9.1960199,12.0348259 9.1960199,12.4507463 C9.1960199,12.5482587 9.2079602,12.5800995 9.2079602,12.5830846 C9.2238806,12.6049751 9.24776119,12.6248756 9.26865672,12.6467662 L9.3880597,12.7800995 C9.6,13.038806 9.78208955,13.3890547 9.78208955,14.0955224 C9.78208955,14.600995 9.60895522,15.0378109 9.28457711,15.360199 C8.84975124,15.7860697 8.26766169,15.8885572 7.97313433,15.9134328 L7.79402985,15.920398 C2.42189055,15.920398 0,11.2527363 0,7.93631841 C0.000995024876,4.64079602 2.46965174,0 7.96119403,0 Z M7.96119403,0.995024876 C3.75422886,0.995024876 0.9960199,4.32238806 0.9960199,7.93631841 C0.9960199,11.5024876 3.58706468,14.7860697 7.53930348,14.921393 L7.8119403,14.9253731 C8.06467662,14.9253731 8.39502488,14.838806 8.58308458,14.6537313 C8.71542289,14.5233831 8.78706468,14.3412935 8.78706468,14.0965174 C8.78706468,13.7004975 8.74726368,13.5621891 8.6159204,13.4069652 L8.46467662,13.2447761 L8.3960199,13.158209 C8.34880369,13.0912614 8.31003599,13.0187391 8.28059701,12.9422886 L8.24577114,12.8338308 L8.21791045,12.7014925 C8.20598441,12.6184537 8.20032994,12.5346345 8.20099502,12.4507463 C8.20099502,12.0945274 8.28855721,11.7800995 8.44776119,11.518408 L8.51243781,11.4208955 L8.58208955,11.3303483 L8.61791045,11.280597 C8.78468654,11.0630234 9.03778402,10.9286675 9.31144279,10.9124378 L9.4278607,10.9104478 L9.59701493,10.9154229 C10.9323383,10.9641791 11.8427861,10.9024876 12.4358209,10.6726368 C13.7870647,10.1472637 14.9263682,8.82487562 14.9263682,7.13830846 C14.9263682,4.26169154 12.0736318,0.995024876 7.96119403,0.995024876 Z" id="形状结合" fill="#303133"></path>
                                        <path d="M2.98208955,5.97014925 C3.53162662,5.97014925 3.97711443,6.41563706 3.97711443,6.96517413 C3.97711443,7.51471119 3.53162662,7.960199 2.98208955,7.960199 C2.43255249,7.960199 1.98706468,7.51471119 1.98706468,6.96517413 C1.98706468,6.41563706 2.43255249,5.97014925 2.98208955,5.97014925 Z" id="路径" fill="#FF5E5E"></path>
                                        <path d="M12.9323383,5.97014925 C13.4818754,5.97014925 13.9273632,6.41563706 13.9273632,6.96517413 C13.9273632,7.51471119 13.4818754,7.960199 12.9323383,7.960199 C12.3828012,7.960199 11.9373134,7.51471119 11.9373134,6.96517413 C11.9373134,6.41563706 12.3828012,5.97014925 12.9323383,5.97014925 Z" id="路径" fill="#67C23A"></path>
                                        <path d="M5.96716418,2.98507463 C6.51670124,2.98507463 6.96218905,3.43056244 6.96218905,3.9800995 C6.96218905,4.52963657 6.51670124,4.97512438 5.96716418,4.97512438 C5.41762711,4.97512438 4.9721393,4.52963657 4.9721393,3.9800995 C4.9721393,3.43056244 5.41762711,2.98507463 5.96716418,2.98507463 Z" id="路径" fill="#F69E1B"></path>
                                        <path d="M9.94726368,2.98507463 C10.4968007,2.98507463 10.9422886,3.43056244 10.9422886,3.9800995 C10.9422886,4.52963657 10.4968007,4.97512438 9.94726368,4.97512438 C9.39772662,4.97512438 8.95223881,4.52963657 8.95223881,3.9800995 C8.95223881,3.43056244 9.39772662,2.98507463 9.94726368,2.98507463 Z" id="路径" fill="#0172FC" fill-rule="nonzero"></path>
                                    </g>
                                </g>
                            </g>
                        </g>
                    </g>
                </g>
            </g>
        </g>
    </g>
</svg>