<?xml version="1.0" encoding="UTF-8"?>
<svg width="12px" height="12px" viewBox="0 0 12 12" version="1.1" xmlns="http://www.w3.org/2000/svg" xmlns:xlink="http://www.w3.org/1999/xlink">
    <title>海南/icon/账号</title>
    <g id="登录页" stroke="none" stroke-width="1" fill="none" fill-rule="evenodd">
        <g id="首页" transform="translate(-570.000000, -846.000000)" fill="#FFFFFF" fill-rule="nonzero">
            <g id="编组" transform="translate(377.000000, 807.000000)">
                <g id="编组-3" transform="translate(172.000000, 25.000000)">
                    <g id="海南/icon/账号" transform="translate(21.000000, 14.000000)">
                        <path d="M4.64131483,6.89907407 C2.41996303,6.89907407 0.761074988,8.41251421 0.761074988,10.6102491 L0.761074988,10.847005 C0.761074988,11.995821 2.53872649,11.995821 4.78953164,11.995821 L7.18000261,11.995821 C9.34149763,11.995821 11.2084593,11.995821 11.2084593,10.847005 L11.2084593,10.6102491 C11.2084593,8.41251421 9.54957123,6.89907407 7.32821942,6.89907407 L4.64131483,6.89907407 L4.64131483,6.89907407 Z M5.86505356,6.32067022 C7.62465301,6.32067022 9.05646533,4.90413022 9.05646533,3.16192587 C9.05646533,1.42072049 7.62465303,0.00418048828 5.86505356,0.00418048828 C4.1064042,0.00418048828 2.6745919,1.42072049 2.6745919,3.16192587 C2.6745919,4.90413021 4.1064042,6.32067022 5.86505356,6.32067022 Z" id="海南/形状"></path>
                    </g>
                </g>
            </g>
        </g>
    </g>
</svg>