<?xml version="1.0" standalone="no"?><!DOCTYPE svg PUBLIC "-//W3C//DTD SVG 1.1//EN" "http://www.w3.org/Graphics/SVG/1.1/DTD/svg11.dtd"><svg t="1592560725105" class="icon" viewBox="0 0 1024 1024" version="1.1" xmlns="http://www.w3.org/2000/svg" p-id="8716" xmlns:xlink="http://www.w3.org/1999/xlink" width="200" height="200"><defs><style type="text/css"></style></defs><path d="M810.7 426.7c-23.6 0-42.7 19.1-42.7 42.7v213.3c0 46.9-38.4 85.3-85.3 85.3H341.3c-46.9 0-85.3-38.4-85.3-85.3V341.3c0-46.9 38.4-85.3 85.3-85.3h213.3c23.6 0 42.7-19.1 42.7-42.7s-19.1-42.7-42.7-42.7H256c-46.9 0-85.3 38.4-85.3 85.3v512c0 46.9 38.4 85.3 85.3 85.3h512c46.9 0 85.3-38.4 85.3-85.3V469.3c0-23.5-19.1-42.6-42.6-42.6z" p-id="8717" fill="#1e81f1"></path><path d="M469.3 512v42.7H512c11.3 0 22.2-4.5 30.2-12.5L831.4 253c16.7-16.7 16.7-43.7 0-60.3-16.7-16.7-43.7-16.7-60.3 0L481.8 481.8c-8 8-12.5 18.9-12.5 30.2z" p-id="8718" fill="#1e81f1"></path><path d="M384 640m-42.7 0a42.7 42.7 0 1 0 85.4 0 42.7 42.7 0 1 0-85.4 0Z" p-id="8719" fill="#1e81f1"></path></svg>