<?xml version="1.0" standalone="no"?><!DOCTYPE svg PUBLIC "-//W3C//DTD SVG 1.1//EN" "http://www.w3.org/Graphics/SVG/1.1/DTD/svg11.dtd"><svg t="1592789837830" class="icon" viewBox="0 0 1024 1024" version="1.1" xmlns="http://www.w3.org/2000/svg" p-id="2551" xmlns:xlink="http://www.w3.org/1999/xlink" width="200" height="200"><defs><style type="text/css"></style></defs><path d="M482.176 506.98c-3.94 0.667-7.858 1.428-11.75 2.28a245.982 245.982 0 0 0-68.54 26.215c-67.357 38.12-113.481 106.012-123.588 183.107-2.45 18.69 10.716 35.83 29.407 38.28 18.692 2.45 35.83-10.716 38.28-29.407 7.308-55.74 40.75-104.964 89.525-132.568a177.718 177.718 0 0 1 49.534-18.943 180.981 180.981 0 0 1 20.582-3.28l-22.735 26.154c-12.368 14.228-10.86 35.787 3.367 48.155 14.227 12.367 35.787 10.86 48.154-3.368l67.558-77.716c12.367-14.227 10.86-35.786-3.367-48.154l-77.716-67.558c-14.228-12.367-35.787-10.86-48.155 3.368-12.367 14.227-10.86 35.786 3.368 48.154l6.076 5.282z m222.157 321.405a3.282 3.282 0 0 1-3.282 3.282H195.615a3.282 3.282 0 0 1-3.282-3.282V322.949a3.282 3.282 0 0 1 3.282-3.282h505.436a3.282 3.282 0 0 1 3.282 3.282v505.436z m85.334-505.436c0-48.941-39.675-88.616-88.616-88.616H195.615c-48.94 0-88.615 39.675-88.615 88.616v505.436c0 48.94 39.674 88.615 88.615 88.615h505.436c48.941 0 88.616-39.674 88.616-88.615V322.949zM363 191.667h469.333V661c0 23.564 19.103 42.667 42.667 42.667s42.667-19.103 42.667-42.667V191.667c0-47.129-38.205-85.334-85.334-85.334H363c-23.564 0-42.667 19.103-42.667 42.667s19.103 42.667 42.667 42.667z" p-id="2552" fill="#1e81f1"></path></svg>