<?xml version="1.0" standalone="no"?><!DOCTYPE svg PUBLIC "-//W3C//DTD SVG 1.1//EN" "http://www.w3.org/Graphics/SVG/1.1/DTD/svg11.dtd"><svg t="1592560441182" class="icon" viewBox="0 0 1024 1024" version="1.1" xmlns="http://www.w3.org/2000/svg" p-id="2136" xmlns:xlink="http://www.w3.org/1999/xlink" width="200" height="200"><defs><style type="text/css"></style></defs><path d="M135.63636347 500.34090869v309.19090957c0 43.52727305 35.30454521 78.83181826 78.83181827 78.83181827h595.06363652a78.83181826 78.83181826 0 0 0 78.83181826-78.83181827V214.46818174A78.83181826 78.83181826 0 0 0 809.53181826 135.63636347h-284.27727305a32.72727305 32.72727305 0 0 1 0-65.45454521h284.27727305A144.28636348 144.28636348 0 0 1 953.81818174 214.46818174v595.06363652a144.28636348 144.28636348 0 0 1-144.28636348 144.28636348H214.46818174A144.28636348 144.28636348 0 0 1 70.18181826 809.53181826v-309.19090957a32.72727305 32.72727305 0 1 1 65.45454522 0z" p-id="2137" fill="#1e81f1"></path><path d="M101.15 176.50454521l15.13636347 0.81818174a423.9 423.9 0 0 1 396.24545479 358.56818174 32.72727305 32.72727305 0 0 0 64.67727305-9.98181738A489.35454521 489.35454521 0 0 0 119.84545479 111.95l-15.17727305-0.81818174A32.72727305 32.72727305 0 0 0 101.15 176.54545479z" p-id="2138" fill="#1e81f1"></path><path d="M542.96818174 525.54090869l-139.90909043-76.45909043a32.72727305 32.72727305 0 0 0-31.37727305 57.43636348l149.89090869 81.94090957a53.18181826 53.18181826 0 0 0 70.15909131-17.79545479l93.68181827-144.81818173a32.72727305 32.72727305 0 0 0-54.98181827-35.59090958l-87.46363652 135.28636348z" p-id="2139" fill="#1e81f1"></path></svg>