<?xml version="1.0" standalone="no"?><!DOCTYPE svg PUBLIC "-//W3C//DTD SVG 1.1//EN" "http://www.w3.org/Graphics/SVG/1.1/DTD/svg11.dtd"><svg t="1583804513923" class="icon" viewBox="0 0 1024 1024" version="1.1" xmlns="http://www.w3.org/2000/svg" p-id="9715" xmlns:xlink="http://www.w3.org/1999/xlink" width="200" height="200"><defs><style type="text/css"></style></defs><path d="M875.52 1024H148.48c-81.92 0-148.48-66.56-148.48-148.48V148.48C0 66.56 66.56 0 148.48 0h406.528a34.304 34.304 0 0 1 0 68.608H148.48c-44.032 0-79.872 35.84-79.872 79.872v727.04c0 44.032 35.84 79.872 79.872 79.872h727.04c44.032 0 79.872-35.84 79.872-79.872V473.6a34.304 34.304 0 0 1 68.608 0V875.52c0 81.92-66.56 148.48-148.48 148.48z" fill="#4dc689" p-id="9716"></path><path d="M389.12 666.624c-8.704 0-17.408-3.584-24.064-10.24a33.9968 33.9968 0 0 1 0-48.128L945.664 27.648c13.312-13.312 34.816-13.312 48.128 0s13.312 34.816 0 48.128L413.184 656.384c-6.656 6.656-15.36 10.24-24.064 10.24z" fill="#4dc689" p-id="9717"></path></svg>