<?xml version="1.0" standalone="no"?><!DOCTYPE svg PUBLIC "-//W3C//DTD SVG 1.1//EN" "http://www.w3.org/Graphics/SVG/1.1/DTD/svg11.dtd"><svg t="1583804367903" class="icon" viewBox="0 0 1024 1024" version="1.1" xmlns="http://www.w3.org/2000/svg" p-id="5496" xmlns:xlink="http://www.w3.org/1999/xlink" width="200" height="200"><defs><style type="text/css"></style></defs><path d="M828.235 788.704H722.824v67.745c22.693 5.878 39.528 26.311 39.528 50.841 0 29.109-23.596 52.71-52.705 52.71-29.109 0-52.707-23.6-52.707-52.71 0-24.532 16.837-44.963 39.531-50.841v-67.745H327.53v67.745c22.693 5.878 39.528 26.311 39.528 50.841 0 29.109-23.596 52.71-52.705 52.71-29.109 0-52.707-23.6-52.707-52.71 0-24.532 16.837-44.963 39.531-50.841v-67.745H195.765c-29.109 0-52.707-23.595-52.707-52.705V287.997c0-29.105 23.598-52.705 52.707-52.705h105.412v-67.747c-22.694-5.877-39.531-26.309-39.531-50.84 0-29.109 23.598-52.706 52.707-52.706 29.108 0 52.705 23.596 52.705 52.706 0 24.531-16.836 44.963-39.528 50.84v67.747h368.941v-67.747c-22.694-5.877-39.531-26.309-39.531-50.84 0-29.109 23.598-52.706 52.707-52.706 29.108 0 52.705 23.596 52.705 52.706 0 24.531-16.836 44.963-39.528 50.84v67.747h105.411c29.109 0 52.707 23.599 52.707 52.705V736c0 29.109-23.598 52.704-52.707 52.704z m-144.94 118.587c0 14.557 11.798 26.354 26.353 26.354 14.555 0 26.352-11.797 26.352-26.354 0-14.552-11.797-26.35-26.352-26.35s-26.353 11.798-26.353 26.35z m-395.295 0c0 14.557 11.798 26.354 26.353 26.354 14.555 0 26.352-11.797 26.352-26.354 0-14.552-11.797-26.35-26.352-26.35-14.554 0-26.353 11.798-26.353 26.35z m52.705-790.586c0-14.557-11.797-26.356-26.352-26.356S288 102.147 288 116.705c0 14.552 11.798 26.354 26.353 26.354 14.555 0 26.352-11.802 26.352-26.354z m395.294 0c0-14.557-11.797-26.356-26.352-26.356s-26.353 11.798-26.353 26.356c0 14.552 11.798 26.354 26.353 26.354 14.555 0 26.352-11.802 26.352-26.354z m118.589 171.292c0-14.552-11.798-26.35-26.353-26.35h-632.47c-14.555 0-26.354 11.798-26.354 26.35V736c0 14.552 11.8 26.35 26.354 26.35h632.47c14.555 0 26.353-11.798 26.353-26.35V287.997z m-158.117 382.12H327.53c-14.555 0-26.353-11.798-26.353-26.354v-263.53c0-14.552 11.798-26.354 26.353-26.354h368.941c14.555 0 26.353 11.802 26.353 26.354v263.529c0 14.557-11.798 26.355-26.353 26.355z m0-276.706c0-7.276-5.9-13.178-13.176-13.178h-342.59c-7.277 0-13.175 5.902-13.175 13.178v237.174c0 7.281 5.898 13.178 13.175 13.178h342.59c7.276 0 13.176-5.896 13.176-13.178V393.411z" fill="#4dc689" p-id="5497"></path></svg>