<?xml version="1.0" standalone="no"?><!DOCTYPE svg PUBLIC "-//W3C//DTD SVG 1.1//EN" "http://www.w3.org/Graphics/SVG/1.1/DTD/svg11.dtd"><svg t="1583805505936" class="icon" viewBox="0 0 1024 1024" version="1.1" xmlns="http://www.w3.org/2000/svg" p-id="1307" xmlns:xlink="http://www.w3.org/1999/xlink" width="200" height="200"><defs><style type="text/css"></style></defs><path d="M274 809c-96.8 0-176-66.8-176-148.5S177.2 512 274 512s176 66.8 176 148.5S370.8 809 274 809z m523.5-420C729.6 389 674 340.4 674 281s55.6-108 123.5-108S921 221.6 921 281s-55.6 108-123.5 108zM756 960c-50.6 0-92-31.5-92-70s41.4-70 92-70 92 31.5 92 70-41.4 70-92 70z" fill="#4dc689" fill-opacity=".15" p-id="1308"></path><path d="M797.5 325c54 0 98.5-44.5 98.5-98.5S851.5 128 797.5 128 699 172.5 699 226.5s44.5 98.5 98.5 98.5z m0 64C708.1 389 635 315.9 635 226.5S708.1 64 797.5 64 960 137.1 960 226.5 886.9 389 797.5 389zM756 896c31.2 0 57-25.8 57-57s-25.8-57-57-57-57 25.8-57 57 25.8 57 57 57z m0 64c-66.5 0-121-54.5-121-121s54.5-121 121-121 121 54.5 121 121-54.5 121-121 121zM274 745c80.2 0 146-65.8 146-146s-65.8-146-146-146-146 65.8-146 146 65.8 146 146 146z m0 64c-115.5 0-210-94.5-210-210s94.5-210 210-210 210 94.5 210 210-94.5 210-210 210z" fill="#4dc689" p-id="1309"></path><path d="M426.6 497.2l-35.2-53.4 277.2-182.5 35.2 53.4zM403.2 682.7l32.5-55.1 256.1 150.9-32.5 55.2z" fill="#4dc689" p-id="1310"></path></svg>