<?xml version="1.0" standalone="no"?><!DOCTYPE svg PUBLIC "-//W3C//DTD SVG 1.1//EN" "http://www.w3.org/Graphics/SVG/1.1/DTD/svg11.dtd"><svg t="1583804390373" class="icon" viewBox="0 0 1024 1024" version="1.1" xmlns="http://www.w3.org/2000/svg" p-id="6315" xmlns:xlink="http://www.w3.org/1999/xlink" width="200" height="200"><defs><style type="text/css"></style></defs><path d="M512.512 6.144C231.936 6.144 4.096 233.984 4.096 514.56s227.84 508.416 508.416 508.416 508.416-227.84 508.416-508.416-227.84-508.416-508.416-508.416z m0 915.968c-225.792 0-408.576-182.272-408.576-407.552S286.72 105.472 512.512 105.472 921.6 288.768 921.6 514.56c-1.024 225.792-183.296 407.552-409.088 407.552z" p-id="6316" fill="#4dc689"></path><path d="M239.104 515.584c0 154.624 125.44 279.552 279.552 279.552s279.552-125.44 279.552-279.552-125.44-279.552-279.552-279.552-279.552 124.928-279.552 279.552z" p-id="6317" fill="#4dc689"></path></svg>