<?xml version="1.0" standalone="no"?><!DOCTYPE svg PUBLIC "-//W3C//DTD SVG 1.1//EN" "http://www.w3.org/Graphics/SVG/1.1/DTD/svg11.dtd"><svg t="1583804302611" class="icon" viewBox="0 0 1024 1024" version="1.1" xmlns="http://www.w3.org/2000/svg" p-id="3596" xmlns:xlink="http://www.w3.org/1999/xlink" width="200" height="200"><defs><style type="text/css"></style></defs><path d="M909.189818 116.363636 114.810182 116.363636C78.255192 116.363636 48.613495 146.000162 48.613495 182.555152l0 661.990141c0 36.560162 29.636525 66.191515 66.196687 66.191515l794.379636 0c36.55499 0 66.196687-29.631354 66.196687-66.191515L975.386505 182.555152C975.386505 145.99499 945.744808 116.363636 909.189818 116.363636L909.189818 116.363636zM809.891556 182.560323c18.278141 0 33.095111 14.818263 33.095111 33.101576 0 18.276848-14.81697 33.095111-33.095111 33.095111-18.283313 0-33.101576-14.818263-33.101576-33.095111C776.78998 197.378586 791.608242 182.560323 809.891556 182.560323L809.891556 182.560323zM677.491717 182.560323c18.283313 0 33.101576 14.818263 33.101576 33.101576 0 18.276848-14.818263 33.095111-33.101576 33.095111-18.276848 0-33.095111-14.818263-33.095111-33.095111C644.396606 197.378586 659.214869 182.560323 677.491717 182.560323L677.491717 182.560323zM545.098343 182.560323c18.278141 0 33.101576 14.818263 33.101576 33.101576 0 18.276848-14.823434 33.095111-33.101576 33.095111-18.278141 0-33.101576-14.818263-33.101576-33.095111C511.996768 197.378586 526.820202 182.560323 545.098343 182.560323L545.098343 182.560323zM909.189818 811.44501c0 18.276848-14.813091 33.095111-33.091232 33.095111L147.901414 844.540121c-18.27297 0-33.091232-14.813091-33.091232-33.095111L114.810182 315.989333l794.379636 0L909.189818 811.44501 909.189818 811.44501zM256.901818 768.651636c12.929293 12.924121 33.88897 12.918949 46.813091-0.005172l165.288081-165.288081c6.489212-6.489212 9.721535-14.999273 9.69697-23.509333 0.024566-8.506182-3.207758-17.016242-9.69697-23.505455l-165.288081-165.288081c-12.924121-12.924121-33.883798-12.929293-46.813091-0.005172-12.929293 12.929293-12.924121 33.883798 0.005172 46.813091l141.984323 141.985616-141.984323 141.989495C243.977697 734.767838 243.972525 755.722343 256.901818 768.651636L256.901818 768.651636zM445.800081 745.241859c0 18.288485 14.818263 33.101576 33.101576 33.101576l264.793212 0c18.287192 0 33.095111-14.818263 33.095111-33.101576 0-18.28202-14.818263-33.095111-33.095111-33.095111L478.901657 712.146747C460.613172 712.146747 445.800081 726.96501 445.800081 745.241859L445.800081 745.241859zM445.800081 745.241859" p-id="3597" fill="#4dc689"></path></svg>