<?xml version="1.0" encoding="UTF-8"?>
<svg width="14px" height="14px" viewBox="0 0 14 14" version="1.1" xmlns="http://www.w3.org/2000/svg" xmlns:xlink="http://www.w3.org/1999/xlink">
    <title>海南/icon/操作图标/保存</title>
    <g id="统计分析" stroke="none" stroke-width="1" fill="none" fill-rule="evenodd">
        <g id="统计分析-查看报告" transform="translate(-262.000000, -167.000000)">
            <g id="按钮/主按钮/有图标-36备份" transform="translate(242.000000, 156.000000)">
                <g id="海南/icon/操作图标/保存" transform="translate(20.000000, 11.000000)">
                    <path d="M6.58060222,0.764137301 L6.61060222,0.764137301 L6.58060222,0.764137301 Z" id="海南/路径" fill="#FFFFFF" fill-rule="nonzero"></path>
                    <path d="M4,8 C4,9.65685425 5.34314575,11 7,11 C8.65685425,11 10,9.65685425 10,8 L14,8 L14,13 C14,13.5522847 13.5522847,14 13,14 L1,14 C0.44771525,14 6.76353751e-17,13.5522847 0,13 L0,8 L4,8 Z M8.6645554,1.0658141e-14 L8.6645554,5.4410588 L10.2190123,5.4410588 L7.1089343,8.55230102 L4,5.4410588 L5.55445694,5.4410588 L5.55445694,1.0658141e-14 L8.6645554,1.0658141e-14 Z" id="海南/形状结合" fill="#1E81F1"></path>
                </g>
            </g>
        </g>
    </g>
</svg>