<?xml version="1.0" standalone="no"?><!DOCTYPE svg PUBLIC "-//W3C//DTD SVG 1.1//EN" "http://www.w3.org/Graphics/SVG/1.1/DTD/svg11.dtd"><svg t="1595406857905" class="icon" viewBox="0 0 1024 1024" version="1.1" xmlns="http://www.w3.org/2000/svg" p-id="8655" xmlns:xlink="http://www.w3.org/1999/xlink" width="200" height="200"><defs><style type="text/css"></style></defs><path d="M219.456 73.152v73.152A146.304 146.304 0 0 0 365.696 292.48h292.608a146.304 146.304 0 0 0 146.24-146.24V73.152h146.304c40.384 0 73.152 32.768 73.152 73.152v804.544c0 40.384-32.768 73.152-73.152 73.152H73.152A73.152 73.152 0 0 1 0 950.848V146.304c0-40.384 32.768-73.152 73.152-73.152h146.304zM608 832h-384a32 32 0 1 0 0 64h384a32 32 0 1 0 0-64z m192-192h-576a32 32 0 1 0 0 64h576a32 32 0 1 0 0-64z m0-192h-576a32 32 0 0 0 0 64h576a32 32 0 1 0 0-64z m-141.696-448c37.504 0 68.416 28.224 72.64 64.64l0.512 8.512v73.152c0 37.504-28.288 68.416-64.64 72.64l-8.512 0.512H365.696a73.152 73.152 0 0 1-73.152-73.152V73.152C292.544 32.768 325.312 0 365.696 0h292.608z" p-id="8656" fill="#1E81F1"></path></svg>