<?xml version="1.0" standalone="no"?><!DOCTYPE svg PUBLIC "-//W3C//DTD SVG 1.1//EN" "http://www.w3.org/Graphics/SVG/1.1/DTD/svg11.dtd"><svg t="1589953461172" class="icon" viewBox="0 0 1024 1024" version="1.1" xmlns="http://www.w3.org/2000/svg" p-id="13121" xmlns:xlink="http://www.w3.org/1999/xlink" width="200" height="200"><defs><style type="text/css"></style></defs><path d="M512 0a512 512 0 1 1 0 1024A512 512 0 0 1 512 0z m0 73.143a438.857 438.857 0 1 0 0 877.714 438.857 438.857 0 0 0 0-877.714z m-6.583 183.442L512 256a36.571 36.571 0 0 1 35.986 29.989l0.585 6.582V475.43H731.43a36.571 36.571 0 0 1 35.986 29.988L768 512a36.571 36.571 0 0 1-29.989 35.986l-6.582 0.585H548.57V731.43a36.571 36.571 0 0 1-29.988 35.986L512 768a36.571 36.571 0 0 1-35.986-29.989l-0.585-6.582V548.57H292.57a36.571 36.571 0 0 1-35.986-29.988L256 512a36.571 36.571 0 0 1 29.989-35.986l6.582-0.585H475.43V292.57a36.571 36.571 0 0 1 29.988-35.986L512 256z" fill="#1e81f1" p-id="13122"></path></svg>