<?xml version="1.0" standalone="no"?><!DOCTYPE svg PUBLIC "-//W3C//DTD SVG 1.1//EN" "http://www.w3.org/Graphics/SVG/1.1/DTD/svg11.dtd"><svg t="1592210063277" class="icon" viewBox="0 0 1024 1024" version="1.1" xmlns="http://www.w3.org/2000/svg" p-id="9643" xmlns:xlink="http://www.w3.org/1999/xlink" width="200" height="200"><defs><style type="text/css"></style></defs><path d="M512 150.41m-85.3 0a85.3 85.3 0 1 0 170.6 0 85.3 85.3 0 1 0-170.6 0Z" p-id="9644" fill="#1E81F1"></path><path d="M317.11 395.17l71.54-71.55 114-114 26.12-26.12c8.87-8.87 9.53-25.12 0-33.87s-24.4-9.46-33.87 0l-71.54 71.54-114 114-26.12 26.13c-8.87 8.87-9.53 25.12 0 33.87s24.4 9.46 33.87 0z" p-id="9645" fill="#1E81F1"></path><path d="M495.29 183.51l71.81 71.8 113.63 113.63L707 395.17c8.87 8.87 25.12 9.53 33.87 0s9.46-24.4 0-33.87L669 289.5 555.38 175.87l-26.22-26.23c-8.87-8.87-25.12-9.53-33.87 0s-9.46 24.4 0 33.87z" p-id="9646" fill="#1E81F1"></path><path d="M899.13 344.63H124.87A59.87 59.87 0 0 0 65 404.5V899a59.86 59.86 0 0 0 59.87 59.87h774.26A59.86 59.86 0 0 0 959 899V404.5a59.87 59.87 0 0 0-59.87-59.87zM201.31 516h299.33c13.42 0 23.36 11 23.94 23.94s-11.42 23.95-23.94 23.95H201.31c-13.43 0-23.37-11-23.95-23.95S188.78 516 201.31 516z m399.1 271.27h-0.68c-16.19 0.39-32.43 0-48.62 0h-349.8c-13.43 0-23.37-11-23.95-23.94s11.42-24 23.95-24h0.69c16.19-0.39 32.43 0 48.62 0h349.8c13.43 0 23.37 11 24 24s-11.48 23.98-24.01 23.98zM800 675.62h-1.06c-24.07 0.47-48.21 0-72.29 0H201.31c-13.43 0-23.37-11-23.95-23.94s11.42-23.95 23.95-23.95h1.05c24.08-0.47 48.21 0 72.29 0H800c13.42 0 23.36 11 23.94 23.95s-11.45 23.94-23.94 23.94z" p-id="9647" fill="#1E81F1"></path></svg>