<?xml version="1.0" encoding="UTF-8"?>
<svg width="16px" height="16px" viewBox="0 0 16 16" version="1.1" xmlns="http://www.w3.org/2000/svg" xmlns:xlink="http://www.w3.org/1999/xlink">
    <title>海南/icon/操作/办结-填充</title>
    <g id="统计分析" stroke="none" stroke-width="1" fill="none" fill-rule="evenodd">
        <g id="统计分析-统计报告-上传报告" transform="translate(-819.000000, -706.000000)" fill="#20B86B" fill-rule="nonzero">
            <g id="编组-20" transform="translate(804.000000, 650.000000)">
                <g id="编组-27" transform="translate(15.000000, 55.000000)">
                    <g id="海南/icon/操作/办结-填充" transform="translate(0.000000, 1.000000)">
                        <path d="M8,0 C12.4617143,0 16,3.54742857 16,8 C16,12.4525714 12.4525714,16 8,16 C3.54742857,16 0,12.4525714 0,8 C0,3.54742857 3.53828571,0 8,0 Z M12.0018321,4.85927783 L6.90742857,9.20457143 L5.14548216,7.13813377 C4.78291303,6.76031667 4.26615389,6.65778509 3.92139806,7.00254092 C3.56031667,7.34965839 3.45778509,7.86641754 3.80254092,8.21117337 L5.94723375,10.9291139 L6.06565893,11.0364531 C6.250073,11.1720701 6.46482928,11.2662857 6.62857143,11.2662857 C6.91604544,11.2662857 7.04302319,11.2511886 7.17835788,11.1559067 L7.24750336,11.1012824 L7.28774479,11.0637448 L7.28774479,11.0637448 L12.9837692,6.2804871 C13.327263,5.93838572 13.4442209,5.48180014 13.2003629,5.14717249 L13.1248094,5.0591118 C12.8030235,4.72445436 12.3419867,4.61041123 12.0018321,4.85927783 Z" id="海南/形状结合"></path>
                    </g>
                </g>
            </g>
        </g>
    </g>
</svg>