<?xml version="1.0" standalone="no"?><!DOCTYPE svg PUBLIC "-//W3C//DTD SVG 1.1//EN" "http://www.w3.org/Graphics/SVG/1.1/DTD/svg11.dtd"><svg t="1593762284397" class="icon" viewBox="0 0 1024 1024" version="1.1" xmlns="http://www.w3.org/2000/svg" p-id="10098" xmlns:xlink="http://www.w3.org/1999/xlink" width="200" height="200"><defs><style type="text/css"></style></defs><path d="M826.368 0c56.064 0 101.76 45.888 101.76 102.336v238.72a39.424 39.424 0 0 1-39.36 39.616 39.424 39.424 0 0 1-39.36-39.552V102.336a23.488 23.488 0 0 0-23.04-23.232H101.76a23.488 23.488 0 0 0-23.04 23.232V921.6c0 12.608 10.496 23.232 23.04 23.232h248c21.76 0 39.36 17.728 39.36 39.552a39.424 39.424 0 0 1-39.36 39.552H101.76C45.632 1024 0 978.112 0 921.664V102.4C0 45.888 45.632 0 101.76 0h724.608z m47.104 409.216l133.312 119.424c21.44 19.2 23.04 52.672 3.648 74.688l-81.216 92.544a39.168 39.168 0 0 1-33.28 13.184l-2.368 0.192a39.104 39.104 0 0 1-28.16-12.032l-110.272-114.304-216.96 244.992 0.32 5.696 2.048 96.128 83.648-9.6a100.48 100.48 0 0 0 3.968-4.288l0.32-0.32 165.952-183.424a39.168 39.168 0 0 1 55.552-2.624c16.064 14.72 17.28 39.68 2.624 55.872l-165.824 183.232a153.6 153.6 0 0 1-16.96 16.64c-15.488 12.544-29.248 15.168-40 13.824l-166.08 19.2-3.84-181.248c-6.784-21.504 3.456-43.648 15.872-57.6l323.456-365.12a53.376 53.376 0 0 1 34.88-17.856 51.648 51.648 0 0 1 39.36 12.8zM499.712 592c21.76 0 39.36 17.664 39.36 39.552a39.424 39.424 0 0 1-39.36 39.552h-232.32a39.424 39.424 0 0 1-39.296-39.552c0-21.888 17.6-39.552 39.36-39.552h232.32z m341.312-105.92l-33.472 37.632 87.872 91.072 39.296-44.8-93.696-83.904zM612.8 394.24c21.76 0 39.36 17.728 39.36 39.552a39.424 39.424 0 0 1-39.36 39.552H266.24a39.424 39.424 0 0 1-39.296-39.552c0-21.824 17.6-39.552 39.296-39.552h346.624z m54.08-193.728c21.76 0 39.36 17.728 39.36 39.552a39.424 39.424 0 0 1-39.36 39.552H265.92a39.424 39.424 0 0 1-39.36-39.552c0-21.824 17.6-39.552 39.36-39.552h400.96z" p-id="10099" fill="#f2a81b"></path></svg>