<?xml version="1.0" standalone="no"?><!DOCTYPE svg PUBLIC "-//W3C//DTD SVG 1.1//EN" "http://www.w3.org/Graphics/SVG/1.1/DTD/svg11.dtd"><svg t="1595492016450" class="icon" viewBox="0 0 1024 1024" version="1.1" xmlns="http://www.w3.org/2000/svg" p-id="11837" xmlns:xlink="http://www.w3.org/1999/xlink" width="200" height="200"><defs><style type="text/css"></style></defs><path d="M971.264 1022.336h-255.488a51.072 51.072 0 0 1-51.136-51.072v-306.56a51.072 51.072 0 0 0-51.072-51.136H230.4a51.072 51.072 0 0 0-51.072 51.072v306.56c0 28.288-22.912 51.2-51.136 51.2H51.52a51.072 51.072 0 0 1-51.136-51.2V536.96a102.208 102.208 0 0 1 102.208-102.144h153.28V358.08H51.52a51.072 51.072 0 0 1-51.136-51.072V51.52c0-28.224 22.912-51.136 51.136-51.136H511.36c28.224 0 51.136 22.912 51.136 51.136v255.488a51.072 51.072 0 0 1-51.136 51.072H332.544v76.672h357.696V319.744a38.336 38.336 0 0 1 76.608 0v115.008h76.672V217.536a38.336 38.336 0 0 1 76.608 0v217.216a102.208 102.208 0 0 1 102.208 102.144v434.368c0 28.16-22.848 51.072-51.072 51.072zM485.76 307.008a25.6 25.6 0 0 0 25.6-25.6V77.056a25.6 25.6 0 0 0-25.6-25.6H77.056a25.6 25.6 0 0 0-25.6 25.6v204.352a25.6 25.6 0 0 0 25.6 25.6H485.76zM102.592 128.128a25.6 25.6 0 0 1 25.6-25.536h306.56a25.6 25.6 0 0 1 25.536 25.6v102.144a25.6 25.6 0 0 1-25.6 25.6h-306.56a25.6 25.6 0 0 1-25.536-25.6V128.128z" p-id="11838" fill="#1E81F1"></path></svg>