<?xml version="1.0" standalone="no"?><!DOCTYPE svg PUBLIC "-//W3C//DTD SVG 1.1//EN" "http://www.w3.org/Graphics/SVG/1.1/DTD/svg11.dtd"><svg t="1595923312116" class="icon" viewBox="0 0 1024 1024" version="1.1" xmlns="http://www.w3.org/2000/svg" p-id="12477" xmlns:xlink="http://www.w3.org/1999/xlink" width="200" height="200"><defs><style type="text/css"></style></defs><path d="M959.99832 843.900835L816.894857 1023.99616v-180.095325H959.99832zM876.414633 0A83.711686 83.711686 0 0 1 959.99832 83.199688v678.141457h-195.967265a28.095895 28.095895 0 0 0-27.967895 27.711896V1023.99616H148.097365A83.711686 83.711686 0 0 1 64.00168 940.796472V83.199688C64.12968 37.119861 101.761538 0 148.097365 0zM498.56005 820.348924H186.881219c-25.471904 0-42.495841 16.895937-42.49584 42.111842 0 25.279905 17.023936 42.175842 42.49584 42.175842h311.678831c25.535904 0 42.495841-16.895937 42.495841-42.175842 0-25.215905-16.959936-42.111842-42.495841-42.111842z m-159.359402-152.319429H186.881219c-25.471904 0-42.495841 16.831937-42.49584 42.111842 0 25.215905 17.023936 42.111842 42.49584 42.111842H339.200648c25.471904 0 42.495841-16.895937 42.495841-42.111842 0-25.279905-17.023936-42.175842-42.495841-42.175842z m343.038714-553.213926c-25.535904 0-51.007809 4.223984-72.255729 12.671953-148.735442 50.55981-175.103343 246.399076-175.103344 246.399076H307.392767l195.839266 215.039194 197.695259-215.039194H573.43977c0-126.399526 10.111962-137.727484 19.519926-157.951408 12.799952-29.503889 42.495841-79.9997 89.279666-101.119621z" p-id="12478" fill="#F2A81B"></path></svg>