<?xml version="1.0" standalone="no"?><!DOCTYPE svg PUBLIC "-//W3C//DTD SVG 1.1//EN" "http://www.w3.org/Graphics/SVG/1.1/DTD/svg11.dtd"><svg t="1606351818281" class="icon" viewBox="0 0 1024 1024" version="1.1" xmlns="http://www.w3.org/2000/svg" p-id="34747" xmlns:xlink="http://www.w3.org/1999/xlink" width="200" height="200"><defs><style type="text/css"></style></defs><path d="M532.48 0h69.248v94.784c123.52 0.64 247.104-1.28 371.328 0.64a40.448 40.448 0 0 1 44.928 44.992c1.92 233.408 0 466.944 1.152 700.352-1.152 23.936 2.24 50.432-11.264 71.68-16.96 12.352-38.72 11.2-58.496 11.2H601.984v94.784H529.408C353.152 985.984 176.576 955.776 0 924.16V95.04C177.472 63.232 355.072 32.32 532.48 0z" fill="#20B86B" p-id="34748"></path><path d="M601.728 130.304h381.888v758.272H601.728v-94.72h300.928v-47.424H601.728v-59.2h300.928v-46.976H601.728V580.48h300.928v-47.36H601.728v-59.2h300.928v-47.104H601.728v-59.52h300.928V320H601.728v-59.328h300.928v594.176H601.728z" fill="#FFFFFF" p-id="34749"></path><path d="M866.88 640v-48H640v-96h226.88V448L960 544z" fill="#20B86B" p-id="34750"></path><path d="M209.344 640l78.976-118.208L366.656 640H448L325.952 469.76 434.048 320H353.28L288.32 417.792 222.72 320H141.952l108.096 149.76L128 640z" fill="#FFFFFF" p-id="34751"></path></svg>