<?xml version="1.0" standalone="no"?><!DOCTYPE svg PUBLIC "-//W3C//DTD SVG 1.1//EN" "http://www.w3.org/Graphics/SVG/1.1/DTD/svg11.dtd"><svg t="1583498509022" class="icon" viewBox="0 0 1024 1024" version="1.1" xmlns="http://www.w3.org/2000/svg" p-id="7318" xmlns:xlink="http://www.w3.org/1999/xlink" width="200" height="200"><defs><style type="text/css"></style></defs><path d="M768 192V0H128a64 64 0 0 0-64 64v896a64 64 0 0 0 64 64h768a64 64 0 0 0 64-64V192h-192z" fill="#8697CB" p-id="7319"></path><path d="M960 192h-192V0" fill="#A2B0DD" opacity=".5" p-id="7320"></path><path d="M218.368 635.776c17.728 0 31.936-1.728 42.496-5.248 14.208-4.736 25.472-11.328 33.792-19.712 11.008-11.2 19.52-25.728 25.472-43.776 4.864-14.72 7.296-32.32 7.296-52.672 0-23.168-2.56-42.688-7.808-58.496a109.184 109.184 0 0 0-22.72-40.128 79.104 79.104 0 0 0-35.84-22.784c-10.368-3.2-25.472-4.736-45.248-4.736H128v247.552h90.368z m-6.464-41.728h-35.84V430.08h21.568c19.584 0 32.704 0.832 39.424 2.368 8.96 2.048 16.384 5.952 22.208 11.648 5.824 5.76 10.368 13.76 13.632 24 3.2 10.24 4.864 24.96 4.864 44.096 0 19.136-1.6 34.24-4.864 45.312-3.2 11.072-7.424 19.072-12.544 23.872a43.776 43.776 0 0 1-19.392 10.304 125.888 125.888 0 0 1-29.056 2.368z m242.112 41.728l47.168-185.088 47.36 185.088h51.008l57.728-247.552h-48.32l-36.48 172.928-41.728-172.928H473.6l-43.52 170.048-35.84-170.048h-49.152l56.832 247.552h52.096zM794.24 640c19.584 0 38.912-3.84 58.048-11.52 19.072-7.744 33.664-16.64 43.712-26.816v-98.56h-103.552v41.6h55.04v31.488c-7.232 5.824-15.936 10.816-26.048 14.912a79.872 79.872 0 0 1-30.272 6.144 61.76 61.76 0 0 1-49.28-22.016c-12.608-14.72-18.88-36.736-18.88-66.112 0-27.264 6.208-47.808 18.56-61.632 12.416-13.824 29.12-20.736 50.112-20.736 13.824 0 25.408 3.52 34.624 10.496a52.48 52.48 0 0 1 18.88 28.8l47.744-9.28a87.808 87.808 0 0 0-32-53.44c-16.64-12.864-39.68-19.328-69.248-19.328-22.72 0-41.728 4.096-56.96 12.352-20.032 10.688-35.2 26.048-45.632 46.08a147.2 147.2 0 0 0-15.552 68.736c0 23.744 4.672 45.696 13.952 65.92 9.28 20.224 23.232 35.776 41.728 46.592 18.496 10.88 40.192 16.32 65.024 16.32z" fill="#FFFFFF" p-id="7321"></path></svg>