<?xml version="1.0" standalone="no"?><!DOCTYPE svg PUBLIC "-//W3C//DTD SVG 1.1//EN" "http://www.w3.org/Graphics/SVG/1.1/DTD/svg11.dtd"><svg t="1606351828460" class="icon" viewBox="0 0 1024 1024" version="1.1" xmlns="http://www.w3.org/2000/svg" p-id="34875" xmlns:xlink="http://www.w3.org/1999/xlink" width="200" height="200"><defs><style type="text/css"></style></defs><path d="M532.48 0h69.248v94.784c123.52 0.64 247.104-1.28 371.328 0.64a40.448 40.448 0 0 1 44.928 44.992c1.92 233.408 0 466.944 1.152 700.352-1.152 23.936 2.24 50.432-11.264 71.68-16.96 12.352-38.72 11.2-58.496 11.2H601.984v94.784H529.408C353.152 985.984 176.576 955.776 0 924.16V95.04C177.472 63.232 355.072 32.32 532.48 0z" fill="#2B89F7" p-id="34876"></path><path d="M601.728 130.304h381.888v758.272H601.728v-94.72h300.928v-47.424H601.728v-59.2h300.928v-46.976H601.728V580.48h300.928v-47.36H601.728v-59.2h300.928v-47.104H601.728v-59.52h300.928V320H601.728v-59.328h300.928v594.176H601.728z" fill="#FFFFFF" p-id="34877"></path><path d="M866.88 640v-48H640v-96h226.88V448L960 544z" fill="#2B89F7" p-id="34878"></path><path d="M281.408 384h45.184l57.152 170.752 38.4-170.752H480l-68.864 256h-52.992l-52.992-178.88L249.792 640h-52.992L128 384h57.92l38.4 170.752z" fill="#FCFCFC" p-id="34879"></path></svg>