<?xml version="1.0" standalone="no"?><!DOCTYPE svg PUBLIC "-//W3C//DTD SVG 1.1//EN" "http://www.w3.org/Graphics/SVG/1.1/DTD/svg11.dtd"><svg t="1576207477187" class="icon" viewBox="0 0 1024 1024" version="1.1" xmlns="http://www.w3.org/2000/svg" p-id="2577" xmlns:xlink="http://www.w3.org/1999/xlink" width="200" height="200"><defs><style type="text/css"></style></defs><path d="M0 63.985643m127.971286 0l767.827719 0q127.971286 0 127.971287 127.971287l0 511.885145q0 127.971286-127.971287 127.971287l-767.827719 0q-127.971286 0-127.971286-127.971287l0-511.885145q0-127.971286 127.971286-127.971287Z" fill="#E1F1FF" p-id="2578"></path><path d="M895.799005 63.985643a127.971286 127.971286 0 0 1 127.971287 127.971287v511.885145a127.971286 127.971286 0 0 1-127.971287 127.971287H127.971286a127.971286 127.971286 0 0 1-127.971286-127.971287V191.95693a127.971286 127.971286 0 0 1 127.971286-127.971287h767.827719z m0 63.985643H127.971286a63.985643 63.985643 0 0 0-63.537743 56.499323L63.985643 191.95693v511.885145a63.985643 63.985643 0 0 0 56.499323 63.537744L127.971286 767.827719h767.827719a63.985643 63.985643 0 0 0 63.537744-56.499323L959.784648 703.842075V191.95693a63.985643 63.985643 0 0 0-56.499323-63.537744L895.799005 127.971286z" fill="#96ADC0" p-id="2579"></path><path d="M515.532327 767.827719a26.106142 26.106142 0 0 1 13.884885 5.758708l3.96711 3.903124 162.075634 189.077576a37.495587 37.495587 0 0 1 0 47.349375 25.658243 25.658243 0 0 1-36.535802 3.839139l-3.96711-3.839139L511.885146 846.849988l-143.071898 167.002529a25.8502 25.8502 0 0 1-40.502913 0 37.495587 37.495587 0 0 1 0-47.349376l162.075635-189.077576A27.001941 27.001941 0 0 1 508.237964 767.827719h7.294363z m-4.478995-767.827719c18.427865 0 33.528477 14.204813 33.528477 31.480936v65.009414c0 17.276124-15.100612 31.480936-33.528477 31.480936-18.427865 0-33.528477-14.204813-33.528477-31.480936V31.480936c0-17.276124 15.100612-31.480936 33.528477-31.480936z" fill="#96ADC0" p-id="2580"></path><path d="M463.320043 447.899503a45.813721 45.813721 0 0 0 29.817309 42.422481c18.171923 7.166392 39.031242 3.263268 52.980113-9.789803a43.894151 43.894151 0 0 0 10.621617-49.908802A48.629089 48.629089 0 0 0 511.885146 402.341725c-12.797129 0-25.210343 4.734938-34.296305 13.309013A44.406036 44.406036 0 0 0 463.320043 447.899503z" fill="#7AB5E7" p-id="2581"></path><path d="M528.201485 255.942573c27.513827 0 49.908802 21.051277 50.036773 47.029448V307.131087c0 6.846464 3.839139 13.181043 10.173717 16.636268 6.334579 3.391239 14.076842 3.391239 20.347435 0l3.839138-2.047541a51.892357 51.892357 0 0 1 68.336667 17.212138l16.188368 26.2981c6.654507 10.877559 8.446105 23.674688 4.99088 35.703988a47.349376 47.349376 0 0 1-23.290774 28.537597l-3.839139 2.047541a18.875765 18.875765 0 0 0-10.109731 16.508296c0 6.846464 3.839139 13.117057 10.173717 16.508296l3.775153 2.04754 6.398564 4.223053c8.190162 6.206607 14.076842 14.716698 16.828224 24.314544a44.597993 44.597993 0 0 1-4.99088 35.640004l-16.188367 26.362085a51.892357 51.892357 0 0 1-68.464639 17.212138l-3.711167-2.047541a21.43519 21.43519 0 0 0-20.347435 0 19.003736 19.003736 0 0 0-10.237702 16.508296v4.095081c0 26.042157-22.458961 47.093433-50.100759 47.029448h-32.376736c-27.577812 0-49.972787-20.987291-50.100758-47.029448V588.667918a19.003736 19.003736 0 0 0-10.173718-16.636268 21.43519 21.43519 0 0 0-20.347434 0l-3.839139 2.047541a51.892357 51.892357 0 0 1-68.336667-17.212138l-16.188367-26.298099a44.534008 44.534008 0 0 1-4.990881-35.703989 47.349376 47.349376 0 0 1 23.290775-28.537597l3.839138-2.047541A18.875765 18.875765 0 0 0 358.831487 447.899503a18.875765 18.875765 0 0 0-10.173717-16.508296l-3.775153-2.047541a47.349376 47.349376 0 0 1-23.226789-28.473611 44.534008 44.534008 0 0 1 4.862909-35.576018l16.316339-26.362085a51.508443 51.508443 0 0 1 64.497529-19.195693 30.137238 30.137238 0 0 1 3.583196 1.791598l4.031095 2.239498c7.038421 3.839139 15.86844 3.327253 22.394975-1.279713a18.299894 18.299894 0 0 0 8.190163-15.356555v-4.095081c0.127971-26.042157 22.522946-47.093433 50.164744-47.029447z m-15.86844 115.622057c-44.725965 0-81.005824 34.040362-81.06981 76.142916-0.127971 42.102553 35.959931 76.398858 80.621911 76.526829 44.78995 0.063986 81.197781-34.104348 81.261767-76.334872 0-42.102553-36.151888-76.270887-80.813868-76.334873z" fill="#3E8DCF" p-id="2582"></path></svg>