<?xml version="1.0" encoding="UTF-8"?>
<svg width="16px" height="16px" viewBox="0 0 16 16" version="1.1" xmlns="http://www.w3.org/2000/svg" xmlns:xlink="http://www.w3.org/1999/xlink">
    <title>海南/icon/操作图标/流程</title>
    <g id="海南/icon/操作图标/流程" stroke="none" stroke-width="1" fill="none" fill-rule="evenodd">
        <path d="M15.3846202,15 L13.2307596,15 C12.8909003,15 12.6153798,14.7213776 12.6153798,14.3777919 L12.6153798,12.5110882 C12.6153798,12.1674549 12.8909003,11.8888959 13.2307596,11.8888959 L13.8461394,11.8888959 L13.8461394,9.08889593 C13.8461394,8.74523096 13.5706502,8.46667195 13.2307596,8.46667195 L8.30767425,8.46667195 L8.30767425,11.8888959 L8.92308535,11.8888959 C9.26294461,11.8888959 9.53846515,12.1674549 9.53846515,12.5110882 L9.53846515,14.3778077 C9.53846515,14.7213934 9.26294461,15 8.92308535,15 L6.7692404,15 C6.42934985,15 6.1538606,14.7213934 6.1538606,14.3778077 L6.1538606,12.5110882 C6.1538606,12.1674549 6.42934985,11.8888959 6.7692404,11.8888959 L7.3846202,11.8888959 L7.3846202,8.46667195 L2.7692404,8.46667195 C2.42938114,8.46667195 2.1538606,8.74523096 2.1538606,9.08889593 L2.1538606,11.8888959 L2.7692404,11.8888959 C3.10909966,11.8888959 3.3846202,12.1674549 3.3846202,12.5110882 L3.3846202,14.3778077 C3.3846202,14.7213934 3.10909966,15 2.7692404,15 L0.615379801,15 C0.275520542,15 0,14.7213934 0,14.3778077 L0,12.5110882 C0,12.1674549 0.275520542,11.8888959 0.615379801,11.8888959 L1.2307596,11.8888959 L1.2307596,8.77776016 C1.2307596,8.09047778 1.78181633,7.5333122 2.46156614,7.5333122 L7.3846202,7.5333122 L7.3846202,4.11113577 L6.7692404,4.11113577 C6.42934985,4.11113577 6.1538606,3.8325292 6.1538606,3.48888008 L6.1538606,1.62222398 C6.1538606,1.27855901 6.42934985,1 6.7692404,1 L8.92310099,1 C9.26296025,1 9.5384808,1.27855901 9.5384808,1.62222398 L9.5384808,3.48886423 C9.5384808,3.8325292 9.26296025,4.11111992 8.92310099,4.11111992 L8.3076899,4.11111992 L8.3076899,7.5333122 L13.5384808,7.5333122 C14.2181837,7.5333122 14.7692404,8.09047778 14.7692404,8.77776016 L14.7692404,11.8888801 L15.3846202,11.8888801 C15.7244795,11.8888801 16,12.1674391 16,12.5110724 L16,14.3777919 C16,14.7213934 15.7244638,15 15.3846202,15 Z" id="路径" fill="#1E81F1"></path>
    </g>
</svg>