<?xml version="1.0" encoding="UTF-8"?>
<svg width="16px" height="16px" viewBox="0 0 16 16" version="1.1" xmlns="http://www.w3.org/2000/svg" xmlns:xlink="http://www.w3.org/1999/xlink">
    <title>海南/icon/操作图标/卡片</title>
    <g id="海南/icon/操作图标/卡片" stroke="none" stroke-width="1" fill="none" fill-rule="evenodd">
        <path d="M11.4285714,0 C12.6909366,0 13.7142857,1.02334914 13.7142857,2.28571429 L13.7142857,3.42857143 C14.9766509,3.42857143 16,4.45192057 16,5.71428571 L16,13.7142857 C16,14.9766509 14.9766509,16 13.7142857,16 L4.57142857,16 C3.30906343,16 2.28571429,14.9766509 2.28571429,13.7142857 L2.28571429,12.5714286 C1.02334914,12.5714286 0,11.5480794 0,10.2857143 L0,2.28571429 C0,1.02334914 1.02334914,0 2.28571429,0 L11.4285714,0 Z M13.7142857,4.57142857 L4.57142857,4.57142857 C3.98533047,4.57142857 3.50227753,5.01261736 3.43626026,5.58100443 L3.42857143,5.71428571 L3.42857143,13.7142857 C3.42857143,14.3003838 3.86976022,14.7834368 4.43814729,14.849454 L4.57142857,14.8571429 L13.7142857,14.8571429 C14.3003838,14.8571429 14.7834368,14.4159541 14.849454,13.847567 L14.8571429,13.7142857 L14.8571429,5.71428571 C14.8571429,5.12818761 14.4159541,4.64513467 13.847567,4.57911741 L13.7142857,4.57142857 Z M11.4285714,1.14285714 L2.28571429,1.14285714 C1.69961618,1.14285714 1.21656324,1.58404593 1.15054598,2.152433 L1.14285714,2.28571429 L1.14285714,10.2857143 C1.14285714,10.8718124 1.58404593,11.3548653 2.152433,11.4208826 L2.28571429,11.4285714 L2.28571429,5.71428571 C2.28571429,4.45192057 3.30906343,3.42857143 4.57142857,3.42857143 L12.571,3.428 L12.5714286,2.28571429 C12.5714286,1.69961618 12.1302398,1.21656324 11.5618527,1.15054598 L11.4285714,1.14285714 Z M13.1537357,10.2857143 C13.4633189,10.2857143 13.7142857,10.5366811 13.7142857,10.8462643 L13.7142857,10.8680214 C13.7142857,11.1776046 13.4633189,11.4285714 13.1537357,11.4285714 L9.70340714,11.4285714 C9.39382393,11.4285714 9.14285714,11.1776046 9.14285714,10.8680214 L9.14285714,10.8462643 C9.14285714,10.5366811 9.39382393,10.2857143 9.70340714,10.2857143 L13.1537357,10.2857143 Z M13.1537357,6.85714286 C13.4633189,6.85714286 13.7142857,7.10810964 13.7142857,7.41769286 L13.7142857,7.43945 C13.7142857,7.74903322 13.4633189,8 13.1537357,8 L7.41769286,8 C7.10810964,8 6.85714286,7.74903322 6.85714286,7.43945 L6.85714286,7.41769286 C6.85714286,7.10810964 7.10810964,6.85714286 7.41769286,6.85714286 L13.1537357,6.85714286 Z" id="形状结合" fill="#1E81F1"></path>
    </g>
</svg>