<?xml version="1.0" encoding="UTF-8"?>
<svg width="21px" height="21px" viewBox="0 0 21 21" version="1.1" xmlns="http://www.w3.org/2000/svg" xmlns:xlink="http://www.w3.org/1999/xlink">
    <title>icon/操作图标/受理备份 5</title>
    <g id="web-会议管理" stroke="none" stroke-width="1" fill="none" fill-rule="evenodd">
        <g id="议题管理-议题详情-现场议题（待提交）-办理流程" transform="translate(-545.000000, -336.000000)" fill="#C1C5CA">
            <g id="编组-7" transform="translate(315.000000, 321.000000)">
                <g id="编组-5" transform="translate(198.000000, 0.000000)">
                    <g id="编组-15" transform="translate(17.000000, 0.000000)">
                        <g id="海南/icon/操作图标/审核-填充" transform="translate(15.000000, 15.000000)">
                            <path d="M12.1428571,4.28571429 C16.4822373,4.28571429 20,7.80347697 20,12.1428571 C20,14.0554139 19.3166554,15.8083669 18.1808019,17.1708804 L20.8009431,19.7907906 C21.079889,20.0697365 21.079889,20.5219972 20.8009431,20.8009431 C20.5219972,21.079889 20.0697365,21.079889 19.7907906,20.8009431 L17.1708804,18.1808019 C15.8083669,19.3166554 14.0554139,20 12.1428571,20 C7.80347697,20 4.28571429,16.4822373 4.28571429,12.1428571 C4.28571429,7.80347697 7.80347697,4.28571429 12.1428571,4.28571429 Z M18.5714286,6.03961325e-14 C19.3604068,6.03961325e-14 20,0.639593215 20,1.42857143 L20.0015043,7.19426043 C18.3570345,4.58822981 15.4521043,2.85714286 12.1428571,2.85714286 C7.01449875,2.85714286 2.85714286,7.01449875 2.85714286,12.1428571 C2.85714286,15.4521043 4.58822981,18.3570345 7.19426043,20.0015043 L1.42857143,20 C0.639593215,20 -2.0250468e-13,19.3604068 -2.0250468e-13,18.5714286 L-2.0250468e-13,1.42857143 C-2.0250468e-13,0.639593215 0.639593215,6.03961325e-14 1.42857143,6.03961325e-14 L18.5714286,6.03961325e-14 Z M12.1428571,5.71428571 C8.59245518,5.71428571 5.71428571,8.59245518 5.71428571,12.1428571 C5.71428571,15.6932591 8.59245518,18.5714286 12.1428571,18.5714286 C15.6932591,18.5714286 18.5714286,15.6932591 18.5714286,12.1428571 C18.5714286,8.59245518 15.6932591,5.71428571 12.1428571,5.71428571 Z M13.7857143,14.2857143 C14.0618567,14.2857143 14.2857143,14.5095719 14.2857143,14.7857143 L14.2857143,15.2142857 C14.2857143,15.4904281 14.0618567,15.7142857 13.7857143,15.7142857 L10.5,15.7142857 C10.2238576,15.7142857 10,15.4904281 10,15.2142857 L10,14.7857143 C10,14.5095719 10.2238576,14.2857143 10.5,14.2857143 L13.7857143,14.2857143 Z M15.2142857,11.4285714 C15.4904281,11.4285714 15.7142857,11.6524291 15.7142857,11.9285714 L15.7142857,12.3571429 C15.7142857,12.6332852 15.4904281,12.8571429 15.2142857,12.8571429 L9.07142857,12.8571429 C8.7952862,12.8571429 8.57142857,12.6332852 8.57142857,12.3571429 L8.57142857,11.9285714 C8.57142857,11.6524291 8.7952862,11.4285714 9.07142857,11.4285714 L15.2142857,11.4285714 Z M12.1428571,6.42857143 C14.2017252,6.42857143 16.0701332,7.52716747 17.085952,9.27435987 C17.2842316,9.61539776 17.1685032,10.052601 16.8274653,10.2508806 C16.4864275,10.4491603 16.0492242,10.3334319 15.8509446,9.992394 C15.0883347,8.68071698 13.6876629,7.85714286 12.1428571,7.85714286 C11.748368,7.85714286 11.4285714,7.53734625 11.4285714,7.14285714 C11.4285714,6.74836804 11.748368,6.42857143 12.1428571,6.42857143 Z" id="海南/形状结合"></path>
                        </g>
                    </g>
                </g>
            </g>
        </g>
    </g>
</svg>