<?xml version="1.0" standalone="no"?><!DOCTYPE svg PUBLIC "-//W3C//DTD SVG 1.1//EN" "http://www.w3.org/Graphics/SVG/1.1/DTD/svg11.dtd"><svg t="1576223870907" class="icon" viewBox="0 0 1024 1024" version="1.1" xmlns="http://www.w3.org/2000/svg" p-id="2757" xmlns:xlink="http://www.w3.org/1999/xlink" width="200" height="200"><defs><style type="text/css"></style></defs><path d="M256 0m32 0l0 0q32 0 32 32l0 128q0 32-32 32l0 0q-32 0-32-32l0-128q0-32 32-32Z" fill="#6D8AEF" p-id="2758"></path><path d="M704 0m32 0l0 0q32 0 32 32l0 128q0 32-32 32l0 0q-32 0-32-32l0-128q0-32 32-32Z" fill="#6D8AEF" p-id="2759"></path><path d="M224 128v32a64 64 0 1 0 128 0V128h320v32a64 64 0 0 0 128 0V128H960a64 64 0 0 1 64 64v768a64 64 0 0 1-64 64H64a64 64 0 0 1-64-64V192a64 64 0 0 1 64-64h160zM960 384H64v576h896V384z" fill="#6D8AEF" p-id="2760"></path><path d="M64 320h896v640H64z" fill="#E8EBFF" p-id="2761"></path><path d="M512 384a256 256 0 1 1 0 512 256 256 0 0 1 0-512z m0 64a192 192 0 1 0 0 384 192 192 0 0 0 0-384z" fill="#BBACFF" p-id="2762"></path><path d="M480 512a32 32 0 0 1 32 32V640h96a32 32 0 1 1 0 64h-128a32 32 0 0 1-32-32v-128a32 32 0 0 1 32-32z" fill="#4F77E2" p-id="2763"></path></svg>