<?xml version="1.0" standalone="no"?><!DOCTYPE svg PUBLIC "-//W3C//DTD SVG 1.1//EN" "http://www.w3.org/Graphics/SVG/1.1/DTD/svg11.dtd"><svg t="1590630236083" class="icon" viewBox="0 0 1024 1024" version="1.1" xmlns="http://www.w3.org/2000/svg" p-id="22411" xmlns:xlink="http://www.w3.org/1999/xlink" width="200" height="200"><defs><style type="text/css"></style></defs><path d="M259.282147 413.343433l100.903328 100.611067-206.04445 205.825253a42.231806 42.231806 0 0 0-7.306541 47.711712l2.922617 4.822317 4.383924 4.895382 91.770152 91.770152a42.304871 42.304871 0 0 0 47.784777 7.306541l4.749251-2.995682 4.895383-4.383924 206.190581-206.04445 100.830262 100.538001-206.336711 206.190581c-34.413807 34.340742-80.518079 53.410813-129.325772 53.410813a182.152062 182.152062 0 0 1-107.040822-34.486873l-11.6174-9.06011-10.740615-9.86383-91.843218-91.770152A181.932865 181.932865 0 0 1 0.04608 748.494459c0-38.50547 11.836596-75.403501 34.559938-106.967757l8.987045-11.6174 9.86383-10.740615 205.825254-205.825254zM62.443938 10.753036L1012.001978 960.530272a36.532704 36.532704 0 1 1-51.657243 51.657244L10.71363 62.483345A36.532704 36.532704 0 0 1 62.443938 10.753036zM857.030248 35.887536l10.66755 8.548653 10.009961 9.279307 91.843217 91.770152c34.340742 34.340742 53.410813 80.518079 53.410813 129.325772 0 38.432405-11.836596 75.330435-34.559938 106.967757l-8.987045 11.544334-9.86383 10.740615-204.217815 204.363946-100.903328-100.611067 204.437011-204.071684a42.231806 42.231806 0 0 0 7.306541-47.711711l-2.922616-4.822317-4.383925-4.822317-91.843217-91.770152a41.20889 41.20889 0 0 0-47.346385-7.744933l-5.114578 3.287943-5.114579 4.383925-204.437011 204.29088-100.830263-100.538001L618.910084 53.64243a183.174977 183.174977 0 0 1 238.19323-17.827959z" fill="#1E81F1" p-id="22412"></path></svg>