<?xml version="1.0" standalone="no"?><!DOCTYPE svg PUBLIC "-//W3C//DTD SVG 1.1//EN" "http://www.w3.org/Graphics/SVG/1.1/DTD/svg11.dtd"><svg t="1577324324865" class="icon" viewBox="0 0 1024 1024" version="1.1" xmlns="http://www.w3.org/2000/svg" p-id="3680" xmlns:xlink="http://www.w3.org/1999/xlink" width="200" height="200"><defs><style type="text/css"></style></defs><path d="M236.397714 354.962286l70.875429 70.875428-142.043429 21.723429 173.348572 177.737143-40.96 250.806857L512 757.686857l214.308571 118.418286-6.144-37.302857 93.257143 93.257143 14.994286 91.940571L512 849.115429 195.584 1024 256 653.531429 0 391.168l236.397714-36.205714z m1.828572-205.019429l672.402285 672.402286a36.571429 36.571429 0 0 1-51.712 51.712L186.514286 201.654857a36.571429 36.571429 0 0 1 51.712-51.712zM512 0l158.208 337.115429L1024 391.168 806.107429 614.4l-55.734858-55.808 108.324572-111.030857-239.542857-36.571429L512 182.637714l-43.958857 93.696-58.368-58.368L512 0z" fill="#F2A81B" p-id="3681"></path></svg>