<?xml version="1.0" standalone="no"?><!DOCTYPE svg PUBLIC "-//W3C//DTD SVG 1.1//EN" "http://www.w3.org/Graphics/SVG/1.1/DTD/svg11.dtd"><svg t="1595303692550" class="icon" viewBox="0 0 1024 1024" version="1.1" xmlns="http://www.w3.org/2000/svg" p-id="9748" xmlns:xlink="http://www.w3.org/1999/xlink" width="200" height="200"><defs><style type="text/css"></style></defs><path d="M731.455543 36.928617A36.415977 36.415977 0 0 0 694.847566 0.00064a36.415977 36.415977 0 0 0-36.543977 36.927977v100.927937h73.151954V36.928617z m-365.759772 0A36.415977 36.415977 0 0 0 329.151794 0.00064a36.415977 36.415977 0 0 0-36.607977 36.927977v100.927937h73.151954V36.928617z m511.99968 100.927937H731.519543v110.719931a36.415977 36.415977 0 0 1-36.607977 36.991977 36.415977 36.415977 0 0 1-36.543977-36.927977V137.856554H365.695771v110.719931a36.415977 36.415977 0 0 1-36.543977 36.991977 36.415977 36.415977 0 0 1-36.607977-36.927977V137.856554H146.303909C65.855959 137.856554 0 204.288512 0 285.568462v590.71963C0 957.568042 65.855959 1024 146.303909 1024h731.391542C958.143401 1024 1023.99936 957.568042 1023.99936 876.288092v-590.71963c0-81.279949-65.855959-147.711908-146.303909-147.711908zM329.151794 802.432138H255.99984a36.415977 36.415977 0 0 1-36.543977-36.863976c0-20.735987 16.06399-36.927977 36.543977-36.927977h73.151954c20.479987 0 36.543977 16.19199 36.543977 36.927977a36.415977 36.415977 0 0 1-36.543977 36.863976z m0-147.647907H255.99984a36.415977 36.415977 0 0 1-36.543977-36.927977c0-20.671987 16.06399-36.927977 36.543977-36.927977h73.151954c20.479987 0 36.543977 16.25599 36.543977 36.927977a36.415977 36.415977 0 0 1-36.543977 36.927977z m219.391863 147.647907H475.519703a36.415977 36.415977 0 0 1-36.607977-36.863976c0-20.735987 16.12799-36.927977 36.607977-36.927977H548.479657c20.479987 0 36.607977 16.19199 36.607977 36.927977a36.415977 36.415977 0 0 1-36.607977 36.863976z m0-147.647907H475.519703a36.415977 36.415977 0 0 1-36.607977-36.927977c0-20.671987 16.12799-36.927977 36.607977-36.927977H548.479657c20.479987 0 36.607977 16.25599 36.607977 36.927977a36.415977 36.415977 0 0 1-36.607977 36.927977zM767.99952 802.432138h-73.151954a36.415977 36.415977 0 0 1-36.543977-36.863976c0-20.735987 16.06399-36.927977 36.543977-36.927977H767.99952c20.479987 0 36.543977 16.19199 36.543977 36.927977a36.415977 36.415977 0 0 1-36.543977 36.863976z m0-147.647907h-73.151954a36.415977 36.415977 0 0 1-36.543977-36.927977c0-20.671987 16.06399-36.927977 36.543977-36.927977H767.99952c20.479987 0 36.543977 16.25599 36.543977 36.927977a36.415977 36.415977 0 0 1-36.543977 36.927977z m146.303909-221.567862H109.695931a36.415977 36.415977 0 0 1-36.543977-36.927977c0-20.671987 16.06399-36.927977 36.543977-36.927977h804.607498c20.479987 0 36.543977 16.25599 36.543977 36.927977a36.415977 36.415977 0 0 1-36.543977 36.927977z" fill="#A8E6C7" p-id="9749"></path><path d="M703.99956 704.0002m-255.99984 0a255.99984 255.99984 0 1 0 511.99968 0 255.99984 255.99984 0 1 0-511.99968 0Z" fill="#FFFFFF" p-id="9750"></path><path d="M703.99956 384.0004a319.9998 319.9998 0 1 1 0 639.9996 319.9998 319.9998 0 0 1 0-639.9996z m0 63.99996a255.99984 255.99984 0 1 0 0 511.99968 255.99984 255.99984 0 0 0 0-511.99968z m-63.99996 95.99994a31.99998 31.99998 0 1 1 63.99996 0V704.0002h159.9999a31.99998 31.99998 0 1 1 0 63.99996H639.9996V544.0003z" fill="#20B86B" p-id="9751"></path></svg>