<?xml version="1.0" standalone="no"?><!DOCTYPE svg PUBLIC "-//W3C//DTD SVG 1.1//EN" "http://www.w3.org/Graphics/SVG/1.1/DTD/svg11.dtd"><svg t="1576629863181" class="icon" viewBox="0 0 1024 1024" version="1.1" xmlns="http://www.w3.org/2000/svg" p-id="2833" xmlns:xlink="http://www.w3.org/1999/xlink" width="200" height="200"><defs><style type="text/css"></style></defs><path d="M914.285714 0a109.714286 109.714286 0 0 1 109.202286 99.181714L1024 109.714286v804.571428a109.714286 109.714286 0 0 1-99.181714 109.202286L914.285714 1024h-804.571428a109.714286 109.714286 0 0 1-109.202286-99.181714L0 914.285714v-804.571428A109.714286 109.714286 0 0 1 99.181714 0.512L109.714286 0h804.571428z m-292.571428 658.285714h-365.714286a36.571429 36.571429 0 0 0 0 73.142857h365.714286a36.571429 36.571429 0 0 0 0-73.142857z m146.285714-219.428571h-512a36.571429 36.571429 0 0 0 0 73.142857h512a36.571429 36.571429 0 1 0 0-73.142857z m0-219.428572h-512a36.571429 36.571429 0 0 0 0 73.142858h512a36.571429 36.571429 0 1 0 0-73.142858z" fill="#20B86B" p-id="2834"></path></svg>