<?xml version="1.0" encoding="UTF-8"?>
<svg width="16px" height="16px" viewBox="0 0 16 16" version="1.1" xmlns="http://www.w3.org/2000/svg" xmlns:xlink="http://www.w3.org/1999/xlink">
    <title>海南/icon/公告</title>
    <g id="海南/icon/公告" stroke="none" stroke-width="1" fill="none" fill-rule="evenodd">
        <path d="M8.25548842,1.09427889 L4.12930129,3.79360106 L2.07083319,3.79360106 C0.927015911,3.79360106 0,4.72630961 0,5.89459774 L0,10.104988 C0,11.2659055 0.915676668,12.2059847 2.07083319,12.2059847 L4.12930129,12.2059847 L8.25548842,14.9031983 C8.83875462,15.1608337 9.29091417,14.8853222 9.29091417,14.3006557 L9.29091417,1.69680282 C9.29091417,1.11109134 8.82739705,0.842950462 8.25548842,1.09427889 Z M11.7323705,4.4865689 C11.5382843,4.27414608 11.2110397,4.26257702 11.0035626,4.46132224 C10.7950229,4.66006743 10.7846912,4.9923606 10.9787774,5.20476474 C11.0747855,5.30991253 11.2389207,5.54231996 11.4082218,5.89353414 C11.697272,6.49292324 11.8717389,7.19639652 11.8717389,7.99979286 C11.8717389,8.80318921 11.697272,9.50770745 11.4082218,10.1060516 C11.2389207,10.4572471 11.0747855,10.6896545 10.9787774,10.794821 C10.7836653,11.0072251 10.7950229,11.3395183 11.0035626,11.5382635 C11.2120839,11.7370087 11.5383026,11.7254396 11.7334147,11.5130168 C11.8954982,11.3363648 12.118473,11.0209028 12.3352744,10.5697842 C12.6914258,9.83158506 12.9040872,8.97142571 12.9040872,7.99874792 C12.9040872,7.02607015 12.6914258,6.16589212 12.3352744,5.42771167 C12.1174288,4.97868299 11.8944358,4.66215734 11.7323705,4.4865689 L11.7323705,4.4865689 Z M14.897469,3.83566018 C14.4804081,3.11640072 14.0592254,2.61796098 13.7639835,2.3498201 C13.5513038,2.15635561 13.2251034,2.17527663 13.0351389,2.39294281 C12.845211,2.61060902 12.8637678,2.94183858 13.0774733,3.13532174 C13.1259811,3.17947074 13.2230334,3.27833021 13.3530959,3.43184411 C13.5760707,3.69472294 13.7990454,4.00809509 14.0086292,4.36983338 C14.6084005,5.40666344 14.968692,6.61908192 14.968692,7.99977421 C14.968692,9.3804665 14.6084006,10.592885 14.0076034,11.6307786 C13.7980379,11.9924983 13.574019,12.3058704 13.3520701,12.5687493 C13.2220075,12.7222632 13.1249553,12.8211226 13.0764291,12.8652716 C12.8637678,13.0587548 12.845211,13.391048 13.034113,13.6076879 C13.2230334,13.8243091 13.550278,13.8432115 13.7629393,13.6507919 C14.0581995,13.3826511 14.4793822,12.8852563 14.8964432,12.1649519 C15.5860493,10.9735629 15.999998,9.58025664 15.999998,7.99977421 C16.0010402,6.42037405 15.5870751,5.02706776 14.897469,3.83566018 Z" id="海南/形状" fill="#FFFFFF" fill-rule="nonzero"></path>
    </g>
</svg>