<?xml version="1.0" standalone="no"?><!DOCTYPE svg PUBLIC "-//W3C//DTD SVG 1.1//EN" "http://www.w3.org/Graphics/SVG/1.1/DTD/svg11.dtd"><svg t="1576223862992" class="icon" viewBox="0 0 1024 1024" version="1.1" xmlns="http://www.w3.org/2000/svg" p-id="2623" xmlns:xlink="http://www.w3.org/1999/xlink" width="200" height="200"><defs><style type="text/css"></style></defs><path d="M32 32m64 0l832 0q64 0 64 64l0 576q0 64-64 64l-832 0q-64 0-64-64l0-576q0-64 64-64Z" fill="#E1FEFF" p-id="2624"></path><path d="M192 704m32 0l0 0q32 0 32 32l0 256q0 32-32 32l0 0q-32 0-32-32l0-256q0-32 32-32Z" fill="#40C3D0" p-id="2625"></path><path d="M768 704m32 0l0 0q32 0 32 32l0 256q0 32-32 32l0 0q-32 0-32-32l0-256q0-32 32-32Z" fill="#40C3D0" p-id="2626"></path><path d="M449.664 471.68l-3.84 3.84 3.84-3.84z m5.248-4.352c-2.368 1.92-4.672 4.416-6.4 6.4 1.728-1.984 4.032-3.968 6.4-6.4z m34.88-37.504c2.112-2.176 4.288-4.16 6.4-6.4-2.112 2.24-4.288 4.224-6.4 6.4z m21.888-61.952c0 2.56-0.64 5.056-1.28 7.552a29.248 29.248 0 0 0 1.28-7.552z m-11.008 38.528zM477.056 427.776zM389.76 222.464c2.176 1.28 4.288 1.92 6.4 3.2-1.6-0.64-3.2-1.92-4.8-2.56 0 0-1.024 0-1.6-0.64z m0-1.28z" fill="#FFEA00" p-id="2627"></path><path d="M384 288a96 96 0 0 1 9.344 191.552l9.408 95.552A192 192 0 0 0 384 192v96z" fill="#007FE9" p-id="2628"></path><path d="M393.344 479.552A96 96 0 0 1 288.064 387.2L192 390.4a192 192 0 0 0 210.688 184.704l-9.408-95.552z" fill="#20B86B" p-id="2629"></path><path d="M288 387.2A96 96 0 0 1 384 288V192a192 192 0 0 0-191.872 198.4L288 387.2z" fill="#94CCFA" p-id="2630"></path><path d="M640 320m32 0l128 0q32 0 32 32l0 0q0 32-32 32l-128 0q-32 0-32-32l0 0q0-32 32-32Z" fill="#F2A81B" p-id="2631"></path><path d="M640 448m32 0l128 0q32 0 32 32l0 0q0 32-32 32l-128 0q-32 0-32-32l0 0q0-32 32-32Z" fill="#F2A81B" p-id="2632"></path></svg>