<?xml version="1.0" standalone="no"?><!DOCTYPE svg PUBLIC "-//W3C//DTD SVG 1.1//EN" "http://www.w3.org/Graphics/SVG/1.1/DTD/svg11.dtd"><svg t="1576207482823" class="icon" viewBox="0 0 1024 1024" version="1.1" xmlns="http://www.w3.org/2000/svg" p-id="2837" xmlns:xlink="http://www.w3.org/1999/xlink" width="200" height="200"><defs><style type="text/css"></style></defs><path d="M0 64a64 64 0 0 1 64-64h576a128 128 0 0 1 128 128v64h192a64 64 0 0 1 64 64v704a64 64 0 0 1-64 64H64a64 64 0 0 1-64-64V64z" fill="#EAFEFF" p-id="2838"></path><path d="M0 64a64 64 0 0 1 64-64h576a128 128 0 0 1 128 128v64h192a64 64 0 0 1 64 64v704a64 64 0 0 1-64 64H64a64 64 0 0 1-64-64V64z m960 192H64v704h896V256z m-320-192H64v128h640V128a64 64 0 0 0-56.512-63.552L640 64z" fill="#007FE9" p-id="2839"></path><path d="M800 384a32 32 0 1 1 0 64h-448a32 32 0 0 1 0-64h448z m-576 0a32 32 0 1 1 0 64 32 32 0 0 1 0-64z" fill="#7161EF" p-id="2840"></path><path d="M800 576a32 32 0 1 1 0 64h-448a32 32 0 0 1 0-64h448z m-576 0a32 32 0 1 1 0 64 32 32 0 0 1 0-64z" fill="#20CEF4" p-id="2841"></path><path d="M800 768a32 32 0 1 1 0 64h-448a32 32 0 1 1 0-64h448z m-576 0a32 32 0 1 1 0 64 32 32 0 0 1 0-64z" fill="#3AEFC7" p-id="2842"></path></svg>