<?xml version="1.0" standalone="no"?><!DOCTYPE svg PUBLIC "-//W3C//DTD SVG 1.1//EN" "http://www.w3.org/Graphics/SVG/1.1/DTD/svg11.dtd"><svg t="1576223879067" class="icon" viewBox="0 0 1024 1024" version="1.1" xmlns="http://www.w3.org/2000/svg" p-id="3017" xmlns:xlink="http://www.w3.org/1999/xlink" width="200" height="200"><defs><style type="text/css"></style></defs><path d="M0 0m63.973371 0l895.627195 0q63.973371 0 63.973371 63.973371l0 639.733711q0 63.973371-63.973371 63.973371l-895.627195 0q-63.973371 0-63.973371-63.973371l0-639.733711q0-63.973371 63.973371-63.973371Z" fill="#E7FFF2" p-id="3018"></path><path d="M959.600566 0a63.973371 63.973371 0 0 1 63.973371 63.973371v639.733711a63.973371 63.973371 0 0 1-63.973371 63.973371H63.973371a63.973371 63.973371 0 0 1-63.973371-63.973371V63.973371a63.973371 63.973371 0 0 1 63.973371-63.973371h895.627195z m0 63.973371H63.973371v639.733711h895.627195V63.973371z" fill="#90DE45" p-id="3019"></path><path d="M511.786969 127.946742a255.893484 255.893484 0 1 1 0 511.786969 255.893484 255.893484 0 0 1 0-511.786969z m0 51.178697a204.714787 204.714787 0 1 0 0 409.429575 204.714787 204.714787 0 0 0 0-409.429575z m146.243126 108.498837c10.875473 8.060645 10.875473 21.495053 0 32.242579L495.345812 480.951804a29.235831 29.235831 0 0 1-16.249236 5.373763c-5.437737 0-10.875473-2.686882-16.249236-5.373763L365.223976 384.28804a24.309881 24.309881 0 0 1 0-32.242579 24.949615 24.949615 0 0 1 32.498472 0l81.374128 80.606448 146.435046-145.027633a24.949615 24.949615 0 0 1 32.498473 0z" fill="#07C565" opacity=".8" p-id="3020"></path><path d="M991.587252 831.653824a31.986686 31.986686 0 1 1 0 63.973371H635.575442l118.094843 68.259587a31.986686 31.986686 0 0 1-26.740869 57.831928l-5.245817-2.430989-208.873056-120.589804-208.93703 120.589804a31.986686 31.986686 0 1 1-31.986686-55.400939L389.98167 895.627195H31.986686a31.986686 31.986686 0 1 1 0-63.973371h959.600566z" fill="#90DE45" p-id="3021"></path></svg>