<?xml version="1.0" encoding="UTF-8"?>
<svg width="16px" height="16px" viewBox="0 0 16 16" version="1.1" xmlns="http://www.w3.org/2000/svg" xmlns:xlink="http://www.w3.org/1999/xlink">
    <title>海南/icon/标题/查询-填充</title>
    <g id="海南/icon/标题/查询-填充" stroke="none" stroke-width="1" fill="none" fill-rule="evenodd">
        <path d="M15.5,0 C15.7761424,0 16,0.223857625 16,0.5 L16,15.5 C16,15.7761424 15.7761424,16 15.5,16 L0.5,16 C0.223857625,16 0,15.7761424 0,15.5 L0,0.5 C0,0.223857625 0.223857625,0 0.5,0 L15.5,0 Z M8,3 C5.23857625,3 3,5.23857625 3,8 C3,10.7614237 5.23857625,13 8,13 C9.10744635,13 10.1308008,12.6399596 10.9593964,12.0305458 L11.1624238,11.8730611 L13.132999,13.8526674 C13.3313375,14.0491109 13.6529077,14.0491109 13.8512461,13.8526674 C14.027547,13.678051 14.047136,13.4069967 13.9100131,13.2109496 L13.8512461,13.1412828 L11.8771343,11.1574348 C12.5790813,10.2965277 13,9.19741925 13,8 C13,5.23857625 10.7614237,3 8,3 Z M8,4 C10.209139,4 12,5.790861 12,8 C12,10.209139 10.209139,12 8,12 C5.790861,12 4,10.209139 4,8 C4,5.790861 5.790861,4 8,4 Z M9.5,9 L6.5,9 C6.22385763,9 6,9.22385763 6,9.5 C6,9.74545989 6.17687516,9.94960837 6.41012437,9.99194433 L6.5,10 L9.5,10 C9.77614237,10 10,9.77614237 10,9.5 C10,9.25454011 9.82312484,9.05039163 9.58987563,9.00805567 L9.5,9 Z M9.5,6 L6.5,6 C6.22385763,6 6,6.22385763 6,6.5 C6,6.74545989 6.17687516,6.94960837 6.41012437,6.99194433 L6.5,7 L9.5,7 C9.77614237,7 10,6.77614237 10,6.5 C10,6.25454011 9.82312484,6.05039163 9.58987563,6.00805567 L9.5,6 Z" id="海南/形状" fill="#1E81F1"></path>
    </g>
</svg>