<?xml version="1.0" standalone="no"?><!DOCTYPE svg PUBLIC "-//W3C//DTD SVG 1.1//EN" "http://www.w3.org/Graphics/SVG/1.1/DTD/svg11.dtd"><svg t="1606351800829" class="icon" viewBox="0 0 1024 1024" version="1.1" xmlns="http://www.w3.org/2000/svg" p-id="34619" xmlns:xlink="http://www.w3.org/1999/xlink" width="200" height="200"><defs><style type="text/css"></style></defs><path d="M532.48 0h69.248v94.784c123.52 0.64 247.104-1.28 371.328 0.64a40.448 40.448 0 0 1 44.928 44.992c1.92 233.408 0 466.944 1.152 700.352-1.152 23.936 2.24 50.432-11.264 71.68-16.96 12.352-38.72 11.2-58.496 11.2H601.984v94.784H529.408C353.152 985.984 176.576 955.776 0 924.16V95.04C177.472 63.232 355.072 32.32 532.48 0z" fill="#FF5562" p-id="34620"></path><path d="M601.728 130.304h381.888v758.272H601.728v-94.72h300.928v-47.424H601.728v-59.2h300.928v-46.976H601.728V580.48h300.928v-47.36H601.728v-59.2h300.928v-47.104H601.728v-59.52h300.928V320H601.728v-59.328h300.928v594.176H601.728zM179.712 315.776c59.008 2.752 130.304-23.936 179.712 21.184 46.72 58.24 34.368 164.992-34.944 199.68-24.576 12.992-52.864 11.264-79.616 10.24v130.304l-65.152-5.504a20889.92 20889.92 0 0 1 0-355.904z" fill="#FFFFFF" p-id="34621"></path><path d="M244.48 375.872c21.312-1.024 47.808-5.12 62.144 15.488 11.904 22.72 12.416 49.664 1.472 72.896-12.352 22.4-40.32 20.672-62.016 23.232a1608.384 1608.384 0 0 1-1.664-111.616z" fill="#FF5562" p-id="34622"></path><path d="M866.88 640v-48H640v-96h226.88V448L960 544z" fill="#FF5562" p-id="34623"></path></svg>