<?xml version="1.0" standalone="no"?><!DOCTYPE svg PUBLIC "-//W3C//DTD SVG 1.1//EN" "http://www.w3.org/Graphics/SVG/1.1/DTD/svg11.dtd"><svg t="1594631924581" class="icon" viewBox="0 0 1024 1024" version="1.1" xmlns="http://www.w3.org/2000/svg" p-id="11270" xmlns:xlink="http://www.w3.org/1999/xlink" width="200" height="200"><defs><style type="text/css"></style></defs><path d="M872.419371 338.691962l74.959561 55.98003 10.735896 7.924114c39.492761 28.820769 61.987019 48.247629 63.904144 67.482776L1022.466301 934.534199c0 46.777833-36.680979 84.736895-83.075387 89.018472l-8.754868 0.447329H91.830255c-47.480779 0-86.909636-35.211183-91.382926-80.838742L0 934.534199V470.078882c0-18.276585 14.506241-31.057414 47.289066-55.98003l58.152771-42.879681 45.18023-32.527209v76.557164L63.904144 484.265602V511.23315l391.157264 200.914628L63.904144 912.423365v22.110834c0 12.269596 9.649526 22.941588 22.877683 25.114328l5.112332 0.447329 27.990015-0.063904 405.216175-211.906141 403.682477 211.906141h1.789316a27.414878 27.414878 0 0 0 27.542686-20.960559l0.447329-4.537194v-35.594608l-363.422866-186.664004L958.562157 526.18672v-41.985023l-86.142786-68.952571V338.691962zM766.849725 0a63.904144 63.904144 0 0 1 63.904144 63.904144v447.329006l-310.382426 156.437344L191.712431 496.407389V63.904144a63.904144 63.904144 0 0 1 63.904144-63.904144h511.23315z m-31.952071 383.424863h-447.329007a31.952072 31.952072 0 0 0-5.751373 63.39291L287.568647 447.329006h447.329007a31.952072 31.952072 0 1 0 0-63.904143z m0-127.808288h-447.329007a31.952072 31.952072 0 0 0-5.751373 63.392911L287.568647 319.520719h447.329007a31.952072 31.952072 0 1 0 0-63.904144z m-63.904144-127.808287h-319.520719a31.952072 31.952072 0 0 0-5.751373 63.39291L351.472791 191.712431h319.520719a31.952072 31.952072 0 1 0 0-63.904143z" p-id="11271"></path></svg>