<?xml version="1.0" standalone="no"?><!DOCTYPE svg PUBLIC "-//W3C//DTD SVG 1.1//EN" "http://www.w3.org/Graphics/SVG/1.1/DTD/svg11.dtd"><svg t="1594632661303" class="icon" viewBox="0 0 1024 1024" version="1.1" xmlns="http://www.w3.org/2000/svg" p-id="11720" xmlns:xlink="http://www.w3.org/1999/xlink" width="200" height="200"><defs><style type="text/css"></style></defs><path d="M219.428571 73.142857v73.142857a146.285714 146.285714 0 0 0 146.285715 146.285715h292.571428a146.285714 146.285714 0 0 0 146.285715-146.285715V73.142857h146.285714a73.142857 73.142857 0 0 1 73.142857 73.142857v804.571429a73.142857 73.142857 0 0 1-73.142857 73.142857H73.142857a73.142857 73.142857 0 0 1-73.142857-73.142857V146.285714a73.142857 73.142857 0 0 1 73.142857-73.142857h146.285714z m523.702858 376.685714L435.2 782.921143 281.380571 616.374857a34.377143 34.377143 0 0 0-35.108571-10.166857 37.888 37.888 0 0 0-25.6 27.794286 41.472 41.472 0 0 0 9.362286 37.888L409.6 866.157714a34.816 34.816 0 0 0 25.673143 11.556572 34.816 34.816 0 0 0 25.6-11.556572l333.531428-360.813714a41.545143 41.545143 0 0 0-0.438857-55.003429 34.377143 34.377143 0 0 0-50.907428-0.438857zM658.285714 0a73.142857 73.142857 0 0 1 72.630857 64.585143L731.428571 73.142857v73.142857a73.142857 73.142857 0 0 1-64.585142 72.630857L658.285714 219.428571H365.714286a73.142857 73.142857 0 0 1-73.142857-73.142857V73.142857a73.142857 73.142857 0 0 1 73.142857-73.142857h292.571428z" fill="#ffffff" p-id="11721"></path></svg>