<?xml version="1.0" standalone="no"?><!DOCTYPE svg PUBLIC "-//W3C//DTD SVG 1.1//EN" "http://www.w3.org/Graphics/SVG/1.1/DTD/svg11.dtd"><svg t="1594623516536" class="icon" viewBox="0 0 1024 1024" version="1.1" xmlns="http://www.w3.org/2000/svg" p-id="9703" xmlns:xlink="http://www.w3.org/1999/xlink" width="200" height="200"><defs><style type="text/css"></style></defs><path d="M819.2 785.088V716.8a34.112 34.112 0 1 0-68.288 0v102.4c0 18.88 15.36 34.112 34.176 34.112h102.4a34.112 34.112 0 1 0 0-68.224H819.2z m-228.096 238.208h-522.88C30.656 1023.36 0 992.768 0 955.072V68.288C0 30.528 30.592 0 68.288 0h818.496c37.76 0 68.288 30.592 68.288 68.288v460.864a307.2 307.2 0 0 0-363.968 494.144zM204.672 238.72a34.112 34.112 0 1 0 0 68.224h409.344a34.112 34.112 0 1 0 0-68.224H204.672z m0 204.672a34.112 34.112 0 1 0 0 68.224H477.44a34.112 34.112 0 1 0 0-68.224H204.672zM785.088 1024a238.912 238.912 0 1 1 0-477.888 238.912 238.912 0 0 1 0 477.888z" p-id="9704"></path></svg>