<?xml version="1.0" standalone="no"?><!DOCTYPE svg PUBLIC "-//W3C//DTD SVG 1.1//EN" "http://www.w3.org/Graphics/SVG/1.1/DTD/svg11.dtd"><svg t="1594620688668" class="icon" viewBox="0 0 1024 1024" version="1.1" xmlns="http://www.w3.org/2000/svg" p-id="9224" xmlns:xlink="http://www.w3.org/1999/xlink" width="200" height="200"><defs><style type="text/css"></style></defs><path d="M907.847189 139.660236L529.271936 3.084a50.984197 50.984197 0 0 0-34.927693 0L117.176333 139.724206a52.199629 52.199629 0 0 0-34.671812 48.425392V511.774505c0 72.286251 23.285129 144.572503 67.744372 214.74774 34.032111 53.862853 81.497951 106.702183 140.158563 156.982709a1068.365207 1068.365207 0 0 0 199.714758 134.657132 51.943749 51.943749 0 0 0 45.546736 0.19191 1050.005779 1050.005779 0 0 0 199.650788-133.56964c58.852523-50.088615 105.550721-102.927946 139.582832-156.918738 44.459243-70.431117 66.528939-143.10119 66.528939-216.091113V188.085628a51.176107 51.176107 0 0 0-33.58432-48.425392zM164.962023 511.518625V226.659618a25.588054 25.588054 0 0 1 16.824146-24.18071L502.40448 85.733413A28.338769 28.338769 0 0 1 512 84.00622V511.774505h349.468842v0.767642c0 93.204485-46.954078 185.577359-139.454892 275.519367-72.286251 70.239207-154.359933 120.391792-196.580222 144.060741a31.857127 31.857127 0 0 1-13.433728 3.198507V511.646565l-347.037977-0.12794z" p-id="9225"></path></svg>