<?xml version="1.0" standalone="no"?><!DOCTYPE svg PUBLIC "-//W3C//DTD SVG 1.1//EN" "http://www.w3.org/Graphics/SVG/1.1/DTD/svg11.dtd"><svg t="1594632707987" class="icon" viewBox="0 0 1024 1024" version="1.1" xmlns="http://www.w3.org/2000/svg" p-id="9142" xmlns:xlink="http://www.w3.org/1999/xlink" width="200" height="200"><defs><style type="text/css"></style></defs><path d="M671.232 149.056v-6.4c-4.48 1.92-4.48 4.48 0 6.4z" p-id="9143" fill="#ffffff"></path><path d="M320 640a192 192 0 0 0 384 0h256a64 64 0 0 1 64 64v256a64 64 0 0 1-64 64H64a64 64 0 0 1-64-64v-256a64 64 0 0 1 64-64h256z m512-640a64 64 0 0 1 64 64v512h-256v64a128 128 0 1 1-256 0V576H128V64a64 64 0 0 1 64-64h640z m-177.92 200.064l-189.12 180.48L369.92 289.472a30.336 30.336 0 0 0-41.152 0 26.432 26.432 0 0 0 0 39.296l115.904 111.104a30.08 30.08 0 0 0 41.152 0l209.408-200.064a26.944 26.944 0 0 0 0-39.744 30.336 30.336 0 0 0-41.152 0z" p-id="9144" fill="#ffffff"></path></svg>