<?xml version="1.0" standalone="no"?><!DOCTYPE svg PUBLIC "-//W3C//DTD SVG 1.1//EN" "http://www.w3.org/Graphics/SVG/1.1/DTD/svg11.dtd"><svg t="1607653324508" class="icon" viewBox="0 0 1024 1024" version="1.1" xmlns="http://www.w3.org/2000/svg" p-id="8938" xmlns:xlink="http://www.w3.org/1999/xlink" width="200" height="200"><defs><style type="text/css"></style></defs><path d="M128 64a64 64 0 0 0-64 64v768a64 64 0 0 0 64 64h768a64 64 0 0 0 64-64V128a64 64 0 0 0-64-64H128z m0-64h768a128 128 0 0 1 128 128v768a128 128 0 0 1-128 128H128a128 128 0 0 1-128-128V128a128 128 0 0 1 128-128z" fill="#1296db" p-id="8939"></path><path d="M76.544 857.984a32 32 0 0 1-39.296-50.496L264.832 630.4a64 64 0 0 1 83.584 4.352l148.288 142.4 213.312-269.632a64 64 0 0 1 102.528 2.88l197.44 280.896a32 32 0 1 1-52.416 36.8L760.192 547.2l-213.312 269.632c-1.92 2.368-1.92 2.368-4.032 4.608a64 64 0 0 1-90.496 1.856L304.128 680.96l-227.584 177.024zM298.688 379.456a96 96 0 1 1 0-192 96 96 0 0 1 0 192z m0-64a32 32 0 1 0 0-64 32 32 0 0 0 0 64z" fill="#1296db" p-id="8940"></path></svg>