<?xml version="1.0" encoding="UTF-8"?>
<svg width="12px" height="12px" viewBox="0 0 12 12" version="1.1" xmlns="http://www.w3.org/2000/svg" xmlns:xlink="http://www.w3.org/1999/xlink">
    <title>切片</title>
    <g id="页面-1" stroke="none" stroke-width="1" fill="none" fill-rule="evenodd">
        <g id="定制平台-业务定制-审批方案-开始（编辑状态）-无组织树时" transform="translate(-559.000000, -283.000000)">
            <g id="编组-8" transform="translate(471.000000, 269.000000)">
                <g id="编组" transform="translate(16.000000, 9.000000)">
                    <g id="编组-2" transform="translate(68.000000, 1.000000)">
                        <g id="Icon-图标/通用/关闭" transform="translate(4.000000, 4.000000)">
                            <rect id="矩形" x="0" y="0" width="12" height="12"></rect>
                            <path d="M2.20965874,1.42278882 L2.27274756,1.47725244 L6,5.20425 L9.72725244,1.47725244 C9.94692235,1.25758252 10.3030777,1.25758252 10.5227476,1.47725244 C10.7224475,1.67695236 10.740602,1.98945012 10.5772112,2.20965874 L10.5227476,2.27274756 L6.79575,6 L10.5227476,9.72725244 C10.7424175,9.94692235 10.7424175,10.3030777 10.5227476,10.5227476 C10.3230476,10.7224475 10.0105499,10.740602 9.79034126,10.5772112 L9.72725244,10.5227476 L6,6.79575 L2.27274756,10.5227476 C2.05307765,10.7424175 1.69692235,10.7424175 1.47725244,10.5227476 C1.27755251,10.3230476 1.25939798,10.0105499 1.42278882,9.79034126 L1.47725244,9.72725244 L5.20425,6 L1.47725244,2.27274756 C1.25758252,2.05307765 1.25758252,1.69692235 1.47725244,1.47725244 C1.65476348,1.29974139 1.92139874,1.26567362 2.13311908,1.37504911 L2.20965874,1.42278882 Z" id="形状结合" fill="#C0C4CC"></path>
                        </g>
                    </g>
                </g>
            </g>
        </g>
    </g>
</svg>