<?xml version="1.0" encoding="UTF-8"?>
<svg width="28px" height="28px" viewBox="0 0 28 28" version="1.1" xmlns="http://www.w3.org/2000/svg" xmlns:xlink="http://www.w3.org/1999/xlink">
    <title>切片</title>
    <g id="页面-1" stroke="none" stroke-width="1" fill="none" fill-rule="evenodd">
        <g id="定制平台-业务定制-审批方案-开始（编辑状态）-无组织树时" transform="translate(-408.000000, -997.000000)">
            <g id="左侧流程区" transform="translate(236.000000, 149.000000)">
                <g id="左侧流程" transform="translate(16.000000, 68.000000)">
                    <g id="流程/未开始" transform="translate(156.000000, 780.000000)">
                        <circle id="椭圆形" fill="#E4E7ED" cx="14" cy="14" r="14"></circle>
                        <g id="形状结合" transform="translate(6.000000, 6.000000)" fill="#FFFFFF">
                            <path d="M8,1 C11.8659932,1 15,4.13400675 15,8 C15,11.8659932 11.8659932,15 8,15 C4.13400675,15 1,11.8659932 1,8 C1,4.13400675 4.13400675,1 8,1 Z M6.81462154,4.2795172 C6.70554807,4.02582922 6.41147182,3.908596 6.15778384,4.01766946 C4.45769783,4.74862358 3.33245615,6.42465625 3.33245615,8.3074439 C3.33245615,10.8852572 5.42218671,12.9749878 8,12.9749878 C10.5778133,12.9749878 12.6675439,10.8852572 12.6675439,8.3074439 C12.6675439,6.45550491 11.5788916,4.80176552 9.92062367,4.05224152 C9.66899143,3.93850574 9.37280213,4.05029291 9.25906635,4.30192514 C9.14533056,4.55355738 9.25711773,4.84974668 9.50874997,4.96348246 C10.8121582,5.55261269 11.6675439,6.85200367 11.6675439,8.3074439 C11.6675439,10.3329724 10.0255285,11.9749878 8,11.9749878 C5.97447146,11.9749878 4.33245615,10.3329724 4.33245615,8.3074439 C4.33245615,6.82780216 5.21663495,5.51082948 6.5527738,4.9363549 C6.80646178,4.82728143 6.923695,4.53320518 6.81462154,4.2795172 Z M8,2.47498775 C7.72385763,2.47498775 7.5,2.69884538 7.5,2.97498775 L7.5,2.97498775 L7.5,5.97397553 C7.5,6.25011791 7.72385763,6.47397553 8,6.47397553 C8.27614237,6.47397553 8.5,6.25011791 8.5,5.97397553 L8.5,5.97397553 L8.5,2.97498775 C8.5,2.69884538 8.27614237,2.47498775 8,2.47498775 Z"></path>
                        </g>
                    </g>
                </g>
            </g>
        </g>
    </g>
</svg>