<?xml version="1.0" standalone="no"?><!DOCTYPE svg PUBLIC "-//W3C//DTD SVG 1.1//EN" "http://www.w3.org/Graphics/SVG/1.1/DTD/svg11.dtd"><svg t="1655103276096" class="icon" viewBox="0 0 1024 1024" version="1.1" xmlns="http://www.w3.org/2000/svg" p-id="20233" xmlns:xlink="http://www.w3.org/1999/xlink" width="16" height="16"><defs><style type="text/css">@font-face { font-family: feedback-iconfont; src: url("//at.alicdn.com/t/font_1031158_u69w8yhxdu.woff2?t=1630033759944") format("woff2"), url("//at.alicdn.com/t/font_1031158_u69w8yhxdu.woff?t=1630033759944") format("woff"), url("//at.alicdn.com/t/font_1031158_u69w8yhxdu.ttf?t=1630033759944") format("truetype"); }
</style></defs><path d="M704 64a192 192 0 0 1 192 192v640a64 64 0 0 1-64 64H192a64 64 0 0 1-64-64V128a64 64 0 0 1 64-64h512z m0 64H192v768h640V256a128 128 0 0 0-128-128zM544 512a32 32 0 0 1 0 64h-192a32 32 0 0 1 0-64h192z m128-192a32 32 0 1 1 0 64h-320a32 32 0 0 1 0-64h320z" p-id="20234" fill="#1296db"></path></svg>