<?xml version="1.0" encoding="UTF-8"?>
<svg width="16px" height="16px" viewBox="0 0 16 16" version="1.1" xmlns="http://www.w3.org/2000/svg" xmlns:xlink="http://www.w3.org/1999/xlink">
    <title>切片</title>
    <g id="页面-1" stroke="none" stroke-width="1" fill="none" fill-rule="evenodd">
        <g id="表单配置-表单编辑（在线vue表单）-表单模版" transform="translate(-267.000000, -291.000000)">
            <g id="控件" transform="translate(226.000000, 219.000000)">
                <g id="编组-3" transform="translate(16.000000, 16.000000)">
                    <g id="Icon-图标/操作/圆形/查看" transform="translate(25.000000, 56.000000)">
                        <rect id="矩形" x="0" y="0" width="16" height="16"></rect>
                        <path d="M10.5,1 C12.3685634,1 13.8951264,2.4642776 13.9948211,4.3079648 L14,4.5 L14,8.5 C14,8.77614237 13.7761424,9 13.5,9 C13.2545401,9 13.0503916,8.82312484 13.0080557,8.58987563 L13,8.5 L13,4.5 C13,3.1745166 11.9684641,2.08996133 10.6643757,2.00531768 L10.5,2 L3,2 L3,14 L7.5,14 C7.77614237,14 8,14.2238576 8,14.5 C8,14.7454599 7.82312484,14.9496084 7.58987563,14.9919443 L7.5,15 L3,15 C2.44771525,15 2,14.5522847 2,14 L2,2 C2,1.44771525 2.44771525,1 3,1 L10.5,1 Z M11.5,10 C11.7454599,10 11.9496084,10.1768752 11.9919443,10.4101244 L12,10.5 L12,12 L13.5,12 C13.7761424,12 14,12.2238576 14,12.5 C14,12.7454599 13.8231248,12.9496084 13.5898756,12.9919443 L13.5,13 L12,13 L12,14.5 C12,14.7761424 11.7761424,15 11.5,15 C11.2545401,15 11.0503916,14.8231248 11.0080557,14.5898756 L11,14.5 L11,13 L9.5,13 C9.22385763,13 9,12.7761424 9,12.5 C9,12.2545401 9.17687516,12.0503916 9.41012437,12.0080557 L9.5,12 L11,12 L11,10.5 C11,10.2238576 11.2238576,10 11.5,10 Z M8.5,8 C8.77614237,8 9,8.22385763 9,8.5 C9,8.77614237 8.77614237,9 8.5,9 L5.5,9 C5.22385763,9 5,8.77614237 5,8.5 C5,8.22385763 5.22385763,8 5.5,8 L8.5,8 Z M10.5,5 C10.7761424,5 11,5.22385763 11,5.5 C11,5.77614237 10.7761424,6 10.5,6 L5.5,6 C5.22385763,6 5,5.77614237 5,5.5 C5,5.22385763 5.22385763,5 5.5,5 L10.5,5 Z" id="形状" fill="#409EFF" fill-rule="nonzero"></path>
                    </g>
                </g>
            </g>
        </g>
    </g>
</svg>