<?xml version="1.0" encoding="UTF-8"?>
<svg width="20px" height="20px" viewBox="0 0 20 20" version="1.1" xmlns="http://www.w3.org/2000/svg" xmlns:xlink="http://www.w3.org/1999/xlink">
    <title>切片</title>
    <g id="页面-1" stroke="none" stroke-width="1" fill="none" fill-rule="evenodd">
        <g id="表单配置-表单编辑（在线vue表单）" transform="translate(-406.000000, -684.000000)" fill-rule="nonzero">
            <g id="控件" transform="translate(226.000000, 219.000000)">
                <g id="编组-10" transform="translate(16.000000, 0.000000)">
                    <g transform="translate(-16.000000, 11.000000)" id="编组-3">
                        <g transform="translate(0.000000, 358.000000)">
                            <g id="编组-5" transform="translate(168.000000, 88.000000)">
                                <g id="文本控件" transform="translate(12.000000, 8.000000)">
                                    <g id="单选-选中" transform="translate(2.000000, 2.000000)">
                                        <path d="M8,1.28735633 C4.29270927,1.28735633 1.28735633,4.29270927 1.28735633,8 C1.28735633,11.7072907 4.29270927,14.7126437 8,14.7126437 C11.7072907,14.7126437 14.7126437,11.7072907 14.7126437,8 C14.7085894,4.29438991 11.7056101,1.29141061 8,1.28735633 Z M8,11.3103448 C6.17174703,11.3103448 4.68965517,9.82825297 4.68965517,8 C4.68965517,6.17174703 6.17174703,4.68965517 8,4.68965517 C9.82825297,4.68965517 11.3103448,6.17174703 11.3103448,8 C11.3103448,9.82825297 9.82825297,11.3103448 8,11.3103448 L8,11.3103448 Z" id="形状" fill="#FFFFFF"></path>
                                        <path d="M8,0 C3.581722,0 0,3.581722 0,8 C0,12.418278 3.581722,16 8,16 C12.418278,16 16,12.418278 16,8 C15.9949327,3.58382266 12.4161773,0.0050673363 8,0 Z M8,15 C4.13400675,15 1,11.8659932 1,8 C1,4.13400675 4.13400675,1 8,1 C11.8659932,1 15,4.13400675 15,8 C14.9957722,11.8642407 11.8642407,14.9957722 8,15 Z" id="形状" fill="#313131"></path>
                                        <path d="M4.68965517,8 C4.68965517,9.82825297 6.17174703,11.3103448 8,11.3103448 C9.82825297,11.3103448 11.3103448,9.82825297 11.3103448,8 C11.3103448,6.17174703 9.82825297,4.68965517 8,4.68965517 C6.17174703,4.68965517 4.68965517,6.17174703 4.68965517,8 Z" id="路径" fill="#489DFF"></path>
                                    </g>
                                </g>
                            </g>
                        </g>
                    </g>
                </g>
            </g>
        </g>
    </g>
</svg>