<?xml version="1.0" encoding="UTF-8"?>
<svg width="20px" height="20px" viewBox="0 0 20 20" version="1.1" xmlns="http://www.w3.org/2000/svg" xmlns:xlink="http://www.w3.org/1999/xlink">
    <title>切片</title>
    <g id="页面-1" stroke="none" stroke-width="1" fill="none" fill-rule="evenodd">
        <g id="表单配置-表单编辑（在线vue表单）" transform="translate(-406.000000, -632.000000)">
            <g id="控件" transform="translate(226.000000, 219.000000)">
                <g id="编组-10" transform="translate(16.000000, 0.000000)">
                    <g transform="translate(-16.000000, 11.000000)" id="编组-3">
                        <g transform="translate(0.000000, 358.000000)">
                            <g id="编组-5" transform="translate(168.000000, 36.000000)">
                                <g id="文本控件" transform="translate(12.000000, 8.000000)">
                                    <rect id="矩形" x="0" y="0" width="20" height="20"></rect>
                                    <path d="M2,2 L18,2 L18,18 L2,18 L2,2 Z M3,3 L3,17 L17,17 L17,3 L3,3 Z" id="矩形" fill="#313131" fill-rule="nonzero"></path>
                                    <path d="M8.5,7 L8.5,14 L9.5,14 C9.77614237,14 10,14.2238576 10,14.5 C10,14.7761424 9.77614237,15 9.5,15 L6.5,15 C6.22385763,15 6,14.7761424 6,14.5 C6,14.2238576 6.22385763,14 6.5,14 L7.5,14 L7.5,7 L5,7 L5,7.5 C5,7.77614237 4.77614237,8 4.5,8 C4.22385763,8 4,7.77614237 4,7.5 L4,6.5 C4,6.22385763 4.22385763,6 4.5,6 L11.5,6 C11.6380712,6 11.7630712,6.05596441 11.8535534,6.14644661 C11.9440356,6.23692881 12,6.36192881 12,6.5 L12,7.5 C12,7.77614237 11.7761424,8 11.5,8 C11.2238576,8 11,7.77614237 11,7.5 L11,7 L8.5,7 Z" id="路径" fill="#313131"></path>
                                    <rect id="矩形" fill="#313131" x="11" y="10" width="4" height="1" rx="0.5"></rect>
                                    <rect id="矩形备份" fill="#313131" x="11" y="13" width="4" height="1" rx="0.5"></rect>
                                </g>
                            </g>
                        </g>
                    </g>
                </g>
            </g>
        </g>
    </g>
</svg>