<?xml version="1.0" encoding="UTF-8"?>
<svg width="20px" height="20px" viewBox="0 0 20 20" version="1.1" xmlns="http://www.w3.org/2000/svg" xmlns:xlink="http://www.w3.org/1999/xlink">
    <title>切片</title>
    <g id="页面-1" stroke="none" stroke-width="1" fill="none" fill-rule="evenodd">
        <g id="表单配置-表单编辑（在线vue表单）" transform="translate(-254.000000, -892.000000)" fill-rule="nonzero">
            <g id="控件" transform="translate(226.000000, 219.000000)">
                <g id="编组-10" transform="translate(16.000000, 0.000000)">
                    <g transform="translate(-16.000000, 11.000000)" id="编组-3">
                        <g transform="translate(0.000000, 358.000000)">
                            <g id="编组-13" transform="translate(16.000000, 296.000000)">
                                <g id="人员选择" transform="translate(12.000000, 8.000000)">
                                    <g id="打开备份" transform="translate(2.000000, 5.000000)">
                                        <path d="M12,0.996681109 C14.209139,0.996681109 16,2.78754211 16,4.99668111 C16,7.20582011 14.209139,8.99668111 12,8.99668111 L4,8.99668111 C1.790861,8.99668111 0,7.20582011 0,4.99668111 C0,2.78754211 1.790861,0.996681109 4,0.996681109 L12,0.996681109 Z M12,1.99668111 L4,1.99668111 C2.34314575,1.99668111 1,3.33982686 1,4.99668111 C1,6.59436199 2.24891996,7.90034199 3.82372721,7.99158842 L4,7.99668111 L12,7.99668111 C13.6568542,7.99668111 15,6.65353536 15,4.99668111 C15,3.39900023 13.75108,2.09302023 12.1762728,2.0017738 L12,1.99668111 Z" id="矩形" fill="#313131"></path>
                                        <path d="M12,0 C14.7614237,0 17,2.23857625 17,5 C17,7.76142375 14.7614237,10 12,10 C9.23857625,10 7,7.76142375 7,5 C7,2.23857625 9.23857625,0 12,0 Z M12,1 C9.790861,1 8,2.790861 8,5 C8,7.209139 9.790861,9 12,9 C14.209139,9 16,7.209139 16,5 C16,2.790861 14.209139,1 12,1 Z" id="路径" fill="#489DFF"></path>
                                        <path d="M8,4.99668111 C8,7.20582011 9.790861,8.99668111 12,8.99668111 C14.209139,8.99668111 16,7.20582011 16,4.99668111 C16,2.78754211 14.209139,0.996681109 12,0.996681109 C9.790861,0.996681109 8,2.78754211 8,4.99668111 Z" id="路径" fill="#D7EAFF"></path>
                                    </g>
                                </g>
                            </g>
                        </g>
                    </g>
                </g>
            </g>
        </g>
    </g>
</svg>