<?xml version="1.0" encoding="UTF-8"?>
<svg width="20px" height="20px" viewBox="0 0 20 20" version="1.1" xmlns="http://www.w3.org/2000/svg" xmlns:xlink="http://www.w3.org/1999/xlink">
    <title>切片</title>
    <g id="页面-1" stroke="none" stroke-width="1" fill="none" fill-rule="evenodd">
        <g id="表单配置-表单编辑（在线vue表单）" transform="translate(-406.000000, -531.000000)">
            <g id="控件" transform="translate(226.000000, 219.000000)">
                <g id="编组-10" transform="translate(16.000000, 0.000000)">
                    <g transform="translate(-16.000000, 11.000000)" id="编组-3">
                        <g transform="translate(0.000000, 205.000000)">
                            <g id="编组-5" transform="translate(168.000000, 88.000000)">
                                <g id="文本控件" transform="translate(12.000000, 8.000000)">
                                    <rect id="矩形" x="0" y="0" width="20" height="20"></rect>
                                    <path d="M1.875,1.25 C2.22017797,1.25 2.5,1.52982203 2.5,1.875 L2.5,17.5 L18.125,17.5 C18.470178,17.5 18.75,17.779822 18.75,18.125 C18.75,18.470178 18.470178,18.75 18.125,18.75 L2.5,18.75 C1.80964406,18.75 1.25,18.1903559 1.25,17.5 L1.25,1.875 C1.25,1.52982203 1.52982203,1.25 1.875,1.25 Z" id="路径" fill="#303133"></path>
                                    <path d="M6.25,11.25 C6.94035594,11.25 7.5,10.6903559 7.5,10 C7.5,9.30964406 6.94035594,8.75 6.25,8.75 C5.55964406,8.75 5,9.30964406 5,10 C5,10.6903559 5.55964406,11.25 6.25,11.25 Z M11.25,8.75 C11.9403559,8.75 12.5,8.19035594 12.5,7.5 C12.5,6.80964406 11.9403559,6.25 11.25,6.25 C10.5596441,6.25 10,6.80964406 10,7.5 C10,8.19035594 10.5596441,8.75 11.25,8.75 Z M15.625,10 C15.970178,10 16.25,9.72017797 16.25,9.375 C16.25,9.02982203 15.970178,8.75 15.625,8.75 C15.279822,8.75 15,9.02982203 15,9.375 C15,9.72017797 15.279822,10 15.625,10 Z M14.375,6.25 C14.720178,6.25 15,5.97017797 15,5.625 C15,5.27982203 14.720178,5 14.375,5 C14.029822,5 13.75,5.27982203 13.75,5.625 C13.75,5.97017797 14.029822,6.25 14.375,6.25 Z M10.625,13.75 C11.6605339,13.75 12.5,12.9105339 12.5,11.875 C12.5,10.8394661 11.6605339,10 10.625,10 C9.58946609,10 8.75,10.8394661 8.75,11.875 C8.75,12.9105339 9.58946609,13.75 10.625,13.75 Z" id="形状结合" fill="#409EFF" fill-rule="nonzero"></path>
                                </g>
                            </g>
                        </g>
                    </g>
                </g>
            </g>
        </g>
    </g>
</svg>