<?xml version="1.0" encoding="UTF-8"?>
<svg width="20px" height="20px" viewBox="0 0 20 20" version="1.1" xmlns="http://www.w3.org/2000/svg" xmlns:xlink="http://www.w3.org/1999/xlink">
    <title>切片</title>
    <g id="页面-1" stroke="none" stroke-width="1" fill="none" fill-rule="evenodd">
        <g id="表单配置-表单编辑（在线vue表单）" transform="translate(-254.000000, -840.000000)">
            <g id="控件" transform="translate(226.000000, 219.000000)">
                <g id="编组-10" transform="translate(16.000000, 0.000000)">
                    <g transform="translate(-16.000000, 11.000000)" id="编组-3">
                        <g transform="translate(0.000000, 358.000000)">
                            <g id="编组-14" transform="translate(16.000000, 244.000000)">
                                <g id="视图控件" transform="translate(12.000000, 8.000000)">
                                    <rect id="矩形" x="0" y="0" width="20" height="20"></rect>
                                    <path d="M13.5,2 C13.7761424,2 14,2.22385763 14,2.5 L14,4 L16.5,4 C17.3284271,4 18,4.67157288 18,5.5 L18,16.5 C18,17.3284271 17.3284271,18 16.5,18 L3.5,18 C2.67157288,18 2,17.3284271 2,16.5 L2,5.5 C2,4.67157288 2.67157288,4 3.5,4 L6,4 L6,2.5 C6,2.22385763 6.22385763,2 6.5,2 C6.77614237,2 7,2.22385763 7,2.5 L7,4 L13,4 L13,2.5 C13,2.22385763 13.2238576,2 13.5,2 Z M17,8 L3,8 L3,16.5 C3,16.7761424 3.22385763,17 3.5,17 L16.5,17 C16.7761424,17 17,16.7761424 17,16.5 L17,8 Z M6,5 L3.5,5 C3.22385763,5 3,5.22385763 3,5.5 L3,7 L17,7 L17,5.5 C17,5.22385763 16.7761424,5 16.5,5 L14,5 L14,5.5 C14,5.77614237 13.7761424,6 13.5,6 C13.2238576,6 13,5.77614237 13,5.5 L13,5 L7,5 L7,5.5 C7,5.77614237 6.77614237,6 6.5,6 C6.22385763,6 6,5.77614237 6,5.5 L6,5 Z" id="形状结合" fill="#313131" fill-rule="nonzero"></path>
                                    <path d="M5,10 L7,10 L7,12 L5,12 L5,10 Z M5,13 L7,13 L7,15 L5,15 L5,13 Z M9,10 L11,10 L11,12 L9,12 L9,10 Z M9,13 L11,13 L11,15 L9,15 L9,13 Z M13,10 L15,10 L15,12 L13,12 L13,10 Z M13,13 L15,13 L15,15 L13,15 L13,13 Z" id="形状结合" fill="#489DFF"></path>
                                </g>
                            </g>
                        </g>
                    </g>
                </g>
            </g>
        </g>
    </g>
</svg>