<?xml version="1.0" encoding="UTF-8"?>
<svg width="16px" height="16px" viewBox="0 0 16 16" version="1.1" xmlns="http://www.w3.org/2000/svg" xmlns:xlink="http://www.w3.org/1999/xlink">
    <title>切片</title>
    <g id="页面-1" stroke="none" stroke-width="1" fill="none" fill-rule="evenodd">
        <g id="表单配置-表单编辑（在线vue表单）-表单模版" transform="translate(-411.000000, -391.000000)">
            <g id="控件" transform="translate(226.000000, 219.000000)">
                <g id="编组-3" transform="translate(16.000000, 116.000000)">
                    <g id="Icon-图标/操作/圆形/查看" transform="translate(169.000000, 56.000000)">
                        <rect id="矩形" x="0" y="0" width="16" height="16"></rect>
                        <path d="M8,2 C10.9536821,2 13.598134,3.58181818 15.4001999,6.08 C16.1999334,7.18181818 16.1999334,8.81818182 15.4001999,9.92 C13.5874708,12.4181818 10.9536821,14 8,14 C5.05698101,14 2.41252916,12.4181818 0.599800067,9.92 C-0.199933356,8.81818182 -0.199933356,7.18181818 0.599800067,6.08 C2.41252916,3.58181818 5.04631789,2 8,2 Z M8,3.14285714 C5.51649111,3.14285714 3.19087462,4.45511871 1.52470391,6.75132357 C1.01557489,7.45276682 1.01557489,8.54723318 1.52479682,9.24880445 C3.18801805,11.5409446 5.52309014,12.8571429 8,12.8571429 C10.4835089,12.8571429 12.8091254,11.5448813 14.4752961,9.24867643 C14.9844251,8.54723318 14.9844251,7.45276682 14.4733263,6.74860126 C12.8214649,4.4586463 10.4871187,3.14285714 8,3.14285714 Z M8,5.5 C9.38014237,5.5 10.5,6.61985763 10.5,8 C10.5,9.38014237 9.38014237,10.5 8,10.5 C6.61985763,10.5 5.5,9.38014237 5.5,8 C5.5,6.61985763 6.61985763,5.5 8,5.5 Z M8,6.5 C7.17214237,6.5 6.5,7.17214237 6.5,8 C6.5,8.82785763 7.17214237,9.5 8,9.5 C8.82785763,9.5 9.5,8.82785763 9.5,8 C9.5,7.17214237 8.82785763,6.5 8,6.5 Z" id="形状结合" fill="#409EFF" fill-rule="nonzero"></path>
                    </g>
                </g>
            </g>
        </g>
    </g>
</svg>