<?xml version="1.0" encoding="UTF-8"?>
<svg width="20px" height="20px" viewBox="0 0 20 20" version="1.1" xmlns="http://www.w3.org/2000/svg" xmlns:xlink="http://www.w3.org/1999/xlink">
    <title>切片</title>
    <defs>
        <rect id="path-1" x="0" y="0" width="20" height="20"></rect>
    </defs>
    <g id="页面-1" stroke="none" stroke-width="1" fill="none" fill-rule="evenodd">
        <g id="表单配置-表单编辑（在线vue表单）" transform="translate(-406.000000, -479.000000)">
            <g id="控件" transform="translate(226.000000, 219.000000)">
                <g id="编组-10" transform="translate(16.000000, 0.000000)">
                    <g transform="translate(-16.000000, 11.000000)" id="编组-3">
                        <g transform="translate(0.000000, 205.000000)">
                            <g id="编组-5" transform="translate(168.000000, 36.000000)">
                                <g id="文本控件" transform="translate(12.000000, 8.000000)">
                                    <mask id="mask-2" fill="white">
                                        <use xlink:href="#path-1"></use>
                                    </mask>
                                    <g id="矩形"></g>
                                    <path d="M1.875,1.25 C2.22017797,1.25 2.5,1.52982203 2.5,1.875 L2.5,17.5 L18.125,17.5 C18.470178,17.5 18.75,17.779822 18.75,18.125 C18.75,18.470178 18.470178,18.75 18.125,18.75 L2.5,18.75 C1.80964406,18.75 1.25,18.1903559 1.25,17.5 L1.25,1.875 C1.25,1.52982203 1.52982203,1.25 1.875,1.25 Z" id="路径" fill="#303133" mask="url(#mask-2)"></path>
                                    <path d="M5.625,6.25 C5.97017797,6.25 6.25,6.52982203 6.25,6.875 L6.25,15.625 C6.25,15.970178 5.97017797,16.25 5.625,16.25 C5.27982203,16.25 5,15.970178 5,15.625 L5,6.875 C5,6.52982203 5.27982203,6.25 5.625,6.25 Z M9.375,8.75 C9.72017797,8.75 10,9.02982203 10,9.375 L10,15.625 C10,15.970178 9.72017797,16.25 9.375,16.25 C9.02982203,16.25 8.75,15.970178 8.75,15.625 L8.75,9.375 C8.75,9.02982203 9.02982203,8.75 9.375,8.75 Z M13.125,2.5 C13.470178,2.5 13.75,2.77982203 13.75,3.125 L13.75,15.625 C13.75,15.970178 13.470178,16.25 13.125,16.25 C12.779822,16.25 12.5,15.970178 12.5,15.625 L12.5,3.125 C12.5,2.77982203 12.779822,2.5 13.125,2.5 Z M16.875,7.5 C17.220178,7.5 17.5,7.77982203 17.5,8.125 L17.5,15.625 C17.5,15.970178 17.220178,16.25 16.875,16.25 C16.529822,16.25 16.25,15.970178 16.25,15.625 L16.25,8.125 C16.25,7.77982203 16.529822,7.5 16.875,7.5 Z" id="形状结合" fill="#409EFF" fill-rule="nonzero" mask="url(#mask-2)"></path>
                                </g>
                            </g>
                        </g>
                    </g>
                </g>
            </g>
        </g>
    </g>
</svg>