<?xml version="1.0" encoding="UTF-8"?>
<svg width="20px" height="20px" viewBox="0 0 20 20" version="1.1" xmlns="http://www.w3.org/2000/svg" xmlns:xlink="http://www.w3.org/1999/xlink">
    <title>切片</title>
    <g id="页面-1" stroke="none" stroke-width="1" fill="none" fill-rule="evenodd">
        <g id="表单配置-表单编辑（在线vue表单）" transform="translate(-254.000000, -274.000000)">
            <g id="控件" transform="translate(226.000000, 219.000000)">
                <g id="编组-10" transform="translate(16.000000, 0.000000)">
                    <g transform="translate(-16.000000, 11.000000)" id="编组-3">
                        <g id="编组-5" transform="translate(16.000000, 36.000000)">
                            <g id="文本控件" transform="translate(12.000000, 8.000000)">
                                <rect id="矩形" x="0" y="0" width="20" height="20"></rect>
                                <path d="M2,2 L18,2 L18,18 L2,18 L2,2 Z M3,3 L3,17 L17,17 L17,3 L3,3 Z" id="矩形" fill="#313131" fill-rule="nonzero"></path>
                                <path d="M10.5,7 L10.5,14 L11.5,14 C11.7761424,14 12,14.2238576 12,14.5 C12,14.7761424 11.7761424,15 11.5,15 L8.5,15 C8.22385763,15 8,14.7761424 8,14.5 C8,14.2238576 8.22385763,14 8.5,14 L9.5,14 L9.5,7 L7,7 L7,7.5 C7,7.77614237 6.77614237,8 6.5,8 C6.22385763,8 6,7.77614237 6,7.5 L6,6.5 C6,6.22385763 6.22385763,6 6.5,6 L13.5,6 C13.6380712,6 13.7630712,6.05596441 13.8535534,6.14644661 C13.9440356,6.23692881 14,6.36192881 14,6.5 L14,7.5 C14,7.77614237 13.7761424,8 13.5,8 C13.2238576,8 13,7.77614237 13,7.5 L13,7 L10.5,7 Z" id="路径" fill="#313131"></path>
                            </g>
                        </g>
                    </g>
                </g>
            </g>
        </g>
    </g>
</svg>