<?xml version="1.0" standalone="no"?><!DOCTYPE svg PUBLIC "-//W3C//DTD SVG 1.1//EN" "http://www.w3.org/Graphics/SVG/1.1/DTD/svg11.dtd"><svg t="1655101763742" class="icon" viewBox="0 0 1024 1024" version="1.1" xmlns="http://www.w3.org/2000/svg" p-id="16018" xmlns:xlink="http://www.w3.org/1999/xlink" width="16" height="16"><defs><style type="text/css">@font-face { font-family: feedback-iconfont; src: url("//at.alicdn.com/t/font_1031158_u69w8yhxdu.woff2?t=1630033759944") format("woff2"), url("//at.alicdn.com/t/font_1031158_u69w8yhxdu.woff?t=1630033759944") format("woff"), url("//at.alicdn.com/t/font_1031158_u69w8yhxdu.ttf?t=1630033759944") format("truetype"); }
</style></defs><path d="M819.2 102.4a102.4 102.4 0 0 1 102.4 102.4v614.4a102.4 102.4 0 0 1-102.4 102.4H204.8a102.4 102.4 0 0 1-102.4-102.4V204.8a102.4 102.4 0 0 1 102.4-102.4h614.4zM358.4 460.8H153.6v358.4a51.2 51.2 0 0 0 45.2096 50.8416L204.8 870.4h153.6V460.8z m256 0H409.6v409.6h204.8V460.8z m256 0h-204.8v409.6h153.6a51.2 51.2 0 0 0 50.8416-45.2096L870.4 819.2V460.8z m-51.2-307.2H204.8a51.2 51.2 0 0 0-50.8416 45.2096L153.6 204.8v204.8h716.8V204.8a51.2 51.2 0 0 0-45.2096-50.8416L819.2 153.6z m0 102.4l-76.8 102.4L665.6 256h153.6z" fill="#313131" p-id="16019"></path></svg>