<?xml version="1.0" standalone="no"?><!DOCTYPE svg PUBLIC "-//W3C//DTD SVG 1.1//EN" "http://www.w3.org/Graphics/SVG/1.1/DTD/svg11.dtd"><svg t="1655102343700" class="icon" viewBox="0 0 1024 1024" version="1.1" xmlns="http://www.w3.org/2000/svg" p-id="18554" width="14" height="14" xmlns:xlink="http://www.w3.org/1999/xlink"><defs><style type="text/css">@font-face { font-family: feedback-iconfont; src: url("//at.alicdn.com/t/font_1031158_u69w8yhxdu.woff2?t=1630033759944") format("woff2"), url("//at.alicdn.com/t/font_1031158_u69w8yhxdu.woff?t=1630033759944") format("woff"), url("//at.alicdn.com/t/font_1031158_u69w8yhxdu.ttf?t=1630033759944") format("truetype"); }
</style></defs><path d="M96 64a32 32 0 0 1 32 32V896h800a32 32 0 1 1 0 64H128a64 64 0 0 1-64-64V96a32 32 0 0 1 32-32z" fill="#606266" p-id="18555"></path><path d="M942.336 259.392a32 32 0 0 1 16.384 37.568l-2.112 5.376-192 384a32 32 0 0 1-57.792-1.152l-1.92-5.44-55.616-222.464-144.704 48.256-90.624 241.728a32 32 0 0 1-53.504 10.432l-3.584-4.736-160-256a32 32 0 0 1 50.816-38.528l3.456 4.608 125.568 201.024 73.344-195.328a32 32 0 0 1 14.592-16.832l5.248-2.24 192-64a32 32 0 0 1 39.36 17.408l1.792 5.12 43.008 172.032 153.344-306.56a32 32 0 0 1 42.88-14.272h0.064z" fill="#F69E1B" p-id="18556"></path></svg>