<?xml version="1.0" encoding="UTF-8"?>
<svg width="20px" height="20px" viewBox="0 0 20 20" version="1.1" xmlns="http://www.w3.org/2000/svg" xmlns:xlink="http://www.w3.org/1999/xlink">
    <title>切片</title>
    <g id="页面-1" stroke="none" stroke-width="1" fill="none" fill-rule="evenodd">
        <g id="表单配置-表单编辑（在线vue表单）" transform="translate(-406.000000, -274.000000)">
            <g id="控件" transform="translate(226.000000, 219.000000)">
                <g id="编组-10" transform="translate(16.000000, 0.000000)">
                    <g transform="translate(-16.000000, 11.000000)" id="编组-3">
                        <g id="编组-5" transform="translate(168.000000, 36.000000)">
                            <g id="文本控件" transform="translate(12.000000, 8.000000)">
                                <path d="M4,3 L16,3 C16.5522847,3 17,3.44771525 17,4 L17,6 L17,6 L3,6 L3,4 C3,3.44771525 3.44771525,3 4,3 Z" id="矩形" fill="#4BD336"></path>
                                <path d="M16,2 C17.1045695,2 18,2.8954305 18,4 L18,16 C18,17.1045695 17.1045695,18 16,18 L4,18 C2.8954305,18 2,17.1045695 2,16 L2,4 C2,2.8954305 2.8954305,2 4,2 L16,2 Z M7,14 L3,14 L3,16 C3,16.5128358 3.38604019,16.9355072 3.88337887,16.9932723 L4,17 L7,17 L7,14 Z M12,14 L8,14 L8,17 L12,17 L12,14 Z M17,14 L13,14 L13,17 L16,17 C16.5128358,17 16.9355072,16.6139598 16.9932723,16.1166211 L17,16 L17,14 Z M12,10 L8,10 L8,13 L12,13 L12,10 Z M7,10 L3,10 L3,13 L7,13 L7,10 Z M17,10 L13,10 L13,13 L17,13 L17,10 Z M8,6 L8,9 L12,9 L12,6 L8,6 Z M7,6 L3,6 L3,9 L7,9 L7,6 Z M16,3 L4,3 C3.48716416,3 3.06449284,3.38604019 3.00672773,3.88337887 L3,4 L3,5 L17,5 L17,4 C17,3.48716416 16.6139598,3.06449284 16.1166211,3.00672773 L16,3 Z M13,9 L17,9 L17,6 L13,6 L13,9 Z" id="形状结合" fill="#313131" fill-rule="nonzero"></path>
                            </g>
                        </g>
                    </g>
                </g>
            </g>
        </g>
    </g>
</svg>