<?xml version="1.0" encoding="UTF-8"?>
<svg width="20px" height="20px" viewBox="0 0 20 20" version="1.1" xmlns="http://www.w3.org/2000/svg" xmlns:xlink="http://www.w3.org/1999/xlink">
    <title>切片</title>
    <g id="页面-1" stroke="none" stroke-width="1" fill="none" fill-rule="evenodd">
        <g id="表单配置-表单编辑（在线vue表单）" transform="translate(-254.000000, -531.000000)">
            <g id="控件" transform="translate(226.000000, 219.000000)">
                <g id="编组-10" transform="translate(16.000000, 0.000000)">
                    <g transform="translate(-16.000000, 11.000000)" id="编组-3">
                        <g transform="translate(0.000000, 205.000000)">
                            <g id="编组-5" transform="translate(16.000000, 88.000000)">
                                <g id="文本控件" transform="translate(12.000000, 8.000000)">
                                    <rect id="矩形" x="0" y="0" width="20" height="20"></rect>
                                    <path d="M10.625,0.625 C15.3568147,0.625 19.2113734,4.38097923 19.3699262,9.07418781 L19.375,9.375 L10.625,9.375 L10.625,0.625 Z M11.875,1.98 L11.875,8.125 L18.02,8.125 L18.002115,8.01454905 C17.4437497,4.96399847 15.0411262,2.56613786 12.0028253,2.00144234 L11.875,1.98 Z" id="形状结合" fill="#409EFF" fill-rule="nonzero"></path>
                                    <path d="M9.375,1.875 L9.375,10.625 L18.125,10.625 C18.125,15.4574916 14.2074916,19.375 9.375,19.375 C4.54250844,19.375 0.625,15.4574916 0.625,10.625 C0.625,5.89318535 4.38097923,2.03862665 9.07418781,1.88007377 L9.375,1.875 Z M8.12375,3.22875 L8.01454905,3.247885 C4.5153881,3.88836287 1.875,6.95541219 1.875,10.625 C1.875,14.7671356 5.23286438,18.125 9.375,18.125 C13.0464384,18.125 16.1017215,15.4869258 16.748694,12.0029328 L16.76875,11.875 L8.125,11.875 L8.12375,3.22875 Z" id="形状结合" fill="#303133"></path>
                                </g>
                            </g>
                        </g>
                    </g>
                </g>
            </g>
        </g>
    </g>
</svg>