<?xml version="1.0" encoding="UTF-8"?>
<svg width="14px" height="14px" viewBox="0 0 14 14" version="1.1" xmlns="http://www.w3.org/2000/svg" xmlns:xlink="http://www.w3.org/1999/xlink">
    <title>关闭</title>
    <g id="登录页" stroke="none" stroke-width="1" fill="none" fill-rule="evenodd">
        <g id="首页" transform="translate(-20.000000, -23.000000)" fill="#FFFFFF" fill-rule="nonzero">
            <g id="关闭" transform="translate(20.000000, 23.000000)">
                <path d="M10.103707,8.8817842e-15 C10.3407363,8.8817842e-15 10.533332,0.193209104 10.533332,0.43099332 L10.533332,0.43099332 L10.533332,1.71408446 L11.4172871,1.71408446 C12.8395176,1.71408446 13.9950645,2.88817917 13.9950645,4.32979312 L13.9950645,4.32979312 L13.9950645,11.3892426 C13.9950645,12.8308566 12.8395039,14 11.4172871,14 L11.4172871,14 L2.33086328,13.9900975 C1.02716797,13.8662472 -8.8817842e-15,12.7466439 -8.8817842e-15,11.3892426 L-8.8817842e-15,11.3892426 L-8.8817842e-15,4.60226363 C-8.8817842e-15,2.71478885 1.15556055,1.71408446 2.57777734,1.71903573 L2.57777734,1.71903573 L3.50616602,1.71903573 L3.50616602,0.426042053 C3.50616602,0.188257838 3.69876172,8.8817842e-15 3.93086914,8.8817842e-15 C4.16789844,8.8817842e-15 4.36049414,0.193209104 4.36050781,0.43099332 L4.36050781,0.43099332 L4.36050781,1.71903573 L9.67406836,1.71903573 L9.67406836,0.426042053 C9.67901758,0.188257838 9.87159961,8.8817842e-15 10.103707,8.8817842e-15 Z M13.1259297,6.10333392 L0.879005859,6.10333392 L0.879005859,11.6468593 C0.879005859,12.4593196 1.58025,13.1231458 2.44938477,13.1231458 L2.44938477,13.1231458 L11.5506152,13.1231458 C12.4148145,13.1231458 13.1209941,12.4642571 13.1209941,11.6468593 L13.1209941,11.6468593 L13.1259297,6.10333392 Z M10.7753105,10.4876184 C11.1012344,10.4876184 11.3679043,10.6857651 11.3679043,10.928528 C11.3679043,11.1712635 11.1012344,11.3694238 10.7753105,11.3694238 L10.7753105,11.3694238 L10.2123437,11.3694238 C9.88641992,11.3694238 9.62468555,11.1712635 9.61975,10.928528 C9.61975,10.6857788 9.88641992,10.4876184 10.2123437,10.4876184 L10.2123437,10.4876184 Z M7.28395117,10.4876184 C7.609875,10.4876184 7.87654492,10.6857651 7.87654492,10.928528 C7.87654492,11.1712635 7.60988867,11.3694238 7.28395117,11.3694238 L7.28395117,11.3694238 L6.71604883,11.3694238 C6.390125,11.3694238 6.12345508,11.1712635 6.12345508,10.928528 C6.12345508,10.6857788 6.39011133,10.4876184 6.71604883,10.4876184 L6.71604883,10.4876184 Z M3.7827207,10.4876184 C4.10864453,10.4876184 4.37531445,10.6857651 4.37531445,10.928528 C4.37531445,11.1712635 4.10864453,11.3694238 3.7827207,11.3694238 L3.7827207,11.3694238 L3.21975391,11.3694238 C2.88889453,11.3694238 2.62716016,11.1712635 2.62716016,10.928528 C2.62716016,10.6857788 2.89381641,10.4876184 3.21975391,10.4876184 L3.21975391,10.4876184 Z M10.7753105,7.85704223 C11.1012344,7.85704223 11.3679043,8.0552026 11.3679043,8.2979518 C11.3679043,8.540701 11.1012344,8.73886137 10.7753105,8.73886137 L10.7753105,8.73886137 L10.2123437,8.73886137 C9.88641992,8.73886137 9.62468555,8.540701 9.61975,8.2979518 C9.61975,8.0552026 9.88641992,7.85704223 10.2123437,7.85704223 L10.2123437,7.85704223 Z M7.28395117,7.85704223 C7.609875,7.85704223 7.87654492,8.0552026 7.87654492,8.2979518 C7.87654492,8.540701 7.60988867,8.73886137 7.28395117,8.73886137 L7.28395117,8.73886137 L6.71604883,8.73886137 C6.390125,8.73886137 6.12345508,8.540701 6.12345508,8.2979518 C6.12345508,8.0552026 6.39011133,7.85704223 6.71604883,7.85704223 L6.71604883,7.85704223 Z M3.7827207,7.85704223 C4.10864453,7.85704223 4.37531445,8.0552026 4.37531445,8.2979518 C4.37531445,8.540701 4.10864453,8.73886137 3.7827207,8.73886137 L3.7827207,8.73886137 L3.21975391,8.73886137 C2.88889453,8.73886137 2.62716016,8.540701 2.62716016,8.2979518 C2.62716016,8.0552026 2.89381641,7.85704223 3.21975391,7.85704223 L3.21975391,7.85704223 Z M3.50616602,2.59588988 L2.62716016,2.59588988 C1.51111133,2.59588988 0.879005859,3.34890752 0.879005859,4.07219013 L0.879005859,4.07219013 L0.879005859,5.22647977 L13.1209941,5.22647977 L13.1209941,4.07219013 C13.2000039,3.23495982 12.2370391,2.59588988 11.3728398,2.59588988 L11.3728398,2.59588988 L10.5382676,2.59588988 L10.5382676,3.8987998 C10.5382676,4.13658402 10.3456855,4.32979312 10.1086426,4.32979312 C9.87654883,4.32979312 9.68395312,4.141549 9.67900391,3.91366732 L9.67900391,3.91366732 L9.67900391,2.59588988 L4.36542969,2.59588988 L4.36542969,3.8987998 C4.36542969,4.13658402 4.17283398,4.32979312 3.93580469,4.32979312 C3.70369727,4.32979312 3.51111523,4.141549 3.50616602,3.91366732 L3.50616602,3.91366732 L3.50616602,2.59588988 Z" id="海南/形状结合"></path>
            </g>
        </g>
    </g>
</svg>