<?xml version="1.0" encoding="UTF-8"?>
<svg width="16px" height="16px" viewBox="0 0 16 16" version="1.1" xmlns="http://www.w3.org/2000/svg" xmlns:xlink="http://www.w3.org/1999/xlink">
    <title>海南/icon/菜单/一张蓝图</title>
    <g id="海南/icon/菜单/一张蓝图" stroke="none" stroke-width="1" fill="none" fill-rule="evenodd">
        <rect id="海南/矩形" fill="#000000" opacity="0" x="0" y="0" width="16" height="16"></rect>
        <rect id="海南/矩形" fill="#000000" opacity="0" x="0" y="0" width="16" height="16"></rect>
        <path d="M4.01573333,7.08453331 C4.82373333,8.392 5.95546666,9.46906666 6.77093333,10.2421333 L6.77093333,10.2421333 L6.9264,10.3898667 C7.21569711,10.6660131 7.60032969,10.8199807 8.00026667,10.8197333 C8.39895239,10.8201033 8.78246823,10.6669262 9.0712,10.392 L9.0712,10.392 L9.20506667,10.2650667 C9.9784,9.5328 11.1394667,8.4288 11.9706667,7.08453331 L11.9706667,7.08453331 L13.24,7.08453331 C13.7295651,7.08453331 14.1626247,7.40190197 14.3098667,7.8688 L14.3098667,7.8688 L15.9477333,13.0616 C16.0401654,13.3546155 16.0083461,13.6727208 15.8597067,13.9416224 C15.7110674,14.2105241 15.4586235,14.4066759 15.1613333,14.4842667 L15.1613333,14.4842667 L9.5088,15.9608 C9.1761573,16.0477336 8.82201839,15.9772597 8.548,15.7696 L8.548,15.7696 L5.80453333,13.6912 C5.53380737,13.4860834 5.18471547,13.4146961 4.8552,13.4970667 L4.8552,13.4970667 L1.3952,14.3621333 C0.550133328,14.5733333 -0.202933328,13.7826667 0.0496,12.9488 L0.0496,12.9488 L1.58426667,7.88106667 C1.72752278,7.40799498 2.16358018,7.08453331 2.65786667,7.08453331 L2.65786667,7.08453331 Z M8,0.00266667187 C10.1624,0.00266667187 11.9154667,1.75573333 11.9154667,3.9184 C11.9154667,6.31493333 9.55386667,8.4624 8.3368,9.6184 C8.14746666,9.7984 7.85146666,9.79733334 7.66213333,9.61706667 C6.41573333,8.43093333 4.08453333,6.32266666 4.08453333,3.91813333 C4.08453333,1.75573333 5.8376,0.00266667187 8,0.00266667187 Z M8,2.44826667 C7.19586222,2.4590974 6.54966572,3.11405596 6.54966572,3.91826667 C6.54966572,4.72247738 7.19586222,5.37743595 8,5.38826667 C8.52989866,5.39540374 9.02262806,5.11679473 9.2896591,4.65904158 C9.55669014,4.20128842 9.55669014,3.63524492 9.2896591,3.17749177 C9.02262806,2.71973861 8.52989866,2.4411296 8,2.44826667 Z" id="海南/形状结合" fill="#FFFFFF" fill-rule="nonzero"></path>
    </g>
</svg>