<?xml version="1.0" encoding="UTF-8"?>
<svg width="16px" height="16px" viewBox="0 0 16 16" version="1.1" xmlns="http://www.w3.org/2000/svg" xmlns:xlink="http://www.w3.org/1999/xlink">
    <title>海南/icon/表单/fx1</title>
    <g id="海南/icon/表单/fx1" stroke="none" stroke-width="1" fill="none" fill-rule="evenodd">
        <path d="M14,0.5 C14.4142136,0.5 14.7892136,0.667893219 15.0606602,0.939339828 C15.3321068,1.21078644 15.5,1.58578644 15.5,2 L15.5,2 L15.5,14 C15.5,14.4142136 15.3321068,14.7892136 15.0606602,15.0606602 C14.7892136,15.3321068 14.4142136,15.5 14,15.5 L14,15.5 L2,15.5 C1.58578644,15.5 1.21078644,15.3321068 0.939339828,15.0606602 C0.667893219,14.7892136 0.5,14.4142136 0.5,14 L0.5,14 L0.5,2 C0.5,1.58578644 0.667893219,1.21078644 0.939339828,0.939339828 C1.21078644,0.667893219 1.58578644,0.5 2,0.5 L2,0.5 Z" id="路径" stroke="#BCC1C9" fill="#FFFFFF"></path>
    </g>
</svg>