<?xml version="1.0" encoding="UTF-8"?>
<svg width="12px" height="12px" viewBox="0 0 12 12" version="1.1" xmlns="http://www.w3.org/2000/svg" xmlns:xlink="http://www.w3.org/1999/xlink">
    <title>海南/icon/密码</title>
    <g id="登录页" stroke="none" stroke-width="1" fill="none" fill-rule="evenodd">
        <g id="首页" transform="translate(-900.000000, -846.000000)" fill="#FFFFFF" fill-rule="nonzero">
            <g id="编组" transform="translate(377.000000, 807.000000)">
                <g id="编组-5" transform="translate(502.000000, 25.000000)">
                    <g id="海南/icon/密码" transform="translate(21.000000, 14.000000)">
                        <path d="M6.00403846,7.99360578e-15 C7.51110577,7.99360578e-15 8.74855323,1.24032768 8.83502005,2.79800148 L8.83984615,2.97233541 L8.83984615,4.2796483 L9.63461538,4.2796483 C10.4793765,4.2796483 11.1733565,4.96947562 11.244067,5.84731979 L11.25,5.99528201 L11.25,10.2843663 C11.25,11.1815524 10.6004811,11.9186001 9.77393177,11.9936988 L9.63461538,12 L2.36538462,12 C1.52062348,12 0.826643512,11.3101727 0.755933047,10.4323285 L0.75,10.2843663 L0.75,5.99528201 C0.75,5.09809587 1.39951886,4.36104822 2.22606823,4.28594954 L2.36538462,4.2796483 L3.16903846,4.2796483 L3.16903846,2.97233541 C3.16903846,1.33390521 4.44115385,7.99360578e-15 6.00403846,7.99360578e-15 Z M6,6 C5.33123077,6 4.78846154,6.4190625 4.78846154,6.9375 C4.78846154,7.3453125 5.12688462,7.6884375 5.59615385,7.8178125 L5.59615385,9.28125 C5.59615385,9.54 5.77707692,9.75 6,9.75 C6.22292308,9.75 6.40384615,9.54 6.40384615,9.28125 L6.40384615,7.8178125 C6.87311538,7.6884375 7.21153846,7.3453125 7.21153846,6.9375 C7.21153846,6.42 6.66876923,6 6,6 Z M6.00403846,0.849238688 C4.93633946,0.849238688 4.05855962,1.72120222 3.98424927,2.82100987 L3.97915385,2.97233541 L3.97915385,4.2796483 L8.02973077,4.2796483 L8.02973077,2.97233541 C8.02973077,1.8014154 7.12107692,0.849238688 6.00403846,0.849238688 Z" id="海南/形状结合"></path>
                    </g>
                </g>
            </g>
        </g>
    </g>
</svg>