<?xml version="1.0" encoding="UTF-8"?>
<svg width="40px" height="40px" viewBox="0 0 40 40" version="1.1" xmlns="http://www.w3.org/2000/svg" xmlns:xlink="http://www.w3.org/1999/xlink">
    <title>海南/首页/菜单/公文管理</title>
    <defs>
        <filter id="filter-1">
            <feColorMatrix in="SourceGraphic" type="matrix" values="0 0 0 0 0.200168 0 0 0 0 0.878623 0 0 0 0 0.674577 0 0 0 1.000000 0"></feColorMatrix>
        </filter>
    </defs>
    <g id="登录页" stroke="none" stroke-width="1" fill="none" fill-rule="evenodd">
        <g id="首页" transform="translate(-751.000000, -487.000000)">
            <g id="编组-14" transform="translate(377.000000, 357.000000)">
                <g id="编组-13" transform="translate(276.000000, 36.000000)">
                    <g id="编组-4" transform="translate(74.000000, 74.000000)">
                        <g id="海南/首页/菜单/公文管理" transform="translate(24.000000, 20.000000)" filter="url(#filter-1)">
                            <g>
                                <path d="M18.98564,0.382338979 C19.2078966,0.253892816 19.4202751,0.0927596421 19.674411,0.0352120521 C20.0053264,-0.0352261839 20.365876,-0.0048410533 20.6626671,0.170563934 C26.8351146,3.87754791 33.009358,7.58222994 39.1818054,11.2887535 C39.5257419,11.5023701 39.8063689,11.8352252 39.9258038,12.2325336 C40.088343,12.7771637 39.9828272,13.410187 39.6191346,13.8470881 C39.3200984,14.2117095 38.8571761,14.4170392 38.3947028,14.4188807 C37.5564137,14.4239449 36.7181247,14.4188807 35.8802847,14.4211826 C35.8798357,21.0004807 35.8798357,27.5793183 35.8802847,34.1586164 C36.2107511,34.1590767 36.5412174,34.1586164 36.8716838,34.1590767 C37.2771337,34.1632202 37.6906657,34.129152 38.0853396,34.2474698 C38.9541608,34.4790412 39.66628,35.2257784 39.8728214,36.1216789 C39.9774392,36.5291157 39.9361309,36.9535865 39.9451109,37.3697705 C39.9594791,38.02259 39.7210583,38.6763304 39.2900152,39.1569677 C38.8284399,39.6818015 38.1482,39.9971621 37.458531,39.999464 C25.8280003,39.9999626 14.1979185,39.999464 2.56738779,39.9999626 C1.92800717,40.0036074 1.29311662,39.7407302 0.832888302,39.2863346 C0.338086765,38.8066181 0.0489286455,38.1137454 0.0547657068,37.4158085 C0.0641947589,36.9987038 0.0215394487,36.5746933 0.116728158,36.1649547 C0.257266171,35.5204219 0.65238901,34.9403425 1.19209089,34.5803249 C1.59843882,34.3050173 2.08470934,34.1572352 2.57142882,34.1590767 C3.07521045,34.158156 3.57899208,34.1595371 4.0827737,34.1586164 C4.08187571,27.5793183 4.0836717,21.0000203 4.08187571,14.4207222 C3.2610978,14.4202619 2.44076889,14.4225637 1.62043999,14.4198015 C1.19074389,14.4198015 0.758802767,14.2490003 0.457072604,13.9322585 C-0.0646691694,13.3931529 -0.150428789,12.4746938 0.255021139,11.8402894 C0.401845212,11.6105596 0.603896639,11.419962 0.833337301,11.2790855 C6.88410487,7.64714362 12.9348724,4.0147413 18.98564,0.382338979 M19.8576043,8.74100774 C19.6582468,8.85702363 19.5275869,9.05867029 19.4346432,9.26814341 C18.8958394,10.3923927 18.3520965,11.5138796 17.8141906,12.6385892 C16.5646146,12.8291868 15.3136916,13.0096559 14.0641156,13.1988723 C13.703566,13.2458312 13.3816306,13.514233 13.2698289,13.8696467 C13.147251,14.2278228 13.2496237,14.649071 13.5181277,14.9096463 C14.4219712,15.8133733 15.3276107,16.7147984 16.2314542,17.6189857 C16.0190757,18.8919379 15.8057991,20.16489 15.5938696,21.4383025 C15.5377442,21.7311045 15.6176668,22.0469256 15.8071461,22.2738932 C16.0042586,22.5174345 16.3194588,22.650024 16.627026,22.6242427 C16.8259345,22.6141144 17.0046378,22.5160533 17.176157,22.4202942 C18.2380496,21.8466601 19.3012893,21.2757882 20.3631819,20.7016937 C21.4906291,21.3066337 22.6153822,21.9166379 23.7423803,22.5224987 C24.0472535,22.6836318 24.4356412,22.6661374 24.7207583,22.467253 C25.0341625,22.2610025 25.2101718,21.856328 25.1464134,21.4792764 C24.9340348,20.1929732 24.7162683,18.9080512 24.5025427,17.621748 C25.3556489,16.7691233 26.208755,15.9164985 27.0618612,15.0643342 C27.2257474,14.9082652 27.3918785,14.7393055 27.459229,14.5141795 C27.6105431,14.0832633 27.4233088,13.5667163 27.038962,13.3369865 C26.8521767,13.2163668 26.6285731,13.1956497 26.4152965,13.1652645 C25.2483371,12.9917011 24.0813777,12.8181376 22.9144183,12.6441138 C22.3652873,11.5037512 21.8157074,10.3638491 21.2683725,9.22302613 C21.1866539,9.04163622 21.067219,8.87313695 20.9019858,8.76310598 C20.5971126,8.54902906 20.1710086,8.53982142 19.8576043,8.74100774 M9.81340197,28.5962989 C9.45554638,28.6874542 9.17222536,29.0249131 9.14573416,29.4033459 C9.13495807,29.6455061 9.11924296,29.9033192 9.22835075,30.1266037 C9.37472578,30.4507116 9.71731526,30.6647885 10.0652928,30.6509771 C16.6059229,30.6505168 23.147002,30.6509771 29.6876321,30.6509771 C29.8932756,30.649596 30.1092461,30.6693924 30.3023175,30.5809993 C30.6175178,30.4516324 30.8451624,30.1238415 30.8545915,29.774873 C30.8595305,29.55343 30.8743476,29.3204774 30.780057,29.1146873 C30.642662,28.7868964 30.3063586,28.5622307 29.957932,28.5672949 C23.4029338,28.5659138 16.8479356,28.5672949 10.2933864,28.5668345 C10.1330923,28.5672949 9.97010409,28.5562458 9.81340197,28.5962989 M9.816096,32.9740573 C9.45868944,33.0633711 9.17447039,33.3985281 9.14618316,33.7760401 C9.13361107,34.0292494 9.11879396,34.3013343 9.24137186,34.5319849 C9.39448196,34.8436626 9.73033638,35.0425469 10.0697828,35.030577 C16.6988666,35.0301167 23.3275013,35.0319582 29.956585,35.0296563 C30.3903221,35.0397847 30.7953231,34.6834501 30.8474074,34.2410244 C30.8801847,33.8961994 30.8725516,33.5021137 30.6175178,33.2406176 C30.4091803,32.9961555 30.0800609,32.9197324 29.7756367,32.9427514 C23.3113371,32.9445929 16.8474866,32.9432118 10.3836361,32.9436721 C10.1941567,32.945974 10.0019833,32.9289399 9.816096,32.9740573 L9.816096,32.9740573 Z" id="形状" fill="#28C3FF"></path>
                            </g>
                        </g>
                    </g>
                </g>
            </g>
        </g>
    </g>
</svg>