<?xml version="1.0" encoding="UTF-8"?>
<svg width="20px" height="20px" viewBox="0 0 20 20" version="1.1" xmlns="http://www.w3.org/2000/svg" xmlns:xlink="http://www.w3.org/1999/xlink">
    <title>海南/首页/菜单/公文管理</title>
    <g id="登录页" stroke="none" stroke-width="1" fill="none" fill-rule="evenodd">
        <g id="首页" transform="translate(-1149.000000, -748.000000)" fill="#FFFFFF" fill-rule="nonzero">
            <g id="编组-10" transform="translate(968.000000, 722.000000)">
                <g id="海南/首页/菜单/公文管理" transform="translate(181.000000, 26.000000)">
                    <path d="M6.77293516,10.7959107 C8.11018637,10.7959107 9.19424267,11.879967 9.19424267,13.2172182 L9.19424267,17.5675007 C9.19424267,18.8512618 8.19517639,19.9016786 6.9321368,19.9836579 L6.77293516,19.9888082 L6.77293516,19.9888082 L2.42130751,19.9888082 C1.0840563,19.9888082 -4.64872585e-12,18.9047519 -4.64872585e-12,17.5675007 L-4.64872585e-12,13.2172182 C-4.64872585e-12,11.879967 1.0840563,10.7959107 2.42130751,10.7959107 L6.77293516,10.7959107 Z M19.1928975,18.3746032 C19.6386479,18.3746032 20,18.7359553 20,19.1817057 C20,19.5931676 19.6921024,19.9327161 19.2941387,19.9825197 L19.1928975,19.9888082 L19.1928975,19.9888082 L11.6195857,19.9888082 C11.1738353,19.9888082 10.8124832,19.6274561 10.8124832,19.1817057 C10.8124832,18.7359553 11.1738353,18.3746032 11.6195857,18.3746032 L19.1928975,18.3746032 Z M19.1928975,14.6525155 C19.6386479,14.6525155 20,15.0138676 20,15.459618 C20,15.8710799 19.6921024,16.2106284 19.2941387,16.260432 L19.1928975,16.2667205 L19.1928975,16.2667205 L11.6195857,16.2667205 C11.1738353,16.2667205 10.8124832,15.9053684 10.8124832,15.459618 C10.8124832,15.0138676 11.1738353,14.6525155 11.6195857,14.6525155 L19.1928975,14.6525155 Z M19.1928975,10.9304278 C19.6386479,10.9304278 20,11.2917799 20,11.7375303 C20,12.1489922 19.6921024,12.4885407 19.2941387,12.5383443 L19.1928975,12.5446328 L19.1928975,12.5446328 L11.6195857,12.5446328 C11.3312357,12.5446328 11.0647894,12.3907999 10.9206144,12.1410815 C10.7764394,11.8913631 10.7764394,11.5836974 10.9206144,11.333979 C11.0647894,11.0842606 11.3312357,10.9304278 11.6195857,10.9304278 L19.1928975,10.9304278 Z M6.77293516,2.72543892e-13 C8.11018637,2.72543892e-13 9.19424267,1.0840563 9.19424267,2.42130751 L9.19424267,6.77293516 C9.19424267,8.05669632 8.19517639,9.10711305 6.9321368,9.18909237 L6.77293516,9.19424267 L6.77293516,9.19424267 L2.42130751,9.19424267 C1.0840563,9.19424267 -4.64872585e-12,8.11018637 -4.64872585e-12,6.77293516 L-4.64872585e-12,2.42130751 C-4.64872585e-12,1.0840563 1.0840563,2.72543892e-13 2.42130751,2.72543892e-13 L6.77293516,2.72543892e-13 Z M17.5786925,2.72543892e-13 C18.9159437,2.72543892e-13 20,1.0840563 20,2.42130751 L20,6.77293516 C20,8.05669632 19.0009337,9.10711305 17.7378941,9.18909237 L17.5786925,9.19424267 L17.5786925,9.19424267 L13.2337907,9.19424267 C11.8965395,9.19424267 10.8124832,8.11018637 10.8124832,6.77293516 L10.8124832,2.42130751 C10.8124832,1.0840563 11.8965395,2.72543892e-13 13.2337907,2.72543892e-13 L17.5786925,2.72543892e-13 Z" id="形状结合"></path>
                </g>
            </g>
        </g>
    </g>
</svg>