<?xml version="1.0" standalone="no"?><!DOCTYPE svg PUBLIC "-//W3C//DTD SVG 1.1//EN" "http://www.w3.org/Graphics/SVG/1.1/DTD/svg11.dtd"><svg t="1567678953090" class="icon" viewBox="0 0 1024 1024" version="1.1" xmlns="http://www.w3.org/2000/svg" p-id="5208" xmlns:xlink="http://www.w3.org/1999/xlink" width="200" height="200"><defs><style type="text/css"></style></defs><path d="M96 0h832a96 96 0 0 1 95.552 86.784L1024 96v384a32 32 0 0 1-63.488 5.76L960 480v-384a32 32 0 0 0-26.24-31.488L928 64h-832a32 32 0 0 0-31.488 26.24L64 96v832a32 32 0 0 0 26.24 31.488L96 960h512a32 32 0 0 1 5.76 63.488L608 1024h-512a96 96 0 0 1-95.552-86.784L0 928v-832A96 96 0 0 1 86.784 0.448L96 0h832-832z m576 320a288 288 0 0 1 218.24 475.904l113.408 113.344a32 32 0 1 1-45.248 45.248l-115.008-115.008A288 288 0 1 1 672 320z m0 64a224 224 0 1 0 149.504 390.784 7.616 7.616 0 0 1 1.152-1.28l2.816-2.368A224 224 0 0 0 672 384zM321.408 576a356.48 356.48 0 0 0 0 64H224a32 32 0 0 1 0-64h97.408zM672 448A160 160 0 0 1 832 608a32 32 0 1 1-64 0A96 96 0 0 0 672 512a32 32 0 1 1 0-64zM400.448 384a352.512 352.512 0 0 0-42.112 64H224a32 32 0 0 1 0-64h176.448zM800 192a32 32 0 1 1 0 64h-576a32 32 0 0 1 0-64h576z" p-id="5209"></path></svg>