<?xml version="1.0" standalone="no"?><!DOCTYPE svg PUBLIC "-//W3C//DTD SVG 1.1//EN" "http://www.w3.org/Graphics/SVG/1.1/DTD/svg11.dtd"><svg t="1566984361339" class="icon" viewBox="0 0 1024 1024" version="1.1" xmlns="http://www.w3.org/2000/svg" p-id="2528" xmlns:xlink="http://www.w3.org/1999/xlink" width="200" height="200"><defs><style type="text/css"></style></defs><path d="M936.896 178.56a127.808 127.808 0 0 1 0 241.024v560.832a42.56 42.56 0 1 1-85.12 0V419.584a127.808 127.808 0 0 1 0-241.024V43.584a42.56 42.56 0 1 1 85.12 0v135.04zM553.664 391.552a127.808 127.808 0 0 1 0 241.024v347.904a42.56 42.56 0 1 1-85.184 0V632.512a127.808 127.808 0 0 1 0-241.024V43.584a42.56 42.56 0 1 1 85.12 0v347.904zM170.368 604.416a127.808 127.808 0 0 1 0 241.024v134.976a42.56 42.56 0 1 1-85.12 0v-135.04a127.808 127.808 0 0 1 0-240.96V43.52a42.56 42.56 0 1 1 85.12 0v560.832z m-42.56 184.32a63.872 63.872 0 1 0 0-127.68 63.872 63.872 0 0 0 0 127.744z m383.232-212.864a63.872 63.872 0 1 0 0-127.744 63.872 63.872 0 0 0 0 127.744z m383.296-212.928a63.872 63.872 0 1 0 0-127.744 63.872 63.872 0 0 0 0 127.744z" p-id="2529"></path></svg>