<?xml version="1.0" standalone="no"?><!DOCTYPE svg PUBLIC "-//W3C//DTD SVG 1.1//EN" "http://www.w3.org/Graphics/SVG/1.1/DTD/svg11.dtd"><svg t="1567678541109" class="icon" viewBox="0 0 1024 1024" version="1.1" xmlns="http://www.w3.org/2000/svg" p-id="4110" xmlns:xlink="http://www.w3.org/1999/xlink" width="200" height="200"><defs><style type="text/css"></style></defs><path d="M832 0v256h192v768H256v-192H0V0h832z m128 320h-128v512H320v128h640V320z m-192-256H64v704h704V64zM608 512a96 96 0 1 1 0 192 96 96 0 0 1 0-192zM448 576v64H128V576h320z m160 0a32 32 0 1 0 0 64 32 32 0 0 0 0-64zM704 384v64H128V384h576z m0-192v64H128V192h576z" p-id="4111"></path></svg>