<?xml version="1.0" standalone="no"?><!DOCTYPE svg PUBLIC "-//W3C//DTD SVG 1.1//EN" "http://www.w3.org/Graphics/SVG/1.1/DTD/svg11.dtd"><svg t="1568019556578" class="icon" viewBox="0 0 1024 1024" version="1.1" xmlns="http://www.w3.org/2000/svg" p-id="3474" xmlns:xlink="http://www.w3.org/1999/xlink" width="200" height="200"><defs><style type="text/css"></style></defs><path d="M192 128h549.504a64 64 0 0 1 45.248 18.752l90.496 90.496a64 64 0 0 1 18.752 45.248V832a64 64 0 0 1-64 64H192a64 64 0 0 1-64-64V192a64 64 0 0 1 64-64z" fill="#5580EB" fill-opacity=".25" p-id="3475"></path><path d="M773.504 0a96 96 0 0 1 67.84 28.16l154.56 154.496A96 96 0 0 1 1024 250.496V864a160 160 0 0 1-160 160h-704A160 160 0 0 1 0 864v-704A160 160 0 0 1 160 0h613.504zM256 64H160A96 96 0 0 0 64 160v704A96 96 0 0 0 160 960H256v-192a64 64 0 0 1 64-64h384a64 64 0 0 1 64 64v192h96a96 96 0 0 0 96-96V250.496a32 32 0 0 0-9.344-22.592l-154.56-154.56A32 32 0 0 0 773.504 64H768v192a64 64 0 0 1-64 64H320a64 64 0 0 1-64-64V64z m448 704H320v192h384v-192z m0-704h-64v96a32 32 0 0 1-64 0V64H320v192h384V64z" fill="#5580EB" p-id="3476"></path></svg>