<?xml version="1.0" standalone="no"?><!DOCTYPE svg PUBLIC "-//W3C//DTD SVG 1.1//EN" "http://www.w3.org/Graphics/SVG/1.1/DTD/svg11.dtd"><svg t="1567412386752" class="icon" viewBox="0 0 1024 1024" version="1.1" xmlns="http://www.w3.org/2000/svg" p-id="6774" xmlns:xlink="http://www.w3.org/1999/xlink" width="200" height="200"><defs><style type="text/css"></style></defs><path d="M512 0a512 512 0 1 1 0 1024A512 512 0 0 1 512 0z m0 73.142857a438.857143 438.857143 0 1 0 0 877.714286A438.857143 438.857143 0 0 0 512 73.142857z m166.985143 155.136l103.497143 103.424a36.571429 36.571429 0 0 1 0 51.712L472.137143 693.76a36.571429 36.571429 0 0 1-14.262857 8.777143l-155.209143 51.785143a36.571429 36.571429 0 0 1-46.226286-46.226286l51.712-155.209143a36.571429 36.571429 0 0 1 8.777143-14.262857L627.346286 228.205714a36.571429 36.571429 0 0 1 51.712 0z m-25.819429 77.531429L374.784 584.265143l-25.819429 77.604571 77.531429-25.819428 278.381714-278.381715-51.712-51.712z" fill="#5580EB" p-id="6775"></path></svg>