<?xml version="1.0" standalone="no"?><!DOCTYPE svg PUBLIC "-//W3C//DTD SVG 1.1//EN" "http://www.w3.org/Graphics/SVG/1.1/DTD/svg11.dtd"><svg t="1567413597606" class="icon" viewBox="0 0 1024 1024" version="1.1" xmlns="http://www.w3.org/2000/svg" p-id="7262" xmlns:xlink="http://www.w3.org/1999/xlink" width="200" height="200"><defs><style type="text/css"></style></defs><path d="M512 0a512 512 0 1 1 0 1024A512 512 0 0 1 512 0z m0 73.142857a438.857143 438.857143 0 1 0 0 877.714286A438.857143 438.857143 0 0 0 512 73.142857z m109.714286 658.285714a36.571429 36.571429 0 1 1 0 73.142858h-219.428572a36.571429 36.571429 0 1 1 0-73.142858h219.428572zM512.365714 219.428571c9.728 0 18.505143 5.632 22.674286 14.409143l54.125714 116.077715 121.124572 18.651428c9.289143 1.462857 16.969143 7.899429 19.821714 16.822857 2.998857 8.777143 0.731429 18.578286-5.851429 25.234286l-88.502857 90.550857 20.041143 124.342857A24.941714 24.941714 0 0 1 632.100571 658.285714a26.843429 26.843429 0 0 1-11.922285-2.779428l-108.397715-60.342857-108.251428 59.611428a24.941714 24.941714 0 0 1-36.644572-25.892571l21.065143-128.219429-88.283428-90.843428a24.722286 24.722286 0 0 1-5.778286-25.307429 24.722286 24.722286 0 0 1 19.894857-16.822857l121.417143-18.212572 54.564571-115.785142A25.014857 25.014857 0 0 1 512.438857 219.428571z" fill="#5580EB" p-id="7263"></path></svg>