<?xml version="1.0" standalone="no"?><!DOCTYPE svg PUBLIC "-//W3C//DTD SVG 1.1//EN" "http://www.w3.org/Graphics/SVG/1.1/DTD/svg11.dtd"><svg t="1567413353713" class="icon" viewBox="0 0 1024 1024" version="1.1" xmlns="http://www.w3.org/2000/svg" p-id="7018" xmlns:xlink="http://www.w3.org/1999/xlink" width="200" height="200"><defs><style type="text/css"></style></defs><path d="M624.269854 790.845433a39.454813 39.454813 0 0 1 0 55.894319l-83.804947 83.731882a315.930766 315.930766 0 1 1-446.78923-446.78923L177.407559 399.804393a39.454813 39.454813 0 1 1 55.894319 55.894319L149.423867 539.503658a236.948074 236.948074 0 0 0 335.146721 335.146721l83.731882-83.804946a39.454813 39.454813 0 0 1 55.894319 0z m167.536828-55.821255a39.454813 39.454813 0 0 1-55.821254 55.821255l-502.68355-502.68355a39.454813 39.454813 0 1 1 55.821255-55.821254l502.683549 502.683549z m139.626201-642.30975a315.930766 315.930766 0 0 1 0 446.78923L847.701001 623.381669a39.454813 39.454813 0 1 1-55.894319-55.894319l83.804947-83.731882A236.948074 236.948074 0 0 0 540.464907 148.462618L456.733025 232.340629a39.454813 39.454813 0 0 1-55.894319-55.894319l83.804947-83.731882a315.930766 315.930766 0 0 1 446.78923 0z" fill="#5580EB" p-id="7019"></path></svg>