<?xml version="1.0" standalone="no"?><!DOCTYPE svg PUBLIC "-//W3C//DTD SVG 1.1//EN" "http://www.w3.org/Graphics/SVG/1.1/DTD/svg11.dtd"><svg t="1567412391181" class="icon" viewBox="0 0 1024 1024" version="1.1" xmlns="http://www.w3.org/2000/svg" p-id="6896" xmlns:xlink="http://www.w3.org/1999/xlink" width="200" height="200"><defs><style type="text/css"></style></defs><path d="M512 0a512 512 0 1 1 0 1024A512 512 0 0 1 512 0z m0 73.142857a438.857143 438.857143 0 1 0 0 877.714286A438.857143 438.857143 0 0 0 512 73.142857z m-37.156571 228.059429c25.453714-19.090286 46.08-5.12 46.08 28.525714v89.746286h4.315428c148.260571 0 277.211429 159.963429 279.332572 302.226285 0 11.337143-9.874286 14.482286-19.309715 0-47.908571-79.872-126.171429-121.270857-228.790857-121.270857h-35.547428v94.793143c0 28.306286-22.308571 47.616-47.762286 28.525714L238.445714 548.132571c-25.453714-19.017143-25.453714-50.249143 0-69.266285l236.324572-177.590857z" fill="#5580EB" p-id="6897"></path></svg>