<?xml version="1.0" standalone="no"?><!DOCTYPE svg PUBLIC "-//W3C//DTD SVG 1.1//EN" "http://www.w3.org/Graphics/SVG/1.1/DTD/svg11.dtd"><svg t="1568019553258" class="icon" viewBox="0 0 1024 1024" version="1.1" xmlns="http://www.w3.org/2000/svg" p-id="3347" xmlns:xlink="http://www.w3.org/1999/xlink" width="200" height="200"><defs><style type="text/css"></style></defs><path d="M128 192m64 0l576 0q64 0 64 64l0 576q0 64-64 64l-576 0q-64 0-64-64l0-576q0-64 64-64Z" fill="#5580EB" fill-opacity=".25" p-id="3348"></path><path d="M672 64a32 32 0 0 1 5.76 63.488L672 128h-512a96 96 0 0 0-95.552 86.784L64 224v640a96 96 0 0 0 86.784 95.552L160 960h640a96 96 0 0 0 95.552-86.784L896 864v-512a32 32 0 0 1 63.488-5.76L960 352v512a160 160 0 0 1-149.504 159.68L800 1024h-640a160 160 0 0 1-159.68-149.504L0 864v-640a160 160 0 0 1 149.504-159.68L160 64h512z m0 576a32 32 0 1 1 0 64h-448a32 32 0 1 1 0-64h448z m-192-192a32 32 0 0 1 0 64h-256a32 32 0 0 1 0-64h256zM1003.648 20.352a32 32 0 0 1 0 45.248l-362.048 362.048a32 32 0 0 1-45.248-45.248L958.4 20.352a32 32 0 0 1 45.248 0z" fill="#5580EB" p-id="3349"></path></svg>