<?xml version="1.0" standalone="no"?><!DOCTYPE svg PUBLIC "-//W3C//DTD SVG 1.1//EN" "http://www.w3.org/Graphics/SVG/1.1/DTD/svg11.dtd"><svg t="1568192010270" class="icon" viewBox="0 0 1024 1024" version="1.1" xmlns="http://www.w3.org/2000/svg" p-id="3347" xmlns:xlink="http://www.w3.org/1999/xlink" width="200" height="200"><defs><style type="text/css"></style></defs><path d="M128 128h768v768H128z" fill="#5580EB" fill-opacity=".15" p-id="3348"></path><path d="M0 0h1024v1024H0V0z m64 64v896h896V64H64z m767.872 544.96c0 60.608-58.752 60.608-88.704 60.608a227.2 227.2 0 0 1-131.52-53.376c-72.704 16-141.888 39.296-211.392 67.84C345.088 781.824 293.504 832 249.152 832c-8.768 0-19.584-1.6-26.752-7.232A52.48 52.48 0 0 1 192 776.64c0-16 3.584-60.544 172.288-133.568a1260.736 1260.736 0 0 0 93.888-220.992c-21.12-42.88-67.52-148.032-35.584-201.344a56.192 56.192 0 0 1 55.168-28.48c17.6 0 35.584 8.832 46.336 23.232 23.232 32.128 21.184 99.84-8.768 199.744A536.32 536.32 0 0 0 625.28 557.632a590.272 590.272 0 0 1 111.936-12.416c83.904 1.6 96.32 40.96 94.72 63.744zM494.144 503.872l-1.6 3.648-1.6-1.6c-16 40.896-33.536 81.792-53.12 121.088l3.584-1.6v3.648c39.168-14.464 81.536-26.88 120.704-35.712l-1.6-1.6h5.12a541.888 541.888 0 0 1-71.488-87.872z m-12.352-258.304h-5.248c-1.6 0-5.12 0-7.168 1.6-7.168 30.528-1.6 62.592 10.816 91.072 10.368-30.464 10.368-62.592 1.6-92.672z m-236.224 534.72l5.184-1.664c24.768-8.768 44.352-26.88 58.752-49.728a138.88 138.88 0 0 0-64 51.392z m490.368-181.76c-16 0-30.336 0-46.336 3.648 17.6 8.832 35.584 12.416 53.12 14.4 12.416 1.664 24.832 0 35.584-3.584 0-5.632-6.784-14.464-42.368-14.464z" fill="#5580EB" p-id="3349"></path></svg>