<?xml version="1.0" standalone="no"?><!DOCTYPE svg PUBLIC "-//W3C//DTD SVG 1.1//EN" "http://www.w3.org/Graphics/SVG/1.1/DTD/svg11.dtd"><svg t="1567413772492" class="icon" viewBox="0 0 1024 1024" version="1.1" xmlns="http://www.w3.org/2000/svg" p-id="7384" xmlns:xlink="http://www.w3.org/1999/xlink" width="200" height="200"><defs><style type="text/css"></style></defs><path d="M512 0a512 512 0 1 1 0 1024A512 512 0 0 1 512 0z m0 73.142857a438.857143 438.857143 0 1 0 0 877.714286A438.857143 438.857143 0 0 0 512 73.142857z m-6.582857 183.442286L512 256a36.571429 36.571429 0 0 1 35.986286 29.988571L548.571429 292.571429v182.857142H731.428571a36.571429 36.571429 0 0 1 35.986286 29.988572L768 512a36.571429 36.571429 0 0 1-29.988571 35.986286L731.428571 548.571429H548.571429V731.428571a36.571429 36.571429 0 0 1-29.988572 35.986286L512 768a36.571429 36.571429 0 0 1-35.986286-29.988571L475.428571 731.428571V548.571429H292.571429a36.571429 36.571429 0 0 1-35.986286-29.988572L256 512a36.571429 36.571429 0 0 1 29.988571-35.986286L292.571429 475.428571h182.857142V292.571429a36.571429 36.571429 0 0 1 29.988572-35.986286L512 256z" fill="#5580EB" p-id="7385"></path></svg>