<?xml version="1.0" standalone="no"?><!DOCTYPE svg PUBLIC "-//W3C//DTD SVG 1.1//EN" "http://www.w3.org/Graphics/SVG/1.1/DTD/svg11.dtd"><svg t="1567412285828" class="icon" viewBox="0 0 1024 1024" version="1.1" xmlns="http://www.w3.org/2000/svg" p-id="6652" xmlns:xlink="http://www.w3.org/1999/xlink" width="200" height="200"><defs><style type="text/css"></style></defs><path d="M512 0a512 512 0 1 1 0 1024A512 512 0 0 1 512 0z m0 73.142857a438.857143 438.857143 0 1 0 0 877.714286A438.857143 438.857143 0 0 0 512 73.142857z m2.998857 459.337143c75.337143-16.749714 94.061714-28.379429 126.683429-13.897143 25.088 11.044571 80.822857 44.178286 147.309714 61.293714a20.699429 20.699429 0 0 1 14.921143 24.649143c-7.314286 32.694857-22.820571 96.548571-38.034286 128.585143l-2.194286 4.388572a17.700571 17.700571 0 0 1-14.774857 8.411428 17.481143 17.481143 0 0 1-5.412571-1.097143l-1.755429-0.438857c-21.138286-4.973714-43.52-10.825143-57.856-12.653714-32.402286-4.242286-179.492571 33.938286-220.452571 37.083428-40.96 3.072-87.186286-39.570286-117.248-55.588571-30.061714-16.091429-126.610286-78.848-126.610286-78.848s-4.827429-44.178286 46.811429-32.402286c51.712 11.702857 131.364571 55.588571 131.364571 55.588572s57.344 17.408 97.792 5.412571c27.940571-8.265143 65.170286-20.553143 79.798857-35.254857 13.677714-13.750857 12.141714-27.574857 0.658286-25.746286-23.917714 3.657143-115.712 12.434286-140.726857 4.608-24.941714-7.753143-38.985143-37.449143-28.16-55.588571 0 0 32.548571-1.901714 107.885714-18.578286zM573.147429 292.571429a36.864 36.864 0 1 1 0 73.728H329.435429a36.864 36.864 0 1 1 0-73.728z" fill="#5580EB" p-id="6653"></path></svg>