<?xml version="1.0" standalone="no"?><!DOCTYPE svg PUBLIC "-//W3C//DTD SVG 1.1//EN" "http://www.w3.org/Graphics/SVG/1.1/DTD/svg11.dtd"><svg t="1567679256359" class="icon" viewBox="0 0 1024 1024" version="1.1" xmlns="http://www.w3.org/2000/svg" p-id="5452" xmlns:xlink="http://www.w3.org/1999/xlink" width="200" height="200"><defs><style type="text/css"></style></defs><path d="M960 0a64 64 0 0 1 64 64v704l-256 256H64a64 64 0 0 1-64-64V64a64 64 0 0 1 64-64h896z m0 64H64v896h677.504v-0.064L736 960v-160a64 64 0 0 1 56.512-63.552l7.488-0.448H960V64z m-58.496 735.936L800 800v101.44l101.504-101.504zM506.24 320.576L512 320a32 32 0 0 1 31.488 26.24l0.512 5.76v128h128a32 32 0 0 1 31.488 26.24L704 512a32 32 0 0 1-26.24 31.488l-5.76 0.512h-128v128a32 32 0 0 1-26.24 31.488L512 704a32 32 0 0 1-31.488-26.24L480 672v-128h-128a32 32 0 0 1-31.488-26.24L320 512a32 32 0 0 1 26.24-31.488L352 480h128v-128a32 32 0 0 1 26.24-31.488L512 320l-5.76 0.512z" p-id="5453"></path></svg>