<?xml version="1.0" standalone="no"?><!DOCTYPE svg PUBLIC "-//W3C//DTD SVG 1.1//EN" "http://www.w3.org/Graphics/SVG/1.1/DTD/svg11.dtd"><svg t="1567678630223" class="icon" viewBox="0 0 1024 1024" version="1.1" xmlns="http://www.w3.org/2000/svg" p-id="4598" xmlns:xlink="http://www.w3.org/1999/xlink" width="200" height="200"><defs><style type="text/css"></style></defs><path d="M960 0a64 64 0 0 1 64 64v896a64 64 0 0 1-64 64H64a64 64 0 0 1-64-64V64a64 64 0 0 1 64-64h896z m0 64H64v896h896V64z m-224 768a32 32 0 1 1 0 64h-448a32 32 0 1 1 0-64h448zM512 128a256 256 0 1 1 0 512 256 256 0 0 1 0-512z m0 64a192 192 0 1 0 0 384 192 192 0 0 0 0-384z m0.256 64c5.632 0 10.752 3.264 13.12 8.384l31.616 67.712 70.656 10.88a14.464 14.464 0 0 1 11.584 9.792c1.728 5.184 0.448 10.88-3.392 14.72l-51.648 52.864L595.84 492.8a14.592 14.592 0 0 1-13.76 19.2 15.68 15.68 0 0 1-7.04-1.664l-63.168-35.2-63.168 34.816a14.592 14.592 0 0 1-21.376-15.168l12.352-74.752-51.52-52.992a14.464 14.464 0 0 1-3.392-14.72 14.464 14.464 0 0 1 11.584-9.792L467.2 331.84l31.872-67.52A14.592 14.592 0 0 1 512.256 256z" p-id="4599"></path></svg>