<?xml version="1.0" standalone="no"?><!DOCTYPE svg PUBLIC "-//W3C//DTD SVG 1.1//EN" "http://www.w3.org/Graphics/SVG/1.1/DTD/svg11.dtd"><svg t="1567678623845" class="icon" viewBox="0 0 1024 1024" version="1.1" xmlns="http://www.w3.org/2000/svg" p-id="4354" xmlns:xlink="http://www.w3.org/1999/xlink" width="200" height="200"><defs><style type="text/css"></style></defs><path d="M864 0a96 96 0 0 1 95.552 86.784L960 96V640a64 64 0 0 1 64 64v256a64 64 0 0 1-64 64H64a64 64 0 0 1-64-64v-256a64 64 0 0 1 64-64V224A96 96 0 0 1 160 128H192v-32A96 96 0 0 1 278.784 0.448L288 0h576zM320 704H64v256h896v-256h-256a128 128 0 0 1-128 128l-131.712-0.128-11.136-0.704A128 128 0 0 1 320 704z m544-640h-576a32 32 0 0 0-31.488 26.24L256 96V640h128v64a64 64 0 0 0 56.512 63.552L448 768h128a64 64 0 0 0 64-64v-64h256V96a32 32 0 0 0-26.24-31.488L864 64zM192 192h-32a32 32 0 0 0-32 32V640h64V192z m416 192a32 32 0 0 1 0 64h-192a32 32 0 0 1 0-64h192z m128-128a32 32 0 1 1 0 64h-320a32 32 0 0 1 0-64h320z" p-id="4355"></path></svg>