<?xml version="1.0" standalone="no"?><!DOCTYPE svg PUBLIC "-//W3C//DTD SVG 1.1//EN" "http://www.w3.org/Graphics/SVG/1.1/DTD/svg11.dtd"><svg t="1581504044963" class="icon" viewBox="0 0 1024 1024" version="1.1" xmlns="http://www.w3.org/2000/svg" p-id="4491" xmlns:xlink="http://www.w3.org/1999/xlink" width="200" height="200"><defs><style type="text/css"></style></defs><path d="M919.7 92H104.3C82 92 64 110 64 132.3v759.4C64 914 82 932 104.3 932h815.4c22.3 0 40.3-18 40.3-40.3V132.3C960 110 942 92 919.7 92zM344 876H120V764h224v112z m0-168H120V596h224v112z m0-168H120V428h224v112z m0-168H120V260h224v112z m280 504H400V764h224v112z m0-168H400V596h224v112z m0-168H400V428h224v112z m0-168H400V260h224v112z m280 504H680V764h224v112z m0-168H680V596h224v112z m0-168H680V428h224v112z m0-168H680V260h224v112z" fill="#1296db" p-id="4492"></path></svg>