<?xml version="1.0" standalone="no"?><!DOCTYPE svg PUBLIC "-//W3C//DTD SVG 1.1//EN" "http://www.w3.org/Graphics/SVG/1.1/DTD/svg11.dtd"><svg t="1581580065589" class="icon" viewBox="0 0 1024 1024" version="1.1" xmlns="http://www.w3.org/2000/svg" p-id="7019" xmlns:xlink="http://www.w3.org/1999/xlink" width="200" height="200"><defs><style type="text/css"></style></defs><path d="M305.744842 362.388211h460.422737a46.133895 46.133895 0 0 0 46.026105-46.08c0-27.594105-18.378105-46.026105-46.026105-46.026106H305.744842a46.133895 46.133895 0 0 0-46.026105 46.026106c0 27.648 23.013053 46.08 46.026105 46.08z m0 197.955368h460.422737a46.133895 46.133895 0 0 0 46.026105-46.026105c0-27.648-18.378105-46.08-46.026105-46.08H305.744842a46.133895 46.133895 0 0 0-46.026105 46.08c0 27.594105 23.013053 46.026105 46.026105 46.026105z m0 193.374316h239.454316a46.133895 46.133895 0 0 0 46.026105-46.026106c0-27.648-18.432-46.08-46.026105-46.08H305.744842a46.133895 46.133895 0 0 0-46.026105 46.08c0 27.594105 23.013053 46.026105 46.026105 46.026106zM899.664842 53.894737H172.247579C140.018526 53.894737 107.789474 81.542737 107.789474 118.352842v787.294316C107.789474 942.457263 135.437474 970.105263 172.247579 970.105263h722.83621c36.810105 0 64.458105-27.648 64.458106-64.458105V118.352842C964.122947 81.542737 931.893895 53.894737 899.718737 53.894737z m-18.378105 82.890105v755.065263H190.679579V136.784842h690.607158z" p-id="7020" fill="#1296db"></path></svg>