<?xml version="1.0" standalone="no"?><!DOCTYPE svg PUBLIC "-//W3C//DTD SVG 1.1//EN" "http://www.w3.org/Graphics/SVG/1.1/DTD/svg11.dtd"><svg t="1589951586774" class="icon" viewBox="0 0 1024 1024" version="1.1" xmlns="http://www.w3.org/2000/svg" p-id="7972" xmlns:xlink="http://www.w3.org/1999/xlink" width="200" height="200"><defs><style type="text/css"></style></defs><path d="M512 1024a512 512 0 1 1 512-512 512 512 0 0 1-512 512z m177.09-645.213a31.03 31.03 0 0 0-43.877-43.877L512.28 467.844l-133.43-133.43a31.077 31.077 0 0 0-43.939 43.938l133.43 133.43-133.43 133.431a31.03 31.03 0 0 0 43.877 43.877l133.43-133.43 133.43 133.43a31.077 31.077 0 1 0 43.94-43.939l-133.43-133.43z" fill="#1e81f1" p-id="7973"></path></svg>