<?xml version="1.0" standalone="no"?><!DOCTYPE svg PUBLIC "-//W3C//DTD SVG 1.1//EN" "http://www.w3.org/Graphics/SVG/1.1/DTD/svg11.dtd"><svg t="1568948238549" class="icon" viewBox="0 0 1024 1024" version="1.1" xmlns="http://www.w3.org/2000/svg" p-id="3407" xmlns:xlink="http://www.w3.org/1999/xlink" width="200" height="200"><defs><style type="text/css"></style></defs><path d="M512 870.4c-282.7776 0-512-160.4608-512-358.4s229.2224-358.4 512-358.4 512 160.4608 512 358.4-229.2224 358.4-512 358.4z m0-102.4a256 256 0 1 0 0-512 256 256 0 0 0 0 512z m0-51.2a204.8 204.8 0 1 1 0-409.6 204.8 204.8 0 0 1 0 409.6z" fill="#DCDFE6" p-id="3408"></path><path d="M102.4 174.7968L174.7968 102.4l724.0704 724.0704-72.3968 72.3968z" fill="#E4E7ED" p-id="3409"></path></svg>