<?xml version="1.0" standalone="no"?><!DOCTYPE svg PUBLIC "-//W3C//DTD SVG 1.1//EN" "http://www.w3.org/Graphics/SVG/1.1/DTD/svg11.dtd"><svg t="1577256610166" class="icon" viewBox="0 0 1024 1024" version="1.1" xmlns="http://www.w3.org/2000/svg" p-id="5967" xmlns:xlink="http://www.w3.org/1999/xlink" width="200" height="200"><defs><style type="text/css"></style></defs><path d="M64 64h595.264L896 282.496V960H64z" fill="#E2F9FF" p-id="5968"></path><path d="M608 64h5.504L832 282.496V288H608z" fill="#AFE6FC" p-id="5969"></path><path d="M192 256m32 0l192 0q32 0 32 32l0 0q0 32-32 32l-192 0q-32 0-32-32l0 0q0-32 32-32Z" fill="#1AC1D1" p-id="5970"></path><path d="M192 448m32 0l448 0q32 0 32 32l0 0q0 32-32 32l-448 0q-32 0-32-32l0 0q0-32 32-32Z" fill="#007FE9" p-id="5971"></path><path d="M192 640m32 0l256 0q32 0 32 32l0 0q0 32-32 32l-256 0q-32 0-32-32l0 0q0-32 32-32Z" fill="#1AC1D1" p-id="5972"></path><path d="M613.504 0a64 64 0 0 1 45.248 18.752l218.496 218.496a64 64 0 0 1 18.752 45.248v169.856h-64V352h-192a96 96 0 0 1-95.552-86.784L544 256V64H64v896h768v-64h64v64a64 64 0 0 1-64 64H64a64 64 0 0 1-64-64V64a64 64 0 0 1 64-64h549.504z m0 64H608v192a32 32 0 0 0 26.24 31.488L640 288h192v-5.504L613.504 64z" fill="#00C1E9" p-id="5973"></path><path d="M1022.336 681.664l0.384-1.088 0.32-1.088 0.256-0.96 0.256-1.088 0.064-0.96 0.128-1.28c0-0.32 0-0.64 0.128-0.96 0-0.32 0-0.704 0.128-1.088v-2.176c0-0.384 0-0.704-0.128-1.088 0-0.384 0-0.704-0.128-0.96l-0.128-1.28-0.064-0.896-0.256-1.152-0.256-0.96-0.32-1.088-0.384-1.088-0.384-0.96c-0.064-0.384-0.192-0.768-0.448-1.088l-0.128-0.384c-0.128-0.256-0.256-0.384-0.256-0.64l-0.448-1.088-0.512-0.96c-0.192-0.384-0.32-0.704-0.576-0.96-0.256-0.384-0.32-0.64-0.64-0.96l-0.512-0.896-0.768-0.96-0.576-0.832a6.08 6.08 0 0 0-0.832-0.96l-0.448-0.512-118.528-129.6a29.312 29.312 0 0 0-41.984-1.472 30.848 30.848 0 0 0-1.472 42.944l71.68 78.528h-255.744A30.08 30.08 0 0 0 640 672a30.08 30.08 0 0 0 29.76 30.464h255.744L853.952 780.8a30.848 30.848 0 0 0 1.472 43.008 29.632 29.632 0 0 0 42.176-1.472l118.4-129.664c0.128-0.064 0.256-0.32 0.512-0.448 0.256-0.256 0.448-0.64 0.832-0.96 0.256-0.256 0.448-0.512 0.64-0.896l0.64-0.96c0.256-0.256 0.384-0.64 0.64-0.832l0.576-0.96c0.256-0.384 0.32-0.64 0.64-1.024 0.064-0.32 0.32-0.64 0.448-0.96a4.352 4.352 0 0 0 0.448-1.088c0.128-0.256 0.256-0.384 0.256-0.64l0.128-0.32a4.352 4.352 0 0 1 0.448-1.088c-0.128-0.128 0-0.512 0.128-0.896z" fill="#20B86B" p-id="5974"></path></svg>