<?xml version="1.0" standalone="no"?><!DOCTYPE svg PUBLIC "-//W3C//DTD SVG 1.1//EN" "http://www.w3.org/Graphics/SVG/1.1/DTD/svg11.dtd"><svg t="1567678855238" class="icon" viewBox="0 0 1024 1024" version="1.1" xmlns="http://www.w3.org/2000/svg" p-id="4964" xmlns:xlink="http://www.w3.org/1999/xlink" width="200" height="200"><defs><style type="text/css"></style></defs><path d="M591.016199 575.602834c48.286682 0 81.479779 22.512466 81.479779 78.154074 0 39.972419-26.989377 75.403971-67.153664 86.084601h105.910921a25053.113352 25053.113352 0 0 0 84.10197-58.199842l1.662853-1.08725c17.587864-12.215571 33.257053-23.152025 46.368006-32.425626 62.676753-40.611978 114.544964-40.611978 150.935854-12.151615 9.91316 7.674704 16.436659 15.7971 20.210055 22.384554 2.046588 3.965264 3.517573 7.418881 4.924602 11.703925 3.069882 9.209645 4.604823 18.803026 3.70944 28.908053a52.827549 52.827549 0 0 1-11.512056 28.780142c-59.15918 49.885579-229.601575 190.204759-242.009014 199.990007a64.019826 64.019826 0 0 1-52.124034 12.023703h-355.59464a63.572135 63.572135 0 0 0-26.221907 10.424807 24843.210185 24843.210185 0 0 1-71.182884 57.112593c-28.140583 20.210055-55.769519 20.210055-76.874956 5.947896a53.339196 53.339196 0 0 1-12.663262-11.703925l-158.610559-158.418691a57.880063 57.880063 0 0 1-7.610749-9.465469 46.62383 46.62383 0 0 1-7.354925-38.309566 46.048227 46.048227 0 0 1 20.082143-27.181245c14.837762-9.785248 185.344113-150.424207 204.658786-168.843498l6.587455-6.587455c16.180835-12.791174 32.745406-17.140173 45.856359-17.140173H590.952243z m0 63.95587H278.591772s-2.558235 0.639559-5.500205 2.814059c-26.413774 25.198613-152.598707 129.638549-200.181875 166.924822l149.784649 149.91256c0.255823-0.511647 1.151206-1.407029 3.389661-3.005926l32.425626-26.030039 0.191868-0.127912 36.262979-29.227833a124.586036 124.586036 0 0 1 64.083782-24.942789l362.182094-0.063956 9.273601 1.407029-0.639558-0.191868 0.703514 0.063956a52527.595959 52527.595959 0 0 0 227.938722-187.582568v-0.191867c-0.191868 0-1.534941-1.343073-3.581528-2.94197-13.94238-10.872498-36.135067-10.872498-75.723751 14.70985-12.215571 8.697998-28.012671 19.698408-45.728447 31.977935l-1.598897 1.151206a21860.11652 21860.11652 0 0 1-92.544145 63.95587l-8.186351 5.628117h-227.682899l-67.729267-43.617904A64.467517 64.467517 0 0 1 428.504332 754.679271a47.263388 47.263388 0 0 1-6.779322-7.163057c-20.977526-27.501024 1.023294-56.473034 31.338376-56.473034 52.827549-2.94197 110.643656-8.05844 131.749093-12.151615 14.901718-2.558235 23.663672-13.174909 23.663672-25.134657 0-13.878424-0.383735-14.198203-17.459952-14.198204z m-71.630575-543.177207v78.537809h3.837352c129.638549 0 242.392749 139.871489 244.247469 264.265656 0 9.91316-8.634043 12.663262-16.884349 0-41.891095-69.839811-110.323877-106.038833-200.053963-106.038833h-31.082553v82.886808c0 24.750922-19.50654 41.635272-41.763184 24.94279L272.452008 287.417682c-22.256643-16.628526-22.256643-43.937683 0-60.56621l206.641418-155.284853c22.256643-16.692482 40.292198-4.476911 40.292198 24.94279z" p-id="4965"></path></svg>