<?xml version="1.0" standalone="no"?><!DOCTYPE svg PUBLIC "-//W3C//DTD SVG 1.1//EN" "http://www.w3.org/Graphics/SVG/1.1/DTD/svg11.dtd"><svg t="1567678867760" class="icon" viewBox="0 0 1024 1024" version="1.1" xmlns="http://www.w3.org/2000/svg" p-id="5086" xmlns:xlink="http://www.w3.org/1999/xlink" width="200" height="200"><defs><style type="text/css"></style></defs><path d="M745.055175 575.599239c13.110872 0 29.611383 4.348972 45.856073 17.140066l4.988527 4.924572c7.035102 8.633989 190.77917 160.336366 206.256394 170.505285a46.047939 46.047939 0 0 1 20.018062 27.181075 46.623538 46.623538 0 0 1-7.290924 38.309328 57.879701 57.879701 0 0 1-7.674656 9.465409l-158.609568 158.417702a53.338863 53.338863 0 0 1-12.599228 11.703851c-21.105305 14.26207-48.798024 14.26207-76.874476-5.947859a24843.182934 24843.182934 0 0 1-71.118484-57.112235 63.571738 63.571738 0 0 0-26.221743-10.424742H306.064822a64.019426 64.019426 0 0 1-52.123709-12.023629c-12.407361-9.785187-182.912647-150.10349-242.007502-199.924802a52.827219 52.827219 0 0 1-11.511985-28.843917c-0.895377-10.104964 0.639555-19.698285 3.645462-28.907873a74.827901 74.827901 0 0 1 4.988527-11.703851c3.837328-6.587414 10.296831-14.709758 20.209929-22.384415 36.390663-28.460185 88.25855-28.460185 150.934911 12.151539 13.110872 9.273543 28.779962 20.209929 46.367717 32.425424l1.598887 1.151198a21799.989757 21799.989757 0 0 0 84.101444 58.135524h105.974215a89.217882 89.217882 0 0 1-67.153244-86.084064c0-55.64126 33.128934-78.153586 81.47927-78.153586h312.422476z m0 63.955471H432.632699c-17.076111 0-17.523799 0.319777-17.523799 14.198115 0 11.959673 8.7619 22.640237 23.663525 25.070544 21.233216 4.157106 78.985007 9.273543 131.812225 12.215495 30.250938 0 52.315575 28.971828 31.338181 56.472681a47.263093 47.263093 0 0 1-6.77928 7.163013c-2.558219 2.302397-4.988527 4.029195-7.226968 5.50017l-67.792799 43.617632H292.506262l-8.1863-5.628082a20897.45015 20897.45015 0 0 1-92.543566-63.955471l-1.662843-1.151198c-17.715665-12.27945-33.448711-23.279791-45.664206-31.977736-39.652392-25.582188-61.780985-25.582188-75.787233-14.709758-1.98262 1.598887-3.325684 3.005907-3.517551 2.941951v0.191867c60.118143 49.885267 212.971718 175.685679 227.873343 187.581396l0.70351-0.063955-0.575599 0.191866 9.273543-1.40702 362.179833 0.127911a124.585258 124.585258 0 0 1 64.083382 24.942634l36.262752 29.163694 0.127911 0.127911 32.489379 26.029877c2.238441 1.598887 3.133818 2.494263 3.38964 3.005907l149.655802-149.911624c-47.518915-37.28604-173.639104-141.725324-200.052713-166.923779-3.005907-2.174486-5.564126-2.814041-5.500171-2.814041zM671.762206 0a31.977736 31.977736 0 0 1 18.802908 6.07577l3.837328 3.261729 191.866413 191.866413a31.977736 31.977736 0 0 1 8.953766 17.587754L895.606354 223.844149v319.777355a31.977736 31.977736 0 0 1-63.443827 5.755992L831.650883 543.621504v-255.821884h-127.910942a95.933207 95.933207 0 0 1-95.485518-86.723619L607.806735 191.866413V63.955471H192.096173v479.666033a31.977736 31.977736 0 0 1-63.443827 5.755992L128.140702 543.621504v-511.643768a31.977736 31.977736 0 0 1 26.221743-31.466092L160.118438 0h511.643768z m0 383.732826a31.977736 31.977736 0 1 1 0 63.955471h-319.777355a31.977736 31.977736 0 0 1 0-63.955471h319.777355z m-127.910942-127.910942a31.977736 31.977736 0 0 1 0 63.955471h-191.866413a31.977736 31.977736 0 0 1 0-63.955471h191.866413z m127.910942-178.563675V191.866413a31.977736 31.977736 0 0 0 26.221743 31.466092L703.739941 223.844149h114.67216L671.762206 77.258209z" p-id="5087"></path></svg>