<?xml version="1.0" standalone="no"?><!DOCTYPE svg PUBLIC "-//W3C//DTD SVG 1.1//EN" "http://www.w3.org/Graphics/SVG/1.1/DTD/svg11.dtd"><svg class="icon" width="20px" height="20.00px" viewBox="0 0 1024 1024" version="1.1" xmlns="http://www.w3.org/2000/svg"><path d="M36.568164 950.863673h950.772252a36.568164 36.568164 0 1 1 0 73.136327H36.568164a36.568164 36.568164 0 1 1 0-73.136327z m146.272654-73.136327a36.568164 36.568164 0 0 1-36.568164-36.568164v-219.408981a36.568164 36.568164 0 0 1 73.136327 0v219.408981a36.568164 36.568164 0 0 1-36.568163 36.568164z m219.408981 0a36.568164 36.568164 0 0 1-36.568163-36.568164v-219.408981a36.568164 36.568164 0 0 1 73.136327 0v219.408981a36.568164 36.568164 0 0 1-36.568164 36.568164z m219.408981 0a36.568164 36.568164 0 0 1-36.568163-36.568164v-219.408981a36.568164 36.568164 0 0 1 73.136327 0v219.408981a36.568164 36.568164 0 0 1-36.568164 36.568164z m219.408982 0a36.568164 36.568164 0 0 1-36.568164-36.568164v-219.408981a36.568164 36.568164 0 1 1 73.136327 0v219.408981a36.568164 36.568164 0 0 1-36.568163 36.568164zM576.753076 22.836818l420.314472 356.539595c35.8368 30.351576 35.8368 79.572324 0 109.923899-17.187037 14.554129-40.517525 22.745398-64.798786 22.745398H91.639818C41.02948 512.04571 0 477.232818 0 434.301794c0-20.624444 9.653995-40.371253 26.841032-54.925381L447.155504 22.763682c35.8368-30.351576 93.833908-30.351576 129.597572 0zM511.95429 73.227748L73.136327 438.909383h877.635925L511.95429 73.227748z m0 292.545308a73.136327 73.136327 0 1 1 0-146.272654 73.136327 73.136327 0 0 1 0 146.272654z" /></svg>