<?xml version="1.0" standalone="no"?><!DOCTYPE svg PUBLIC "-//W3C//DTD SVG 1.1//EN" "http://www.w3.org/Graphics/SVG/1.1/DTD/svg11.dtd"><svg t="1567678408084" class="icon" viewBox="0 0 1024 1024" version="1.1" xmlns="http://www.w3.org/2000/svg" p-id="3988" xmlns:xlink="http://www.w3.org/1999/xlink" width="200" height="200"><defs><style type="text/css"></style></defs><path d="M1022.912 393.408a109.44 109.44 0 0 0-16.64-44.736 110.912 110.912 0 0 0-22.4-23.168l-18.304-14.272L607.36 30.72C554.88-10.24 469.12-10.24 416.64 30.72L58.304 311.168l-18.24 14.272a110.912 110.912 0 0 0-22.4 23.232l-0.192 0.32A109.44 109.44 0 0 0 0 408.384v505.152C0 974.336 49.792 1024 110.72 1024H320a64 64 0 0 0 64-64v-320a64 64 0 0 1 64-64h128a64 64 0 0 1 64 64v320a64 64 0 0 0 64 64h209.28c60.8 0 110.72-49.728 110.72-110.464V408.384a115.2 115.2 0 0 0-1.088-14.976z m-63.36 8.64A51.84 51.84 0 0 1 960 408.96v504.64a46.976 46.976 0 0 1-46.72 46.464H704v-320a128 128 0 0 0-128-128H448a128 128 0 0 0-128 128v320H110.72c-25.6 0-46.72-21.12-46.72-46.464V408.384a46.016 46.016 0 0 1 7.36-24.832l1.408-2.368c-0.448 1.088 2.752-2.24 6.464-5.12l18.56-14.464 358.336-280.448c29.248-22.848 82.56-22.848 111.744 0L926.08 361.6l18.24 14.272c3.52 2.752 6.4 5.632 8.832 8.768a45.312 45.312 0 0 1 6.272 17.408z" p-id="3989"></path></svg>