<?xml version="1.0" standalone="no"?><!DOCTYPE svg PUBLIC "-//W3C//DTD SVG 1.1//EN" "http://www.w3.org/Graphics/SVG/1.1/DTD/svg11.dtd"><svg t="1567678772148" class="icon" viewBox="0 0 1024 1024" version="1.1" xmlns="http://www.w3.org/2000/svg" p-id="4720" xmlns:xlink="http://www.w3.org/1999/xlink" width="200" height="200"><defs><style type="text/css"></style></defs><path d="M864 896a32 32 0 1 1 0 64h-704a32 32 0 1 1 0-64h704z m128-128a32 32 0 1 1 0 64H32a32 32 0 1 1 0-64h960zM512 0a192 192 0 0 1 118.848 342.848 320.064 320.064 0 0 1 200.832 282.24L832 640v32a32 32 0 0 1-63.488 5.76L768 672V640a256 256 0 0 0-511.68-12.8L256 640v32a32 32 0 0 1-63.488 5.76L192 672V640a320.128 320.128 0 0 1 201.216-297.216A192 192 0 0 1 512 0z m224 0C824.64 0 896 74.112 896 164.928c0 48.512-20.352 92.16-52.8 122.432 102.016 42.752 175.04 144.64 180.48 264.768l0.32 14.528V608a32 32 0 0 1-63.488 5.76L960 608v-41.344c0-131.136-100.672-236.8-224-236.8-42.688 0-42.688-64 0-64 52.736 0 96-44.928 96-100.928S788.736 64 736 64a32 32 0 1 1 0-64z m-448 0a32 32 0 0 1 0 64C235.264 64 192 108.928 192 164.928s43.264 100.928 96 100.928c42.688 0 42.688 64 0 64-123.328 0-224 105.664-224 236.8V608a32 32 0 0 1-64 0v-41.344C0 440.32 74.688 331.776 180.8 287.36A166.912 166.912 0 0 1 128 164.928C128 74.048 199.36 0 288 0zM512 64a128 128 0 1 0 0 256 128 128 0 0 0 0-256z" p-id="4721"></path></svg>