<?xml version="1.0" standalone="no"?><!DOCTYPE svg PUBLIC "-//W3C//DTD SVG 1.1//EN" "http://www.w3.org/Graphics/SVG/1.1/DTD/svg11.dtd"><svg t="1567678810225" class="icon" viewBox="0 0 1024 1024" version="1.1" xmlns="http://www.w3.org/2000/svg" p-id="4842" xmlns:xlink="http://www.w3.org/1999/xlink" width="200" height="200"><defs><style type="text/css"></style></defs><path d="M780.928 512c13.632 0 23.744 9.472 26.432 26.24 1.024 6.784 3.904 18.88 8.192 34.56l2.56 9.6 9.408 3.072c9.792 3.2 19.456 7.296 28.928 12.16l9.6 4.992 8.96-5.952c13.248-8.832 23.04-15.36 27.84-18.752 13.632-9.536 28.16-8.96 37.248 0.128l18.048 18.048c9.664 9.664 10.112 23.552 0.128 37.312a384.832 384.832 0 0 0-18.496 29.888l-4.928 8.576 4.48 8.832c4.8 9.344 8.832 19.2 12.096 29.44l3.2 10.24 10.624 2.176c14.912 3.008 26.688 5.376 32.448 6.4 16.384 2.88 26.304 13.568 26.304 26.432v25.536c0 13.632-9.472 23.744-26.24 26.432-6.656 1.024-18.432 3.84-33.92 7.936l-9.6 2.56-3.008 9.472a191.36 191.36 0 0 1-12.48 29.632l-4.992 9.6 5.952 8.96 9.472 14.272 8.896 13.056c9.536 13.632 8.96 28.16-0.128 37.248l-18.048 18.048c-9.664 9.6-23.552 10.112-37.312 0.064a382.72 382.72 0 0 0-29.312-18.112l-8.64-4.928-8.832 4.48c-9.472 4.864-19.456 8.96-30.016 12.16l-10.304 3.264-2.176 10.624c-3.008 14.848-5.248 26.368-6.272 32-2.88 16.384-13.504 26.304-26.432 26.304h-25.536c-13.632 0-23.744-9.472-26.432-26.24a386.112 386.112 0 0 0-7.936-33.792l-2.56-9.536-9.408-3.072a191.808 191.808 0 0 1-29.632-12.608l-9.6-4.992-9.024 5.952c-13.312 8.832-22.656 15.104-27.328 18.368-13.632 9.472-28.16 8.96-37.248-0.128l-18.048-18.048c-9.664-9.664-10.112-23.552-0.128-37.312 3.968-5.376 10.432-15.872 18.368-29.696l4.928-8.576-4.48-8.832a191.424 191.424 0 0 1-11.904-29.568l-3.2-10.368-10.624-2.112-16.384-3.264a1026.56 1026.56 0 0 0-16.128-3.136c-16.384-2.88-26.304-13.568-26.304-26.432v-25.536c0-13.632 9.472-23.744 26.304-26.432 6.592-1.024 18.752-3.904 34.24-8.064l9.536-2.56 3.072-9.408c3.264-9.92 7.424-19.648 12.352-29.056l5.056-9.6-6.016-9.024a1865.472 1865.472 0 0 0-18.56-27.712c-9.6-13.696-9.024-28.16 0-37.312l18.112-18.048c9.664-9.664 23.552-10.112 37.312-0.128 5.44 4.032 16.256 10.624 30.336 18.752l8.64 4.928 8.832-4.48c9.344-4.8 19.008-8.768 28.8-11.904l10.304-3.2 2.112-10.56a1913.6 1913.6 0 0 0 6.528-32.96c2.88-16.384 13.504-26.304 26.432-26.304h25.536zM512 0a256 256 0 1 1 0 512 448 448 0 0 0-448 448 32 32 0 1 1-64 0 512.256 512.256 0 0 1 369.024-491.776A256 256 0 0 1 512 0z m256 640a128 128 0 1 0 0 256 128 128 0 0 0 0-256zM512 64a192 192 0 1 0 0 384 192 192 0 0 0 0-384z" p-id="4843"></path></svg>