<?xml version="1.0" standalone="no"?><!DOCTYPE svg PUBLIC "-//W3C//DTD SVG 1.1//EN" "http://www.w3.org/Graphics/SVG/1.1/DTD/svg11.dtd"><svg t="1576044581918" class="icon" viewBox="0 0 1024 1024" version="1.1" xmlns="http://www.w3.org/2000/svg" p-id="2161" xmlns:xlink="http://www.w3.org/1999/xlink" width="200" height="200"><defs><style type="text/css"></style></defs><path d="M512 512m-320 0a320 320 0 1 0 640 0 320 320 0 1 0-640 0Z" fill="#E3EAFF" p-id="2162"></path><path d="M992 0a32 32 0 0 1 32 32v704a32 32 0 1 1-64 0V64H64v896h672a32 32 0 1 1 0 64H32a32 32 0 0 1-32-32V32A32 32 0 0 1 32 0h960z" fill="#9DADFC" p-id="2163"></path><path d="M512 192a320 320 0 0 1 248.128 522.048l126.336 126.976a32 32 0 0 1 0 45.568 32.704 32.704 0 0 1-45.952 0l-126.08-126.72A320 320 0 1 1 512 192z m0 64a256 256 0 1 0 0 512 256 256 0 0 0 0-512z" fill="#667DF3" p-id="2164"></path><path d="M384 384m32 0l192 0q32 0 32 32l0 0q0 32-32 32l-192 0q-32 0-32-32l0 0q0-32 32-32Z" fill="#5A78FE" p-id="2165"></path><path d="M384 576m32 0l192 0q32 0 32 32l0 0q0 32-32 32l-192 0q-32 0-32-32l0 0q0-32 32-32Z" fill="#5A78FE" p-id="2166"></path></svg>