<?xml version="1.0" standalone="no"?><!DOCTYPE svg PUBLIC "-//W3C//DTD SVG 1.1//EN" "http://www.w3.org/Graphics/SVG/1.1/DTD/svg11.dtd"><svg t="1576044519043" class="icon" viewBox="0 0 1024 1024" version="1.1" xmlns="http://www.w3.org/2000/svg" p-id="1817" xmlns:xlink="http://www.w3.org/1999/xlink" width="200" height="200"><defs><style type="text/css"></style></defs><path d="M967.104 202.688H227.584a25.088 25.088 0 0 0-24.96 24.896V967.04c0 13.632 11.328 24.896 24.96 24.896H967.04a25.088 25.088 0 0 0 24.896-24.896V227.584a25.088 25.088 0 0 0-24.896-24.96z" fill="#EFFFFE" p-id="1818"></path><path d="M56.896 56.896h682.688v56.896h56.832v-56.96c0-31.232-25.6-56.832-56.832-56.832H56.896C25.6 0 0 25.6 0 56.896v682.688c0 31.232 25.6 56.832 56.896 56.832h56.896v-56.832h-56.96V56.896z" fill="#31DFF6" p-id="1819"></path><path d="M608 384a32 32 0 0 1 32 32V576h160a32 32 0 1 1 0 64H640v160a32 32 0 1 1-64 0V640H416a32 32 0 0 1 0-64H576V416a32 32 0 0 1 32-32z" fill="#007FE9" p-id="1820"></path></svg>