<?xml version="1.0" standalone="no"?><!DOCTYPE svg PUBLIC "-//W3C//DTD SVG 1.1//EN" "http://www.w3.org/Graphics/SVG/1.1/DTD/svg11.dtd"><svg t="1576044571797" class="icon" viewBox="0 0 1024 1024" version="1.1" xmlns="http://www.w3.org/2000/svg" p-id="1930" xmlns:xlink="http://www.w3.org/1999/xlink" width="200" height="200"><defs><style type="text/css"></style></defs><path d="M896 320H128a64 64 0 0 0-63.552 56.512L64 384v512a64 64 0 0 0 56.512 63.552L128 960h768a64 64 0 0 0 63.552-56.512L960 896V384a64 64 0 0 0-56.512-63.552L896 320z" fill="#CEFDF8" p-id="1931"></path><path d="M896 256a128 128 0 0 1 128 128v512a128 128 0 0 1-128 128H128a128 128 0 0 1-128-128V384a128 128 0 0 1 128-128h768z m0 64H128a64 64 0 0 0-63.552 56.512L64 384v512a64 64 0 0 0 56.512 63.552L128 960h768a64 64 0 0 0 63.552-56.512L960 896V384a64 64 0 0 0-56.512-63.552L896 320z" fill="#10DBC5" p-id="1932"></path><path d="M256 0m32 0l448 0q32 0 32 32l0 0q0 32-32 32l-448 0q-32 0-32-32l0 0q0-32 32-32Z" fill="#A3E9E2" p-id="1933"></path><path d="M128 128m32 0l704 0q32 0 32 32l0 0q0 32-32 32l-704 0q-32 0-32-32l0 0q0-32 32-32Z" fill="#43EAD7" p-id="1934"></path><path d="M703.872 832H320v-72.192c0-12.16 4.608-22.912 13.312-30.976 6.336-5.952 14.976-10.56 26.368-14.208l0.448-0.128 61.44-14.976c24.448-7.936 27.776-17.6 27.776-25.984v-43.264a9.728 9.728 0 0 0-2.88-6.912 102.848 102.848 0 0 1-24.832-39.04 105.92 105.92 0 0 1-4.992-49.088c2.816-21.952 12.8-42.624 28.16-58.368a92.8 92.8 0 0 1 131.456-3.136c20.416 19.2 32.128 46.72 32.128 75.52 0 13.952-2.688 27.52-8 40.32a101.76 101.76 0 0 1-21.568 32.576 13.696 13.696 0 0 0-4.096 9.6v41.728c0 8 2.176 17.28 27.776 25.984l61.696 15.04 0.64 0.192c8.96 3.264 19.136 7.68 26.688 14.72 8.32 7.808 12.544 18.048 12.48 30.336V832h-0.128z" fill="#05D6F3" p-id="1935"></path></svg>