<?xml version="1.0" standalone="no"?><!DOCTYPE svg PUBLIC "-//W3C//DTD SVG 1.1//EN" "http://www.w3.org/Graphics/SVG/1.1/DTD/svg11.dtd"><svg t="1576044589019" class="icon" viewBox="0 0 1024 1024" version="1.1" xmlns="http://www.w3.org/2000/svg" p-id="2388" xmlns:xlink="http://www.w3.org/1999/xlink" width="200" height="200"><defs><style type="text/css"></style></defs><path d="M702.912 447.872a256 256 0 1 0 0 512 256 256 0 0 0 0-512z" fill="#E4FFF1" p-id="2389"></path><path d="M832.96 64.064v278.4a384 384 0 0 0-412.032 622.08H60.992V64.064h772.032z" fill="#E4FFF1" p-id="2390"></path><path d="M64.896 951.04V72.96A8.96 8.96 0 0 1 73.856 64h748.288a8.96 8.96 0 0 1 8.96 8.896v269.568H896V72.96C896 32.64 862.848 0 822.144 0H73.856C33.152 0 0 32.704 0 72.96v878.08C0 991.36 33.152 1024 73.856 1024h346.368v-64.064H73.856a8.96 8.96 0 0 1-8.96-8.896z" fill="#07C565" p-id="2391"></path><path d="M222.848 585.216a31.872 31.872 0 1 0 0 63.744h40.64a31.872 31.872 0 1 0 0-63.744h-40.64zM222.848 768a31.872 31.872 0 1 0 0 63.744h40.64a31.872 31.872 0 1 0 0-63.744h-40.64zM318.464 402.432H222.848a31.872 31.872 0 1 0 0 63.808h95.616a31.872 31.872 0 1 0 0-63.808zM688.256 219.648H222.848a31.872 31.872 0 1 0 0 63.808h465.408a31.872 31.872 0 1 0 0-63.808z" fill="#0BE3AA" p-id="2392"></path><path d="M702.912 383.872a320 320 0 1 1 0 640 320 320 0 0 1 0-640z m0 64a256 256 0 1 0 0 512 256 256 0 0 0 0-512z" fill="#07C565" p-id="2393"></path><path d="M885.824 623.872l-203.456 201.408c-3.392 3.392-13.568 6.72-20.352 6.72-6.784 0-13.568-3.328-20.352-6.72L519.68 704.448a30.4 30.4 0 0 1 0-40.32 31.168 31.168 0 0 1 40.704 0l101.76 100.736 183.04-181.312a31.168 31.168 0 0 1 40.704 0c13.568 10.048 13.568 26.88 0 40.32z" fill="#07C565" p-id="2394"></path></svg>