<?xml version="1.0" standalone="no"?><!DOCTYPE svg PUBLIC "-//W3C//DTD SVG 1.1//EN" "http://www.w3.org/Graphics/SVG/1.1/DTD/svg11.dtd"><svg t="1576044576740" class="icon" viewBox="0 0 1024 1024" version="1.1" xmlns="http://www.w3.org/2000/svg" p-id="2045" xmlns:xlink="http://www.w3.org/1999/xlink" width="200" height="200"><defs><style type="text/css"></style></defs><path d="M703.912011 447.944007a255.968004 255.968004 0 1 0 0 511.936008 255.968004 255.968004 0 0 0 0-511.936008z" fill="#F9F1E0" p-id="2046"></path><path d="M833.943757 64.183977v278.365204a383.952006 383.952006 0 0 0-411.980502 622.00225H62.072241V64.183977h771.935508z" fill="#F9F1E0" p-id="2047"></path><path d="M65.911761 951.049119V73.078865a8.95888 8.95888 0 0 1 8.95888-8.894888h748.194476a8.95888 8.95888 0 0 1 8.95888 8.894888v269.534308h64.951881V73.078865c0-40.250969-33.147857-72.950881-73.910761-72.950881H74.934633C34.171729 0.127984 1.087864 32.827897 1.087864 73.078865v877.970254c0 40.250969 33.083865 72.950881 73.846769 72.950881h346.260718v-64.055993H74.934633a8.95888 8.95888 0 0 1-8.95888-8.894888z" fill="#F4CE00" p-id="2048"></path><path d="M223.844019 585.270841a31.868016 31.868016 0 1 0 0 63.736033h40.634921a31.868016 31.868016 0 1 0 0-63.736033h-40.634921zM223.844019 768.031996a31.868016 31.868016 0 1 0 0 63.736033h40.634921a31.868016 31.868016 0 1 0 0-63.736033h-40.634921zM319.512061 402.509686H223.844019a31.868016 31.868016 0 1 0 0 63.800025h95.668042a31.868016 31.868016 0 1 0 0-63.800025zM689.257843 219.748531H223.844019a31.868016 31.868016 0 1 0 0 63.800025h465.413824a31.868016 31.868016 0 1 0 0-63.800025z" fill="#E95500" p-id="2049"></path><path d="M703.912011 383.952006a319.960005 319.960005 0 1 1 0 639.92001 319.960005 319.960005 0 0 1 0-639.92001z m0 63.992001a255.968004 255.968004 0 1 0 0 511.936008 255.968004 255.968004 0 0 0 0-511.936008z" fill="#F4CE00" p-id="2050"></path><path d="M769.823772 683.050619h-64.823897V608.435946a32.507937 32.507937 0 1 0-65.079865 0v107.122609c0 17.981752 14.590176 32.571929 32.507937 32.571929h97.459817a32.507937 32.507937 0 1 0 0-65.079865z" fill="#E95500" p-id="2051"></path></svg>