<?xml version="1.0" standalone="no"?><!DOCTYPE svg PUBLIC "-//W3C//DTD SVG 1.1//EN" "http://www.w3.org/Graphics/SVG/1.1/DTD/svg11.dtd"><svg t="1576044585666" class="icon" viewBox="0 0 1024 1024" version="1.1" xmlns="http://www.w3.org/2000/svg" p-id="2276" xmlns:xlink="http://www.w3.org/1999/xlink" width="200" height="200"><defs><style type="text/css"></style></defs><path d="M929.28 347.136c53.568 8.128 74.944 76.48 36.224 115.712l-155.136 156.992c-15.36 15.552-22.4 38.016-18.816 60.032l36.608 221.632c9.152 55.424-46.848 97.728-94.72 71.552l-191.808-104.64a63.232 63.232 0 0 0-60.8 0l-191.744 104.64c-47.936 26.176-103.936-16.128-94.784-71.552l36.608-221.632L929.28 347.136z" fill="#FFEABB" p-id="2277"></path><path d="M763.904 1019.136a99.2 99.2 0 0 1-47.68-12.288l-191.68-104.64a27.584 27.584 0 0 0-26.56 0l-191.744 104.64a98.432 98.432 0 0 1-107.52-8.064 107.328 107.328 0 0 1-40.704-103.68l36.608-221.696a30.336 30.336 0 0 0-8.192-26.24L31.36 490.24A108.16 108.16 0 0 1 5.504 381.44a102.656 102.656 0 0 1 82.432-72.192l214.4-32.32a28.608 28.608 0 0 0 21.44-16.192L419.648 59.136C436.928 22.656 472.128 0 511.232 0 550.4 0 585.472 22.656 602.88 59.136l95.872 201.6c4.16 8.768 12.16 14.848 21.504 16.256l214.4 32.32c38.72 5.888 70.336 33.536 82.432 72.192a108.16 108.16 0 0 1-25.856 108.736l-155.136 156.928a30.336 30.336 0 0 0-8.192 26.24l36.608 221.696a107.328 107.328 0 0 1-40.64 103.68c-17.92 13.504-38.848 20.352-59.904 20.352zM511.232 76.416a27.648 27.648 0 0 0-25.6 16.512L389.824 294.592c-14.912 31.36-43.648 52.992-76.928 58.048l-214.4 32.32a28.16 28.16 0 0 0-23.04 20.16 29.696 29.696 0 0 0 7.232 30.336l155.136 156.992c24.064 24.32 35.072 59.52 29.376 93.888l-36.608 221.632a29.312 29.312 0 0 0 11.328 28.992c4.352 3.2 15.872 9.984 30.08 2.24l191.68-104.64a98.816 98.816 0 0 1 95.104 0l191.744 104.64c14.144 7.744 25.728 1.024 30.08-2.24a29.312 29.312 0 0 0 11.264-28.992l-36.608-221.632a108.544 108.544 0 0 1 29.44-93.888l155.072-156.992a29.696 29.696 0 0 0 7.232-30.336 28.16 28.16 0 0 0-23.04-20.16l-214.4-32.32a102.464 102.464 0 0 1-76.864-58.048l-95.872-201.6a27.648 27.648 0 0 0-25.6-16.576z" fill="#F9C73D" p-id="2278"></path></svg>