<?xml version="1.0" standalone="no"?><!DOCTYPE svg PUBLIC "-//W3C//DTD SVG 1.1//EN" "http://www.w3.org/Graphics/SVG/1.1/DTD/svg11.dtd"><svg t="1566984646411" class="icon" viewBox="0 0 1024 1024" version="1.1" xmlns="http://www.w3.org/2000/svg" p-id="2861" xmlns:xlink="http://www.w3.org/1999/xlink" width="200" height="200"><defs><style type="text/css"></style></defs><path d="M658.816 900.416c-9.28 70.592-70.336 123.456-142.72 123.584H508.16c-72.384-0.192-133.376-53.056-142.656-123.584zM512 0c61.76 0 112.256 49.92 112.256 110.976v5.376c127.68 26.688 224.32 139.264 224.32 273.152v231.68A278.72 278.72 0 0 1 960 831.296h-111.424V832H175.36v-0.768H64a278.4 278.4 0 0 1 111.424-209.984V389.376c0-133.824 96.64-246.464 224.32-273.088v-5.312C399.744 49.984 450.24 0 512 0z m0 64a48 48 0 0 0-48.256 46.976v57.344l-50.944 10.624C312.704 199.808 239.36 287.872 239.36 389.376v263.744l-25.472 19.2c-32.768 24.768-57.6 57.664-72 94.912H239.36V768h545.152v-0.768h97.472a217.6 217.6 0 0 0-72.064-94.912l-25.408-19.2v-263.68c0-101.44-73.28-189.568-173.44-210.432l-50.88-10.624v-57.408A48 48 0 0 0 512 64z" p-id="2862"></path></svg>