<?xml version="1.0" standalone="no"?><!DOCTYPE svg PUBLIC "-//W3C//DTD SVG 1.1//EN" "http://www.w3.org/Graphics/SVG/1.1/DTD/svg11.dtd"><svg class="icon" width="20px" height="20.00px" viewBox="0 0 1024 1024" version="1.1" xmlns="http://www.w3.org/2000/svg"><path d="M369.06884 385.919034A219.422616 219.422616 0 1 1 511.986103 438.873025a438.845231 438.845231 0 0 0-438.845231 438.845231 36.570436 36.570436 0 1 1-73.140872 0 512.205526 512.205526 0 0 1 369.06884-491.799222zM511.986103 365.732153a146.281744 146.281744 0 1 0 0-292.563488 146.281744 146.281744 0 0 0 0 292.563488z m233.831368 658.267847v-20.186881h-29.183208c-15.579006 0-27.135263-10.459145-30.20718-28.963785-1.170254-7.314087-4.388452-20.260022-9.069468-37.301845l-2.925635-10.459144-10.751708-3.437621a223.518504 223.518504 0 0 1-33.864224-13.896766l-10.971131-5.558706-10.312863 6.582678c-15.213301 9.800877-25.891869 16.676119-31.231152 20.260022-15.579006 10.532286-32.181984 9.947159-42.567988-0.073141l-20.625725-19.967458c-11.044272-10.678567-11.556258-25.96501-0.146282-41.10517 4.534734-5.924411 11.921962-17.553809 20.99143-32.840252l5.631847-9.435172-5.119861-9.727736a207.134949 207.134949 0 0 1-13.604202-32.620829l-3.657044-11.409976-12.141384-2.340508c-17.407528-3.437621-30.719166-5.924411-37.155563-7.094664-18.724063-3.218198-30.060898-14.920738-30.060899-29.110067v-28.232377c0-15.06702 10.824849-26.257573 30.060899-29.110067 7.53351-1.170254 21.430275-4.388452 39.130366-8.996327l10.89799-2.779353 3.510762-10.386004c3.730184-10.971131 8.484341-21.722839 14.116188-32.035702l5.778129-10.605426-6.875242-9.947159a2055.2585 2055.2585 0 0 0-21.210853-30.646025c-10.971131-15.06702-10.312863-31.084871 0-41.10517l20.698867-19.894317c11.044272-10.678567 26.915841-11.190553 42.641128-0.146282 6.216974 4.388452 18.577781 11.70254 34.668774 20.698867l9.874017 5.412424 10.093441-4.973579c10.678567-5.266143 21.722839-9.654595 32.913392-13.092216l11.77568-3.657044 2.413649-11.556258c3.583903-16.968682 6.216974-29.987757 7.460369-36.351013C690.084126 449.771015 702.15237 438.873025 716.999967 438.873025h29.183208c15.579006 0 27.135263 10.459145 30.20718 29.036926 1.170254 7.314087 4.461593 20.698867 9.362032 38.106394l2.925635 10.532286 10.751708 3.36448c11.190553 3.583903 22.234825 8.045496 33.059674 13.45792l10.971131 5.485566 10.239722-6.582679c15.14016-9.727736 26.330714-16.968682 31.816279-20.625726 15.579006-10.532286 32.181984-9.947159 42.567987 0.073141l20.625726 19.967458c11.044272 10.678567 11.556258 25.96501 0.146282 41.10517-4.607875 6.070692-11.921962 17.553809-21.137712 32.986534l-5.631847 9.508313 5.119861 9.727736c5.485565 10.312863 10.09344 21.210853 13.823625 32.547688l3.657043 11.263694 12.141385 2.413649c17.041823 3.291339 30.499744 5.85127 37.082422 7.021524 18.724063 3.218198 30.060898 14.920738 30.060898 29.110067v28.232376c0 15.06702-10.824849 26.257573-29.987757 29.183208a453.83911 453.83911 0 0 0-38.764662 8.776905l-10.971131 2.852494-3.437621 10.459144c-3.657044 11.044272-8.484341 21.942262-14.26247 32.620829l-5.704988 10.605427 6.802101 9.947158c10.459145 15.14016 17.261246 24.941037 20.99143 30.060899 10.89799 15.06702 10.239722 31.084871-0.146281 41.10517l-20.625726 19.967458c-11.044272 10.605426-26.915841 11.117413-42.641129 0.07314a440.234908 440.234908 0 0 0-33.498519-20.040598l-9.874018-5.412425-10.09344 4.973579a222.933378 222.933378 0 0 1-34.303069 13.457921l-11.77568 3.510762-2.48679 11.702539c-3.437621 16.456696-5.997551 29.110067-7.167805 35.327041-3.291339 18.138936-15.432724 29.036926-30.20718 29.036926V1024zM731.408719 877.718256a146.281744 146.281744 0 1 0 0-292.563487 146.281744 146.281744 0 0 0 0 292.563487z" /></svg>