<?xml version="1.0" standalone="no"?><!DOCTYPE svg PUBLIC "-//W3C//DTD SVG 1.1//EN" "http://www.w3.org/Graphics/SVG/1.1/DTD/svg11.dtd"><svg t="1578017098698" class="icon" viewBox="0 0 1024 1024" version="1.1" xmlns="http://www.w3.org/2000/svg" p-id="3850" xmlns:xlink="http://www.w3.org/1999/xlink" width="200" height="200"><defs><style type="text/css"></style></defs><path d="M228.644571 585.142857a292.717714 292.717714 0 0 0 566.710858 0H1024v438.857143H0V585.142857h228.644571zM804.571429 0a73.142857 73.142857 0 0 1 73.142857 73.142857v439.881143l-146.285715 1.097143a219.428571 219.428571 0 0 1-206.628571 216.941714L512 731.428571a219.428571 219.428571 0 0 1-217.965714-193.828571l-1.097143-12.726857-0.219429-7.606857L146.285714 518.363429V73.142857a73.142857 73.142857 0 0 1 73.142857-73.142857h585.142858zM582.436571 290.304H441.563429v102.838857H365.714286L517.412571 585.142857 658.285714 393.142857H582.436571V290.304z m0-96.036571H441.563429V256h140.873142v-61.732571z m0-47.981715H441.563429v20.553143h140.873142V146.285714z" fill="#20B86B" p-id="3851"></path></svg>