<?xml version="1.0" standalone="no"?><!DOCTYPE svg PUBLIC "-//W3C//DTD SVG 1.1//EN" "http://www.w3.org/Graphics/SVG/1.1/DTD/svg11.dtd"><svg t="1567679301081" class="icon" viewBox="0 0 1024 1024" version="1.1" xmlns="http://www.w3.org/2000/svg" p-id="5574" xmlns:xlink="http://www.w3.org/1999/xlink" width="200" height="200"><defs><style type="text/css"></style></defs><path d="M640 352a288 288 0 0 1 218.24 475.904l113.408 113.344a32 32 0 1 1-45.248 45.248l-115.008-115.008A288 288 0 1 1 640 352z m0 64a224 224 0 1 0 149.504 390.784 7.616 7.616 0 0 1 1.152-1.28l2.816-2.368A224 224 0 0 0 640 416z m0 64a160 160 0 0 1 160 160 32 32 0 1 1-64 0A96 96 0 0 0 640 544a32 32 0 0 1 0-64zM832 128a192 192 0 0 1 90.368 361.472c-10.176-19.2-22.208-37.12-35.904-53.568A128 128 0 0 0 832 192H192a128 128 0 1 0 0 256h192a319.744 319.744 0 0 0-37.376 64H192a192 192 0 1 1 0-384h640zM320 256a64 64 0 1 1 0 128H192a64 64 0 1 1 0-128h128z" p-id="5575"></path></svg>