<?xml version="1.0" standalone="no"?><!DOCTYPE svg PUBLIC "-//W3C//DTD SVG 1.1//EN" "http://www.w3.org/Graphics/SVG/1.1/DTD/svg11.dtd"><svg t="1579228212590" class="icon" viewBox="0 0 1024 1024" version="1.1" xmlns="http://www.w3.org/2000/svg" p-id="7222" xmlns:xlink="http://www.w3.org/1999/xlink" width="200" height="200"><defs><style type="text/css"></style></defs><path d="M768 192V0H128a64 64 0 0 0-64 64v896a64 64 0 0 0 64 64h768a64 64 0 0 0 64-64V192h-192z" fill="#FFB737" p-id="7223"></path><path d="M960 192h-192V0" fill="#FFDB9B" p-id="7224"></path><path d="M668.544 384c76.992 0 136.064 191.808 156.672 274.752 20.608 82.88-3.008 109.248-107.072 109.248-104.064 0-434.56-5.12-475.968-5.12-41.408 0-66.368-36.352-38.144-106.304 28.288-70.016 82.496-174.848 132.352-174.848 49.856 0 98.048 142.912 165.952 142.912C570.176 624.64 591.552 384 668.544 384zM320 256a64 64 0 1 1 0 128 64 64 0 0 1 0-128z" fill="#FFFFFF" p-id="7225"></path></svg>