<?xml version="1.0" standalone="no"?><!DOCTYPE svg PUBLIC "-//W3C//DTD SVG 1.1//EN" "http://www.w3.org/Graphics/SVG/1.1/DTD/svg11.dtd"><svg class="icon" width="20px" height="20.00px" viewBox="0 0 1024 1024" version="1.1" xmlns="http://www.w3.org/2000/svg"><path d="M877.714286 365.714286H146.285714a73.142857 73.142857 0 0 0-73.142857 73.142857h877.714286a73.142857 73.142857 0 0 0-73.142857-73.142857zM365.714286 292.571429V146.285714a146.285714 146.285714 0 1 1 292.571428 0v146.285715h219.428572a146.285714 146.285714 0 0 1 146.285714 146.285714v585.142857H512l-109.714286-132.973714L292.571429 1024H0V438.857143a146.285714 146.285714 0 0 1 146.285714-146.285714h219.428572z m73.142857 0h146.285714V146.285714a73.142857 73.142857 0 1 0-146.285714 0v146.285715zM73.142857 512v438.857143h184.978286L402.285714 776.045714 546.450286 950.857143H950.857143V438.857143v73.142857H73.142857z m146.285714 73.142857h73.142858v219.428572H219.428571V585.142857z m256 0h73.142858v219.428572h-73.142858V585.142857zM731.428571 585.142857h73.142858v219.428572h-73.142858V585.142857z" /></svg>