<?xml version="1.0" standalone="no"?><!DOCTYPE svg PUBLIC "-//W3C//DTD SVG 1.1//EN" "http://www.w3.org/Graphics/SVG/1.1/DTD/svg11.dtd"><svg t="1566984836568" class="icon" viewBox="0 0 1024 1024" version="1.1" xmlns="http://www.w3.org/2000/svg" p-id="3194" xmlns:xlink="http://www.w3.org/1999/xlink" width="200" height="200"><defs><style type="text/css"></style></defs><path d="M384 0l128 64 128-64h320a64 64 0 0 1 64 64v832a64 64 0 0 1-64 64h-320l-128 64-128-64H64a64 64 0 0 1-64-64V64a64 64 0 0 1 64-64h320z m-15.104 64H64v832h335.104l80.896 40.384V119.552L368.896 64zM960 64h-304.896L544 119.552v816.832L624.896 896H960V64zM384 384v64H192V384h192z m448 0v64h-192V384h192zM384 256v64H192V256h192z m448 0v64h-192V256h192z" p-id="3195"></path></svg>