<?xml version="1.0" standalone="no"?><!DOCTYPE svg PUBLIC "-//W3C//DTD SVG 1.1//EN" "http://www.w3.org/Graphics/SVG/1.1/DTD/svg11.dtd"><svg t="1566984979009" class="icon" viewBox="0 0 1024 1024" version="1.1" xmlns="http://www.w3.org/2000/svg" p-id="3527" xmlns:xlink="http://www.w3.org/1999/xlink" width="200" height="200"><defs><style type="text/css"></style></defs><path d="M256 512a256 256 0 0 1 255.68 243.2L512 768a256 256 0 0 1-243.2 255.68L256 1024H0v-256a256 256 0 0 1 256-256z m512 0a256 256 0 0 1 256 256v256h-256a256 256 0 1 1 0-512zM256 576a192 192 0 0 0-191.68 180.736L64 768v192h192a192 192 0 0 0 0-384z m512 0a192 192 0 0 0 0 384h192v-192a192 192 0 0 0-192-192zM256 0a256 256 0 0 1 255.68 243.2L512 256a256 256 0 1 1-512 0V0h256z m768 0v256a256 256 0 1 1-256-256h256zM256 64H64v192a192 192 0 1 0 192-192z m704 0h-192a192 192 0 1 0 192 192V64z" p-id="3528"></path></svg>