<?xml version="1.0" standalone="no"?><!DOCTYPE svg PUBLIC "-//W3C//DTD SVG 1.1//EN" "http://www.w3.org/Graphics/SVG/1.1/DTD/svg11.dtd"><svg t="1567989843798" class="icon" viewBox="0 0 1024 1024" version="1.1" xmlns="http://www.w3.org/2000/svg" p-id="3347" xmlns:xlink="http://www.w3.org/1999/xlink" width="200" height="200"><defs><style type="text/css"></style></defs><path d="M731.428571 292.571429h109.714286a36.571429 36.571429 0 1 1 0 73.142857H804.571429v365.714285a146.285714 146.285714 0 0 1-146.285715 146.285715H365.714286a146.285714 146.285714 0 0 1-146.285715-146.285715V365.714286h-36.571428a36.571429 36.571429 0 0 1 0-73.142857H292.571429a146.285714 146.285714 0 0 1 146.285714-146.285715h146.285714a146.285714 146.285714 0 0 1 146.285714 146.285715zM365.714286 292.571429h292.571428a73.142857 73.142857 0 0 0-73.142857-73.142858H438.857143a73.142857 73.142857 0 0 0-73.142857 73.142858zM292.571429 365.714286v365.714285a73.142857 73.142857 0 0 0 73.142857 73.142858h292.571428a73.142857 73.142857 0 0 0 73.142857-73.142858V365.714286H292.571429z m109.714285 73.142857a36.571429 36.571429 0 0 1 36.571429 36.571428v219.428572a36.571429 36.571429 0 0 1-73.142857 0v-219.428572a36.571429 36.571429 0 0 1 36.571428-36.571428z m219.428572 0a36.571429 36.571429 0 0 1 36.571428 36.571428v219.428572a36.571429 36.571429 0 0 1-73.142857 0v-219.428572a36.571429 36.571429 0 0 1 36.571429-36.571428zM512 0a512 512 0 1 1 0 1024A512 512 0 0 1 512 0z m0 73.142857a438.857143 438.857143 0 1 0 0 877.714286A438.857143 438.857143 0 0 0 512 73.142857z" fill="#EB5555" p-id="3348"></path></svg>