<?xml version="1.0" standalone="no"?><!DOCTYPE svg PUBLIC "-//W3C//DTD SVG 1.1//EN" "http://www.w3.org/Graphics/SVG/1.1/DTD/svg11.dtd"><svg class="icon" width="20px" height="20.00px" viewBox="0 0 1024 1024" version="1.1" xmlns="http://www.w3.org/2000/svg"><path d="M854.500355 385.514392A385.285473 385.285473 0 0 1 950.821724 639.811581c0 205.807388-158.999738 374.022382-362.101059 383.383913h-1.755287c-2.925478 0-5.850956-0.585096-8.703298-1.170192-33.057903 3.583711-64.945615-42.200022-36.568477-76.208706 30.205562-35.76397 59.826028-77.378897 63.848561-126.014971 4.095669-45.125501-18.576786-77.378897-49.879402-106.706816-48.197253-45.710596-103.854475-84.98514-130.549463-143.055882-45.344911 42.858255-69.114421 104.366433-74.307145 168.214994-5.850956 80.962608 6.362915 164.192462 83.522401 204.637197 47.027061 24.062058 10.458584 93.249616-35.398286 79.134184a42.273159 42.273159 0 0 1-16.821499-1.170191 415.637309 415.637309 0 0 1-219.922821-140.057267C60.744994 753.612681 44.435453 571.282255 121.59494 427.129319 198.754426 282.903246 386.204439 203.183966 413.411386 31.970357c3.510574-23.403825 32.545945-36.349066 53.389976-30.49811 0.658233 0 1.243328 0.585096 1.828424 0.585096 10.970543 0.585096 21.429128 4.680765 30.717521 12.360145 127.697122 101.952914 234.989033 240.328031 257.661489 404.447355 8.118202-9.36153 15.651308-19.308156 22.672455-30.424973 15.066213-24.647153 41.688064-25.232249 60.849946-12.945241a38.323764 38.323764 0 0 1 13.896021 9.946626z m-200.175843 551.013811a307.32148 307.32148 0 0 0 221.093012-297.228581 310.832054 310.832054 0 0 0-49.367444-167.629898 284.137066 284.137066 0 0 1-85.862784 69.772654c-35.983381 19.308156-69.041285-15.285623-65.603847-45.783733v-5.265861c2.925478-153.002508-84.107497-279.602575-192.642737-377.532956-27.792042 72.698132-81.182019 133.109256-135.815324 187.011191-67.285998 66.26208-142.105102 130.183778-171.140472 223.945353a324.728076 324.728076 0 0 0 100.343901 344.694464 379.580791 379.580791 0 0 1-10.970543-130.695737c8.703298-111.972676 58.5827-222.775162 161.852079-275.506905a42.638844 42.638844 0 0 1 49.367444 6.436052 43.150803 43.150803 0 0 1 20.844032 35.76397c2.340383 46.295692 44.101583 80.304375 76.647528 107.877007 35.983381 30.424973 73.136954 60.337987 96.321368 102.53801 41.176105 75.038515 23.76951 153.587603-15.066213 221.60497z m-130.037504-91.421192c36.568477 42.785118-24.866564 104.951529-61.435041 62.166411-42.419433-49.879403-59.826028-109.120335-64.433656-173.553992-4.095669-56.315455 82.937306-56.315455 87.032975 0 2.925478 39.85964 12.140734 80.889471 38.835722 111.387581z" /></svg>