<?xml version="1.0" standalone="no"?><!DOCTYPE svg PUBLIC "-//W3C//DTD SVG 1.1//EN" "http://www.w3.org/Graphics/SVG/1.1/DTD/svg11.dtd"><svg t="1566984468778" class="icon" viewBox="0 0 1024 1024" version="1.1" xmlns="http://www.w3.org/2000/svg" p-id="2750" xmlns:xlink="http://www.w3.org/1999/xlink" width="200" height="200"><defs><style type="text/css"></style></defs><path d="M1019.572402 84.74174a36.007245 36.007245 0 0 0-48.734495-16.884392L20.25943 553.923178A38.117794 38.117794 0 0 0 25.759648 623.571295l319.780151 103.480857 49.054275-62.740866-260.940603-84.42196 715.923803-366.404097-382.96871 477.36781a27.501093 27.501093 0 0 0-2.430329 3.389669l-44.257573 56.665043v234.974455c0 20.78571 16.244832 37.478234 36.390982 37.478234a36.838673 36.838673 0 0 0 36.327025-37.478234v-211.566548l347.856848 112.370745a37.094498 37.094498 0 0 0 12.279558 1.726813 36.902629 36.902629 0 0 0 36.838673-30.762851L1022.770203 108.405471a38.373618 38.373618 0 0 0-3.197801-23.663731zM825.401894 803.28774l-281.406533-91.009431 382.457061-476.856162-101.050528 567.865593z" p-id="2751"></path></svg>