<?xml version="1.0" standalone="no"?><!DOCTYPE svg PUBLIC "-//W3C//DTD SVG 1.1//EN" "http://www.w3.org/Graphics/SVG/1.1/DTD/svg11.dtd"><svg t="1571735276332" class="icon" viewBox="0 0 1024 1024" version="1.1" xmlns="http://www.w3.org/2000/svg" p-id="3469" xmlns:xlink="http://www.w3.org/1999/xlink" width="200" height="200"><defs><style type="text/css"></style></defs><path d="M704 0a64 64 0 0 1 64 64v192h192a64 64 0 0 1 64 64v640a64 64 0 0 1-64 64H320a64 64 0 0 1-64-64v-192H64a64 64 0 0 1-64-64V64a64 64 0 0 1 64-64h640z m256 320H320v640h640V320z m-96 384a32 32 0 1 1 0 64h-128a32 32 0 1 1 0-64h128zM512 512a128 128 0 1 1 0 256 128 128 0 0 1 0-256z m192-448H64v640h192V320a64 64 0 0 1 64-64h384V64zM512 576a64 64 0 1 0 0 128 64 64 0 0 0 0-128z m352-64a32 32 0 1 1 0 64h-128a32 32 0 1 1 0-64h128z" p-id="3470"></path></svg>