<?xml version="1.0" standalone="no"?><!DOCTYPE svg PUBLIC "-//W3C//DTD SVG 1.1//EN" "http://www.w3.org/Graphics/SVG/1.1/DTD/svg11.dtd"><svg t="1583379326628" class="icon" viewBox="0 0 1024 1024" version="1.1" xmlns="http://www.w3.org/2000/svg" p-id="6774" xmlns:xlink="http://www.w3.org/1999/xlink" width="200" height="200"><defs><style type="text/css"></style></defs><path d="M704 256H320a64 64 0 0 1-64-64H64v768h896V192h-192a64 64 0 0 1-64 64z" fill="#EDFFE7" p-id="6775"></path><path d="M256 128m64 0l384 0q64 0 64 64l0 0q0 64-64 64l-384 0q-64 0-64-64l0 0q0-64 64-64Z" fill="#CAF4A0" p-id="6776"></path><path d="M704 256H320a64 64 0 0 1-64-64H64v768h896V192h-192a64 64 0 0 1-64 64z m0-192H320v128h384V64z m64 64h192a64 64 0 0 1 64 64v768a64 64 0 0 1-64 64H64a64 64 0 0 1-64-64V192a64 64 0 0 1 64-64h192V64a64 64 0 0 1 64-64h384a64 64 0 0 1 64 64v64z" fill="#5FD83C" p-id="6777"></path><path d="M192 384h128v128H192zM448 384h128v128H448zM704 384h128v128h-128z" fill="#FE6D1E" p-id="6778"></path><path d="M693.824 623.872l-203.456 201.408c-3.392 3.392-13.568 6.72-20.352 6.72-6.784 0-13.568-3.328-20.352-6.72L327.68 704.448a30.4 30.4 0 0 1 0-40.32 31.168 31.168 0 0 1 40.704 0l101.76 100.736 183.04-181.312a31.168 31.168 0 0 1 40.704 0c13.568 10.048 13.568 26.88 0 40.32z" fill="#5FD83C" opacity=".8" p-id="6779"></path></svg>