<?xml version="1.0" standalone="no"?><!DOCTYPE svg PUBLIC "-//W3C//DTD SVG 1.1//EN" "http://www.w3.org/Graphics/SVG/1.1/DTD/svg11.dtd"><svg t="1577256617408" class="icon" viewBox="0 0 1024 1024" version="1.1" xmlns="http://www.w3.org/2000/svg" p-id="6084" xmlns:xlink="http://www.w3.org/1999/xlink" width="200" height="200"><defs><style type="text/css"></style></defs><path d="M104.128 965.12l415.36-225.664 436.8 225.664z" fill="#FCF0B2" p-id="6085"></path><path d="M128 0m64 0l640 0q64 0 64 64l0 576q0 64-64 64l-640 0q-64 0-64-64l0-576q0-64 64-64Z" fill="#FFFFFF" p-id="6086"></path><path d="M62.336 512l397.888 200.768-397.888 200.768zM973.888 512L576 712.768l397.888 200.768z" fill="#FFFADF" p-id="6087"></path><path d="M873.728 337.664c41.92 31.552 70.528 52.864 85.824 64 39.552 28.864 62.08 48.32 64 67.584L1024 934.4c0 46.848-36.736 84.864-83.2 89.216l-8.768 0.384H91.968c-47.552 0-87.04-35.264-91.52-80.896L0 934.4V469.248c0-19.968 17.28-33.344 56.768-63.168 15.552-11.712 46.912-34.56 94.08-68.416v76.672l-52.992 42.112 428.096 219.904 412.032-210.816-64.256-51.2V337.664z m-347.84 410.624L112.512 960 932.032 960a30.848 30.848 0 0 0 5.12-0.448l-411.264-211.2zM64 511.04v401.792l391.744-200.576L64 511.04z m896 14.976l-363.968 186.368L960 899.328V526.08z" fill="#E2C93F" p-id="6088"></path><path d="M832 64H192v442.048l-64-32.832V64a64 64 0 0 1 64-64h640a64 64 0 0 1 64 64v424l-64 31.808V64z" fill="#FB8890" p-id="6089"></path><path d="M320 128m32 0l320 0q32 0 32 32l0 0q0 32-32 32l-320 0q-32 0-32-32l0 0q0-32 32-32Z" fill="#FF3C49" p-id="6090"></path><path d="M256 256m32 0l448 0q32 0 32 32l0 0q0 32-32 32l-448 0q-32 0-32-32l0 0q0-32 32-32Z" fill="#FFBDC2" p-id="6091"></path><path d="M256 384m32 0l448 0q32 0 32 32l0 0q0 32-32 32l-448 0q-32 0-32-32l0 0q0-32 32-32Z" fill="#FFBDC2" p-id="6092"></path></svg>