<?xml version="1.0" standalone="no"?><!DOCTYPE svg PUBLIC "-//W3C//DTD SVG 1.1//EN" "http://www.w3.org/Graphics/SVG/1.1/DTD/svg11.dtd"><svg class="icon" width="20px" height="20.00px" viewBox="0 0 1024 1024" version="1.1" xmlns="http://www.w3.org/2000/svg"><path d="M73.142857 156.818286L512 0l438.857143 156.818286v387.510857c0 166.034286-92.16 313.636571-236.982857 378.148571L503.222857 1024l-197.485714-96.841143C160.914286 857.965714 73.142857 714.971429 73.142857 553.472V156.818286z m73.142857 51.492571v345.234286c0 134.144 72.411429 250.88 191.634286 307.931428l165.595429 81.188572L684.105143 855.771429C801.938286 803.181714 877.714286 682.130286 877.714286 544.329143V208.384L512 77.677714 146.285714 208.310857zM548.571429 694.857143H585.142857a36.571429 36.571429 0 0 1 0 73.142857h-36.571428v36.571429a36.571429 36.571429 0 1 1-73.142858 0V507.392a146.285714 146.285714 0 1 1 73.142858 0V548.571429H658.285714a36.571429 36.571429 0 0 1 0 73.142857H548.571429v73.142857zM512 438.857143a73.142857 73.142857 0 1 0 0-146.285714 73.142857 73.142857 0 0 0 0 146.285714z" /></svg>