<?xml version="1.0" standalone="no"?><!DOCTYPE svg PUBLIC "-//W3C//DTD SVG 1.1//EN" "http://www.w3.org/Graphics/SVG/1.1/DTD/svg11.dtd"><svg class="icon" width="20px" height="20.00px" viewBox="0 0 1024 1024" version="1.1" xmlns="http://www.w3.org/2000/svg"><path d="M585.142857 73.142857H73.142857v658.285714h877.714286V73.142857h-73.142857v365.714286l-146.285715-146.285714-146.285714 146.285714V73.142857z m378.587429 730.331429c-8.338286 23.186286-12.873143 48.201143-12.873143 74.24 0 56.173714 21.138286 107.52 55.881143 146.285714H146.285714a146.285714 146.285714 0 0 1-146.285714-146.285714V73.142857a73.142857 73.142857 0 0 1 73.142857-73.142857h877.714286a73.142857 73.142857 0 0 1 73.142857 73.142857v658.285714a73.142857 73.142857 0 0 1-60.269714 72.045715z m-76.8 1.097143H146.285714a73.142857 73.142857 0 0 0 0 146.285714h740.644572a293.156571 293.156571 0 0 1 0-146.285714zM658.285714 73.142857v189.147429l73.142857-73.142857 73.142858 73.142857V73.142857H658.285714z" /></svg>