<?xml version="1.0" standalone="no"?><!DOCTYPE svg PUBLIC "-//W3C//DTD SVG 1.1//EN" "http://www.w3.org/Graphics/SVG/1.1/DTD/svg11.dtd"><svg t="1568768247289" class="icon" viewBox="0 0 1024 1024" version="1.1" xmlns="http://www.w3.org/2000/svg" p-id="3407" xmlns:xlink="http://www.w3.org/1999/xlink" width="200" height="200"><defs><style type="text/css"></style></defs><path d="M890.406379 0A51.146058 51.146058 0 0 1 941.552438 51.146058v548.657717c0 1.569254-0.069745 3.126884-0.209234 4.649642H976.42475a46.496417 46.496417 0 1 1 0 92.992833l-186.624992-0.011624 71.68585 267.505509a46.496417 46.496417 0 0 1-89.156879 26.363469l-0.674198-2.301573L693.528927 697.44625H332.275018l-78.11398 291.567405a46.496417 46.496417 0 1 1-89.831077-24.061896l71.674226-267.505509L46.496417 697.44625a46.496417 46.496417 0 1 1 0-92.992833h35.081546A51.797008 51.797008 0 0 1 81.368729 599.803775V51.146058A51.146058 51.146058 0 0 1 132.514788 0h757.891591zM755.566771 255.730292a46.496417 46.496417 0 0 0-41.46318 67.559293l1.278652 2.336445-105.918837 95.898859A46.380176 46.380176 0 0 0 592.829313 418.46775c-7.660285 0-14.878853 1.859857-21.260487 5.137854l-2.348069 1.290276-118.484494-107.290482a46.496417 46.496417 0 1 0-89.005765-4.068436l0.755566 2.673544-75.091713 60.294228a46.496417 46.496417 0 1 0 24.573357 28.862651l-0.999673-3.068764 73.731692-59.178314A46.287183 46.287183 0 0 0 406.843646 348.723125c6.555995 0 12.809763-1.36002 18.470701-3.812706l2.382942-1.115914 120.274606 108.917856A46.554537 46.554537 0 0 0 592.829313 511.460583a46.496417 46.496417 0 0 0 43.311412-63.44436l-1.10429-2.580551 108.511012-98.281801A46.566161 46.566161 0 0 0 802.063188 302.226708a46.496417 46.496417 0 0 0-46.496417-46.496416z" p-id="3408"></path></svg>