<?xml version="1.0" standalone="no"?><!DOCTYPE svg PUBLIC "-//W3C//DTD SVG 1.1//EN" "http://www.w3.org/Graphics/SVG/1.1/DTD/svg11.dtd"><svg t="1567410709365" class="icon" viewBox="0 0 1024 1024" version="1.1" xmlns="http://www.w3.org/2000/svg" p-id="6164" xmlns:xlink="http://www.w3.org/1999/xlink" width="200" height="200"><defs><style type="text/css"></style></defs><path d="M516.817455 807.842909c5.166545 0 10.449455-0.314182 15.70909-0.872727 50.769455-5.899636 93.893818-40.273455 109.765819-87.633455a7.191273 7.191273 0 0 0-4.049455-8.878545 7.68 7.68 0 0 0-9.576727 2.978909c-0.197818 0.256-20.386909 31.802182-98.839273 42.065454a264.110545 264.110545 0 0 1-34.059636 2.362182c-55.005091 0-79.534545-20.107636-79.744-20.317091a7.726545 7.726545 0 0 0-9.832728-0.104727 7.191273 7.191273 0 0 0-1.536 9.448727 133.864727 133.864727 0 0 0 112.16291 60.951273z m422.167272-471.214545c-0.721455 0-1.338182 0.151273-2.001454 0.151272C890.996364 143.872 715.217455 0 504.471273 0 287.930182 0 108.066909 151.866182 68.224 352.698182 29.498182 359.447273 0 392.436364 0 432.302545v159.674182c0 44.741818 37.026909 81.012364 82.816 81.012364a82.816 82.816 0 0 0 63.709091-29.905455c36.619636 93.789091 111.138909 169.367273 205.474909 209.28 1.210182-2.292364 2.606545-4.48 4.200727-6.516363 1.489455-1.850182 3.130182-3.386182 4.561455-3.386182 1.431273 0.023273 2.816 0.465455 3.991273 1.28-21.818182-15.697455-100.689455-96.605091-117.79491-209.536-7.470545-49.722182 30.987636-98.513455 75.752728-106.565818 71.854545-12.928 143.348364-27.706182 215.202909-40.436364 45.684364-8.052364 76.916364-32.325818 96.034909-72.750545 4.445091-9.437091 10.903273-28.532364 13.870545-56.087273a8.808727 8.808727 0 0 1 8.715637-7.226182c2.967273 0 5.469091 1.431273 7.168 3.595636l1.943272-1.233454c28.322909 39.866182 84.503273 128 92.602182 221.032727 9.216 106.309818 4.096 179.060364-79.941818 253.556364a6.423273 6.423273 0 0 0 0.872727 10.309818l2.036364 0.930909c0.616727 0.151273 1.128727 0.314182 1.687273 0.314182 0.616727 0 1.082182-0.162909 1.594182-0.314182l3.479272-1.896727c85.015273-45.358545 150.167273-121.088 180.282182-212.107637 12.241455 17.547636 31.290182 30.173091 53.469091 34.583273-35.549091 156.637091-179.874909 254.743273-358.609455 269.614546a73.227636 73.227636 0 0 0-68.119272-44.020364c-40.413091 0-73.239273 30.999273-73.239273 69.271273 0 38.225455 32.826182 69.213091 73.239273 69.213091 32.674909 0 59.973818-20.270545 69.445818-48.174546 206.906182-16.267636 372.852364-135.400727 407.470545-320.465454C1002.472727 642.920727 1024 613.888 1024 579.921455V418.466909c0-45.149091-38.050909-81.780364-85.015273-81.780364v-0.058181z m-76.311272 46.429091c-53.992727-141.602909-193.861818-242.734545-358.4-242.734546-163.84 0-303.197091 100.305455-357.701819 240.942546-2.653091-3.176727-5.888-5.946182-8.96-8.727273 30.836364-171.403636 183.156364-301.730909 366.859637-301.730909 182.842182 0 334.638545 129.047273 366.498909 299.275636-3.130182 4.107636-6.050909 8.366545-8.354909 12.986182h0.058182z" p-id="6165"></path></svg>