<?xml version="1.0" standalone="no"?><!DOCTYPE svg PUBLIC "-//W3C//DTD SVG 1.1//EN" "http://www.w3.org/Graphics/SVG/1.1/DTD/svg11.dtd"><svg t="1567410720729" class="icon" viewBox="0 0 1024 1024" version="1.1" xmlns="http://www.w3.org/2000/svg" p-id="6408" xmlns:xlink="http://www.w3.org/1999/xlink" width="200" height="200"><defs><style type="text/css"></style></defs><path d="M803.362909 511.511273l144.756364-146.106182c39.121455-39.493818 39.121455-102.667636 0-138.205091L795.52 73.192727c-35.211636-35.549091-101.713455-35.549091-136.925091 0l-144.756364 146.094546-144.756363-146.094546c-35.211636-35.549091-101.725091-35.549091-136.936727 0L79.592727 227.2c-39.121455 39.482182-39.121455 102.667636 0 138.205091l144.756364 146.106182-62.603636 59.229091c-11.729455 11.845818-19.549091 23.691636-23.470546 39.482181l-86.062545 240.872728c-11.741091 31.592727-3.921455 63.185455 11.729454 86.877091C83.490909 961.664 110.894545 977.454545 142.196364 977.454545c11.729455 0 19.549091 0 31.301818-3.956363l238.638545-86.865455c15.650909-3.956364 27.392-11.845818 39.121455-23.691636l58.693818-59.229091 144.756364 146.106182C674.234182 969.541818 697.716364 977.454545 725.096727 977.454545c27.392 0 50.862545-11.845818 70.423273-27.636363L948.107636 795.810909c39.133091-39.482182 39.133091-102.667636 0-138.205091l-144.756363-146.094545zM729.018182 120.587636c3.921455 0 11.752727 3.944727 15.650909 3.944728l152.587636 153.995636c7.819636 7.912727 7.819636 19.746909 0 27.648l-54.772363 55.272727-179.968-181.643636 54.772363-55.272727s3.909818-3.956364 11.729455-3.956364zM228.247273 404.887273l70.423272-71.074909c11.741091-11.845818 11.741091-31.592727 0-43.438546a30.498909 30.498909 0 0 0-43.031272 0l-70.423273 71.086546-50.850909-51.339637c-7.831273-7.901091-7.831273-19.746909 0-27.636363L286.917818 128.465455c3.921455-3.944727 7.831273-3.944727 15.650909-3.944728 7.831273 0 11.741091 3.956364 15.650909 3.956364l140.846546 146.094545-179.968 181.643637-50.850909-51.339637zM893.335273 740.538182L740.770909 894.533818c-7.819636 7.889455-19.549091 7.889455-27.380364 0l-50.862545-51.339636 70.423273-71.074909c11.729455-11.845818 11.729455-31.592727 0-43.438546a30.498909 30.498909 0 0 0-43.042909 0l-70.411637 71.086546-50.862545-51.339637 179.968-181.643636 144.756363 146.106182c7.819636 7.901091 7.819636 19.746909 0 27.636363z" p-id="6409"></path></svg>