<?xml version="1.0" standalone="no"?><!DOCTYPE svg PUBLIC "-//W3C//DTD SVG 1.1//EN" "http://www.w3.org/Graphics/SVG/1.1/DTD/svg11.dtd"><svg t="1568768250584" class="icon" viewBox="0 0 1024 1024" version="1.1" xmlns="http://www.w3.org/2000/svg" p-id="3533" xmlns:xlink="http://www.w3.org/1999/xlink" width="200" height="200"><defs><style type="text/css"></style></defs><path d="M121.018182 902.981818V560.872727c0-215.936 175.045818-390.981818 390.981818-390.981818 215.936 0 390.981818 175.045818 390.981818 390.981818v342.109091h48.872727a48.872727 48.872727 0 0 1 0 97.745455H72.145455a48.872727 48.872727 0 0 1 0-97.745455h48.872727z m527.336727-263.272727A48.872727 48.872727 0 0 0 609.745455 560.872727h-110.941091l56.203636-97.256727a48.872727 48.872727 0 1 0-84.642909-48.872727l-97.745455 169.250909A48.64 48.64 0 0 0 365.381818 609.745455a48.872727 48.872727 0 0 0 48.872727 48.872727h110.312728l-55.773091 96.616727a48.872727 48.872727 0 1 0 84.654545 48.872727l94.906182-164.398545zM463.127273 23.272727h97.745454a48.872727 48.872727 0 0 1 0 97.745455h-97.745454a48.872727 48.872727 0 0 1 0-97.745455z m335.557818 73.309091l84.654545 48.872727a48.872727 48.872727 0 1 1-48.872727 84.64291l-84.654545-48.872728a48.872727 48.872727 0 0 1 48.872727-84.642909z m-573.277091-0.686545a48.872727 48.872727 0 1 1 48.872727 84.654545l-84.689454 48.872727a48.872727 48.872727 0 1 1-48.872728-84.654545l84.64291-48.872727h0.046545z" p-id="3534"></path></svg>