<?xml version="1.0" standalone="no"?><!DOCTYPE svg PUBLIC "-//W3C//DTD SVG 1.1//EN" "http://www.w3.org/Graphics/SVG/1.1/DTD/svg11.dtd"><svg t="1567410723871" class="icon" viewBox="0 0 1024 1024" version="1.1" xmlns="http://www.w3.org/2000/svg" p-id="6530" xmlns:xlink="http://www.w3.org/1999/xlink" width="200" height="200"><defs><style type="text/css"></style></defs><path d="M738.594909 530.664727c59.741091 0 108.055273 47.534545 108.055273 105.821091 0 49.594182-34.804364 90.996364-82.082909 102.248727l117.922909 144.174546c39.482182 0 71.691636 31.685818 71.691636 70.539636C954.181818 992.314182 921.972364 1024 881.978182 1024H594.699636c-39.482182 0-71.68-31.697455-71.68-70.551273 0-38.853818 32.197818-70.551273 71.68-70.551272l117.922909-144.174546c-47.266909-11.240727-82.071273-52.642909-82.071272-102.237091 0-58.286545 48.302545-105.821091 108.043636-105.821091zM819.118545 0c34.280727 0 62.336 27.601455 62.336 61.346909v450.397091c-34.804364-38.341818-86.225455-62.882909-142.859636-62.882909-105.448727 0-191.162182 84.363636-191.162182 187.624727 0 44.986182 16.616727 86.912 44.148364 119.621818l-42.077091 51.642182c-52.468364 15.848727-92.974545 58.786909-105.972364 112.465455H143.790545C109.509818 920.215273 81.454545 892.625455 81.454545 858.88V61.346909C81.454545 27.601455 109.498182 0 143.790545 0zM450.792727 512.768h-145.454545c-22.853818 0-41.553455 18.408727-41.553455 40.901818s18.176 40.890182 41.553455 40.890182h145.454545c22.853818 0 41.565091-18.397091 41.565091-40.890182 0-22.493091-18.711273-40.901818-41.565091-40.901818zM658.594909 328.727273H305.349818c-23.377455 0-41.553455 18.397091-41.553454 40.890182 0 22.493091 18.699636 40.901818 41.553454 40.901818h353.245091c22.865455 0 41.565091-18.408727 41.565091-40.901818s-18.711273-40.890182-41.565091-40.890182z m0-184.052364H305.349818c-23.377455 0-41.553455 18.408727-41.553454 40.901818s18.699636 40.901818 41.553454 40.901818h353.245091c22.865455 0 41.565091-18.408727 41.565091-40.901818s-18.711273-40.901818-41.565091-40.901818z" p-id="6531"></path></svg>