<?xml version="1.0" standalone="no"?><!DOCTYPE svg PUBLIC "-//W3C//DTD SVG 1.1//EN" "http://www.w3.org/Graphics/SVG/1.1/DTD/svg11.dtd"><svg t="1567410717229" class="icon" viewBox="0 0 1024 1024" version="1.1" xmlns="http://www.w3.org/2000/svg" p-id="6286" xmlns:xlink="http://www.w3.org/1999/xlink" width="200" height="200"><defs><style type="text/css"></style></defs><path d="M994.909091 884.363636a29.090909 29.090909 0 1 1 0 58.181819h-965.818182a29.090909 29.090909 0 1 1 0-58.181819h965.818182zM954.181818 81.454545a69.818182 69.818182 0 0 1 69.818182 69.818182v558.545455a69.818182 69.818182 0 0 1-69.818182 69.818182H69.818182a69.818182 69.818182 0 0 1-69.818182-69.818182V151.272727a69.818182 69.818182 0 0 1 69.818182-69.818182h884.363636zM532.875636 197.818182H492.218182l-1.885091 0.069818c-10.600727 0.756364-19.851636 7.889455-21.899636 17.256727l-0.29091 1.675637-5.166545 42.205091-5.434182 1.617454c-9.018182 2.839273-17.780364 6.4-26.216727 10.658909l-5.015273 2.641455-33.652363-26.298182-1.559273-1.093818c-8.005818-5.003636-19.386182-3.537455-27.345455 3.246545l-1.559272 1.431273-28.741819 28.741818-1.431272 1.547636c-6.784 7.970909-8.261818 19.351273-3.246546 27.345455l1.093818 1.559273 26.100364 33.396363-2.676364 5.003637a175.941818 175.941818 0 0 0-10.833454 26.135272l-1.664 5.422546-42.519273 5.224727-1.675636 0.279273c-9.332364 2.048-16.442182 11.240727-17.245091 21.794909l-0.081455 1.989818V450.327273l0.069818 1.885091c0.756364 10.589091 7.889455 19.851636 17.256728 21.899636l1.675636 0.279273 42.856727 5.259636 1.652364 5.294546c2.897455 8.762182 6.469818 17.291636 10.705455 25.495272l2.618181 4.887273-27.019636 34.56-1.082182 1.559273c-5.015273 8.005818-3.549091 19.386182 3.246546 27.345454l1.419636 1.559273 28.741818 28.741818 1.559273 1.431273c7.970909 6.784 19.339636 8.261818 27.345454 3.246545l1.559273-1.093818 35.037091-27.380363 4.759273 2.478545c7.668364 3.84 15.592727 7.109818 23.738182 9.797818l6.155636 1.908364 5.492364 44.788363 0.279272 1.675637c2.048 9.332364 11.240727 16.442182 21.794909 17.245091l1.989819 0.081454H531.781818l1.885091-0.069818c10.589091-0.756364 19.851636-7.889455 21.899636-17.256727l0.279273-1.675637 5.538909-45.125818 5.818182-1.838545a176.058182 176.058182 0 0 0 22.528-9.332364l5.422546-2.804363 36.18909 28.276363 1.559273 1.093818c8.005818 5.015273 19.386182 3.549091 27.345455-3.246545l1.559272-1.431273 28.741819-28.741818 1.431272-1.547636c6.784-7.970909 8.261818-19.351273 3.246546-27.345455l-1.093818-1.559273-28.090182-35.944727 2.850909-5.399273c3.677091-7.249455 6.853818-14.754909 9.483636-22.458181l1.885091-5.79491 45.463273-5.585454 1.675636-0.279273c9.332364-2.048 16.442182-11.240727 17.245091-21.794909l0.081455-1.989818V410.763636l-0.069818-1.885091c-0.756364-10.589091-7.889455-19.851636-17.256728-21.899636l-1.675636-0.279273-44.462546-5.457454-1.536-5.131637a175.604364 175.604364 0 0 0-9.506909-23.854545l-2.909091-5.736727 27.601455-35.316364 1.082182-1.559273c5.015273-8.005818 3.537455-19.374545-3.246546-27.345454l-1.431272-1.559273-28.741819-28.741818-1.547636-1.431273c-7.970909-6.784-19.351273-8.261818-27.345454-3.246545l-1.559273 1.093818-34.315637 26.810182-4.864-2.641455a175.895273 175.895273 0 0 0-25.425454-10.88l-5.271273-1.687273-5.306182-43.194181-0.279272-1.675637C554.472727 205.230545 544.232727 197.818182 532.875636 197.818182zM512 335.488a95.057455 95.057455 0 1 1 0 190.114909 95.057455 95.057455 0 0 1 0-190.114909zM512 372.363636a58.181818 58.181818 0 1 0 0 116.363637 58.181818 58.181818 0 0 0 0-116.363637z" p-id="6287"></path></svg>