<?xml version="1.0" standalone="no"?><!DOCTYPE svg PUBLIC "-//W3C//DTD SVG 1.1//EN" "http://www.w3.org/Graphics/SVG/1.1/DTD/svg11.dtd"><svg t="1567410431784" class="icon" viewBox="0 0 1024 1024" version="1.1" xmlns="http://www.w3.org/2000/svg" p-id="3103" xmlns:xlink="http://www.w3.org/1999/xlink" width="200" height="200"><defs><style type="text/css"></style></defs><path d="M448 576v310.144C448 962.304 386.304 1024 310.144 1024H137.856A137.856 137.856 0 0 1 0 886.144v-172.288C0 637.696 61.696 576 137.856 576H448z m438.144 0C962.304 576 1024 637.696 1024 713.856v172.288c0 76.16-61.696 137.856-137.856 137.856h-172.288A137.856 137.856 0 0 1 576 886.144V576h310.144zM384 640H137.856C97.088 640 64 673.088 64 713.856v172.288C64 926.912 97.088 960 137.856 960h172.288C350.912 960 384 926.912 384 886.144V640z m502.144 0H640v246.144c0 40.768 33.088 73.856 73.856 73.856h172.288c40.768 0 73.856-33.088 73.856-73.856v-172.288c0-40.768-33.088-73.856-73.856-73.856z m-576-640c72.832 0 132.48 56.448 137.536 128L448 137.856V448H137.856A137.856 137.856 0 0 1 0.32 320L0 310.144V137.856C0 65.024 56.448 5.376 128 0.32L137.856 0h172.288z m576 0C962.304 0 1024 61.696 1024 137.856v172.288C1024 386.304 962.304 448 886.144 448H576V137.856C576 61.696 637.696 0 713.856 0h172.288z m0 64h-172.288C673.088 64 640 97.088 640 137.856V384h246.144C926.912 384 960 350.912 960 310.144V137.856C960 97.088 926.912 64 886.144 64z" p-id="3104"></path></svg>