<?xml version="1.0" standalone="no"?><!DOCTYPE svg PUBLIC "-//W3C//DTD SVG 1.1//EN" "http://www.w3.org/Graphics/SVG/1.1/DTD/svg11.dtd"><svg t="1567667071760" class="icon" viewBox="0 0 1024 1024" version="1.1" xmlns="http://www.w3.org/2000/svg" p-id="3742" xmlns:xlink="http://www.w3.org/1999/xlink" width="200" height="200"><defs><style type="text/css"></style></defs><path d="M896 128l0.064 451.328a224 224 0 1 0-316.8 316.8L128 896V128h768z m0.064 764.672L896 896l-3.328 0.064 3.392-3.392z" fill="#5580EB" fill-opacity=".25" p-id="3743"></path><path d="M1024 0v512h-64V64H64v896h512v64H0V0h1024z m-156.16 641.6a160 160 0 0 1 20.48 201.344l92.672 92.8-45.248 45.248-92.736-92.8a160 160 0 1 1 24.896-246.592z m-180.992 45.248a96 96 0 1 0 135.808 135.808 96 96 0 0 0-135.808-135.808zM512 576v64H192V576h320z m320-192v64H192V384h640z m0-192v64H192V192h640z" fill="#5580EB" p-id="3744"></path></svg>