<?xml version="1.0" standalone="no"?><!DOCTYPE svg PUBLIC "-//W3C//DTD SVG 1.1//EN" "http://www.w3.org/Graphics/SVG/1.1/DTD/svg11.dtd"><svg t="1567679219156" class="icon" viewBox="0 0 1024 1024" version="1.1" xmlns="http://www.w3.org/2000/svg" p-id="5330" xmlns:xlink="http://www.w3.org/1999/xlink" width="200" height="200"><defs><style type="text/css"></style></defs><path d="M960 0a64 64 0 0 1 64 64v896a64 64 0 0 1-64 64H64a64 64 0 0 1-64-64V64a64 64 0 0 1 64-64h896z m0 64H64v896h896V64z m-160 704a32 32 0 1 1 0 64h-192a32 32 0 1 1 0-64h192zM320 576a128 128 0 1 1 0 256 128 128 0 0 1 0-256z m0 64a64 64 0 1 0 0 128 64 64 0 0 0 0-128z m480 0a32 32 0 1 1 0 64h-192a32 32 0 1 1 0-64h192z m0-256a32 32 0 1 1 0 64h-192a32 32 0 0 1 0-64h192zM486.144 242.752a32 32 0 0 1 0 45.248L350.4 423.744a32 32 0 0 1-45.248 0L214.656 333.248A32 32 0 1 1 259.84 288l67.84 67.84L440.96 242.816a32 32 0 0 1 45.248 0zM800 256a32 32 0 1 1 0 64h-192a32 32 0 0 1 0-64h192z" p-id="5331"></path></svg>