<?xml version="1.0" standalone="no"?><!DOCTYPE svg PUBLIC "-//W3C//DTD SVG 1.1//EN" "http://www.w3.org/Graphics/SVG/1.1/DTD/svg11.dtd"><svg t="1571367342059" class="icon" viewBox="0 0 1024 1024" version="1.1" xmlns="http://www.w3.org/2000/svg" p-id="6522" xmlns:xlink="http://www.w3.org/1999/xlink" width="200" height="200"><defs><style type="text/css"></style></defs><path d="M512.00032 0c282.783823 0 511.99968 229.215857 511.99968 511.99968s-229.215857 511.99968-511.99968 511.99968a509.759681 509.759681 0 0 1-256.863839-69.023957 31.99998 31.99998 0 0 1 32.127979-55.327965A445.759721 445.759721 0 0 0 512.00032 959.9994c247.423845 0 447.99972-200.575875 447.99972-447.99972S759.424165 63.99996 512.00032 63.99996 64.0006 264.575835 64.0006 511.99968c0 89.759944 26.431983 175.51989 75.199953 248.543845a31.99998 31.99998 0 1 1-53.215967 35.519977A509.695681 509.695681 0 0 1 0.00064 511.99968C0.00064 229.215857 229.216497 0 512.00032 0z m191.99988 415.99974a31.99998 31.99998 0 0 1 0 63.99996h-159.9999v95.99994h159.9999a31.99998 31.99998 0 0 1 0 63.99996h-159.9999v159.9999a31.99998 31.99998 0 0 1-63.99996 0v-159.9999h-159.9999a31.99998 31.99998 0 0 1 0-63.99996h159.9999v-95.99994h-159.9999a31.99998 31.99998 0 0 1 0-63.99996h383.99976zM374.624406 265.375834l67.871957 67.871958a31.99998 31.99998 0 1 1-45.247971 45.247971l-67.871958-67.839957a31.99998 31.99998 0 0 1 45.247972-45.279972z m323.871797 0a31.99998 31.99998 0 0 1 2.687999 42.239974l-2.687999 3.007998-67.839957 67.871957a31.99998 31.99998 0 0 1-47.93597-42.239973l2.655998-3.007998 67.871958-67.871958a31.99998 31.99998 0 0 1 45.247971 0z" p-id="6523"></path></svg>