<?xml version="1.0" standalone="no"?><!DOCTYPE svg PUBLIC "-//W3C//DTD SVG 1.1//EN" "http://www.w3.org/Graphics/SVG/1.1/DTD/svg11.dtd"><svg t="1572313174079" class="icon" viewBox="0 0 1024 1024" version="1.1" xmlns="http://www.w3.org/2000/svg" p-id="4279" xmlns:xlink="http://www.w3.org/1999/xlink" width="200" height="200"><defs><style type="text/css"></style></defs><path d="M515.584 128a24.576 24.576 0 0 0-12.16 3.84L208 310.592a26.24 26.24 0 0 0-13.76 22.848V691.2a25.792 25.792 0 0 0 12.736 22.272l295.36 179.2c7.552 4.48 16.768 4.48 24.32 0l295.36-179.2a26.432 26.432 0 0 0 12.224-22.272V333.376a27.584 27.584 0 0 0-12.16-22.848L527.68 131.904a24.576 24.576 0 0 0-12.16-3.84z" fill="#5580EB" fill-opacity=".15" p-id="4280"></path><path d="M562.56 19.2l356.48 206.08c28.992 16.768 46.848 47.744 46.72 81.28v411.52a94.08 94.08 0 0 1-46.72 81.28L562.56 1004.8a91.584 91.584 0 0 1-93.44 0l-356.48-205.44A93.44 93.44 0 0 1 64 718.08V306.56a92.8 92.8 0 0 1 47.36-81.28L468.48 19.2a94.72 94.72 0 0 1 94.08 0z m-46.72 51.2a30.72 30.72 0 0 0-14.72 4.48L144.64 280.32a30.08 30.08 0 0 0-16.64 26.24v411.52a29.44 29.44 0 0 0 15.36 25.6l356.48 206.08a30.08 30.08 0 0 0 29.44 0l356.48-206.08a30.08 30.08 0 0 0 14.72-25.6V306.56a31.36 31.36 0 0 0-14.72-26.24L530.56 74.88a30.72 30.72 0 0 0-14.72-4.48zM770.56 320a64 64 0 1 1-43.52 110.976L544 504.768l0.064 271.808a64 64 0 0 1 31.488 48L576 832a64 64 0 1 1-96-55.424V503.68L300.032 430.464a63.808 63.808 0 0 1-36.544 17.088L256 448a64 64 0 1 1 62.016-79.936l192.832 75.968 197.632-75.712a64 64 0 0 1 54.592-47.872z" fill="#5580EB" p-id="4281"></path></svg>