<?xml version="1.0" standalone="no"?><!DOCTYPE svg PUBLIC "-//W3C//DTD SVG 1.1//EN" "http://www.w3.org/Graphics/SVG/1.1/DTD/svg11.dtd"><svg t="1572314650493" class="icon" viewBox="0 0 1024 1024" version="1.1" xmlns="http://www.w3.org/2000/svg" p-id="4914" xmlns:xlink="http://www.w3.org/1999/xlink" width="200" height="200"><defs><style type="text/css"></style></defs><path d="M288 0c24.64 0 47.104 9.28 64.064 24.512C368.96 9.216 391.424 0 416 0h192c24.64 0 47.104 9.28 64.064 24.512 16.896-15.296 39.36-24.512 63.936-24.512h192A96 96 0 0 1 1024 96v832a96 96 0 0 1-96 96h-192c-24.576 0-47.04-9.216-64-24.448a95.552 95.552 0 0 1-64 24.448h-192c-24.576 0-47.04-9.216-64-24.448a95.552 95.552 0 0 1-64 24.448h-192A96 96 0 0 1 0 928v-832A96 96 0 0 1 96 0h192z m0 64h-192a32 32 0 0 0-32 32v832a32 32 0 0 0 32 32h192a32 32 0 0 0 32-32v-832a32 32 0 0 0-32-32z m320 0h-192a32 32 0 0 0-32 32v832a32 32 0 0 0 32 32h192a32 32 0 0 0 32-32v-832a32 32 0 0 0-32-32z m320 0h-192a32 32 0 0 0-32 32v832a32 32 0 0 0 32 32h192a32 32 0 0 0 32-32v-832a32 32 0 0 0-32-32z" fill="#5580EB" p-id="4915"></path><path d="M224 512a32 32 0 0 1 32 32v256a32 32 0 0 1-32 32h-64a32 32 0 0 1-32-32v-256a32 32 0 0 1 32-32h64z m320 0a32 32 0 0 1 32 32v256a32 32 0 0 1-32 32h-64a32 32 0 0 1-32-32v-256a32 32 0 0 1 32-32h64z m320 0a32 32 0 0 1 32 32v256a32 32 0 0 1-32 32h-64a32 32 0 0 1-32-32v-256a32 32 0 0 1 32-32h64z" fill="#5580EB" fill-opacity=".25" p-id="4916"></path></svg>