<?xml version="1.0" standalone="no"?><!DOCTYPE svg PUBLIC "-//W3C//DTD SVG 1.1//EN" "http://www.w3.org/Graphics/SVG/1.1/DTD/svg11.dtd"><svg t="1572313186350" class="icon" viewBox="0 0 1024 1024" version="1.1" xmlns="http://www.w3.org/2000/svg" p-id="4406" xmlns:xlink="http://www.w3.org/1999/xlink" width="200" height="200"><defs><style type="text/css"></style></defs><path d="M128 128m64 0l640 0q64 0 64 64l0 640q0 64-64 64l-640 0q-64 0-64-64l0-640q0-64 64-64Z" fill="#5580EB" fill-opacity=".15" p-id="4407"></path><path d="M896 0a128 128 0 0 1 128 128v768a128 128 0 0 1-128 128H128a128 128 0 0 1-128-128V128a128 128 0 0 1 128-128h768z m0 64H128a64 64 0 0 0-64 64v768a64 64 0 0 0 64 64h768a64 64 0 0 0 64-64V128a64 64 0 0 0-64-64z m-416 576a32 32 0 1 1 0 64h-192a32 32 0 1 1 0-64h192z m256-192a32 32 0 1 1 0 64h-448a32 32 0 0 1 0-64h448z m0-192a32 32 0 1 1 0 64h-448a32 32 0 0 1 0-64h448z" fill="#5580EB" p-id="4408"></path></svg>