<?xml version="1.0" standalone="no"?><!DOCTYPE svg PUBLIC "-//W3C//DTD SVG 1.1//EN" "http://www.w3.org/Graphics/SVG/1.1/DTD/svg11.dtd"><svg t="1572314642638" class="icon" viewBox="0 0 1024 1024" version="1.1" xmlns="http://www.w3.org/2000/svg" p-id="4787" xmlns:xlink="http://www.w3.org/1999/xlink" width="200" height="200"><defs><style type="text/css"></style></defs><path d="M1001.856 723.328H583.104c-9.6 0-17.28-11.136-17.28-24.896v-58.56c0-13.696 7.68-24.832 17.216-24.832h418.816c9.6 0 17.28 11.136 17.28 24.832v58.624c0 13.696-7.68 24.832-17.28 24.832z m0 148.416H583.104c-9.6 0-17.28-11.2-17.28-24.96v-58.624c0-13.824 7.68-24.896 17.216-24.896h418.816c9.6 0 17.28 11.136 17.28 24.832v58.688c0 13.76-7.68 24.896-17.28 24.896z m0 148.16H583.104c-9.6 0-17.28-11.136-17.28-24.832v-58.752c0-13.632 7.68-24.832 17.216-24.832h418.816c9.6 0 17.28 11.136 17.28 24.832v58.688c0 13.76-7.68 24.896-17.28 24.896zM552.64 549.76H627.2c3.392-11.776 5.12-23.936 5.12-36.16a139.328 139.328 0 0 0-277.568-15.744c-4.48 39.04 8.064 78.336 34.432 107.712 26.496 29.44 64.256 46.336 103.936 46.4v-42.88c0-15.744 6.144-30.848 17.408-41.984a59.776 59.776 0 0 1 42.24-17.344z" fill="#5580EB" fill-opacity=".25" p-id="4788"></path><path d="M861.12 496a329.344 329.344 0 0 0-2.496-28.288l-3.84-29.248 23.424-17.92 63.872-48.64a11.072 11.072 0 0 0 3.84-15.104L857.792 206.08c-3.2-5.568-10.624-7.68-20.608-2.88l-96.896 39.168-22.976-17.088a360.448 360.448 0 0 0-76.096-43.2l-26.816-11.264-3.968-28.8L599.68 62.72C599.552 56.896 594.24 52.032 587.52 52.032h-176.64c-6.528 0-11.712 4.8-12.416 15.488L384.128 170.88l-26.752 11.2a366.08 366.08 0 0 0-76.16 43.328l-22.976 17.024-26.432-10.688-74.56-30.336a12.544 12.544 0 0 0-16.512 4.672L52.8 356.992c-2.944 5.12-1.408 11.52 7.68 17.472l83.264 64.064-3.712 28.992a340.672 340.672 0 0 0 0 86.08l3.84 29.184-23.424 17.856-63.872 48.448a10.944 10.944 0 0 0-3.84 15.04l87.872 150.336c1.792 3.136 4.48 5.12 7.68 6.016 3.008 0.704 6.08 0.384 13.12-2.944l97.024-39.168 22.912 17.024c23.04 17.152 48.64 31.68 76.16 43.328l26.752 11.2 3.968 28.672 10.88 79.616c0.192 5.824 5.376 10.816 12.032 10.752h37.12v-199.232c-122.688-23.68-215.424-130.624-215.552-259.2 0.192-145.92 119.552-263.936 266.88-264.128a268.096 268.096 0 0 1 203.52 93.952 263.04 263.04 0 0 1 62.464 155.648h95.552zM499.2 723.712v296.192H411.2a62.72 62.72 0 0 1-63.04-59.52l-10.432-74.816a416 416 0 0 1-86.72-49.28l-70.592 28.416a63.04 63.04 0 0 1-83.584-24.128L8.832 689.792a61.824 61.824 0 0 1 20.48-83.712l60.224-46.08a391.68 391.68 0 0 1 0-98.88L29.44 414.912a61.888 61.888 0 0 1-20.672-83.52L96.832 180.48a63.488 63.488 0 0 1 83.52-24.448l70.656 28.48c26.816-19.84 55.936-36.416 86.72-49.28L348.096 60.416a62.528 62.528 0 0 1 63.04-59.52H587.52a62.72 62.72 0 0 1 63.104 59.52l10.368 74.624c30.784 12.864 59.904 29.44 86.72 49.344l70.4-28.48a63.68 63.68 0 0 1 83.776 24.448l88 150.72a62.08 62.08 0 0 1-20.352 83.648l-60.416 46.272c3.84 28.416 4.288 57.28 1.536 85.888h-198.656a211.584 211.584 0 0 0-47.744-173.568 217.152 217.152 0 0 0-164.928-76.032c-119.04 0.128-215.488 95.552-215.68 213.12 0.064 117.632 96.576 212.928 215.552 213.184v0.064z" fill="#5580EB" p-id="4789"></path></svg>