<?xml version="1.0" standalone="no"?><!DOCTYPE svg PUBLIC "-//W3C//DTD SVG 1.1//EN" "http://www.w3.org/Graphics/SVG/1.1/DTD/svg11.dtd"><svg t="1572310984079" class="icon" viewBox="0 0 1024 1024" version="1.1" xmlns="http://www.w3.org/2000/svg" p-id="3898" xmlns:xlink="http://www.w3.org/1999/xlink" width="200" height="200"><defs><style type="text/css"></style></defs><path d="M704 896h172.8c10.624 0 19.2-11.136 19.2-24.896V472.96c0-13.76-8.576-24.896-19.2-24.896h-153.6c-10.624 0-19.2 11.136-19.2 24.896V896zM576 640V146.304C576 136.192 564.864 128 551.104 128H152.96C139.136 128 128 136.192 128 146.304v475.392c0 10.112 11.136 18.304 24.896 18.304H576z" fill="#5580EB" fill-opacity=".25" p-id="3899"></path><path d="M608 0A96 96 0 0 1 704 96v226.368c5.888-1.536 12.032-2.368 18.304-2.368h219.392C987.136 320 1024 363.008 1024 416v512c0 52.992-36.864 96-82.304 96H96A96 96 0 0 1 0 928v-832A96 96 0 0 1 96 0h512z m0 64h-512a32 32 0 0 0-32 32v832a32 32 0 0 0 32 32H128v-256h448v256h64V96a32 32 0 0 0-32-32z m326.4 320h-204.8c-14.08 0-25.6 14.336-25.6 32V512h32a32 32 0 1 1 0 64H704v63.936l32 0.064a32 32 0 1 1 0 64l-32-0.064V768h32a32 32 0 1 1 0 64H704v128h230.4c14.08 0 25.6-14.336 25.6-32v-512c0-17.664-11.52-32-25.6-32zM512 768H192v192h320v-192zM288 448a32 32 0 0 1 0 64h-64a32 32 0 0 1 0-64h64z m192 0a32 32 0 0 1 0 64h-64a32 32 0 0 1 0-64h64z m-192-128a32 32 0 0 1 0 64h-64a32 32 0 0 1 0-64h64z m192 0a32 32 0 0 1 0 64h-64a32 32 0 0 1 0-64h64z m-192-128a32 32 0 0 1 0 64h-64a32 32 0 0 1 0-64h64z m192 0a32 32 0 0 1 0 64h-64a32 32 0 0 1 0-64h64z" fill="#5580EB" p-id="3900"></path></svg>