<?xml version="1.0" standalone="no"?><!DOCTYPE svg PUBLIC "-//W3C//DTD SVG 1.1//EN" "http://www.w3.org/Graphics/SVG/1.1/DTD/svg11.dtd"><svg t="1567680179596" class="icon" viewBox="0 0 1024 1024" version="1.1" xmlns="http://www.w3.org/2000/svg" p-id="6065" xmlns:xlink="http://www.w3.org/1999/xlink" width="200" height="200"><defs><style type="text/css"></style></defs><path d="M128 128h704v704H128z" fill="#5580EB" fill-opacity=".25" p-id="6066"></path><path d="M960 448h-64V64H64v832h384v64H0V0h960v448zM192 256h576v64H192V256z m0 192h384v64H192V448z m661.312 108.416v145.856l-106.624 44.416L640 702.272V556.416L746.688 512l106.624 44.416zM512 791.104l106.688-44.416 106.624 44.416v145.792l-106.624 44.416L512 936.96v-145.792z m362.688-44.416l106.624 44.416v145.792l-106.624 44.416L768 936.96v-145.792l106.688-44.416z" fill="#5580EB" p-id="6067"></path></svg>