<?xml version="1.0" standalone="no"?><!DOCTYPE svg PUBLIC "-//W3C//DTD SVG 1.1//EN" "http://www.w3.org/Graphics/SVG/1.1/DTD/svg11.dtd"><svg t="1572311021794" class="icon" viewBox="0 0 1024 1024" version="1.1" xmlns="http://www.w3.org/2000/svg" p-id="4152" xmlns:xlink="http://www.w3.org/1999/xlink" width="200" height="200"><defs><style type="text/css"></style></defs><path d="M512 0C230.4 0 0 230.4 0 512s230.4 512 512 512 512-230.4 512-512-230.4-512-512-512z" fill="#5580EB" fill-opacity=".15" p-id="4153"></path><path d="M289.472 281.984a32 32 0 0 1 44.544 46.08 256 256 0 1 0 360.512 4.48 32 32 0 0 1 45.632-44.928 320 320 0 1 1-450.624-5.568zM512 192a32 32 0 0 1 31.488 26.24l0.512 5.76v320a32 32 0 0 1-63.488 5.76L480 544v-320A32 32 0 0 1 512 192z" fill="#5580EB" p-id="4154"></path></svg>