<?xml version="1.0" standalone="no"?><!DOCTYPE svg PUBLIC "-//W3C//DTD SVG 1.1//EN" "http://www.w3.org/Graphics/SVG/1.1/DTD/svg11.dtd"><svg t="1572313197689" class="icon" viewBox="0 0 1024 1024" version="1.1" xmlns="http://www.w3.org/2000/svg" p-id="4533" xmlns:xlink="http://www.w3.org/1999/xlink" width="200" height="200"><defs><style type="text/css"></style></defs><path d="M384 640v320H64v-320h320z m512 0v320H576v-320h320zM384 128v320H64V128h320z" fill="#5580EB" fill-opacity=".15" p-id="4534"></path><path d="M384 576a64 64 0 0 1 64 64v320a64 64 0 0 1-64 64H64a64 64 0 0 1-64-64v-320a64 64 0 0 1 64-64h320z m512 0a64 64 0 0 1 64 64v320a64 64 0 0 1-64 64H576a64 64 0 0 1-64-64v-320a64 64 0 0 1 64-64h320z m-512 64H64v320h320v-320z m512 0H576v320h320v-320zM384 64a64 64 0 0 1 64 64v320a64 64 0 0 1-64 64H64a64 64 0 0 1-64-64V128a64 64 0 0 1 64-64h320z m0 64H64v320h320V128z m576-128a64 64 0 0 1 64 64v320a64 64 0 0 1-64 64h-320a64 64 0 0 1-64-64V64a64 64 0 0 1 64-64h320z m0 64h-320v320h320V64z" fill="#5580EB" p-id="4535"></path></svg>