<?xml version="1.0" standalone="no"?><!DOCTYPE svg PUBLIC "-//W3C//DTD SVG 1.1//EN" "http://www.w3.org/Graphics/SVG/1.1/DTD/svg11.dtd"><svg t="1567680168295" class="icon" viewBox="0 0 1024 1024" version="1.1" xmlns="http://www.w3.org/2000/svg" p-id="5942" xmlns:xlink="http://www.w3.org/1999/xlink" width="200" height="200"><defs><style type="text/css"></style></defs><path d="M256 448a192 192 0 1 1 0-384 192 192 0 0 1 0 384z m0 512a192 192 0 1 1 0-384 192 192 0 0 1 0 384z m512-512a192 192 0 1 1 0-384 192 192 0 0 1 0 384z" fill="#5580EB" fill-opacity=".25" p-id="5943"></path><path d="M0 0h256a256 256 0 1 1-256 256V0z m64 64v192a192 192 0 1 0 192-192H64zM0 1024v-256a256 256 0 1 1 256 256H0z m64-64h192a192 192 0 1 0-192-192v192zM768 0h256v256a256 256 0 1 1-256-256z m192 64h-192a192 192 0 1 0 192 192V64z m-192 960a256 256 0 1 1 256-256v256h-256z m192-64v-192a192 192 0 1 0-192 192h192z" fill="#5580EB" p-id="5944"></path></svg>