<?xml version="1.0" standalone="no"?><!DOCTYPE svg PUBLIC "-//W3C//DTD SVG 1.1//EN" "http://www.w3.org/Graphics/SVG/1.1/DTD/svg11.dtd"><svg t="1566985235962" class="icon" viewBox="0 0 1024 1024" version="1.1" xmlns="http://www.w3.org/2000/svg" p-id="3971" xmlns:xlink="http://www.w3.org/1999/xlink" width="200" height="200"><defs><style type="text/css"></style></defs><path d="M657.6 456.704C884.736 515.328 1024 711.744 1024 950.848a36.544 36.544 0 0 1-73.152 0C950.848 702.72 781.312 512 512 512s-438.848 190.72-438.848 438.848a36.544 36.544 0 0 1-73.152 0c0-239.104 139.264-435.52 366.4-494.08a219.456 219.456 0 1 1 291.2 0zM512 438.848a146.304 146.304 0 1 0 0-292.544 146.304 146.304 0 0 0 0 292.544z" p-id="3972"></path></svg>