<?xml version="1.0" standalone="no"?><!DOCTYPE svg PUBLIC "-//W3C//DTD SVG 1.1//EN" "http://www.w3.org/Graphics/SVG/1.1/DTD/svg11.dtd"><svg t="1566984430188" class="icon" viewBox="0 0 1024 1024" version="1.1" xmlns="http://www.w3.org/2000/svg" p-id="2639" xmlns:xlink="http://www.w3.org/1999/xlink" width="200" height="200"><defs><style type="text/css"></style></defs><path d="M256 0v64h512V0h64v64h192v960H0V64h192V0h64z m704 320H64v640h896V320zM320 704v64H192v-64h128z m256 0v64H384v-64h192z m256 0v64h-192v-64h192zM384 512v64H192V512h192z m256 0v64H448V512h192z m192 0v64h-128V512h128zM192 128H64v128h896V128h-128v64h-64V128H256v64H192V128z" p-id="2640"></path></svg>