<?xml version="1.0" standalone="no"?><!DOCTYPE svg PUBLIC "-//W3C//DTD SVG 1.1//EN" "http://www.w3.org/Graphics/SVG/1.1/DTD/svg11.dtd"><svg t="1571367330850" class="icon" viewBox="0 0 1024 1024" version="1.1" xmlns="http://www.w3.org/2000/svg" p-id="6396" xmlns:xlink="http://www.w3.org/1999/xlink" width="200" height="200"><defs><style type="text/css"></style></defs><path d="M833.984 103.168l182.208 680a96 96 0 0 1-67.872 117.6l-123.648 33.12a96 96 0 0 1-117.568-67.872L576 376.832V864a96 96 0 0 1-96 96h-128c-24.576 0-47.04-9.248-64-24.448A95.648 95.648 0 0 1 224 960H96a96 96 0 0 1-96-96V160a96 96 0 0 1 96-96h128c24.608 0 47.04 9.28 64 24.48A95.424 95.424 0 0 1 352 64h128c27.296 0 51.904 11.392 69.376 29.664 11.52-11.744 26.304-20.672 43.392-25.248l123.648-33.12a96 96 0 0 1 117.568 67.872zM224 128H96l-3.744 0.224A32 32 0 0 0 64 160v704a32 32 0 0 0 32 32h128a32 32 0 0 0 32-32V160a32 32 0 0 0-32-32z m256 0h-128a32 32 0 0 0-32 32v704a32 32 0 0 0 32 32h128a32 32 0 0 0 32-32V160a32 32 0 0 0-32-32z m252.992-30.88L609.344 130.24a32 32 0 0 0-22.624 39.2l182.208 680a32 32 0 0 0 39.2 22.624l123.616-33.12a32 32 0 0 0 22.624-39.2L772.16 119.744a32 32 0 0 0-39.168-22.624zM160 768a32 32 0 1 1 0 64 32 32 0 0 1 0-64z m256 0a32 32 0 1 1 0 64 32 32 0 0 1 0-64z m460-13.504a32 32 0 1 1-61.824 16.576 32 32 0 0 1 61.824-16.576zM192 320a32 32 0 0 1 0 64H128a32 32 0 0 1 0-64h64z m256 0a32 32 0 0 1 0 64h-64a32 32 0 0 1 0-64h64z m342.944-6.528a32 32 0 0 1-22.624 39.2l-61.824 16.576a32 32 0 0 1-16.544-61.824l61.824-16.576a32 32 0 0 1 39.168 22.624zM192 192a32 32 0 1 1 0 64H128a32 32 0 1 1 0-64h64z m256 0a32 32 0 0 1 0 64h-64a32 32 0 0 1 0-64h64z m309.824-2.144a32 32 0 0 1-22.624 39.168l-61.824 16.576a32 32 0 1 1-16.576-61.824l61.824-16.576a32 32 0 0 1 39.2 22.656z" p-id="6397"></path></svg>