<?xml version="1.0" standalone="no"?><!DOCTYPE svg PUBLIC "-//W3C//DTD SVG 1.1//EN" "http://www.w3.org/Graphics/SVG/1.1/DTD/svg11.dtd"><svg class="icon" width="20px" height="20.00px" viewBox="0 0 1024 1024" version="1.1" xmlns="http://www.w3.org/2000/svg"><path d="M438.857143 950.857143v-146.285714H73.142857a73.142857 73.142857 0 0 1-73.142857-73.142858V73.142857a73.142857 73.142857 0 0 1 73.142857-73.142857h877.714286a73.142857 73.142857 0 0 1 73.142857 73.142857v658.285714a73.142857 73.142857 0 0 1-73.142857 73.142858H585.142857v146.285714h182.857143a36.571429 36.571429 0 1 1 0 73.142857h-512a36.571429 36.571429 0 1 1 0-73.142857H438.857143zM73.142857 73.142857v658.285714h877.714286V73.142857H73.142857z m532.187429 426.422857L407.405714 389.558857 206.262857 575.707429a34.084571 34.084571 0 0 1-51.492571-5.12 43.812571 43.812571 0 0 1 4.681143-57.270858l219.428571-203.190857a33.645714 33.645714 0 0 1 39.789714-5.12L616.594286 415.012571l201.069714-186.148571a34.084571 34.084571 0 0 1 51.492571 5.12 43.812571 43.812571 0 0 1-4.681142 57.270857l-219.428572 203.190857a33.645714 33.645714 0 0 1-39.789714 5.12z" /></svg>