<?xml version="1.0" standalone="no"?><!DOCTYPE svg PUBLIC "-//W3C//DTD SVG 1.1//EN" "http://www.w3.org/Graphics/SVG/1.1/DTD/svg11.dtd"><svg t="1567678627085" class="icon" viewBox="0 0 1024 1024" version="1.1" xmlns="http://www.w3.org/2000/svg" p-id="4476" xmlns:xlink="http://www.w3.org/1999/xlink" width="200" height="200"><defs><style type="text/css"></style></defs><path d="M512 0a512 512 0 1 1 0 1024A512 512 0 0 1 512 0z m0 64a448 448 0 1 0 0 896A448 448 0 0 0 512 64z m-33.92 260.032c4.288 3.136 5.824 7.232 5.184 11.328v80.896C640.512 416.256 768 508.288 768 621.952c0 29.184-8.512 56.832-23.616 82.048-22.464-85.76-135.68-150.848-260.8-150.848v82.176c0.64 3.968-1.28 6.72-5.504 9.728-8.32 6.016-21.248 3.584-28.224-0.832L261.44 495.04C257.472 492.16 255.744 488.32 256 484.608c-0.256-3.84 1.472-7.552 5.44-10.432l189.44-150.144a25.088 25.088 0 0 1 27.2 0z" p-id="4477"></path></svg>