<?xml version="1.0" standalone="no"?><!DOCTYPE svg PUBLIC "-//W3C//DTD SVG 1.1//EN" "http://www.w3.org/Graphics/SVG/1.1/DTD/svg11.dtd"><svg class="icon" width="20px" height="20.00px" viewBox="0 0 1024 1024" version="1.1" xmlns="http://www.w3.org/2000/svg"><path d="M657.554286 456.704C884.809143 515.364571 1024 711.753143 1024 950.857143a36.571429 36.571429 0 1 1-73.142857 0c0-248.100571-169.545143-438.857143-438.857143-438.857143s-438.857143 190.756571-438.857143 438.857143a36.571429 36.571429 0 1 1-73.142857 0c0-239.177143 139.264-435.492571 366.445714-494.153143a219.428571 219.428571 0 1 1 291.254857 0H657.554286zM512 438.857143a146.285714 146.285714 0 1 0 0-292.571429 146.285714 146.285714 0 0 0 0 292.571429z" /></svg>