<?xml version="1.0" standalone="no"?><!DOCTYPE svg PUBLIC "-//W3C//DTD SVG 1.1//EN" "http://www.w3.org/Graphics/SVG/1.1/DTD/svg11.dtd"><svg t="1569469509248" class="icon" viewBox="0 0 1024 1024" version="1.1" xmlns="http://www.w3.org/2000/svg" p-id="3409" xmlns:xlink="http://www.w3.org/1999/xlink" width="200" height="200"><defs><style type="text/css"></style></defs><path d="M501.056 0c144.832 0 262.208 114.56 262.208 256 0 141.376-117.376 256-262.208 256-144.832 0-262.208-114.624-262.208-256 0-141.44 117.44-256 262.208-256z m0 0c144.832 0 262.208 114.56 262.208 256 0 141.376-117.376 256-262.208 256-144.832 0-262.208-114.624-262.208-256 0-141.44 117.44-256 262.208-256zM402.688 597.312h218.624C808.32 597.312 960 745.344 960 928v21.312C960 1021.248 808.32 1024 621.312 1024H402.688C215.68 1024 64 1023.872 64 949.312V928c0-182.656 151.68-330.688 338.688-330.688z" p-id="3410"></path></svg>