<?xml version="1.0" standalone="no"?><!DOCTYPE svg PUBLIC "-//W3C//DTD SVG 1.1//EN" "http://www.w3.org/Graphics/SVG/1.1/DTD/svg11.dtd"><svg class="icon" width="20px" height="20.00px" viewBox="0 0 1024 1024" version="1.1" xmlns="http://www.w3.org/2000/svg"><path d="M578.779429 461.604571A439.076571 439.076571 0 0 1 877.714286 877.714286a36.571429 36.571429 0 1 1-73.142857 0 365.714286 365.714286 0 1 0-731.428572 0 36.571429 36.571429 0 1 1-73.142857 0 439.076571 439.076571 0 0 1 298.934857-416.109715 219.428571 219.428571 0 1 1 279.771429 0zM438.857143 438.857143a146.285714 146.285714 0 1 0 0-292.571429 146.285714 146.285714 0 0 0 0 292.571429z m219.428571-34.596572V402.285714a36.571429 36.571429 0 0 1 36.571429-36.571428 109.714286 109.714286 0 0 0 0-219.428572 36.571429 36.571429 0 0 1 0-73.142857 182.857143 182.857143 0 0 1 125.366857 315.977143A325.193143 325.193143 0 0 1 1024 690.761143a40.667429 40.667429 0 0 1-81.261714 0 243.785143 243.785143 0 0 0-243.785143-243.785143A40.667429 40.667429 0 0 1 658.285714 404.260571z" /></svg>