<?xml version="1.0" standalone="no"?><!DOCTYPE svg PUBLIC "-//W3C//DTD SVG 1.1//EN" "http://www.w3.org/Graphics/SVG/1.1/DTD/svg11.dtd"><svg class="icon" width="20px" height="20.00px" viewBox="0 0 1024 1024" version="1.1" xmlns="http://www.w3.org/2000/svg"><path d="M870.4 153.6H307.2a51.2 51.2 0 0 0 0 102.4h563.2a51.2 51.2 0 1 0 0-102.4z m0 307.2h-358.4a51.2 51.2 0 0 0 0 102.4h358.4a51.2 51.2 0 0 0 0-102.4z m0 307.2H409.6a51.2 51.2 0 0 0 0 102.4h460.8a51.2 51.2 0 0 0 0-102.4zM256 512L102.4 358.4v307.2l153.6-153.6z" /></svg>