<?xml version="1.0" encoding="UTF-8"?>
<svg width="16px" height="16px" viewBox="0 0 16 16" version="1.1" xmlns="http://www.w3.org/2000/svg" xmlns:xlink="http://www.w3.org/1999/xlink">
    <title>icon/动态</title>
    <g id="web-机关党建" stroke="none" stroke-width="1" fill="none" fill-rule="evenodd">
        <g id="首页-新增模块" transform="translate(-375.000000, -2255.000000)" fill="#FFFFFF" fill-rule="nonzero">
            <g id="活动专栏" transform="translate(360.000000, 2241.000000)">
                <g id="icon/动态" transform="translate(15.000000, 14.000000)">
                    <path d="M14.9333333,0 C15.4748718,0 15.9255227,0.408994083 15.9916492,0.933345478 L16,1.06666668 L16,14.9333333 C16,15.4748718 15.5910059,15.9255227 15.0666545,15.9916492 L14.9333333,16 L1.06666668,16 C0.525128206,16 0.0744773176,15.5910059 0.00835078137,15.0666545 L0,14.9333333 L0,1.06666668 C0,0.525128206 0.408994083,0.0744773176 0.933345478,0.00835078137 L1.06666668,0 L14.9333333,0 Z M8.26190476,2.66666667 L7.73809524,2.66666667 C7.46195286,2.66666667 7.23809524,2.89052429 7.23809524,3.16666667 L7.23809524,3.16666667 L7.23766667,7.23766667 L3.16666667,7.23809524 C2.89052429,7.23809524 2.66666667,7.46195286 2.66666667,7.73809524 L2.66666667,7.73809524 L2.66666667,8.26190476 C2.66666667,8.53804714 2.89052429,8.76190476 3.16666667,8.76190476 L3.16666667,8.76190476 L7.23766667,8.76166667 L7.23809524,12.8333333 C7.23809524,13.1094757 7.46195286,13.3333333 7.73809524,13.3333333 L7.73809524,13.3333333 L8.26190476,13.3333333 C8.53804714,13.3333333 8.76190476,13.1094757 8.76190476,12.8333333 L8.76190476,12.8333333 L8.76166667,8.76166667 L12.8333333,8.76190476 C13.1094757,8.76190476 13.3333333,8.53804714 13.3333333,8.26190476 L13.3333333,8.26190476 L13.3333333,7.73809524 C13.3333333,7.46195286 13.1094757,7.23809524 12.8333333,7.23809524 L12.8333333,7.23809524 L8.76166667,7.23766667 L8.76190476,3.16666667 C8.76190476,2.89052429 8.53804714,2.66666667 8.26190476,2.66666667 L8.26190476,2.66666667 Z" id="恩施/形状结合"></path>
                </g>
            </g>
        </g>
    </g>
</svg>