<?xml version="1.0" standalone="no"?><!DOCTYPE svg PUBLIC "-//W3C//DTD SVG 1.1//EN" "http://www.w3.org/Graphics/SVG/1.1/DTD/svg11.dtd"><svg t="1595412322049" class="icon" viewBox="0 0 1024 1024" version="1.1" xmlns="http://www.w3.org/2000/svg" p-id="8701" xmlns:xlink="http://www.w3.org/1999/xlink" width="200" height="200"><defs><style type="text/css"></style></defs><path d="M959.9972 240.766495v750.267311a33.279792 33.279792 0 0 1-28.543822 32.447797l-5.951962 0.511997H98.626584a33.919788 33.919788 0 0 1-33.919788-27.26383l-0.575997-5.695964V244.222474a964.473972 964.473972 0 0 0 306.494085 100.479372c1.727989 74.559534 65.279592 135.167155 143.231104 135.167155s141.503116-58.815632 143.295105-133.375167c117.311267-19.711877 211.19868-57.983638 276.606271-91.647427l26.239836-14.079912zM550.079762 815.9949H229.121768v45.119718h320.957994v-45.119718zM633.59924 703.483603h-404.477472v43.327729H633.59924v-43.327729z m165.118968-116.223273h-569.59644v45.119718h569.59644v-45.119718zM513.727989 265.022344c45.247717 0 81.727489 34.943782 81.727489 78.015512 0 27.839826-15.615902 53.567665-40.831744 67.519578a84.86347 84.86347 0 0 1-81.66349 0 77.567515 77.567515 0 0 1-40.767745-67.519578c0-43.071731 36.607771-77.887513 81.53549-78.079512zM925.501416 0c16.447897 0 31.231805 12.543922 32.639796 27.775826v148.92707a868.666571 868.666571 0 0 1-313.72604 116.095274C622.655308 242.430485 571.839626 207.870701 512 207.870701s-110.655308 34.687783-132.415172 84.927469c-125.759214-19.903876-228.542572-64.639596-293.118168-98.687383L64.0028 181.950863V32.959794a33.279792 33.279792 0 0 1 28.543822-32.447797L98.498584 0H925.437416z" p-id="8702" fill="#D5D5D5"></path></svg>