<?xml version="1.0" encoding="UTF-8"?>
<svg width="14px" height="16px" viewBox="0 0 14 16" version="1.1" xmlns="http://www.w3.org/2000/svg" xmlns:xlink="http://www.w3.org/1999/xlink">
    <title>恩施/首页/菜单/机关党建</title>
    <g id="机关党建" stroke="none" stroke-width="1" fill="none" fill-rule="evenodd">
        <g id="党建要闻" transform="translate(-361.000000, -296.000000)" fill="#EB1524" fill-rule="nonzero">
            <g id="恩施/首页/菜单/机关党建" transform="translate(360.000000, 296.000000)">
                <path d="M13.0241897,11.9384615 C15.1864992,9.41538461 14.9957072,6.89230769 14.9957072,6.89230769 C14.9957072,3.07692308 11.8794376,0 8,0 C4.12056238,0 1.00429282,3.07692308 1.00429282,6.89230769 C1.00429282,6.89230769 0.8135008,9.41538461 2.97581029,11.9384615 C5.26531447,14.6461538 8,16 8,16 C8,16 10.7346855,14.6461538 13.0241897,11.9384615 Z M8,8.92307692 C6.72805323,8.92307692 5.64689849,7.87692308 5.64689849,6.64615384 C5.64689849,5.35384616 6.72805323,4.30769231 8,4.30769231 C9.27194676,4.30769231 10.3531015,5.35384616 10.3531015,6.58461539 C10.3531015,7.87692308 9.27194676,8.92307692 8,8.92307692 L8,8.92307692 Z" id="形状"></path>
            </g>
        </g>
    </g>
</svg>