<?xml version="1.0" encoding="UTF-8"?>
<svg width="16px" height="16px" viewBox="0 0 16 16" version="1.1" xmlns="http://www.w3.org/2000/svg" xmlns:xlink="http://www.w3.org/1999/xlink">
    <title>恩施/icon/活动</title>
    <g id="恩施/icon/活动" stroke="none" stroke-width="1" fill="none" fill-rule="evenodd">
        <path d="M8.53963066,14.9142377 L11.9042655,14.9142377 C12.2310914,14.9142377 12.4960361,15.1572939 12.4960361,15.4571189 C12.4960361,15.7569438 12.2310914,16 11.9042655,16 L3.60695098,16 C3.28012512,16 3.0151804,15.7569438 3.0151804,15.4571189 C3.0151804,15.1572939 3.28012512,14.9142377 3.60695098,14.9142377 L7.18926387,14.9142377 L0,3.49063679 C2.16267737,0.510669547 4.76137439,-0.470983732 7.79592515,0.545676952 C10.1912957,1.34818364 12.3095913,1.22147206 14.1506461,0.165466099 C14.7056254,-0.152796868 15.4367215,0.00184453573 15.7837288,0.510973959 C15.8809385,0.653611161 15.9407424,0.814996573 15.9584353,0.982432372 C16.2736702,3.96643307 14.7957992,6.05645122 11.5249052,7.25233459 C8.63395226,8.30932989 7.09344905,9.9848147 6.90339558,12.2789412 L8.4799849,14.7821989 C8.50610871,14.8236146 8.52616359,14.8680104 8.53963066,14.9142377 Z" id="恩施/路径" fill="#FFFFFF" fill-rule="nonzero"></path>
    </g>
</svg>