<?xml version="1.0" encoding="UTF-8"?>
<svg width="16px" height="16px" viewBox="0 0 16 16" version="1.1" xmlns="http://www.w3.org/2000/svg" xmlns:xlink="http://www.w3.org/1999/xlink">
    <title>恩施/icon/多色操作/时间开始-提醒</title>
    <g id="恩施/icon/多色操作/时间开始-提醒" stroke="none" stroke-width="1" fill="none" fill-rule="evenodd">
        <path d="M11.4285714,0.576923077 C11.4285714,0.253846154 11.1771429,0 10.8571429,0 C10.5371429,0 10.2857143,0.253846154 10.2857143,0.576923077 L10.2857143,2.15384615 L11.4285714,2.15384615 L11.4285714,0.576923077 Z M5.71428571,0.576923077 C5.71428571,0.253846154 5.46285714,0 5.14285714,0 C4.82285714,0 4.57142857,0.253846154 4.57142857,0.576923077 L4.57142857,2.15384615 L5.71428571,2.15384615 L5.71428571,0.576923077 Z M13.7142857,2.15384615 L11.4285714,2.15384615 L11.4285714,3.88461538 C11.4285714,4.20769231 11.1771429,4.46153846 10.8571429,4.46153846 C10.5371429,4.46153846 10.2857143,4.20769231 10.2857143,3.88461538 L10.2857143,2.15384615 L5.71428571,2.15384615 L5.71428571,3.88461538 C5.71428571,4.20769231 5.46285714,4.46153846 5.14285714,4.46153846 C4.82285714,4.46153846 4.57142857,4.20769231 4.57142857,3.88461538 L4.57142857,2.15384615 L2.28571429,2.15384615 C1.02857143,2.15384615 0,3.19230769 0,4.46153846 L0,13.6923077 C0,14.9615385 1.02857143,16 2.28571429,16 L13.7142857,16 C14.9714286,16 16,14.9615385 16,13.6923077 L16,4.46153846 C16,3.19230769 14.9714286,2.15384615 13.7142857,2.15384615 Z M5.14285714,12.5384615 L4,12.5384615 C3.68,12.5384615 3.42857143,12.2846154 3.42857143,11.9615385 C3.42857143,11.6384615 3.68,11.3846154 4,11.3846154 L5.14285714,11.3846154 C5.46285714,11.3846154 5.71428571,11.6384615 5.71428571,11.9615385 C5.71428571,12.2846154 5.46285714,12.5384615 5.14285714,12.5384615 Z M5.14285714,10.2307692 L4,10.2307692 C3.68,10.2307692 3.42857143,9.97692308 3.42857143,9.65384615 C3.42857143,9.33076923 3.68,9.07692308 4,9.07692308 L5.14285714,9.07692308 C5.46285714,9.07692308 5.71428571,9.33076923 5.71428571,9.65384615 C5.71428571,9.97692308 5.46285714,10.2307692 5.14285714,10.2307692 Z M8.57142857,12.5384615 L7.42857143,12.5384615 C7.10857143,12.5384615 6.85714286,12.2846154 6.85714286,11.9615385 C6.85714286,11.6384615 7.10857143,11.3846154 7.42857143,11.3846154 L8.57142857,11.3846154 C8.89142857,11.3846154 9.14285714,11.6384615 9.14285714,11.9615385 C9.14285714,12.2846154 8.89142857,12.5384615 8.57142857,12.5384615 Z M8.57142857,10.2307692 L7.42857143,10.2307692 C7.10857143,10.2307692 6.85714286,9.97692308 6.85714286,9.65384615 C6.85714286,9.33076923 7.10857143,9.07692308 7.42857143,9.07692308 L8.57142857,9.07692308 C8.89142857,9.07692308 9.14285714,9.33076923 9.14285714,9.65384615 C9.14285714,9.97692308 8.89142857,10.2307692 8.57142857,10.2307692 Z M12,12.5384615 L10.8571429,12.5384615 C10.5371429,12.5384615 10.2857143,12.2846154 10.2857143,11.9615385 C10.2857143,11.6384615 10.5371429,11.3846154 10.8571429,11.3846154 L12,11.3846154 C12.32,11.3846154 12.5714286,11.6384615 12.5714286,11.9615385 C12.5714286,12.2846154 12.32,12.5384615 12,12.5384615 Z M12,10.2307692 L10.8571429,10.2307692 C10.5371429,10.2307692 10.2857143,9.97692308 10.2857143,9.65384615 C10.2857143,9.33076923 10.5371429,9.07692308 10.8571429,9.07692308 L12,9.07692308 C12.32,9.07692308 12.5714286,9.33076923 12.5714286,9.65384615 C12.5714286,9.97692308 12.32,10.2307692 12,10.2307692 Z M14.2857143,6.76923077 L1.71428571,6.76923077 C1.39428571,6.76923077 1.14285714,6.51538462 1.14285714,6.19230769 C1.14285714,5.86923077 1.39428571,5.61538462 1.71428571,5.61538462 L14.2857143,5.61538462 C14.6057143,5.61538462 14.8571429,5.86923077 14.8571429,6.19230769 C14.8571429,6.51538462 14.6057143,6.76923077 14.2857143,6.76923077 Z" id="形状" fill="#B9EBF0"></path>
        <circle id="椭圆形" fill="#FFFFFF" cx="11" cy="11" r="4"></circle>
        <path d="M11,6 C13.7614237,6 16,8.23857625 16,11 C16,13.7614237 13.7614237,16 11,16 C8.23857625,16 6,13.7614237 6,11 C6,8.23857625 8.23857625,6 11,6 Z M11,7 C8.790861,7 7,8.790861 7,11 C7,13.209139 8.790861,15 11,15 C13.209139,15 15,13.209139 15,11 C15,8.790861 13.209139,7 11,7 Z M10,8.5 C10,8.22385763 10.2238576,8 10.5,8 C10.7761424,8 11,8.22385763 11,8.5 L11,11 L13.5,11 C13.7761424,11 14,11.2238576 14,11.5 C14,11.7761424 13.7761424,12 13.5,12 L10,12 L10,8.5 Z" id="形状结合" fill="#1AC1D1" fill-rule="nonzero"></path>
    </g>
</svg>