<?xml version="1.0" standalone="no"?><!DOCTYPE svg PUBLIC "-//W3C//DTD SVG 1.1//EN" "http://www.w3.org/Graphics/SVG/1.1/DTD/svg11.dtd"><svg t="1576223883380" class="icon" viewBox="0 0 1024 1024" version="1.1" xmlns="http://www.w3.org/2000/svg" p-id="3146" xmlns:xlink="http://www.w3.org/1999/xlink" width="200" height="200"><defs><style type="text/css"></style></defs><path d="M1024.08064 914.752c0 61.44-39.232 109.248-89.664 109.248H90.89664C40.40064 1024 1.10464 976.192 1.10464 914.752V522.24c-2.816-6.848 0-17.088 5.632-27.328L225.36064 44.352C239.44064 20.48 270.16064 0 292.62464 0h456.832c25.216 0 53.248 20.48 67.2 47.808l201.792 447.104c2.816 6.848 5.632 13.696 5.632 20.48v399.36z" fill="#B2D66D" p-id="3147"></path><path d="M46.03264 914.752c0 30.72 19.584 54.656 44.8 54.656h843.52c25.28 0 44.864-23.936 44.864-54.656V539.328h-266.24v109.184c0 30.72-19.584 54.656-44.8 54.656h-311.04c-25.28 0-44.864-23.936-44.864-54.656V539.328H46.03264v375.424z" fill="#EEF6CD" p-id="3148"></path><path d="M68.43264 484.672l182.144-389.12C261.84064 71.68 292.62464 51.2 317.84064 51.2h406.4c25.216 0 56 20.48 67.2 47.808l168.192 385.664h-291.456v136.576c0 17.024-11.2 27.264-22.4 27.264h-266.24c-11.264 0-22.4-13.632-22.4-27.264V484.672h-288.64z" fill="#FFE9E2" p-id="3149"></path><path d="M320.08064 128m32 0l320 0q32 0 32 32l0 0q0 32-32 32l-320 0q-32 0-32-32l0 0q0-32 32-32Z" fill="#4A5034" p-id="3150"></path><path d="M256.08064 256m32 0l448 0q32 0 32 32l0 0q0 32-32 32l-448 0q-32 0-32-32l0 0q0-32 32-32Z" fill="#4A5034" p-id="3151"></path><path d="M192.08064 384m32 0l576 0q32 0 32 32l0 0q0 32-32 32l-576 0q-32 0-32-32l0 0q0-32 32-32Z" fill="#4A5034" p-id="3152"></path><path d="M49.10464 488.128v27.264-27.264z" fill="#000000" p-id="3153"></path></svg>