<?xml version="1.0" encoding="UTF-8"?>
<svg width="15px" height="14px" viewBox="0 0 15 14" version="1.1" xmlns="http://www.w3.org/2000/svg" xmlns:xlink="http://www.w3.org/1999/xlink">
    <title>+备份 4</title>
    <g id="web-行政审批" stroke="none" stroke-width="1" fill="none" fill-rule="evenodd">
        <g id="综合受理-综合受理详情-补齐补正表单" transform="translate(-1605.000000, -274.000000)" fill="#FBAE18" fill-rule="nonzero">
            <g id="编组-3" transform="translate(1556.000000, 203.000000)">
                <g id="list" transform="translate(0.000000, 62.000000)">
                    <g id="恩施/icon/操作图标/申请中-填充" transform="translate(49.859599, 9.000000)">
                        <path d="M10.040404,0 C11.1466842,0 12.0527264,0.841251511 12.1294214,1.90544025 L12.1346801,2.05188067 L12.1346801,4.99516566 L4.98316498,12.1627167 L4.98316498,14 L2.09259259,14 C0.987922705,14 0.0819505706,13.1602588 0.00525860783,12.0962014 L2.5557334e-13,11.9497701 L2.5557334e-13,2.05022993 C2.5557334e-13,0.96705167 0.857943009,0.0802157787 1.94324661,0.00514721011 L2.09259259,0 L10.040404,0 Z M11.2323232,8.2075227 L12.7373737,9.68494281 L8.37878788,14 L6.87037037,14 L6.87037037,12.5258814 L11.2323232,8.2075227 Z M12.7003367,7.01238062 C12.8080808,7.01238062 12.9057239,7.05199859 12.979798,7.12628228 L12.979798,7.12628228 L13.8838384,8.01273435 C13.956229,8.08371654 14,8.18276147 14,8.28510789 C14,8.38580356 13.959596,8.48484848 13.8838384,8.55748143 L13.8838384,8.55748143 L13.2121212,9.30031836 L11.7070707,7.82619974 L12.4208754,7.12628228 C12.4949495,7.05530008 12.5959596,7.01238062 12.7003367,7.01238062 Z M7.375,6.125 L3.125,6.125 C2.87954011,6.125 2.67539163,6.30187516 2.63305567,6.53512437 L2.625,6.625 L2.625,6.675 C2.625,6.92045989 2.80187516,7.12460837 3.03512437,7.16694433 L3.125,7.175 L7.375,7.175 C7.62045989,7.175 7.82460837,6.99812484 7.86694433,6.76487563 L7.875,6.675 L7.875,6.625 C7.875,6.34885763 7.65114237,6.125 7.375,6.125 Z M8.25,3.5 L3.125,3.5 C2.87954011,3.5 2.67539163,3.67687516 2.63305567,3.91012437 L2.625,4 L2.625,4.05 C2.625,4.29545989 2.80187516,4.49960837 3.03512437,4.54194433 L3.125,4.55 L8.25,4.55 C8.49545989,4.55 8.69960837,4.37312484 8.74194433,4.13987563 L8.75,4.05 L8.75,4 C8.75,3.72385763 8.52614237,3.5 8.25,3.5 Z" id="形状结合"></path>
                    </g>
                </g>
            </g>
        </g>
    </g>
</svg>