<?xml version="1.0" encoding="UTF-8"?>
<svg width="20px" height="20px" viewBox="0 0 20 20" version="1.1" xmlns="http://www.w3.org/2000/svg" xmlns:xlink="http://www.w3.org/1999/xlink">
    <title>恩施/icon/模块-实心</title>
    <g id="恩施/icon/模块-实心" stroke="none" stroke-width="1" fill="none" fill-rule="evenodd">
        <path d="M18.0000021,10.6728504 C19.1045705,10.6728504 20,11.5676876 20,12.6715253 L20,12.6715253 L20,18.0013251 C20,19.1051628 19.1045705,20 18.0000021,20 L18.0000021,20 L12.6666766,20 C11.5621062,20 10.6666766,19.1051628 10.6666766,18.0013251 L10.6666766,18.0013251 L10.6666766,12.6715253 C10.6666766,11.5676876 11.5621062,10.6728504 12.6666766,10.6728504 L12.6666766,10.6728504 Z M7.33334687,10.6728504 C8.43791519,10.6728504 9.33334473,11.5676876 9.33334473,12.6715253 L9.33334473,12.6715253 L9.33334473,18.0013251 C9.33334473,19.1051628 8.43791519,20 7.33334687,20 L7.33334687,20 L2.00002137,20 C0.895450914,20 2.13699531e-05,19.1051628 2.13699531e-05,18.0013251 L2.13699531e-05,18.0013251 L2.13699531e-05,12.6715253 C2.13699531e-05,11.5676876 0.895450914,10.6728504 2.00002137,10.6728504 L2.00002137,10.6728504 Z M18.0000021,0.0132508215 C19.1045705,0.0132508215 20,0.908088062 20,2.01192574 L20,2.01192574 L20,7.34172552 C20,8.4455632 19.1045705,9.34040044 18.0000021,9.34040044 L18.0000021,9.34040044 L12.6666766,9.34040044 C11.5621062,9.34040044 10.6666766,8.4455632 10.6666766,7.34172552 L10.6666766,7.34172552 L10.6666766,2.01192574 C10.6666766,0.908088062 11.5621062,0.0132508215 12.6666766,0.0132508215 L12.6666766,0.0132508215 Z M7.20668034,1.51225701 C7.48116165,1.26808911 7.90159591,1.29192775 8.14667933,1.56555501 C8.91184599,2.42139596 9.33435141,3.52914604 9.33334653,4.67682563 L9.33334653,4.67682563 L9.33334653,7.34172552 C9.33334653,8.4455632 8.43791519,9.34040044 7.33334687,9.34040044 L7.33334687,9.34040044 L4.66668305,9.34040044 C2.69254814,9.33834198 0.933278796,8.0951292 0.273354411,6.23579207 C0.17700514,5.89801396 0.359610522,5.54350292 0.690680357,5.42559332 C1.02175019,5.30768371 1.38755348,5.46688051 1.52668641,5.78942133 C1.99797438,7.11855236 3.25564074,8.00714231 4.66668305,8.00795049 L4.66668305,8.00795049 L7.33334687,8.00795049 C7.70153631,8.00795049 8.00001282,7.70967141 8.00001282,7.34172552 L8.00001282,7.34172552 L8.00001282,4.67682563 C8.00169762,3.85619611 7.70020678,3.0638234 7.15334706,2.45163422 C6.90901754,2.17733447 6.93287197,1.75717831 7.20668034,1.51225701 Z M0.533354133,2.67815071 C0.755272606,2.63564839 0.983629262,2.70837325 1.14002015,2.87135595 C1.20071384,2.93471642 1.24829044,3.0094302 1.28002,3.0912102 C1.38441771,3.33931044 1.32918299,3.6258153 1.14002015,3.81739542 C1.0751403,3.87613984 1.00074968,3.92344801 0.920020387,3.95730266 C0.839872264,3.99144068 0.753805403,4.00954803 0.666687324,4.01060066 C0.298497884,4.01060066 2.13699531e-05,3.71232158 2.13699531e-05,3.34437568 C-0.000712113508,3.25282719 0.01744332,3.16211007 0.0533546463,3.0778857 C0.0850842045,2.9961057 0.132660809,2.92139192 0.193354497,2.85803145 L0.193354497,2.85803145 L0.29335439,2.77808446 C0.330435492,2.75273012 0.370808704,2.73255687 0.413354262,2.71812421 C0.451182412,2.69900585 0.491613003,2.6855379 0.533354133,2.67815071 Z M2.10668579,0.77274729 C3.08963549,0.127254701 4.27880607,-0.127059469 5.44001556,0.0598865696 C5.808205,0.120597642 6.05743289,0.46809277 5.99668163,0.836038663 C5.93593037,1.20398456 5.58820523,1.45304759 5.22001579,1.39233651 C4.38469714,1.25013362 3.52653948,1.4311804 2.82001836,1.89866749 C2.71154731,1.97152086 2.5840409,2.01090587 2.45335208,2.01192574 C2.15188338,2.01487431 1.88595372,1.81526871 1.80478065,1.52511094 C1.72360759,1.23495318 1.84739584,0.926466256 2.10668579,0.77274729 Z" id="形状结合" fill="#1E81F1"></path>
    </g>
</svg>