<?xml version="1.0" standalone="no"?><!DOCTYPE svg PUBLIC "-//W3C//DTD SVG 1.1//EN" "http://www.w3.org/Graphics/SVG/1.1/DTD/svg11.dtd"><svg t="1593765751757" class="icon" viewBox="0 0 1024 1024" version="1.1" xmlns="http://www.w3.org/2000/svg" p-id="10516" xmlns:xlink="http://www.w3.org/1999/xlink" width="200" height="200"><defs><style type="text/css"></style></defs><path d="M1018.816 514.304a509.056 509.056 0 1 1-1018.24 0 509.056 509.056 0 0 1 1018.24 0z m-69.44 0a440.128 440.128 0 0 0-439.68-439.68 440.128 440.128 0 0 0-439.68 439.68 440.128 440.128 0 0 0 439.68 439.68 440.128 440.128 0 0 0 439.68-439.68z" p-id="10517" fill="#1e81f1"></path><path d="M691.712 410.432a26.88 26.88 0 0 1 0.64 42.048L535.104 617.344a38.912 38.912 0 0 1-49.088 0.832L327.744 457.152a26.88 26.88 0 0 1-0.64-42.112 38.912 38.912 0 0 1 49.024-0.768l133.44 140.352 133.056-143.36a38.912 38.912 0 0 1 49.088-0.832z" p-id="10518" fill="#1e81f1"></path></svg>