<?xml version="1.0" encoding="UTF-8"?>
<svg width="13px" height="14px" viewBox="0 0 13 14" version="1.1" xmlns="http://www.w3.org/2000/svg" xmlns:xlink="http://www.w3.org/1999/xlink">
    <title>+备份 4</title>
    <g id="业务审批" stroke="none" stroke-width="1" fill="none" fill-rule="evenodd">
        <g id="业务审批-待办件-详情（申请表信息）下拉" transform="translate(-285.000000, -274.000000)" fill="#1E81F1">
            <g id="表单下拉" transform="translate(234.000000, 231.000000)">
                <g id="编组-17" transform="translate(1.000000, 1.000000)">
                    <g id="list" transform="translate(0.000000, 33.000000)">
                        <g id="+备份-4" transform="translate(49.859599, 9.000000)">
                            <path d="M8.3875,1.76085589e-07 C8.6195968,-0.000147062447 8.84221679,0.0920490933 9.00625,0.256250346 L9.00625,0.256250346 L12.86875,4.11875025 C13.0328125,4.28281274 13.125,4.50468774 13.125,4.73750023 L13.125,4.73750023 L13.125,13.125 C13.125,13.6078125 12.7328125,14.0000002 12.25,14.0000002 L12.25,14.0000002 L1.75,14.0000002 C1.2671875,14.0000002 0.875,13.6078125 0.875,13.125 L0.875,13.125 L0.875,0.875000331 C0.875,0.392187843 1.2671875,1.76085589e-07 1.75,1.76085589e-07 L1.75,1.76085589e-07 Z M7.875,0.875000331 L1.75,0.875000331 L1.75,13.125 L12.25,13.125 L12.25,5.25000022 L8.3125,5.25000022 C8.0703125,5.25000022 7.875,5.05468773 7.875,4.81250023 L7.875,4.81250023 L7.875,4.37500024 L7.875,4.375 L7.875,0.875000331 Z M10.0625,9.62500011 C10.3046875,9.62500011 10.5,9.82031261 10.5,10.0625001 C10.5,10.3046876 10.3046875,10.5000001 10.0625,10.5000001 L3.9375,10.5000001 C3.6953125,10.5000001 3.5,10.3046876 3.5,10.0625001 C3.5,9.82031261 3.6953125,9.62500011 3.9375,9.62500011 L10.0625,9.62500011 Z M10.0625,7.00000018 C10.3046875,7.00000018 10.5,7.19531267 10.5,7.43750017 C10.5,7.67968766 10.3046875,7.87500015 10.0625,7.87500015 L3.9375,7.87500015 C3.6953125,7.87500015 3.5,7.67968766 3.5,7.43750017 C3.5,7.19531267 3.6953125,7.00000018 3.9375,7.00000018 L10.0625,7.00000018 Z M8.75,1.238 L8.75,4.375 L11.888,4.375 L8.75,1.238 Z" id="形状结合"></path>
                        </g>
                    </g>
                </g>
            </g>
        </g>
    </g>
</svg>