<?xml version="1.0" encoding="UTF-8"?>
<svg width="14px" height="14px" viewBox="0 0 14 14" version="1.1" xmlns="http://www.w3.org/2000/svg" xmlns:xlink="http://www.w3.org/1999/xlink">
    <title>恩施/icon/操作图标/关闭</title>
    <g id="恩施/icon/操作图标/关闭" stroke="none" stroke-width="1" fill="none" fill-rule="evenodd">
        <path d="M6.99998586,14 C3.13403367,14 0,10.8659381 0,6.99995786 C0,3.13400567 3.13403367,0 6.99998586,0 C10.8659661,0 14,3.13400567 14,6.99995786 C14,10.8659381 10.8659661,14 6.99998586,14 Z M6.99998586,0.875026236 C3.6172847,0.875026236 0.874998236,3.6172847 0.874998236,6.99998586 C0.874998236,10.382715 3.6172567,13.1249735 6.99998586,13.1249735 C10.382743,13.1249735 13.1250015,10.382715 13.1250015,6.99998586 C13.1250015,3.6172567 10.382715,0.875026236 6.99998586,0.875026236 Z M7.62116461,7.00244985 L9.47484486,8.8561021 C9.64570052,9.02698576 9.64570052,9.3039612 9.47484486,9.47484486 C9.3039892,9.64572852 9.02698576,9.64572852 8.8561301,9.47484486 L7.00242185,7.62113661 L5.13611362,9.48744483 C4.96388596,9.65958849 4.68472654,9.65958849 4.51252688,9.48744483 C4.34032722,9.31524517 4.34032722,9.03608575 4.51252688,8.86388609 L6.37886311,6.99754986 L4.52515485,5.14384161 C4.3542712,4.97298595 4.3542712,4.69598251 4.52515485,4.52515485 C4.69601051,4.3542432 4.97298595,4.3542432 5.14386961,4.52515485 L6.99760586,6.37886311 L8.87769006,4.49877891 C9.04986172,4.32655125 9.32907715,4.32655125 9.5012768,4.49877891 C9.67344846,4.67095057 9.67344846,4.95016599 9.5012768,5.12230965 L7.62116461,7.00244985 Z" id="恩施/形状" fill="#FFFFFF" fill-rule="nonzero"></path>
    </g>
</svg>