<?xml version="1.0" encoding="UTF-8"?>
<svg width="14px" height="14px" viewBox="0 0 14 14" version="1.1" xmlns="http://www.w3.org/2000/svg" xmlns:xlink="http://www.w3.org/1999/xlink">
    <title>恩施/icon/操作图标/保存</title>
    <g id="web-行政管理" stroke="none" stroke-width="1" fill="none" fill-rule="evenodd">
        <g id="人事管理" transform="translate(-1670.000000, -147.000000)" fill="#1E81F1">
            <g id="按钮/主按钮/有图标-36备份-6" transform="translate(1650.000000, 136.000000)">
                <g id="恩施/icon/操作图标/导入-填充" transform="translate(20.000000, 11.000000)">
                    <path d="M13.125,11.5381636 L11.1686599,14 L11.1686599,11.5381636 L13.125,11.5381636 Z M11.9825859,0 C12.6137896,0.00398145202 13.1236552,0.511515362 13.124983,1.13705883 L13.124983,1.13705883 L13.124983,10.4087809 L10.4454992,10.4087809 C10.3440893,10.4087872 10.246837,10.4487252 10.1751438,10.519806 C10.103417,10.5908551 10.0631178,10.6872399 10.0631171,10.7877443 L10.0631171,10.7877443 L10.0631171,14 L2.02469984,14 C1.39068734,14 0.876327775,13.4912852 0.875,12.8629412 L0.875,12.8629412 L0.875,1.13705883 C0.876344798,0.508714849 1.39068734,0 2.02469984,0 L2.02469984,0 Z M6.81631596,11.2160203 L2.55497568,11.2160203 C2.20633264,11.2160203 1.97393799,11.4464046 1.97393799,11.7918631 C1.97393799,12.1373721 2.20633264,12.3677734 2.55497568,12.3677734 L2.55497568,12.3677734 L6.81631596,12.3677734 C7.16494198,12.3677734 7.39735366,12.1373721 7.39735366,11.7918631 C7.39735366,11.4464046 7.16494198,11.2160203 6.81631596,11.2160203 L6.81631596,11.2160203 Z M4.63740334,9.13274238 L2.55497568,9.13274238 C2.20633264,9.13274238 1.97393799,9.36312674 1.97393799,9.70858519 C1.97393799,10.0540942 2.20633264,10.2844955 2.55497568,10.2844955 L2.55497568,10.2844955 L4.63740334,10.2844955 C4.98602936,10.2844955 5.21844103,10.0540942 5.21844103,9.70858519 C5.21844103,9.36312674 4.98602936,9.13274238 4.63740334,9.13274238 L4.63740334,9.13274238 Z M9.32742765,1.56992365 C8.97878461,1.56992365 8.63015859,1.62751974 8.33963123,1.74266131 C6.30600782,2.43369629 5.94555098,5.11162767 5.94555098,5.11162767 L5.94555098,5.11162767 L4.2024379,5.11162767 L6.87947038,8.05192999 L9.58276898,5.11162767 L7.83958781,5.11162767 C7.83958781,3.38404865 7.97859562,3.22897446 8.10723658,2.95192614 C8.28151555,2.54888847 8.68827427,1.85785349 9.32742765,1.56992365 Z" id="形状结合"></path>
                </g>
            </g>
        </g>
    </g>
</svg>