<?xml version="1.0" encoding="UTF-8"?>
<svg width="16px" height="16px" viewBox="0 0 16 16" version="1.1" xmlns="http://www.w3.org/2000/svg" xmlns:xlink="http://www.w3.org/1999/xlink">
    <title>恩施/icon/操作/导出</title>
    <g id="恩施/icon/操作/导出" stroke="none" stroke-width="1" fill="none" fill-rule="evenodd">
        <path d="M14,0 C15.1045695,-2.02906125e-16 16,0.8954305 16,2 L16,2 L16,14 C16,15.1045695 15.1045695,16 14,16 L14,16 L2,16 C0.8954305,16 1.3527075e-16,15.1045695 0,14 L0,14 L0,2 C-1.3527075e-16,0.8954305 0.8954305,2.02906125e-16 2,0 L2,0 Z M12.6095651,11.6728105 L3.35574027,11.6728105 C3.18612215,11.6728105 3.04734369,11.783748 3.04734369,11.9196855 L3.04734369,11.9196855 L3.04734369,12.4259355 C3.04734369,12.561873 3.18612215,12.6728105 3.35574027,12.6728105 L3.35574027,12.6728105 L12.6076376,12.6728105 C12.7772558,12.6728105 12.9160342,12.561873 12.9179617,12.4259355 L12.9179617,12.4259355 L12.9179617,11.9196855 C12.9179617,11.783748 12.7791832,11.6728105 12.6095651,11.6728105 L12.6095651,11.6728105 Z M8.20142152,2.96446211 C8.07999036,2.84495844 7.88146007,2.84495844 7.76002891,2.96831707 L7.76002891,2.96831707 L4.75701723,6.00987833 C4.69919287,6.06770269 4.66835321,6.14480183 4.67028069,6.22768341 C4.67028069,6.39922901 4.80905915,6.53993495 4.98253223,6.53993495 L4.98253223,6.53993495 L6.75388507,6.53993495 L6.75388507,10.0286712 C6.75388507,10.2002168 6.89266353,10.3409228 7.06613661,10.3409228 L7.06613661,10.3409228 L8.92229852,10.3409228 C9.09384412,10.3409228 9.23455005,10.2021443 9.23455005,10.0286712 L9.23455005,10.0286712 L9.23455005,6.53993495 L10.9866281,6.53993495 C11.0675822,6.53993495 11.1466088,6.50909529 11.2044332,6.45127093 C11.3277918,6.33176726 11.3297193,6.13323696 11.2082882,6.00987833 L11.2082882,6.00987833 L8.20527647,2.96831707 Z" id="形状结合" fill="#1E81F1"></path>
    </g>
</svg>