<?xml version="1.0" encoding="UTF-8"?>
<svg width="14px" height="14px" viewBox="0 0 14 14" version="1.1" xmlns="http://www.w3.org/2000/svg" xmlns:xlink="http://www.w3.org/1999/xlink">
    <title>恩施/icon/操作图标/保存</title>
    <g id="web-行政管理" stroke="none" stroke-width="1" fill="none" fill-rule="evenodd">
        <g id="通讯录" transform="translate(-1688.000000, -147.000000)" fill="#1E81F1">
            <g id="按钮/主按钮/有图标-36备份-7" transform="translate(1668.000000, 136.000000)">
                <g id="恩施/icon/操作图标/导出-填充" transform="translate(20.000000, 11.000000)">
                    <path d="M5,0 C5.55228475,-1.01453063e-16 6,0.44771525 6,1 L6,3 C3.790861,3 2,4.790861 2,7 C2,9.209139 3.790861,11 6,11 L6,13 C6,13.5522847 5.55228475,14 5,14 L1,14 C0.44771525,14 6.76353751e-17,13.5522847 0,13 L0,1 C-6.76353751e-17,0.44771525 0.44771525,1.01453063e-16 1,0 L5,0 Z M10.7258893,4 L14,6.99944827 L10.7258893,10 L10.7258893,8.50028572 L5,8.50028572 L5,5.49971428 L10.7258893,5.49971428 L10.7258893,4 Z" id="恩施/形状结合"></path>
                </g>
            </g>
        </g>
    </g>
</svg>