<?xml version="1.0" encoding="UTF-8"?>
<svg width="14px" height="14px" viewBox="0 0 14 14" version="1.1" xmlns="http://www.w3.org/2000/svg" xmlns:xlink="http://www.w3.org/1999/xlink">
    <title>恩施/icon/操作图标/保存</title>
    <defs>
        <filter id="filter-1">
            <feColorMatrix in="SourceGraphic" type="matrix" values="0 0 0 0 0.117647 0 0 0 0 0.505882 0 0 0 0 0.945098 0 0 0 1.000000 0"></feColorMatrix>
        </filter>
    </defs>
    <g id="web-行政审批" stroke="none" stroke-width="1" fill="none" fill-rule="evenodd">
        <g id="综合受理-综合受理详情-补齐补正表单" transform="translate(-1477.000000, -147.000000)">
            <g id="按钮/主按钮/有图标-36备份" transform="translate(1457.000000, 136.000000)">
                <g id="恩施/icon/操作/制文" transform="translate(20.000000, 11.000000)">
                    <g filter="url(#filter-1)" id="编组">
                        <g transform="translate(0.875000, 0.000000)">
                            <path d="M8.749344,0.0055567832 L8.749344,3.50416758 L12.2476461,3.50416758 L8.749344,0.0055567832 Z M7.87445976,0.0055567832 L1.75181367,0.0055567832 C0.785684333,0.00572722198 0.00252435284,0.788887202 0.00235391406,1.75501654 L0.00235391406,12.2505402 C0.00252435284,13.2166696 0.785684333,13.9998296 1.75181367,14 L10.4978776,14 C11.4641275,14 12.2474756,13.2167901 12.2476461,12.2505402 L12.2476461,4.37874311 L7.87445976,4.37874311 L7.87445976,0.0055567832 Z M8.749344,11.3759647 L3.50127343,11.3759647 L3.50127343,10.5013892 L8.749344,10.5013892 L8.749344,11.3759647 L8.749344,11.3759647 Z M8.749344,8.75223815 L3.50127343,8.75223815 L3.50127343,7.87766262 L8.749344,7.87766262 L8.749344,8.75223815 Z M8.749344,5.25331863 L8.749344,6.12789416 L3.50127343,6.12789416 L3.50127343,5.25331863 L8.749344,5.25331863 Z" id="形状" fill="#203646" fill-rule="nonzero"></path>
                        </g>
                    </g>
                </g>
            </g>
        </g>
    </g>
</svg>