<?xml version="1.0" encoding="UTF-8"?>
<svg width="16px" height="16px" viewBox="0 0 16 16" version="1.1" xmlns="http://www.w3.org/2000/svg" xmlns:xlink="http://www.w3.org/1999/xlink">
    <title>恩施/icon/标题/动态</title>
    <g id="恩施/icon/标题/动态" stroke="none" stroke-width="1" fill="none" fill-rule="evenodd">
        <path d="M9.58142877,8.84733581 C9.79759107,8.84733581 10.0120513,8.88478125 10.2197033,8.96307626 C11.3975325,9.39710293 12.0068719,10.7145015 11.5728453,11.8923308 C11.1388186,13.0684579 9.63078867,14.605423 8.21977647,15.3066739 L8.21977647,15.3066739 L7.3976789,15.7151696 C7.00790593,15.907503 6.67089698,15.9994145 6.40026859,15.9994145 C5.69050733,15.9994145 5.42838926,15.3696503 5.82156636,14.3007533 L5.82156636,14.3007533 L7.08960506,10.8591771 C7.53724826,9.64220034 8.57210401,8.84733581 9.58142877,8.84733581 Z M0.822600358,5.63724052 C1.06599571,5.63724052 1.36045302,5.69681281 1.69916403,5.82106358 L1.69916403,5.82106358 L5.13903815,7.08740022 C6.61643089,7.63035907 7.47086771,9.0396692 7.03684104,10.2174984 C6.69813003,11.1383158 5.8198643,11.7102098 4.8905366,11.7102098 C4.6301206,11.7102098 4.3645984,11.6659561 4.10758653,11.5706404 C2.93145936,11.1366137 1.39449432,9.62858382 0.693243389,8.21757163 L0.693243389,8.21757163 L0.284747699,7.39547405 C-0.254807024,6.30785428 -0.0011992835,5.63724052 0.822600358,5.63724052 Z M11.1081814,4.28750268 C11.3685974,4.28750268 11.6324175,4.33175638 11.8928335,4.4287741 C13.0689607,4.86280077 14.6059258,6.37083069 15.3071767,7.78184289 L15.3071767,7.78184289 L15.7156724,8.60394047 C16.2552271,9.69156024 15.9999173,10.362174 15.1778197,10.362174 C14.9327223,10.362174 14.6399671,10.3026017 14.3012561,10.1783509 L14.3012561,10.1783509 L10.8596799,8.91031223 C9.38228712,8.36735338 8.52785031,6.95804325 8.96187698,5.78021401 C9.30058799,4.85939664 10.1788537,4.28750268 11.1081814,4.28750268 Z M9.60015149,-5.32907052e-15 C10.3099128,-5.32907052e-15 10.5720308,0.628062123 10.1771517,1.69695918 L10.1771517,1.69695918 L8.90911295,5.13853536 C8.46146976,6.35551211 7.42661401,7.15037664 6.41728924,7.15037664 C6.20112694,7.15037664 5.9866667,7.11463326 5.77901473,7.03804032 C4.60118549,6.60401365 3.99354815,5.28661505 4.42757482,4.10708375 C4.86160149,2.93095657 6.36963141,1.39399154 7.78064361,0.692740607 L7.78064361,0.692740607 L8.60274118,0.284244917 C8.99251415,0.0919115302 9.3295231,-5.32907052e-15 9.60015149,-5.32907052e-15 Z" id="恩施/形状结合" fill="#F2A81B" fill-rule="nonzero"></path>
    </g>
</svg>