<?xml version="1.0" encoding="UTF-8"?>
<svg width="16px" height="16px" viewBox="0 0 16 16" version="1.1" xmlns="http://www.w3.org/2000/svg" xmlns:xlink="http://www.w3.org/1999/xlink">
    <title>恩施/icon/操作图标/导入-填充</title>
    <g id="恩施/icon/操作图标/导入-填充" stroke="none" stroke-width="1" fill="none" fill-rule="evenodd">
        <path d="M15,13.1864727 L12.7641827,16 L12.7641827,13.1864727 L15,13.1864727 Z M13.6943839,0 C14.4157596,0.00455023089 14.9984631,0.584588985 14.9999805,1.29949581 L14.9999805,1.29949581 L14.9999805,11.8957496 L11.9377134,11.8957496 C11.8218164,11.8957568 11.7106708,11.9414002 11.6287358,12.0226355 C11.5467623,12.1038344 11.5007061,12.2139885 11.5007052,12.3288506 L11.5007052,12.3288506 L11.5007052,16 L2.31394268,16 C1.58935696,16 1.00151746,15.4186116 1,14.7005042 L1,14.7005042 L1,1.29949581 C1.00153691,0.581388399 1.58935696,0 2.31394268,0 L2.31394268,0 Z M7.79007539,12.8183089 L2.91997221,12.8183089 C2.52152302,12.8183089 2.25592913,13.0816053 2.25592913,13.476415 C2.25592913,13.8712825 2.52152302,14.1345981 2.91997221,14.1345981 L2.91997221,14.1345981 L7.79007539,14.1345981 C8.18850512,14.1345981 8.45411846,13.8712825 8.45411846,13.476415 C8.45411846,13.0816053 8.18850512,12.8183089 7.79007539,12.8183089 L7.79007539,12.8183089 Z M5.29988953,10.4374199 L2.91997221,10.4374199 C2.52152302,10.4374199 2.25592913,10.7007163 2.25592913,11.0955259 C2.25592913,11.4903934 2.52152302,11.7537091 2.91997221,11.7537091 L2.91997221,11.7537091 L5.29988953,11.7537091 C5.69831926,11.7537091 5.9639326,11.4903934 5.9639326,11.0955259 C5.9639326,10.7007163 5.69831926,10.4374199 5.29988953,10.4374199 L5.29988953,10.4374199 Z M10.6599173,1.79419846 C10.2614681,1.79419846 9.86303839,1.86002256 9.53100712,1.99161292 C7.20686608,2.78136719 6.79491541,5.8418602 6.79491541,5.8418602 L6.79491541,5.8418602 L4.80278617,5.8418602 L7.86225187,9.20220571 L10.951736,5.8418602 L8.95952892,5.8418602 C8.95952892,3.86748417 9.118395,3.69025653 9.26541324,3.37362987 C9.4645892,2.9130154 9.92945631,2.12326113 10.6599173,1.79419846 Z" id="形状结合" fill="#1E81F1"></path>
    </g>
</svg>