<?xml version="1.0" standalone="no"?><!DOCTYPE svg PUBLIC "-//W3C//DTD SVG 1.1//EN" "http://www.w3.org/Graphics/SVG/1.1/DTD/svg11.dtd"><svg t="1584435504878" class="icon" viewBox="0 0 1024 1024" version="1.1" xmlns="http://www.w3.org/2000/svg" p-id="7235" xmlns:xlink="http://www.w3.org/1999/xlink" width="200" height="200"><defs><style type="text/css"></style></defs><path d="M860.738795 731.752212v188.181559c0 56.929489-50.64459 104.066229-113.274336 104.066229H274.781616c-61.898944 0-113.274336-46.479018-113.274337-104.066229H160.776477v-188.181559h700.108479z m-110.351127 158.21867H273.320011c-19.512418 0-35.516985 14.689124-35.516985 32.666857 0 18.050814 15.858407 32.593777 35.516985 32.593777h477.213817c19.658578 0 35.443905-14.542963 35.443905-32.593777s-15.785327-32.666857-35.443905-32.666857z m0-97.050528H273.320011c-19.512418 0-35.516985 14.542963-35.516985 32.593777s15.858407 32.666857 35.516985 32.666857h477.213817c19.658578 0 35.443905-14.616043 35.443905-32.666857s-15.785327-32.593777-35.443905-32.593777zM101.2161 166.038253v87.47702h820.836997V166.111333C978.544105 168.230659 1023.123037 210.471025 1023.123037 262.57722v410.199257c0 51.960034-45.309735 94.34656-101.14302 96.465887V676.284328H101.14302v92.958036C45.236654 767.123037 0 724.736512 0 672.776477V262.504139C0 210.471025 45.309735 168.084499 101.14302 166.038253z m364.670283 160.411076H186.500714c-13.59292 0-24.847274 10.377391-24.847274 22.874108 0 12.423637 11.254353 22.874108 24.847274 22.874108h279.458749c13.59292 0 24.116472-10.377391 24.847274-22.874108 0-12.423637-11.254353-22.874108-24.847274-22.874108zM768.07308 0.876963c51.302312 0 93.542678 38.878675 93.542678 86.088495h-0.657722v111.08193H160.776477V86.965458C160.776477 39.755638 203.163003 0.876963 254.465315 0.876963z" fill="#ffffff" p-id="7236"></path></svg>