<?xml version="1.0" standalone="no"?><!DOCTYPE svg PUBLIC "-//W3C//DTD SVG 1.1//EN" "http://www.w3.org/Graphics/SVG/1.1/DTD/svg11.dtd"><svg t="1576223875192" class="icon" viewBox="0 0 1024 1024" version="1.1" xmlns="http://www.w3.org/2000/svg" p-id="2888" xmlns:xlink="http://www.w3.org/1999/xlink" width="200" height="200"><defs><style type="text/css"></style></defs><path d="M928 32h-832v124.032c-0.576 31.232 8.896 76.16 37.824 120.192 13.44 20.48 30.4 38.912 51.2 55.04l156.16 121.088c3.84 3.072 8.512 7.68 13.184 13.824 19.904 26.368 21.248 60.16-9.344 86.912l-4.16 3.456-145.472 112.704c-2.56 1.92-7.68 6.4-14.656 13.184-11.84 11.52-23.68 25.088-34.816 40.448-31.36 43.328-49.92 91.84-49.92 144.576v121.856h831.744v-121.856c0-52.736-18.56-101.248-49.92-144.576a311.168 311.168 0 0 0-34.816-40.448 190.336 190.336 0 0 0-14.72-13.184v-0.064l-145.152-112.64-4.16-3.456c-30.592-26.688-29.248-60.544-9.344-86.912a78.08 78.08 0 0 1 13.504-14.08l155.84-120.768c20.992-16.256 37.952-34.88 51.456-55.424 28.8-43.904 38.144-88.768 37.568-119.744V32z" fill="#FFF7E9" p-id="2889"></path><path d="M796.416 128s-0.96 63.232-52.8 102.272l-148.48 111.744c-15.104 11.776-48.384 48.192-47.872 105.92l-0.064 248.576L832 896H192l284.672-199.36 1.024-248.704a135.936 135.936 0 0 0-47.232-104.64L280.32 230.272c-50.944-38.336-52.8-101.76-52.8-102.272h568.832z" fill="#F2A81B" p-id="2890"></path><path d="M0 0m32 0l960 0q32 0 32 32l0 0q0 32-32 32l-960 0q-32 0-32-32l0 0q0-32 32-32Z" fill="#A07523" p-id="2891"></path><path d="M0 960m32 0l960 0q32 0 32 32l0 0q0 32-32 32l-960 0q-32 0-32-32l0 0q0-32 32-32Z" fill="#A07523" p-id="2892"></path></svg>