<?xml version="1.0" standalone="no"?><!DOCTYPE svg PUBLIC "-//W3C//DTD SVG 1.1//EN" "http://www.w3.org/Graphics/SVG/1.1/DTD/svg11.dtd"><svg t="1583498579090" class="icon" viewBox="0 0 1024 1024" version="1.1" xmlns="http://www.w3.org/2000/svg" p-id="12344" xmlns:xlink="http://www.w3.org/1999/xlink" width="200" height="200"><defs><style type="text/css"></style></defs><path d="M732.630746 0H125.83424A55.660874 55.660874 0 0 0 70.620631 55.896276v912.183908A55.660874 55.660874 0 0 0 125.83424 1024h772.331402A55.660874 55.660874 0 0 0 953.379251 968.103724V223.467402zM318.852355 325.749701h165.546667a27.954023 27.954023 0 0 1 0 55.896276H318.852355a27.954023 27.954023 0 0 1 0-55.896276zM705.029826 716.8H318.852355a27.954023 27.954023 0 0 1 0-55.896276H705.029826a27.954023 27.954023 0 0 1 0 55.896276z m0-167.571126H318.852355a27.954023 27.954023 0 0 1 0-55.896276H705.029826a27.954023 27.954023 0 0 1 0 55.896276z" fill="#FFBA4C" p-id="12345"></path><path d="M953.379251 228.752184H783.889596a57.061517 57.061517 0 0 1-56.496551-57.226299V0z m0 0" fill="#FFDBA2" p-id="12346"></path></svg>