<?xml version="1.0" standalone="no"?><!DOCTYPE svg PUBLIC "-//W3C//DTD SVG 1.1//EN" "http://www.w3.org/Graphics/SVG/1.1/DTD/svg11.dtd"><svg t="1583498479496" class="icon" viewBox="0 0 1024 1024" version="1.1" xmlns="http://www.w3.org/2000/svg" p-id="6774" xmlns:xlink="http://www.w3.org/1999/xlink" width="200" height="200"><defs><style type="text/css"></style></defs><path d="M768 192V0H128a64 64 0 0 0-64 64v896a64 64 0 0 0 64 64h768a64 64 0 0 0 64-64V192h-192z" fill="#86ADCB" p-id="6775"></path><path d="M960 192h-192V0" fill="#A2B0DD" opacity=".5" p-id="6776"></path><path d="M319.04 633.28v-203.52h71.104V384H192v45.696h70.72v203.52h56.32z m144.128 0l43.072-80.512c3.008-7.744 4.928-13.568 5.76-17.344h0.64c1.792 8.064 3.456 13.632 5.12 16.64l42.88 81.216H627.2L550.4 507.52 625.152 384H562.56l-39.616 74.048c-3.84 9.6-6.4 16.832-7.808 21.76h-0.704a129.152 129.152 0 0 0-7.488-21.12L471.296 384H403.008l72.64 124.608-79.36 124.672h66.88z m297.728 0v-203.52H832V384H633.856v45.696h70.72v203.52h56.32z" fill="#FFFFFF" p-id="6777"></path></svg>