<?xml version="1.0" standalone="no"?><!DOCTYPE svg PUBLIC "-//W3C//DTD SVG 1.1//EN" "http://www.w3.org/Graphics/SVG/1.1/DTD/svg11.dtd"><svg t="1583498505321" class="icon" viewBox="0 0 1024 1024" version="1.1" xmlns="http://www.w3.org/2000/svg" p-id="7182" xmlns:xlink="http://www.w3.org/1999/xlink" width="200" height="200"><defs><style type="text/css"></style></defs><path d="M768 192V0H128a64 64 0 0 0-64 64v896a64 64 0 0 0 64 64h768a64 64 0 0 0 64-64V192h-192z" fill="#FF5562" p-id="7183"></path><path d="M960 192h-192V0" fill="#FFABB2" p-id="7184"></path><path d="M650.56 606.72a136.128 136.128 0 0 1-78.912-32c-43.712 9.6-85.312 23.424-126.848 40.512-33.088 58.88-64 88.768-90.688 88.768a27.2 27.2 0 0 1-16-4.288A31.36 31.36 0 0 1 320 670.72c0-9.6 2.048-36.352 103.424-80.128 23.04-42.304 41.92-86.72 56.512-132.608-12.736-25.6-40.512-88.768-21.312-120.832a33.92 33.92 0 0 1 33.088-17.088c10.88 0.064 21.12 5.184 27.776 13.888 13.824 19.264 12.736 59.904-5.376 119.68 17.088 32.128 39.424 60.992 66.112 85.632 22.4-4.288 44.8-7.488 67.2-7.488 50.048 1.024 57.6 24.576 56.512 38.4 0 36.48-35.328 36.48-53.376 36.48zM352 672.96l3.2-1.024c14.912-5.312 26.624-16 35.2-29.952-16.064 6.464-28.8 17.024-38.4 30.976z m141.76-320.64h-3.2c-1.024 0-3.2 0-4.224 0.96-4.224 18.176-1.024 37.44 6.4 54.528 6.208-17.92 6.592-37.376 1.024-55.552z m7.552 154.88l-1.088 2.176-1.088-1.088c-9.6 24.576-20.288 49.152-32 72.64l2.048-1.024v2.176c23.68-8.64 47.936-15.68 72.512-21.44l-1.024-1.024H544a319.424 319.424 0 0 1-42.624-52.352z m145.024 56.704c-9.6 0-18.112 0-27.712 2.176 10.688 5.312 21.376 7.488 32 8.512 7.552 1.024 14.976 0 21.376-2.176-0.128-3.072-4.352-8.512-25.664-8.512z" fill="#FFFFFF" p-id="7185"></path></svg>