<?xml version="1.0" standalone="no"?><!DOCTYPE svg PUBLIC "-//W3C//DTD SVG 1.1//EN" "http://www.w3.org/Graphics/SVG/1.1/DTD/svg11.dtd"><svg t="1587017917644" class="icon" viewBox="0 0 1024 1024" version="1.1" xmlns="http://www.w3.org/2000/svg" p-id="6915" xmlns:xlink="http://www.w3.org/1999/xlink" width="200" height="200"><defs><style type="text/css"></style></defs><path d="M914.285714 0a109.714286 109.714286 0 0 1 109.202286 99.181714L1024 109.714286v804.571428a109.714286 109.714286 0 0 1-99.181714 109.202286L914.285714 1024h-804.571428a109.714286 109.714286 0 0 1-109.202286-99.181714L0 914.285714v-804.571428A109.714286 109.714286 0 0 1 99.181714 0.512L109.714286 0h804.571428zM721.042286 522.24a35.401143 35.401143 0 0 0-49.298286-0.512l-227.84 227.84L352.841143 659.017143l-5.558857-4.534857a35.181714 35.181714 0 0 0-44.324572 54.418285l116.004572 115.565715 5.558857 4.534857a35.401143 35.401143 0 0 0 44.397714-4.608l2.121143-2.267429 2.194286-1.974857 248.539428-248.612571 4.315429-5.485715a35.181714 35.181714 0 0 0-5.046857-43.666285zM548.571429 365.714286h-292.571429a36.571429 36.571429 0 0 0 0 73.142857h292.571429a36.571429 36.571429 0 0 0 0-73.142857z m219.428571-146.285715h-512a36.571429 36.571429 0 0 0 0 73.142858h512a36.571429 36.571429 0 1 0 0-73.142858z" fill="#20B86B" p-id="6916"></path></svg>