<?xml version="1.0" standalone="no"?><!DOCTYPE svg PUBLIC "-//W3C//DTD SVG 1.1//EN" "http://www.w3.org/Graphics/SVG/1.1/DTD/svg11.dtd"><svg t="1576207485885" class="icon" viewBox="0 0 1024 1024" version="1.1" xmlns="http://www.w3.org/2000/svg" p-id="2967" xmlns:xlink="http://www.w3.org/1999/xlink" width="200" height="200"><defs><style type="text/css"></style></defs><path d="M0 127.971286m127.971286 0l767.827719 0q127.971286 0 127.971287 127.971287l0 447.899502q0 127.971286-127.971287 127.971287l-767.827719 0q-127.971286 0-127.971286-127.971287l0-447.899502q0-127.971286 127.971286-127.971287Z" fill="#E1FEFF" p-id="2968"></path><path d="M191.95693 319.928216m31.992821 0l0 0q31.992822 0 31.992822 31.992822l0 255.942573q0 31.992822-31.992822 31.992821l0 0q-31.992822 0-31.992821-31.992821l0-255.942573q0-31.992822 31.992821-31.992822Z" fill="#007FE9" p-id="2969"></path><path d="M383.913859 319.928216m31.992822 0l0 0q31.992822 0 31.992822 31.992822l0 127.971286q0 31.992822-31.992822 31.992822l0 0q-31.992822 0-31.992822-31.992822l0-127.971286q0-31.992822 31.992822-31.992822Z" fill="#4DA0E5" p-id="2970"></path><path d="M575.870789 319.928216m31.992822 0l0 0q31.992822 0 31.992821 31.992822l0 191.956929q0 31.992822-31.992821 31.992822l0 0q-31.992822 0-31.992822-31.992822l0-191.956929q0-31.992822 31.992822-31.992822Z" fill="#20B86B" p-id="2971"></path><path d="M767.827719 319.928216m31.992821 0l0 0q31.992822 0 31.992822 31.992822l0 63.985643q0 31.992822-31.992822 31.992822l0 0q-31.992822 0-31.992821-31.992822l0-63.985643q0-31.992822 31.992821-31.992822Z" fill="#007FE9" p-id="2972"></path><path d="M895.799005 63.985643a127.971286 127.971286 0 0 1 127.971287 127.971287v511.885145a127.971286 127.971286 0 0 1-127.971287 127.971287H127.971286a127.971286 127.971286 0 0 1-127.971286-127.971287V191.95693a127.971286 127.971286 0 0 1 127.971286-127.971287h767.827719z m0 63.985643H127.971286a63.985643 63.985643 0 0 0-63.537743 56.499323L63.985643 191.95693v511.885145a63.985643 63.985643 0 0 0 56.499323 63.537744L127.971286 767.827719h767.827719a63.985643 63.985643 0 0 0 63.537744-56.499323L959.784648 703.842075V191.95693a63.985643 63.985643 0 0 0-56.499323-63.537744L895.799005 127.971286z" fill="#40C3D0" p-id="2973"></path><path d="M515.532327 767.827719a26.106142 26.106142 0 0 1 13.884885 5.758708l3.96711 3.903124 162.075634 189.077576a37.495587 37.495587 0 0 1 0 47.349375 25.658243 25.658243 0 0 1-36.535802 3.839139l-3.96711-3.839139L511.885146 846.849988l-143.071898 167.002529a25.8502 25.8502 0 0 1-40.502913 0 37.495587 37.495587 0 0 1 0-47.349376l162.075635-189.077576A27.001941 27.001941 0 0 1 508.237964 767.827719h7.294363z m-4.478995-767.827719c18.427865 0 33.528477 14.204813 33.528477 31.480936v65.009414c0 17.276124-15.100612 31.480936-33.528477 31.480936-18.427865 0-33.528477-14.204813-33.528477-31.480936V31.480936c0-17.276124 15.100612-31.480936 33.528477-31.480936z" fill="#40C3D0" p-id="2974"></path></svg>