<?xml version="1.0" standalone="no"?><!DOCTYPE svg PUBLIC "-//W3C//DTD SVG 1.1//EN" "http://www.w3.org/Graphics/SVG/1.1/DTD/svg11.dtd"><svg t="1584344287780" class="icon" viewBox="0 0 1024 1024" version="1.1" xmlns="http://www.w3.org/2000/svg" p-id="4324" xmlns:xlink="http://www.w3.org/1999/xlink" width="200" height="200"><defs><style type="text/css"></style></defs><path d="M510.317714 0a510.317714 510.317714 0 1 1 0 1020.635429A510.317714 510.317714 0 0 1 510.317714 0z m273.042286 560.932571H240.786286a44.617143 44.617143 0 1 0 0 89.088h433.883428l-28.233143 28.233143a44.470857 44.470857 0 1 0 62.902858 62.902857l104.228571-104.228571 1.536-1.609143 0.658286-0.731428 0.438857-0.512a9.801143 9.801143 0 0 0 1.170286-1.462858l0.585142-0.658285 0.438858-0.585143 0.438857-0.585143 0.438857-0.731429 0.731428-1.170285c0.073143-0.219429 0.219429-0.438857 0.438858-0.585143l0.658285-1.243429a2.267429 2.267429 0 0 1 0.438857-0.658285c0.219429-0.438857 0.438857-0.731429 0.512-1.170286 0.146286-0.219429 0.219429-0.585143 0.438858-0.731429l0.438857-1.097143 0.438857-1.024 0.292571-0.950857 0.438857-1.097143 0.365715-0.877714c0.073143-0.438857 0.292571-0.877714 0.438857-1.170286 0.073143-0.219429 0.073143-0.585143 0.219428-0.731428l0.292572-1.316572c0.146286-0.219429 0.146286-0.438857 0.146286-0.731428l0.292571-1.389714 0.146286-0.731429a6.363429 6.363429 0 0 0 0.219428-1.462857l0.073143-0.804572c0.146286-0.438857 0.146286-0.877714 0.146286-1.316571l0.073143-1.097143 0.146285-1.097143 0.073143-2.194285-0.073143-2.194286c0-0.292571 0-0.585143-0.146285-1.024v-0.585143l-0.219429-1.828571-0.073143-0.877715c-0.146286-0.438857-0.146286-0.950857-0.219428-1.462857l-0.146286-0.731428-0.292571-1.389715c-0.146286-0.219429-0.146286-0.438857-0.146286-0.658285l-0.292572-1.316572c-0.146286-0.146286-0.146286-0.512-0.219428-0.731428-0.146286-0.438857-0.219429-0.877714-0.438857-1.170286l-0.365715-0.877714-0.438857-1.097143-0.292571-0.950857c-0.073143-0.365714-0.292571-0.731429-0.438857-1.024l-0.438857-1.097143c-0.073143-0.219429-0.219429-0.512-0.438858-0.731429-0.219429-0.438857-0.438857-0.731429-0.512-1.170286a2.267429 2.267429 0 0 0-0.438857-0.731428l-0.731428-1.170286a2.267429 2.267429 0 0 0-0.365715-0.658286l-0.731428-1.170285-0.438857-0.658286c-0.219429-0.438857-0.585143-0.731429-0.877715-1.170286l-0.585142-0.731428-0.731429-0.877715-0.731429-0.877714c-0.292571-0.219429-0.438857-0.585143-0.731428-0.731428l-1.462857-1.682286-1.682286-1.462857-0.731429-0.731429-0.877714-0.731428-0.950857-0.731429c-0.219429-0.292571-0.438857-0.365714-0.731429-0.585143l-0.512-0.438857-0.585142-0.438857-0.731429-0.438857-1.170286-0.731429a2.267429 2.267429 0 0 1-0.658285-0.438857l-1.170286-0.731429c-0.219429 0-0.438857-0.146286-0.658286-0.365714-0.438857-0.219429-0.731429-0.438857-1.170286-0.512-0.219429-0.146286-0.585143-0.219429-0.731428-0.438857l-0.585143-0.292571-1.462857-0.585143-1.024-0.365715-1.097143-0.438857-0.877714-0.292571-1.170286-0.438857c-0.219429-0.146286-0.585143-0.146286-0.731429-0.219429l-1.389714-0.365714-0.731428-0.219429-1.462858-0.292571-0.731428-0.073143a6.363429 6.363429 0 0 0-1.462857-0.219429l-0.731429-0.146285-1.389714-0.073143-1.097143-0.146286-0.950857-0.073143-1.097143-0.073143zM311.222857 279.405714L206.921143 383.707429l-1.462857 1.609142c-0.219429 0.219429-0.438857 0.585143-0.731429 0.731429l-0.731428 0.877714-0.731429 1.024-0.512 0.658286-0.877714 1.170286-0.438857 0.658285c-0.219429 0.438857-0.585143 0.731429-0.731429 1.170286a2.267429 2.267429 0 0 1-0.512 0.731429l-0.658286 1.170285-0.438857 0.658286-0.512 1.170286c-0.073143 0.219429-0.219429 0.512-0.438857 0.731428l-0.438857 1.097143c-0.073143 0.365714-0.292571 0.658286-0.438857 0.950857l-0.292572 1.024-0.438857 1.097143-0.365714 0.877715c-0.073143 0.438857-0.292571 0.804571-0.438857 1.170285-0.073143 0.219429-0.073143 0.512-0.219429 0.731429l-0.292571 1.316571-0.073143 0.731429-0.219429 0.658286-0.219428 1.462857a6.363429 6.363429 0 0 0-0.219429 1.462857l-0.146286 0.804571-0.073142 1.316572-0.146286 1.097143-0.073143 1.097142-0.073143 1.024v4.461715c0 0.365714 0 0.731429 0.146286 1.097143l0.146286 1.316571 0.073142 0.877714c0.146286 0.438857 0.146286 0.950857 0.219429 1.462857l0.146286 0.731429 0.292571 1.389714 0.146286 0.658286 0.292571 1.316571c0.073143 0.219429 0.073143 0.512 0.219429 0.731429l0.438857 1.243429 0.292571 0.804571 0.438858 1.097143 0.365714 1.024 0.877714 2.048c0.073143 0.219429 0.219429 0.512 0.438857 0.731428l0.512 1.243429a2.267429 2.267429 0 0 0 0.438857 0.658286l0.658286 1.170285 0.146286 0.292572 1.024 1.536c0.146286 0.219429 0.365714 0.438857 0.438857 0.731428l0.877714 1.097143 0.512 0.731429c0.219429 0.292571 0.585143 0.585143 0.731429 0.950857 0.292571 0.292571 0.585143 0.512 0.804571 0.877714l0.731429 0.731429 1.462857 1.609143 1.609143 1.536 0.731428 0.658285 0.950858 0.731429c0.292571 0.365714 0.585143 0.585143 0.950857 0.731429l0.658285 0.585142 0.585143 0.438858 0.585143 0.438857c0.219429 0.146286 0.438857 0.365714 0.731429 0.438857l1.097143 0.731428a2.267429 2.267429 0 0 1 0.731428 0.438858l1.170286 0.731428c0.219429 0 0.438857 0.146286 0.658286 0.365714l1.170285 0.585143 0.731429 0.438857 1.097143 0.438858c0.365714 0.073143 0.731429 0.292571 1.024 0.438857l0.950857 0.292571 1.097143 0.438857 0.438857 0.146286 1.609143 0.585143c0.219429 0.146286 0.585143 0.146286 0.731428 0.219428l1.316572 0.365715 0.731428 0.219428 1.462857 0.292572 0.731429 0.146285a6.363429 6.363429 0 0 0 1.462857 0.219429l0.877714 0.073143a5.266286 5.266286 0 0 0 1.316572 0.146286l1.024 0.073142 1.024 0.146286 2.194286 0.073143h541.403428a44.617143 44.617143 0 1 0 0-89.088H345.892571l28.233143-28.306286a44.470857 44.470857 0 1 0-62.902857-62.902857z" fill="#ffffff" p-id="4325"></path></svg>