<?xml version="1.0" standalone="no"?><!DOCTYPE svg PUBLIC "-//W3C//DTD SVG 1.1//EN" "http://www.w3.org/Graphics/SVG/1.1/DTD/svg11.dtd"><svg t="1584344705788" class="icon" viewBox="0 0 1073 1024" version="1.1" xmlns="http://www.w3.org/2000/svg" p-id="4901" xmlns:xlink="http://www.w3.org/1999/xlink" width="209.5703125" height="200"><defs><style type="text/css"></style></defs><path d="M593.236396 209.377552a383.858845 383.858845 0 0 1 295.01297 629.528505l127.999477 127.999476a34.896259 34.896259 0 0 1-49.34331 49.34331l-127.999476-127.999477A383.858845 383.858845 0 1 1 593.236396 209.377552zM907.302724 0a69.792517 69.792517 0 0 1 69.792517 69.792517l0.069792 281.6826a453.651362 453.651362 0 1 0-625.689916 625.689916L69.792517 977.095241a69.792517 69.792517 0 0 1-69.792517-69.792517V69.792517a69.792517 69.792517 0 0 1 69.792517-69.792517h837.510207zM593.236396 279.170069a314.066327 314.066327 0 1 0 0 628.132655 314.066327 314.066327 0 0 0 0-628.132655z m69.792517 418.755103a34.896259 34.896259 0 1 1 0 69.792517h-139.585034a34.896259 34.896259 0 1 1 0-69.792517h139.585034z m69.792518-139.585034a34.896259 34.896259 0 1 1 0 69.792517h-279.170069a34.896259 34.896259 0 0 1 0-69.792517h279.170069z m-139.585035-244.273811c100.571017 0 191.929422 53.670446 241.48211 139.026695a34.896259 34.896259 0 0 1-60.300735 35.105636A209.237967 209.237967 0 0 0 593.236396 383.858845a34.896259 34.896259 0 0 1 0-69.792518z" fill="#ffffff" p-id="4902"></path></svg>