<?xml version="1.0" standalone="no"?><!DOCTYPE svg PUBLIC "-//W3C//DTD SVG 1.1//EN" "http://www.w3.org/Graphics/SVG/1.1/DTD/svg11.dtd"><svg t="1584344759436" class="icon" viewBox="0 0 1024 1024" version="1.1" xmlns="http://www.w3.org/2000/svg" p-id="5089" xmlns:xlink="http://www.w3.org/1999/xlink" width="200" height="200"><defs><style type="text/css"></style></defs><path d="M842.247127 147.580555c21.490185 0 39.179385 3.874081 53.067599 11.695339 13.961311 7.748162 25.071882 17.543008 33.25862 29.165251 8.259833 11.695339 13.961311 24.267828 17.177528 37.936755a165.562139 165.562139 0 0 1 4.312657 50.728532 72.730388 72.730388 0 0 0-0.584767 8.186737v6.944107h-70.7568v612.616461c0 15.56942-2.850739 30.554072-8.552216 44.953958-5.701478 14.399886-13.961311 27.045471-24.706403 37.936755a121.631523 121.631523 0 0 1-39.106289 26.241416c-15.350132 6.578628-33.039332 9.941038-53.067599 9.941038H275.023199c-18.56635 0-36.109358-3.143122-52.555928-9.356271a123.897494 123.897494 0 0 1-42.395603-26.314512 121.704618 121.704618 0 0 1-27.776429-40.787494 137.274038 137.274038 0 0 1-10.233422-54.237133V292.237276h-66.517239c-0.730959-0.730959-1.023342-2.704547-1.023342-5.847669A322.864444 322.864444 0 0 1 73.424798 250.353344c0-10.160326 2.192876-21.417089 6.432437-33.843386 4.312656-12.426297 10.745092-23.902348 19.297309-34.428153 8.552216-10.525805 19.662788-19.224213 33.258619-26.314513 13.595831-6.944107 29.676922-10.452709 48.243272-10.452709h95.463202v-71.195374c0-20.174459 6.432436-37.49818 19.297309-51.898065a60.888857 60.888857 0 0 1 47.146834-21.563281h335.656221c24.998786 0 42.395603 7.163395 51.971162 21.563281 9.648654 14.399886 14.472982 31.723606 14.472981 51.898065v72.364908c15.057749 0.730959 31.138839 1.169534 48.243273 1.169534h49.33971z m-499.683347 0h335.656221V74.046113H342.56378V147.653651z m-33.258619 738.633736c22.879006 0 34.355057-15.934899 34.355057-47.877793V296.915412h-66.517238v541.421086c0 16.373474 2.339068 28.434292 7.017203 36.182454 4.60504 7.821258 13.011064 11.695339 25.144978 11.695339zM512 885.044757c12.133914 0 20.393747-3.654793 24.633307-11.110572 4.385752-7.309587 6.432436-19.224213 6.432436-35.597687V296.915412h-66.517238v541.421086c0 31.138839 11.84153 46.708259 35.451495 46.708259z m201.598401-2.339068c12.864873 0 21.417089-3.654793 25.729745-11.110572 4.312656-7.309587 6.432436-19.224213 6.432436-35.597687V296.915412h-67.540581v539.082018c0 31.138839 11.768435 46.708259 35.3784 46.708259z" fill="#ffffff" p-id="5090"></path></svg>