<?xml version="1.0" encoding="UTF-8"?>
<svg width="16px" height="16px" viewBox="0 0 16 16" version="1.1" xmlns="http://www.w3.org/2000/svg" xmlns:xlink="http://www.w3.org/1999/xlink">
    <title>恩施/icon/学习</title>
    <g id="恩施/icon/学习" stroke="none" stroke-width="1" fill="none" fill-rule="evenodd">
        <path d="M14.5808298,6.57193712 C14.7069813,6.56806078 14.8293158,6.61554186 14.9198982,6.70353802 C15.0104805,6.79153417 15.0615165,6.9125314 15.0615165,7.03889982 L15.0615165,7.03889982 L15.0615165,7.50872733 C14.0271297,7.5103049 13.1889862,8.34949462 13.1874106,9.38517254 L13.1874106,9.38517254 L13.1874106,11.2644825 C13.1920808,12.2934759 14.0223801,13.1273658 15.0500715,13.1351982 L15.0500715,13.1351982 L15.0500715,13.6222145 C15.0500715,13.881693 14.8399848,14.092042 14.5808298,14.092042 C12.1773963,14.092042 10.2575107,14.8540793 8.45779685,16 L8.45779685,16 L8.45779685,8.0902821 C10.2660944,7.05322383 12.2088698,6.57193712 14.5808298,6.57193712 Z M1.41917024,6.57193712 C3.77968526,6.57193712 5.71101574,7.05322383 7.54220315,8.0902821 L7.54220315,8.0902821 L7.54220315,15.9885408 C5.74248927,14.8397553 3.81974249,14.0805828 1.41917024,14.0805828 C1.29174961,14.0837054 1.16854245,14.034795 1.07787742,13.9450975 C0.987212382,13.8554 0.936891012,13.7326336 0.938446866,13.6050257 L0.938446866,13.6050257 L0.938446866,13.1351982 C1.97064444,13.1336336 2.80787034,12.2979222 2.81258941,11.2644825 L2.81258941,11.2644825 L2.81258941,9.38517254 C2.8110138,8.34949462 1.97287029,7.5103049 0.938446866,7.50872733 L0.938446866,7.50872733 L0.938446866,7.03889982 C0.938446866,6.9125314 0.989519477,6.79153417 1.08010183,6.70353802 C1.17068418,6.61554186 1.29301874,6.56806078 1.41917024,6.57193712 Z M15.0615165,8.44838233 C15.5787113,8.44838233 15.9984232,8.86733453 16,9.38517254 L16,9.38517254 L16,11.2644825 C15.9725028,11.7625288 15.5611318,12.1522736 15.0629471,12.1522736 C14.5647623,12.1522736 14.1533913,11.7625288 14.1258941,11.2644825 L14.1258941,11.2644825 L14.1258941,9.38517254 C14.1258941,8.86779759 14.5447865,8.44838233 15.0615165,8.44838233 Z M0.937052933,8.49738152 C1.43523771,8.49738152 1.8466087,8.88712628 1.87410587,9.38517254 L1.87410587,9.38517254 L1.87410587,11.2644825 C1.8466087,11.7625288 1.43523771,12.1522736 0.937052933,12.1522736 C0.438868156,12.1522736 0.0274971675,11.7625288 0,11.2644825 L0,11.2644825 L0,9.38517254 C0.0274971675,8.88712628 0.438868156,8.49738152 0.937052933,8.49738152 Z M8.93848355,5.63228212 C9.59230461,5.63825074 10.2358117,5.79614109 10.8183119,6.09351521 C9.83225793,6.35920514 8.88488268,6.7521103 8,7.26235437 C7.11511732,6.7521103 6.16774207,6.35920514 5.18168813,6.09351521 C5.76418835,5.79614109 6.40769539,5.63825074 7.06151645,5.63228212 L7.06151645,5.63228212 Z M6.01323106,0.822871591 C6.81881296,0.0179252 8.02949521,-0.221592064 9.08030243,0.216092607 C10.1311097,0.653777278 10.814905,1.68238675 10.8125953,2.8219115 C10.7924875,4.36784964 9.54404857,5.61530371 8,5.63228212 C6.86189353,5.63228212 5.8359612,4.94553737 5.40096322,3.89252925 C4.96596525,2.83952113 5.20764916,1.62781798 6.01323106,0.822871591 Z" id="恩施/形状结合" fill="#FFFFFF" fill-rule="nonzero"></path>
    </g>
</svg>