<?xml version="1.0" standalone="no"?><!DOCTYPE svg PUBLIC "-//W3C//DTD SVG 1.1//EN" "http://www.w3.org/Graphics/SVG/1.1/DTD/svg11.dtd"><svg t="1589951166902" class="icon" viewBox="0 0 1024 1024" version="1.1" xmlns="http://www.w3.org/2000/svg" p-id="7263" xmlns:xlink="http://www.w3.org/1999/xlink" width="200" height="200"><defs><style type="text/css"></style></defs><path d="M768.073143 147.017143a109.714286 109.714286 0 0 1 109.056 99.035428l0.512 10.532572v657.554286a109.714286 109.714286 0 0 1-99.035429 109.129142l-10.532571 0.512h-657.554286A109.714286 109.714286 0 0 1 1.462857 924.672l-0.512-10.532571v-657.554286a109.714286 109.714286 0 0 1 99.035429-109.056l10.532571-0.512h657.554286zM914.212571 0.877714a109.714286 109.714286 0 0 1 109.568 109.568v657.554286A109.714286 109.714286 0 0 1 914.285714 877.714286V804.571429a36.571429 36.571429 0 0 0 36.571429-36.571429V110.445714a36.571429 36.571429 0 0 0-36.571429-36.498285h-657.554285a36.571429 36.571429 0 0 0-36.571429 36.571428h-72.996571A109.714286 109.714286 0 0 1 256.658286 0.804571zM768 220.16h-657.554286a36.571429 36.571429 0 0 0-35.913143 29.988571l-0.585142 6.582858v182.564571H804.571429V256.585143a36.571429 36.571429 0 0 0-36.498286-36.571429z m-35.986286 73.069714v73.069715H659.017143v-73.142858h73.069714z m-219.721143 0a36.498286 36.498286 0 0 1 0 73.069715H183.588571a36.571429 36.571429 0 0 1 0-73.142858z" fill="#1e81f1" p-id="7264"></path></svg>