<?xml version="1.0" standalone="no"?><!DOCTYPE svg PUBLIC "-//W3C//DTD SVG 1.1//EN" "http://www.w3.org/Graphics/SVG/1.1/DTD/svg11.dtd"><svg t="1595303676394" class="icon" viewBox="0 0 1024 1024" version="1.1" xmlns="http://www.w3.org/2000/svg" p-id="9385" xmlns:xlink="http://www.w3.org/1999/xlink" width="200" height="200"><defs><style type="text/css"></style></defs><path d="M731.455543 36.928617A36.415977 36.415977 0 0 0 694.847566 0.00064a36.415977 36.415977 0 0 0-36.543977 36.927977v100.927937h73.151954V36.928617z m-365.759772 0A36.415977 36.415977 0 0 0 329.151794 0.00064a36.415977 36.415977 0 0 0-36.607977 36.927977v100.927937h73.151954V36.928617z m511.99968 100.927937H731.519543v110.719931a36.415977 36.415977 0 0 1-36.607977 36.991977 36.415977 36.415977 0 0 1-36.543977-36.927977V137.856554H365.695771v110.719931a36.415977 36.415977 0 0 1-36.543977 36.991977 36.415977 36.415977 0 0 1-36.607977-36.927977V137.856554H146.303909C65.855959 137.856554 0 204.288512 0 285.568462v590.71963C0 957.568042 65.855959 1024 146.303909 1024h731.391542C958.143401 1024 1023.99936 957.568042 1023.99936 876.288092v-590.71963c0-81.279949-65.855959-147.711908-146.303909-147.711908zM329.151794 802.432138H255.99984a36.415977 36.415977 0 0 1-36.543977-36.863976c0-20.735987 16.06399-36.927977 36.543977-36.927977h73.151954c20.479987 0 36.543977 16.19199 36.543977 36.927977a36.415977 36.415977 0 0 1-36.543977 36.863976z m0-147.647907H255.99984a36.415977 36.415977 0 0 1-36.543977-36.927977c0-20.671987 16.06399-36.927977 36.543977-36.927977h73.151954c20.479987 0 36.543977 16.25599 36.543977 36.927977a36.415977 36.415977 0 0 1-36.543977 36.927977z m219.391863 147.647907H475.519703a36.415977 36.415977 0 0 1-36.607977-36.863976c0-20.735987 16.12799-36.927977 36.607977-36.927977H548.479657c20.479987 0 36.607977 16.19199 36.607977 36.927977a36.415977 36.415977 0 0 1-36.607977 36.863976z m0-147.647907H475.519703a36.415977 36.415977 0 0 1-36.607977-36.927977c0-20.671987 16.12799-36.927977 36.607977-36.927977H548.479657c20.479987 0 36.607977 16.25599 36.607977 36.927977a36.415977 36.415977 0 0 1-36.607977 36.927977zM767.99952 802.432138h-73.151954a36.415977 36.415977 0 0 1-36.543977-36.863976c0-20.735987 16.06399-36.927977 36.543977-36.927977H767.99952c20.479987 0 36.543977 16.19199 36.543977 36.927977a36.415977 36.415977 0 0 1-36.543977 36.863976z m0-147.647907h-73.151954a36.415977 36.415977 0 0 1-36.543977-36.927977c0-20.671987 16.06399-36.927977 36.543977-36.927977H767.99952c20.479987 0 36.543977 16.25599 36.543977 36.927977a36.415977 36.415977 0 0 1-36.543977 36.927977z m146.303909-221.567862H109.695931a36.415977 36.415977 0 0 1-36.543977-36.927977c0-20.671987 16.06399-36.927977 36.543977-36.927977h804.607498c20.479987 0 36.543977 16.25599 36.543977 36.927977a36.415977 36.415977 0 0 1-36.543977 36.927977z" fill="#C2C2C2" p-id="9386"></path><path d="M703.99956 704.0002m-255.99984 0a255.99984 255.99984 0 1 0 511.99968 0 255.99984 255.99984 0 1 0-511.99968 0Z" fill="#FFFFFF" p-id="9387"></path><path d="M703.48756 384.3204A319.9998 319.9998 0 0 0 384.44776 703.3602c0 175.42389 143.55191 318.975801 319.0398 318.975801 175.48789 0 319.039801-143.55191 319.039801-318.975801A319.9998 319.9998 0 0 0 703.48756 384.3204M448.31972 703.3602a255.99984 255.99984 0 0 1 255.16784-255.23184 251.519843 251.519843 0 0 1 156.351903 54.271966L502.527686 859.648103a251.583843 251.583843 0 0 1-54.207966-156.287903m255.16784 255.231841A251.391843 251.391843 0 0 1 547.199658 904.320075l357.311777-357.311777c35.071978 44.671972 54.207966 98.943938 54.207966 156.351902a255.99984 255.99984 0 0 1-255.231841 255.231841" fill="#EA4651" p-id="9388"></path></svg>