<?xml version="1.0" encoding="UTF-8"?>
<svg width="10px" height="12px" viewBox="0 0 10 12" version="1.1" xmlns="http://www.w3.org/2000/svg" xmlns:xlink="http://www.w3.org/1999/xlink">
    <title>恩施/icon/操作图标/保存</title>
    <g id="web-通知公告" stroke="none" stroke-width="1" fill="none" fill-rule="evenodd">
        <g id="党建管理-资讯管理" transform="translate(-1826.000000, -515.000000)" fill="#FF505C">
            <g id="编组-9" transform="translate(1719.000000, 513.000000)">
                <g id="操作图标备份-5" transform="translate(104.000000, 0.000000)">
                    <g id="恩施/icon/操作图标/保存" transform="translate(2.909091, 2.909091)">
                        <path d="M8.37697266,1.46835213 C8.59035341,1.46835213 8.76639253,1.50705156 8.90509002,1.5844504 C9.04378751,1.66184925 9.15403423,1.75859781 9.23583018,1.87469608 C9.31762614,1.99079434 9.37452767,2.11656747 9.40653479,2.25201545 C9.4385419,2.38746343 9.45454545,2.51323655 9.45454545,2.62933482 C9.45454545,2.68351402 9.45276728,2.72608338 9.44921094,2.75704292 C9.44565459,2.78800246 9.44387642,2.81509205 9.44387642,2.83831171 L9.44387642,2.90797067 L8.73971994,2.90797067 L8.73971994,9.00312979 C8.73971994,9.15792748 8.71126917,9.30692026 8.65436764,9.45010812 C8.5974661,9.59329599 8.51567015,9.71906911 8.40897977,9.82742749 C8.3022894,9.93578588 8.17248277,10.0228596 8.0195599,10.0886486 C7.86663703,10.1544376 7.69059791,10.1873321 7.49144254,10.1873321 L2.73305179,10.1873321 C2.5481218,10.1873321 2.37386086,10.1563726 2.21026895,10.0944535 C2.04667704,10.0325344 1.90620138,9.94546073 1.78884196,9.83323241 C1.67148255,9.72100408 1.57901756,9.5855561 1.51144699,9.42688847 C1.44387642,9.26822083 1.41009113,9.08826852 1.41009113,8.88703152 L1.41009113,2.90797067 L0.748610802,2.90797067 C0.741498111,2.90023078 0.737941765,2.88088107 0.737941765,2.84992153 C0.730829073,2.81122211 0.727272727,2.6912539 0.727272727,2.4900169 C0.727272727,2.3893984 0.748610802,2.27717007 0.791286953,2.15333192 C0.833963103,2.02949377 0.897977328,1.91533047 0.983329629,1.81084203 C1.06868193,1.70635359 1.17892865,1.61927988 1.31406979,1.54962092 C1.44921094,1.47996196 1.6092465,1.44513248 1.79417648,1.44513248 L2.74372083,1.44513248 L2.74372083,0.73693304 C2.74372083,0.535696041 2.80773505,0.363483609 2.9357635,0.220295744 C3.06379195,0.0771078788 3.22027117,0.00551394628 3.40520116,0.00551394628 L6.74460991,0.00551394628 C6.99355412,0.00551394628 7.1660369,0.0771078788 7.26205824,0.220295744 C7.35807957,0.363483609 7.40609024,0.535696041 7.40609024,0.73693304 L7.40609024,1.45674231 C7.55545677,1.46448219 7.71549233,1.46835213 7.88619693,1.46835213 L8.37697266,1.46835213 Z M3.40520116,1.46835213 L6.74460991,1.46835213 L6.74460991,0.73693304 L3.40520116,0.73693304 L3.40520116,1.46835213 Z M3.07446099,8.81737256 C3.30206713,8.81737256 3.41587019,8.65870492 3.41587019,8.34136965 L3.41587019,2.95440998 L2.75438986,2.95440998 L2.75438986,8.34136965 C2.75438986,8.50390723 2.77750611,8.62387544 2.82373861,8.70127429 C2.8699711,8.77867313 2.95354523,8.81737256 3.07446099,8.81737256 L3.07446099,8.81737256 Z M5.09090909,8.80576273 C5.21182485,8.80576273 5.2936208,8.76899828 5.33629695,8.69546937 C5.37897311,8.62194047 5.40031118,8.50390723 5.40031118,8.34136965 L5.40031118,2.95440998 L4.73883085,2.95440998 L4.73883085,8.34136965 C4.73883085,8.65096504 4.85619026,8.80576273 5.09090909,8.80576273 L5.09090909,8.80576273 Z M7.09668815,8.78254307 C7.2247166,8.78254307 7.3100689,8.74577862 7.35274505,8.67224972 C7.3954212,8.59872082 7.41675928,8.48068758 7.41675928,8.31815 L7.41675928,2.95440998 L6.74460991,2.95440998 L6.74460991,8.31815 C6.74460991,8.62774538 6.86196933,8.78254307 7.09668815,8.78254307 L7.09668815,8.78254307 Z" id="恩施/形状"></path>
                    </g>
                </g>
            </g>
        </g>
    </g>
</svg>