<?xml version="1.0" encoding="UTF-8"?>
<svg width="12px" height="12px" viewBox="0 0 12 12" version="1.1" xmlns="http://www.w3.org/2000/svg" xmlns:xlink="http://www.w3.org/1999/xlink">
    <title>下架</title>
    <g id="web-通知公告" stroke="none" stroke-width="1" fill="none" fill-rule="evenodd">
        <g id="党建管理-资讯管理" transform="translate(-1747.000000, -515.000000)" fill="#1E81F1">
            <g id="编组-9" transform="translate(1719.000000, 513.000000)">
                <g id="操作图标备份-5" transform="translate(26.000000, 0.000000)">
                    <g id="恩施/icon/操作图标/保存" transform="translate(2.909091, 2.909091)">
                        <path d="M8.72333618,3.11804574 C8.8430261,3.11804574 8.9518859,3.1852967 9.00249875,3.29053098 L9.00249875,3.29053098 L10.1507743,5.6636977 L10.1507743,5.6636977 L10.1605409,5.68546988 L10.1605409,5.68546988 L10.1697262,5.71176852 L10.1697262,5.71176852 L10.1763535,5.73882862 L10.1763535,5.73882862 C10.1777488,5.74616121 10.1784464,5.75101201 10.179144,5.7558628 L10.179144,5.7558628 L10.1797253,5.75992393 L10.1810043,5.77379946 L10.1818182,9.39903528 C10.1818182,9.83132006 9.82056949,10.1818182 9.37502556,10.1818182 L9.37502556,10.1818182 L0.933409877,10.1818182 C0.417871836,10.1818182 0,9.77638199 0,9.27618608 L0,9.27618608 L0.000813885045,5.77379946 C0.00116269292,5.76917429 0.0015115008,5.76454911 0.00209284726,5.76003674 L0.00209284726,5.76003674 L0.00267419372,5.7558628 L0.00499957956,5.74153604 C0.00511584885,5.74063356 0.00523211815,5.73973109 0.00546465673,5.73882862 C0.00906900479,5.72055353 0.0143011229,5.70284249 0.0211610112,5.68592111 L0.0211610112,5.68592111 L0.031043901,5.6636977 L1.14827553,3.32505059 C1.19885267,3.21979962 1.307797,3.15256535 1.4274381,3.15256535 L1.4274381,3.15256535 L2.9287072,3.15256535 C2.99788743,3.15256535 3.05392923,3.20693938 3.05392923,3.27406084 L3.05392923,3.27406084 L3.05392923,3.62895852 C3.05392923,3.69607998 2.99788743,3.75045401 2.9287072,3.75045401 L2.9287072,3.75045401 L1.6235844,3.75045401 L0.792026418,5.49572483 L2.58071321,5.49572483 C2.69729415,5.49570788 2.80389899,5.5595399 2.85615516,5.66065186 L2.85615516,5.66065186 L3.5769085,7.05474771 L6.59177125,7.05474771 L7.31252459,5.66065186 C7.3648286,5.5595824 7.47140331,5.49576842 7.58796654,5.49572483 L7.58796654,5.49572483 L9.38967549,5.49572483 L8.52707362,3.7159344 L7.21241673,3.7159344 C7.1432365,3.7159344 7.0871947,3.66156037 7.0871947,3.59443891 L7.0871947,3.59443891 L7.0871947,3.23954123 C7.0871947,3.17241977 7.1432365,3.11804574 7.21241673,3.11804574 L7.21241673,3.11804574 Z M5.27595167,1.46953157e-14 C5.34385294,1.46953157e-14 5.39896458,0.0534715514 5.39896458,0.119352113 L5.39896458,4.66614727 L6.45620125,3.6403734 C6.57653997,3.5236159 6.77163984,3.5236159 6.89197856,3.6403734 C7.01231728,3.7571309 7.01231728,3.9464247 6.89197856,4.06318221 L5.39419754,5.51639007 C5.22676976,5.67883529 4.95528096,5.67883529 4.78773691,5.51639007 L3.28983962,4.0630694 C3.1695009,3.9463119 3.1695009,3.75701809 3.28983962,3.6403734 C3.41017834,3.5236159 3.60527821,3.5236159 3.72561693,3.6403734 L4.7828536,4.66614727 L4.7828536,0.119352113 C4.7828536,0.0534715514 4.83796525,1.46953157e-14 4.90586651,1.46953157e-14 L5.27595167,1.46953157e-14 Z" id="形状结合"></path>
                    </g>
                </g>
            </g>
        </g>
    </g>
</svg>