<?xml version="1.0" standalone="no"?><!DOCTYPE svg PUBLIC "-//W3C//DTD SVG 1.1//EN" "http://www.w3.org/Graphics/SVG/1.1/DTD/svg11.dtd"><svg t="1603070220279" class="icon" viewBox="0 0 1024 1024" version="1.1" xmlns="http://www.w3.org/2000/svg" p-id="8531" xmlns:xlink="http://www.w3.org/1999/xlink" width="200" height="200"><defs><style type="text/css"></style></defs><path d="M481.28 55.881143h2.194286-2.194286z" fill="#C1C5C9" p-id="8532"></path><path d="M973.531429 5.558857c32.914286-16.091429 54.125714 4.022857 49.956571 45.275429l-1.243429 8.484571L871.570286 804.571429c-7.753143 44.324571-68.169143 76.873143-103.862857 69.412571l-6.363429-1.901714L512 768l-82.651429 235.739429c-25.161143 31.744-54.345143 25.307429-67.803428-13.165715l-2.413714-8.118857-91.867429-348.086857L41.398857 549.010286c-51.053714-19.309714-55.076571-53.906286-10.971428-79.506286l8.265142-4.388571L973.531429 5.485714zM972.068571 73.142857L365.714286 633.124571l33.645714 243.858286 37.888-188.781714L971.995429 73.142857z" fill="#C1C5C9" p-id="8533"></path></svg>