<?xml version="1.0" encoding="UTF-8"?>
<svg width="14px" height="14px" viewBox="0 0 14 14" version="1.1" xmlns="http://www.w3.org/2000/svg" xmlns:xlink="http://www.w3.org/1999/xlink">
    <title>修改</title>
    <g id="web-通知公告" stroke="none" stroke-width="1" fill="none" fill-rule="evenodd">
        <g id="党建管理-模块管理-新模块" transform="translate(-465.000000, -499.000000)" fill="#FFFFFF" fill-rule="nonzero">
            <g id="list备份-7" transform="translate(235.000000, 486.000000)">
                <g id="+备份-4" transform="translate(230.000000, 13.000000)">
                    <path d="M8.5,0 C8.77614237,-5.07265313e-17 9,0.223857625 9,0.5 C9,0.776142375 8.77614237,1 8.5,1 L1,1 L1,13 L13,13 L13,5.5 C13,5.22385763 13.2238576,5 13.5,5 C13.7761424,5 14,5.22385763 14,5.5 L14,13.5 C14,13.7454599 13.8231248,13.9496084 13.5898756,13.9919443 L13.5,14 L0.5,14 C0.223857625,14 3.38176876e-17,13.7761424 0,13.5 L0,0.5 C-3.38176876e-17,0.223857625 0.223857625,5.07265313e-17 0.5,0 L8.5,0 Z M10.1874165,1.76009771 L12.2454943,3.81568724 L6.04928877,10 L4,10 L4,7.93563839 L10.1874165,1.76009771 Z M12.6762067,0.138084054 L12.7655068,0.214750526 L13.795278,1.24254529 L13.7850243,1.24254529 C14.0460293,1.50570754 14.0673358,1.90661311 13.8555471,2.188229 L13.7850243,2.26887805 L13.2752655,2.78643046 L11.215723,0.722068854 L11.7357355,0.213288514 L11.7415948,0.207440464 C11.9986714,-0.0438794801 12.3945694,-0.0666430143 12.6762067,0.138084054 Z" id="恩施/形状结合"></path>
                </g>
            </g>
        </g>
    </g>
</svg>