<?xml version="1.0" encoding="UTF-8"?>
<svg width="16px" height="16px" viewBox="0 0 16 16" version="1.1" xmlns="http://www.w3.org/2000/svg" xmlns:xlink="http://www.w3.org/1999/xlink">
    <title>恩施/icon/科室</title>
    <g id="恩施/icon/科室" stroke="none" stroke-width="1" fill="none" fill-rule="evenodd">
        <path d="M15.1758982,15.9743014 L11.1838822,15.9743014 C10.7429363,15.9743014 10.385479,15.6168441 10.385479,15.1758982 L10.385479,10.385479 C10.385479,9.94453313 10.0280218,9.58707584 9.58707584,9.58707584 L3.59905189,9.58707584 C3.15810599,9.58707585 2.80064871,9.94453314 2.80064871,10.385479 L2.80064871,15.1758982 C2.80064871,15.6168441 2.44319142,15.9743014 2.00224551,15.9743014 L0.804640719,15.9743014 C0.363694807,15.9743014 0.00623751871,15.6168441 0.00623751871,15.1758982 L0.00623751871,8.38947105 C0.00623751871,7.96597167 0.174471996,7.55981771 0.473931286,7.26035842 C0.773390576,6.96089914 1.17954453,6.79266467 1.60304392,6.79266467 L3.9982535,6.79266467 L3.9982535,5.59505988 L0.804640719,5.59505988 C0.592891024,5.59505988 0.389814046,5.51094264 0.240084402,5.361213 C0.0903547572,5.21148335 0.00623751871,5.00840637 0.00623751871,4.79665668 L0.00623751871,0.804640719 C0.00623751871,0.363694807 0.363694807,0.00623751871 0.804640719,0.00623751871 L7.99026946,0.00623751871 C8.43121537,0.00623751871 8.78867266,0.363694807 8.78867266,0.804640719 L8.78867266,4.79665668 C8.78867266,5.00840637 8.70455542,5.21148335 8.55482578,5.361213 C8.40509613,5.51094264 8.20201916,5.59505988 7.99026946,5.59505988 L5.19585829,5.59505988 L5.19585829,6.79266467 L10.7846806,6.79266467 L10.7846806,4.99625749 C10.7846806,4.66554805 11.0527736,4.39745509 11.383483,4.39745509 C11.7141925,4.39745509 11.9822854,4.66554805 11.9822854,4.99625749 L11.9822854,6.79266467 L13.1798902,6.79266467 L13.1798902,3.3994511 C13.1798902,3.06874167 13.4479832,2.80064871 13.7786926,2.80064871 C14.109402,2.80064871 14.377495,3.06874167 14.377495,3.3994511 L14.377495,6.79266467 C14.8009944,6.79266467 15.2071483,6.96089914 15.5066076,7.26035842 C15.8060669,7.55981771 15.9743014,7.96597167 15.9743014,8.38947105 L15.9743014,15.1758982 C15.9743014,15.6168441 15.6168441,15.9743014 15.1758982,15.9743014 Z M7.59106787,4.79665668 C7.81154082,4.79665668 7.99026946,4.61792804 7.99026946,4.39745509 L7.99026946,1.20384231 C7.99026946,1.09796746 7.94821084,0.996428978 7.87334602,0.921564157 C7.7984812,0.846699337 7.69694272,0.804640719 7.59106787,0.804640719 L1.20384231,0.804640719 C1.09796746,0.804640719 0.996428978,0.846699337 0.921564157,0.921564157 C0.846699337,0.996428978 0.804640719,1.09796746 0.804640719,1.20384231 L0.804640719,4.39745509 C0.804640719,4.50332993 0.846699337,4.60486842 0.921564157,4.67973324 C0.996428978,4.75459806 1.09796746,4.79665668 1.20384231,4.79665668 L7.59106787,4.79665668 L7.59106787,4.79665668 Z M1.60304392,2.00224551 C1.60304392,1.78177256 1.78177256,1.60304392 2.00224551,1.60304392 L6.79266467,1.60304392 C7.01313762,1.60304392 7.19186626,1.78177256 7.19186626,2.00224551 L7.19186626,3.59905189 C7.19186626,3.70492674 7.14980765,3.80646523 7.07494283,3.88133005 C7.00007801,3.95619488 6.89853952,3.9982535 6.79266467,3.9982535 L2.00224551,3.9982535 C1.89637066,3.9982535 1.79483217,3.95619488 1.71996735,3.88133005 C1.64510253,3.80646523 1.60304392,3.70492674 1.60304392,3.59905189 L1.60304392,2.00224551 Z" id="恩施/形状" fill="#1E81F1"></path>
    </g>
</svg>