<?xml version="1.0" standalone="no"?><!DOCTYPE svg PUBLIC "-//W3C//DTD SVG 1.1//EN" "http://www.w3.org/Graphics/SVG/1.1/DTD/svg11.dtd"><svg t="1589950174603" class="icon" viewBox="0 0 1024 1024" version="1.1" xmlns="http://www.w3.org/2000/svg" p-id="9212" xmlns:xlink="http://www.w3.org/1999/xlink" width="200" height="200"><defs><style type="text/css"></style></defs><path d="M511.049143 146.285714c188.562286 0 357.449143 96.036571 472.502857 247.808 51.053714 66.925714 51.053714 166.253714 0 233.179429-115.785143 151.698286-283.940571 247.808-472.502857 247.808-187.977143 0-356.790857-96.109714-472.502857-247.808-51.126857-66.925714-51.126857-166.253714 0-233.179429C154.258286 242.322286 322.413714 146.285714 511.049143 146.285714z m0.658286 125.586286c-133.851429 0-243.346286 106.496-243.346286 238.811429 0 132.242286 109.421714 238.738286 243.346286 238.738285 133.851429 0 243.346286-106.496 243.346285-238.738285 0-132.315429-109.421714-238.811429-243.346285-238.811429z m0 73.142857c93.988571 0 170.203429 74.24 170.203428 165.668572 0 91.428571-76.214857 165.595429-170.203428 165.595428S341.504 602.112 341.504 510.683429c0-91.428571 76.214857-165.668571 170.203429-165.668572z" fill="#1e81f1" p-id="9213"></path></svg>