<?xml version="1.0" standalone="no"?><!DOCTYPE svg PUBLIC "-//W3C//DTD SVG 1.1//EN" "http://www.w3.org/Graphics/SVG/1.1/DTD/svg11.dtd"><svg t="1576574631071" class="icon" viewBox="0 0 1027 1024" version="1.1" xmlns="http://www.w3.org/2000/svg" p-id="2833" xmlns:xlink="http://www.w3.org/1999/xlink" width="200.5859375" height="200"><defs><style type="text/css"></style></defs><path d="M359.529031 24.618796a509.472712 509.472712 0 1 1 300.033363 973.830918A509.472712 509.472712 0 0 1 359.529031 24.618796zM456.912122 266.981513l-127.021424 127.021424-1.022011 1.095012-0.511006 0.511006-0.511006 0.657008-0.584006 0.730008-0.365004 0.438005-0.292003 0.438005-1.168014 1.679018-0.292003 0.438005a38.39843 38.39843 0 0 0-0.438005 0.87601l-0.292003 0.511006-0.219002 0.438005-0.511006 0.94901-0.657008 1.460017-0.146001 0.365004-0.365004 1.095012-0.219003 0.584007-0.292003 0.94901-0.146002 0.511006a41.975471 41.975471 0 0 0-0.292003 1.022011l-0.073001 0.438005-0.219002 1.022012-0.146002 0.511006-0.146001 0.94901v0.584007c-0.146002 0.219002-0.146002 0.657007-0.146002 1.022011l-0.073001 0.730008-0.073001 0.803009v3.50404c0.146002 0.730008 0 0.949011 0.146002 1.168013l0.073001 1.022011 0.073001 0.584007 0.146001 0.94901 0.146002 0.511006c0 0.365004 0.146002 0.730008 0.219002 1.022012l0.073001 0.511005a21.243238 21.243238 0 0 0 0.292003 0.949011l0.146002 0.511006 0.292003 0.94901 0.219003 0.584007 0.292003 0.730008 0.219002 0.730008 0.292004 0.730008 0.365004 0.730009 0.730008 1.387015 0.292003 0.511006a38.39843 38.39843 0 0 0 0.438005 0.87601l0.292003 0.438005 0.87601 1.314014a15.330172 15.330172 0 0 0 0.584007 0.730009l0.365004 0.511005 0.584006 0.730008 0.511006 0.657008 0.511006 0.511006 1.095012 1.168013 126.948423 127.021424a31.755356 31.755356 0 1 0 44.895504-44.968504l-72.781816-72.781816h145.563632a127.021424 127.021424 0 1 1 0 253.969847H415.885662a31.755356 31.755356 0 1 0 0 63.510712H574.516441a190.678138 190.678138 0 0 0 190.459135-190.532136A190.678138 190.678138 0 0 0 574.516441 384.658832H429.02581l72.781816-72.781816a31.755356 31.755356 0 0 0-44.895504-44.895503z" fill="#20B86B" p-id="2834"></path></svg>