<?xml version="1.0" encoding="UTF-8"?>
<svg width="20px" height="20px" viewBox="0 0 20 20" version="1.1" xmlns="http://www.w3.org/2000/svg" xmlns:xlink="http://www.w3.org/1999/xlink">
    <title>恩施/头条</title>
    <g id="恩施/头条" stroke="none" stroke-width="1" fill="none" fill-rule="evenodd">
        <g id="恩施/编组" fill-rule="nonzero">
            <path d="M2,20 C1.59302326,20 1.19767442,19.8902907 0.860465116,19.6599013 C0.325581395,19.3088316 0,18.7273725 0,18.1130005 L0,1.88699945 C0,0.844761382 0.895348837,-2.66453526e-14 2,-2.66453526e-14 L18,-2.66453526e-14 C19.1046512,-2.66453526e-14 20,0.844761382 20,1.88699945 L20,18.1130005 C20,18.7273725 19.6744186,19.3088316 19.1395349,19.6599013 C18.6046512,20.0109709 17.9186047,20.0877674 17.3023256,19.8793198 L10.2093023,17.3669775 C10.0697674,17.3230938 9.91860465,17.3230938 9.79069767,17.3669775 L2.69767442,19.8793198 C2.47674419,19.9670872 2.23255814,20 2,20 Z" id="路径" fill="#EB1524"></path>
            <polygon id="星形" fill="#FEDB1E" points="10 12.3834339 6.32634217 14.205668 7.02794839 10.3461143 4.05589677 7.6127632 8.16317109 7.04966191 10 3.53812397 11.8368289 7.04966191 15.9441032 7.6127632 12.9720516 10.3461143 13.6736578 14.205668"></polygon>
        </g>
    </g>
</svg>