<?xml version="1.0" encoding="UTF-8"?>
<svg width="12px" height="12px" viewBox="0 0 12 12" version="1.1" xmlns="http://www.w3.org/2000/svg" xmlns:xlink="http://www.w3.org/1999/xlink">
    <title>恩施/icon/操作图标/保存</title>
    <g id="web-通知公告" stroke="none" stroke-width="1" fill="none" fill-rule="evenodd">
        <g id="党建管理-模块管理-固定板块" transform="translate(-1786.000000, -341.000000)" fill="#1E81F1">
            <g id="编组-9" transform="translate(1732.000000, 339.000000)">
                <g id="操作图标备份-5" transform="translate(52.000000, 0.000000)">
                    <g id="恩施/icon/操作图标/保存" transform="translate(2.909091, 2.909091)">
                        <path d="M9.06181818,0 C9.6803771,7.63109337e-16 10.1818182,0.501441082 10.1818182,1.12 L10.1818182,9.06181818 C10.1818182,9.6803771 9.6803771,10.1818182 9.06181818,10.1818182 L1.12,10.1818182 C0.501441082,10.1818182 9.52488388e-16,9.6803771 0,9.06181818 L0,1.12 C-2.97796225e-16,0.501441082 0.501441082,-1.08417174e-16 1.12,0 L9.06181818,0 Z M6.68175749,2.00734379 L2.18181818,6.4986461 L2.18181818,8 L3.67221001,8 L8.17854128,3.502318 L6.68175749,2.00734379 Z M8.48416286,0.822258612 C8.27986567,0.679239188 7.99672555,0.697616898 7.81206895,0.878138519 L7.81206895,0.878138519 L7.80780764,0.882391646 L7.42961672,1.25241371 L8.92746583,2.75376761 L9.29819947,2.37736585 L9.35950616,2.30493142 C9.50274217,2.10099135 9.48380303,1.81807963 9.29819947,1.63094203 L9.29819947,1.63094203 L9.30565676,1.63094203 L8.5567322,0.883454928 Z" id="形状结合"></path>
                    </g>
                </g>
            </g>
        </g>
    </g>
</svg>