<?xml version="1.0" encoding="UTF-8"?>
<svg width="14px" height="14px" viewBox="0 0 14 14" version="1.1" xmlns="http://www.w3.org/2000/svg" xmlns:xlink="http://www.w3.org/1999/xlink">
    <title>上架</title>
    <g id="web-通知公告" stroke="none" stroke-width="1" fill="none" fill-rule="evenodd">
        <g id="党建管理-新建编辑" transform="translate(-1685.000000, -147.000000)" fill="#1E81F1">
            <g id="按钮/主按钮/有图标-36" transform="translate(1665.000000, 136.000000)">
                <g id="恩施/icon/操作图标/保存" transform="translate(20.000000, 11.000000)">
                    <path d="M11.9945872,4.2873129 C12.1591609,4.2873129 12.3088431,4.37978296 12.3784358,4.5244801 L12.3784358,4.5244801 L13.9573146,7.78758434 C13.9621107,7.79735644 13.9665871,7.80728365 13.9707437,7.81752108 L13.9707437,7.81752108 L13.9833735,7.85368171 L13.9833735,7.85368171 L13.9924861,7.89088935 C13.992646,7.89197514 13.9929657,7.89321604 13.9931256,7.89445694 C13.9944045,7.90097167 13.9953638,7.90764151 13.996323,7.91431136 C13.9966427,7.91617271 13.9969625,7.91803406 13.9971223,7.91989541 C13.9979217,7.92625503 13.9984013,7.93261464 13.9988809,7.93897426 L13.9988809,7.93897426 C13.9998401,7.95184861 14,7.95960424 14,7.96735987 L14,7.96735987 L14,12.9236735 C14,13.5180651 13.5032831,14 12.8906602,14 L12.8906602,14 L1.28343858,14 C0.574573774,14 0,13.4425252 0,12.7547559 L0,12.7547559 L0.000639481107,7.9444032 C0.00159870277,7.93261464 0.0020783136,7.92625503 0.00287766498,7.92005052 C0.00319740553,7.91818917 0.00335727581,7.91617271 0.00367701636,7.91431136 C0.00463623802,7.90764151 0.00559545968,7.90112678 0.0068744219,7.89461205 C0.00703429217,7.89337115 0.00719416245,7.89213025 0.007513903,7.89088935 C0.0124698816,7.8657611 0.019664044,7.84140842 0.0290963904,7.81814153 C0.0290963904,7.8178313 0.0292562606,7.81752108 0.0294161309,7.81721085 L0.0357509906,7.8022231 L0.0357509906,7.8022231 L0.0426853639,7.78758434 L1.57887885,4.57194456 C1.64842242,4.42722448 1.79822087,4.33477736 1.96272739,4.33477736 L1.96272739,4.33477736 L4.0269724,4.33477736 C4.12209521,4.33477736 4.19915269,4.40954164 4.19915269,4.50183365 L4.19915269,4.50183365 L4.19915269,4.98981796 C4.19915269,5.08210997 4.12209521,5.15687426 4.0269724,5.15687426 L4.0269724,5.15687426 L2.23242854,5.15687426 L1.08903632,7.55662165 L3.54848066,7.55662165 C3.70877946,7.55659833 3.85536111,7.64436736 3.92721335,7.7833963 L3.92721335,7.7833963 L4.91824919,9.70027809 L9.06368547,9.70027809 L10.0547213,7.7833963 C10.1266393,7.6444258 10.2731795,7.55668158 10.433454,7.55662165 L10.433454,7.55662165 L12.9108038,7.55662165 L11.7247262,5.1094098 L9.917073,5.1094098 C9.82195019,5.1094098 9.74489272,5.03464551 9.74489272,4.9423535 L9.74489272,4.9423535 L9.74489272,4.45436919 C9.74489272,4.36207718 9.82195019,4.2873129 9.917073,4.2873129 L9.917073,4.2873129 Z M6.58313825,0.167521633 C6.81351132,-0.0558405442 7.18680842,-0.0558405442 7.41702162,0.167521633 L7.41702162,0.167521633 L9.47647052,2.16568244 C9.64193626,2.326224 9.64193626,2.58650299 9.47647052,2.74704455 C9.31100478,2.90758612 9.04274246,2.90758612 8.87727672,2.74704455 L8.87727672,2.74704455 L7.4235763,1.33660547 L7.4235763,6.71344882 C7.4235763,6.80403459 7.34779779,6.87755797 7.25443355,6.87755797 L7.25443355,6.87755797 L6.74556645,6.87755797 C6.65220221,6.87755797 6.5764237,6.80403459 6.5764237,6.71344882 L6.5764237,6.71344882 L6.5764237,1.33660547 L5.12272328,2.74704455 C4.95725754,2.90758612 4.68899522,2.90758612 4.52352948,2.74704455 C4.35806374,2.5866581 4.35806374,2.32637912 4.52352948,2.16583755 L4.52352948,2.16583755 Z" id="形状结合"></path>
                </g>
            </g>
        </g>
    </g>
</svg>