<?xml version="1.0" standalone="no"?><!DOCTYPE svg PUBLIC "-//W3C//DTD SVG 1.1//EN" "http://www.w3.org/Graphics/SVG/1.1/DTD/svg11.dtd"><svg t="1602574103741" class="icon" viewBox="0 0 1024 1024" version="1.1" xmlns="http://www.w3.org/2000/svg" p-id="18653" xmlns:xlink="http://www.w3.org/1999/xlink" width="200" height="200"><defs><style type="text/css"></style></defs><path d="M1018.294857 339.163429l0.146286-16.457143v-0.585143a630.125714 630.125714 0 0 0-6.144-32.329143c-2.194286-8.338286-17.846857-29.769143-17.846857-29.769143l-7.460572-8.045714L784.896 37.961143l-5.778286-5.997714C742.692571-2.121143 696.539429 0.877714 696.539429 0.877714L689.737143 0.365714H183.222857A183.442286 183.442286 0 0 0 0 183.808v653.750857a183.588571 183.588571 0 0 0 183.222857 183.588572h652.141714a183.588571 183.588571 0 0 0 183.149715-183.588572V339.163429h-0.219429zM182.272 98.157714h503.588571v96.329143c0 57.782857-46.957714 104.886857-104.594285 104.886857H286.939429c-57.709714 0-104.667429-47.104-104.667429-104.886857V98.157714z m653.824 825.782857H482.230857V673.645714H293.229714v250.294857H182.345143V633.709714c0-46.957714 38.180571-85.211429 84.992-85.211428h483.474286c46.811429 0 84.992 38.253714 84.992 85.211428v290.230857h0.292571z" fill="#1E81F1" p-id="18654"></path></svg>