<?xml version="1.0" encoding="UTF-8"?>
<svg width="16px" height="16px" viewBox="0 0 16 16" version="1.1" xmlns="http://www.w3.org/2000/svg" xmlns:xlink="http://www.w3.org/1999/xlink">
    <title>恩施/icon/动态</title>
    <g id="恩施/icon/动态" stroke="none" stroke-width="1" fill="none" fill-rule="evenodd">
        <path d="M16,8 C16,4.13405041 12.4184,1 8,1 C3.5816,1 0,4.13405041 0,8 C0,10.0046748 0.9648,11.8114097 2.50826667,13.0873779 C2.23695907,13.4264325 1.93884901,13.7432464 1.6168,14.0347763 C1.2776,14.3415302 1.46506667,14.9090114 1.92053333,14.9550378 C2.188,14.9821748 2.45973333,14.9960093 2.7344,14.9960093 C4.29466667,14.9960093 7.98533333,15 8,15 L8.00053333,15 C12.4186667,14.9997339 16,11.8659496 16,8 Z M8,7.20185474 C8.4418278,7.20185474 8.8,7.55919654 8.8,8 C8.8,8.44080346 8.4418278,8.79814526 8,8.79814526 C7.55817221,8.79814526 7.20000003,8.44080344 7.20000003,8 C7.20000003,7.55919656 7.55817221,7.20185474 8,7.20185474 Z M3.7168,7.20185474 C4.1586278,7.20185474 4.5168,7.55919654 4.5168,8 C4.5168,8.44080346 4.1586278,8.79814526 3.7168,8.79814526 C3.27497221,8.79814526 2.91680003,8.44080344 2.91680003,8 C2.91680003,7.55919656 3.27497221,7.20185474 3.7168,7.20185474 Z M12.2832,8.79814526 C11.9973875,8.79814526 11.7332859,8.64601965 11.5903796,8.39907264 C11.4474734,8.15212563 11.4474734,7.84787437 11.5903796,7.60092736 C11.7332859,7.35398035 11.9973875,7.20185474 12.2832,7.20185474 C12.7250278,7.20185474 13.0832,7.55919654 13.0832,8 C13.0832,8.44080346 12.7250278,8.79814526 12.2832,8.79814526 Z" id="恩施/形状" fill="#FFFFFF" fill-rule="nonzero"></path>
    </g>
</svg>