<?xml version="1.0" standalone="no"?><!DOCTYPE svg PUBLIC "-//W3C//DTD SVG 1.1//EN" "http://www.w3.org/Graphics/SVG/1.1/DTD/svg11.dtd"><svg t="1590630424525" class="icon" viewBox="0 0 1024 1024" version="1.1" xmlns="http://www.w3.org/2000/svg" p-id="22567" xmlns:xlink="http://www.w3.org/1999/xlink" width="200" height="200"><defs><style type="text/css"></style></defs><path d="M955.733333 0c34.645333 0 63.488 26.197333 67.754667 59.733333L1024 68.266667v887.466666a68.522667 68.522667 0 0 1-59.733333 67.754667l-8.533334 0.512H68.266667a68.522667 68.522667 0 0 1-67.754667-59.733333L0 955.733333V68.266667C0 33.621333 26.197333 4.778667 59.733333 0.512L68.266667 0h887.466666zM518.058667 170.666667H506.026667a42.666667 42.666667 0 0 0-42.666667 42.666666l-0.085333 249.856H213.333333a42.666667 42.666667 0 0 0-42.666666 42.666667v12.202667a42.666667 42.666667 0 0 0 42.666666 42.666666h249.856V810.666667a42.666667 42.666667 0 0 0 42.666667 42.666666h12.202667a42.666667 42.666667 0 0 0 42.666666-42.666666V560.725333H810.666667a42.666667 42.666667 0 0 0 42.666666-42.666666V506.026667a42.666667 42.666667 0 0 0-42.666666-42.666667l-249.941334-0.085333V213.333333a42.666667 42.666667 0 0 0-42.666666-42.666666z" fill="#1E81F1" p-id="22568"></path></svg>