<?xml version="1.0" standalone="no"?><!DOCTYPE svg PUBLIC "-//W3C//DTD SVG 1.1//EN" "http://www.w3.org/Graphics/SVG/1.1/DTD/svg11.dtd"><svg t="1594735075764" class="icon" viewBox="0 0 1024 1024" version="1.1" xmlns="http://www.w3.org/2000/svg" p-id="17681" xmlns:xlink="http://www.w3.org/1999/xlink" width="200" height="200"><defs><style type="text/css"></style></defs><path d="M914.286 0a109.714 109.714 0 0 1 109.202 99.182l0.512 10.532v804.572a109.714 109.714 0 0 1-99.182 109.202l-10.532 0.512H109.714A109.714 109.714 0 0 1 0.512 924.818L0 914.286V109.714A109.714 109.714 0 0 1 99.182 0.512L109.714 0h804.572zM621.714 658.286H256a36.571 36.571 0 0 0 0 73.143h365.714a36.571 36.571 0 0 0 0-73.143zM768 438.857H256A36.571 36.571 0 0 0 256 512h512a36.571 36.571 0 1 0 0-73.143z m0-219.428H256a36.571 36.571 0 0 0 0 73.142h512a36.571 36.571 0 1 0 0-73.142z" fill="#FFFFFF" p-id="17682"></path></svg>