<?xml version="1.0" standalone="no"?><!DOCTYPE svg PUBLIC "-//W3C//DTD SVG 1.1//EN" "http://www.w3.org/Graphics/SVG/1.1/DTD/svg11.dtd"><svg t="1592985531338" class="icon" viewBox="0 0 1024 1024" version="1.1" xmlns="http://www.w3.org/2000/svg" p-id="10126" xmlns:xlink="http://www.w3.org/1999/xlink" width="200" height="200"><defs><style type="text/css"></style></defs><path d="M955.733 0c34.646 0 63.488 26.197 67.755 59.733l0.512 8.534v887.466a68.523 68.523 0 0 1-59.733 67.755l-8.534 0.512H68.267A68.523 68.523 0 0 1 0.512 964.267L0 955.733V68.267C0 33.62 26.197 4.779 59.733 0.512L68.267 0h887.466zM518.06 170.667h-12.032a42.667 42.667 0 0 0-42.667 42.666l-0.085 249.856H213.333a42.667 42.667 0 0 0-42.666 42.667v12.203a42.667 42.667 0 0 0 42.666 42.666H463.19v249.942a42.667 42.667 0 0 0 42.667 42.666h12.203a42.667 42.667 0 0 0 42.666-42.666V560.725h249.942a42.667 42.667 0 0 0 42.666-42.666v-12.032a42.667 42.667 0 0 0-42.666-42.667l-249.942-0.085V213.333a42.667 42.667 0 0 0-42.666-42.666z" fill="#999999" p-id="10127"></path></svg>