<?xml version="1.0" standalone="no"?><!DOCTYPE svg PUBLIC "-//W3C//DTD SVG 1.1//EN" "http://www.w3.org/Graphics/SVG/1.1/DTD/svg11.dtd"><svg t="1617156638746" class="icon" viewBox="0 0 1024 1024" version="1.1" xmlns="http://www.w3.org/2000/svg" p-id="23418" xmlns:xlink="http://www.w3.org/1999/xlink" width="200" height="200"><defs><style type="text/css"></style></defs><path d="M510.537143 285.257143c-25.84381 0-45.83619 20.967619-45.836191 47.299047s19.992381 47.299048 45.836191 47.299048c25.84381 0 45.83619-20.967619 45.83619-47.299048s-19.504762-47.299048-45.83619-47.299047z" p-id="23419" fill="#1e81f1"></path><path d="M852.845714 23.405714h-682.666666c-80.457143 0-146.285714 65.828571-146.285715 146.285715v682.666666c0 80.457143 65.828571 146.285714 146.285715 146.285715h682.666666c80.457143 0 146.285714-65.828571 146.285715-146.285715v-682.666666c0-80.457143-65.828571-146.285714-146.285715-146.285715z m-81.92 751.420953c0 10.727619-8.289524 19.017143-19.017143 19.017143H270.628571c-10.727619 0-19.017143-8.289524-19.017142-19.017143V755.809524c0-30.72 24.868571-56.56381 55.588571-56.56381h5.851429V492.495238c0-10.727619 8.289524-19.017143 19.017142-19.017143H351.085714c10.727619 0 19.017143 8.289524 19.017143 19.017143v207.238095h55.588572V492.495238c0-10.727619 8.289524-19.017143 19.017142-19.017143h19.017143c10.727619 0 19.017143 8.289524 19.017143 19.017143v207.238095h55.588572V492.495238c0-10.727619 8.289524-19.017143 19.017142-19.017143h19.017143c10.727619 0 19.017143 8.289524 19.017143 19.017143v207.238095H648.533333V492.495238c0-10.727619 8.289524-19.017143 19.017143-19.017143h19.017143c10.727619 0 19.017143 8.289524 19.017143 19.017143v207.238095h9.264762c30.72 0 55.588571 25.84381 56.563809 56.56381v18.529524z m0-376.441905c0 10.727619-8.289524 19.017143-19.017143 19.017143H270.628571c-10.727619 0-19.017143-8.289524-19.017142-19.017143V380.342857c0-6.826667 3.413333-13.165714 9.264761-16.579047l228.693334-128.24381c5.851429-4.87619 14.140952-6.826667 20.967619-6.826667s15.11619 2.438095 20.967619 6.826667l228.693333 128.24381c5.851429 3.413333 9.264762 10.727619 10.727619 17.554285v17.066667z" p-id="23420" fill="#1e81f1"></path></svg>