<?xml version="1.0" encoding="UTF-8"?>
<svg width="16px" height="16px" viewBox="0 0 16 16" version="1.1" xmlns="http://www.w3.org/2000/svg" xmlns:xlink="http://www.w3.org/1999/xlink">
    <title></title>
    <g id="恩施/icon/密码" stroke="none" stroke-width="1" fill="none" fill-rule="evenodd">
        <path d="M8.00538462,1.0658141e-14 C10.0241106,1.0658141e-14 11.6800071,1.66911837 11.7815292,3.75954154 L11.7864615,3.96311388 L11.7864615,5.70619773 L12.8461538,5.70619773 C13.9833846,5.70619773 14.9156702,6.64382668 14.9945887,7.83042234 L15,7.99370934 L15,13.7124884 C15,14.9202945 14.1171592,15.9104368 12.9998996,15.9942529 L12.8461538,16 L3.15384615,16 C2.01661538,16 1.08432979,15.062371 1.00541126,13.8757754 L1,13.7124884 L1,7.99370934 C1,6.78590321 1.88284077,5.79576094 3.00010045,5.7119448 L3.15384615,5.70619773 L4.22538462,5.70619773 L4.22538462,3.96311388 C4.22538462,1.77854028 5.92153846,1.0658141e-14 8.00538462,1.0658141e-14 Z M8,8 C7.10830769,8 6.38461538,8.55875 6.38461538,9.25 C6.38461538,9.79375 6.83584615,10.25125 7.46153846,10.42375 L7.46153846,12.375 C7.46153846,12.72 7.70276923,13 8,13 C8.29723077,13 8.53846154,12.72 8.53846154,12.375 L8.53846154,10.42375 C9.16415385,10.25125 9.61538462,9.79375 9.61538462,9.25 C9.61538462,8.56 8.89169231,8 8,8 Z M8.00538462,1.13231825 C6.57219943,1.13231825 5.39566171,2.31064718 5.31047673,3.79101201 L5.30553846,3.96311388 L5.30553846,5.70619773 L10.7063077,5.70619773 L10.7063077,3.96311388 C10.7063077,2.4018872 9.49476923,1.13231825 8.00538462,1.13231825 Z" id="恩施/形状结合" fill="#1E81F1"></path>
    </g>
</svg>