<?xml version="1.0" encoding="UTF-8"?>
<svg width="123px" height="36px" viewBox="0 0 123 36" version="1.1" xmlns="http://www.w3.org/2000/svg" xmlns:xlink="http://www.w3.org/1999/xlink">
    <title>编组 2备份 5</title>
    <g id="web-通知公告" stroke="none" stroke-width="1" fill="none" fill-rule="evenodd">
        <g id="党建管理-模块管理-固定板块" transform="translate(-538.000000, -181.000000)">
            <g id="编组-2备份-5" transform="translate(538.000000, 181.000000)">
                <polygon id="矩形" fill="#228BFA" points="0 0 113.987815 0 122.623256 36 0 36"></polygon>
                <g id="编组" transform="translate(12.000000, 11.000000)" fill="#FFFFFF" fill-rule="nonzero">
                    <g id="恩施/icon/标题/信息-填充-填充">
                        <path d="M11.3621282,0 C12.3336665,0 13.125,0.808 13.125,1.8 L13.125,12.2 C13.125,13.192 12.3336665,14 11.3621282,14 L2.63787176,14 C1.66633355,14 0.875,13.192 0.875,12.2 L0.875,1.8 C0.875,0.808 1.66633355,0 2.63787176,0 L11.3621282,0 Z M7.74083778,7.73448905 L3.20855564,7.73448905 C2.88565485,7.73448905 2.625,8.00193887 2.625,8.3332573 C2.625,8.66457573 2.88565485,8.93202555 3.20855564,8.93202555 L3.20855564,8.93202555 L7.74083778,8.93202555 C8.06373857,8.93202555 8.32439342,8.66457573 8.32439342,8.3332573 C8.32439342,8.00193887 8.06373857,7.73448905 7.74083778,7.73448905 L7.74083778,7.73448905 Z M10.8336827,5.15978558 L3.20855564,5.15978558 C2.88565485,5.15978558 2.625,5.4272354 2.625,5.75855383 C2.625,6.08987226 2.88565485,6.35732208 3.20855564,6.35732208 L3.20855564,6.35732208 L10.8336827,6.35732208 C11.1565835,6.35732208 11.4172383,6.08987226 11.4172383,5.75855383 C11.4172383,5.4272354 11.1565835,5.15978558 10.8336827,5.15978558 L10.8336827,5.15978558 Z M10.8336827,2.625 L3.20855564,2.625 C2.88565485,2.625 2.625,2.89244982 2.625,3.22376825 C2.625,3.55508668 2.88565485,3.8225365 3.20855564,3.8225365 L3.20855564,3.8225365 L10.8336827,3.8225365 C11.1565835,3.8225365 11.4172383,3.55508668 11.4172383,3.22376825 C11.4172383,2.89244982 11.1565835,2.625 10.8336827,2.625 L10.8336827,2.625 Z" id="恩施/形状结合"></path>
                    </g>
                </g>
                <text id="项目信息" font-family="MicrosoftYaHei-Bold, Microsoft YaHei" font-size="14" font-weight="bold" line-spacing="14" fill="#FFFFFF">
                    <tspan x="32" y="26">类型管理</tspan>
                </text>
            </g>
        </g>
    </g>
</svg>