<?xml version="1.0" encoding="UTF-8"?>
<svg width="16px" height="16px" viewBox="0 0 16 16" version="1.1" xmlns="http://www.w3.org/2000/svg" xmlns:xlink="http://www.w3.org/1999/xlink">
    <title></title>
    <g id="恩施/icon/账号" stroke="none" stroke-width="1" fill="none" fill-rule="evenodd">
        <path d="M6.18841978,9.19876542 C3.22661737,9.19876542 1.01476665,11.2166856 1.01476665,14.1469987 L1.01476665,14.4626734 C1.01476665,15.994428 3.38496866,15.994428 6.38604219,15.994428 L9.57333682,15.994428 C12.4553302,15.994428 14.9446124,15.994428 14.9446124,14.4626734 L14.9446124,14.1469987 C14.9446124,11.2166856 12.7327616,9.19876542 9.77095922,9.19876542 L6.18841978,9.19876542 L6.18841978,9.19876542 Z M7.82007141,8.4275603 C10.166204,8.4275603 12.0752871,6.5388403 12.0752871,4.21590116 C12.0752871,1.89429398 10.166204,0.00557398438 7.82007141,0.00557398438 C5.4752056,0.00557398438 3.56612253,1.89429398 3.56612253,4.21590116 C3.56612253,6.53884028 5.4752056,8.4275603 7.82007141,8.4275603 Z" id="恩施/形状" fill="#1E81F1"></path>
    </g>
</svg>