<?xml version="1.0" standalone="no"?><!DOCTYPE svg PUBLIC "-//W3C//DTD SVG 1.1//EN" "http://www.w3.org/Graphics/SVG/1.1/DTD/svg11.dtd"><svg t="1594620676227" class="icon" viewBox="0 0 1024 1024" version="1.1" xmlns="http://www.w3.org/2000/svg" p-id="9105" xmlns:xlink="http://www.w3.org/1999/xlink" width="200" height="200"><defs><style type="text/css"></style></defs><path d="M938.688 0C985.6 0 1024 40.064 1024 89.024v598.272c0 48.96-38.4 89.024-85.312 89.024h-384v158.656h170.624V1024H298.688v-89.024h170.624V776.32h-384C38.4 776.32 0 736.256 0 687.36V88.96C0 40.064 38.4 0 85.312 0zM672 576h-320a32 32 0 0 0 0 64h320a32 32 0 1 0 0-64z m0-128h-320a32 32 0 0 0 0 64h320a32 32 0 1 0 0-64zM512 128c-3.2 0-5.952 1.92-7.232 4.736l-35.2 74.688-78.592 11.968a8.32 8.32 0 0 0-6.592 5.76 8.704 8.704 0 0 0 2.048 8.704l56.96 58.24-13.44 81.984c-0.512 3.072 0.64 6.4 3.2 8.32s5.888 2.048 8.576 0.64L512 344.32l70.272 38.656c2.688 1.472 5.952 1.28 8.576-0.64a8.64 8.64 0 0 0 3.2-8.32l-13.44-82.048 56.896-58.112a8.768 8.768 0 0 0 2.048-8.704 8.192 8.192 0 0 0-6.592-5.76L554.432 207.36l-35.136-74.688A8.064 8.064 0 0 0 512 128z" p-id="9106"></path></svg>