<?xml version="1.0" standalone="no"?><!DOCTYPE svg PUBLIC "-//W3C//DTD SVG 1.1//EN" "http://www.w3.org/Graphics/SVG/1.1/DTD/svg11.dtd"><svg t="1594620730407" class="icon" viewBox="0 0 1024 1024" version="1.1" xmlns="http://www.w3.org/2000/svg" p-id="9343" xmlns:xlink="http://www.w3.org/1999/xlink" width="200" height="200"><defs><style type="text/css"></style></defs><path d="M831.948003 0a63.996 63.996 0 0 1 63.996 63.996l0.063997 492.897194a205.747141 205.747141 0 0 0-104.825449-43.709268l-15.807012-1.151928c-55.03656-1.27992-106.361352 16.894944-146.102869 53.11668a190.708081 190.708081 0 0 0-63.164052 141.559153l0.447972 13.055184c1.471908 21.75864 6.71958 42.941316 15.35904 62.71608l4.415724 9.471408h-15.295044c-67.067808 0-123.064308 53.11668-123.064308 119.992501v93.306168c0 6.463596 0.767952 12.7992 2.175864 18.750828L63.996 1023.936004a63.996 63.996 0 0 1-63.996-63.996V63.996a63.996 63.996 0 0 1 63.996-63.996h767.952003z m-58.108368 575.964002c70.907568 2.815824 130.935817 60.668208 131.959753 127.864009 0.95994 33.5979-12.7992 66.23586-36.477721 91.450284-16.63896 16.830948-11.51928 36.605712-11.51928 60.668208h107.065309c32.509968 0 59.068308 25.214424 59.068308 55.996501v93.306168a19.1988 19.1988 0 0 1-19.710768 18.686832H531.67877A19.262796 19.262796 0 0 1 511.968002 1005.249172V911.943004c0-30.782076 26.55834-55.9965 59.068308-55.996501h101.689645c0-26.494344 8.575464-43.83726-8.191488-62.460096a126.71208 126.71208 0 0 1-34.429849-86.778576c0-35.453784 14.71908-69.11568 42.365353-94.266109 27.51828-25.214424 62.972064-37.309668 101.369664-36.47772zM415.974002 575.964002h-255.984001a31.998 31.998 0 0 0-5.75964 63.484032L159.990001 639.960002h255.984001a31.998 31.998 0 0 0 0-63.996z m127.992-191.988001h-383.976001a31.998 31.998 0 0 0-5.75964 63.484033L159.990001 447.972002h383.976001a31.998 31.998 0 0 0 0-63.996001z m127.992001-191.988h-511.968002a31.998 31.998 0 0 0-5.75964 63.484032L159.990001 255.984001h511.968002a31.998 31.998 0 1 0 0-63.996z" p-id="9344"></path><path d="M671.190051 149.046685v-6.3996c-4.47972 1.91988-4.47972 4.47972 0 6.3996z" p-id="9345"></path></svg>