<?xml version="1.0" standalone="no"?><!DOCTYPE svg PUBLIC "-//W3C//DTD SVG 1.1//EN" "http://www.w3.org/Graphics/SVG/1.1/DTD/svg11.dtd"><svg t="1594632625358" class="icon" viewBox="0 0 1024 1024" version="1.1" xmlns="http://www.w3.org/2000/svg" p-id="11556" xmlns:xlink="http://www.w3.org/1999/xlink" width="200" height="200"><defs><style type="text/css"></style></defs><path d="M628.004571 0a73.142857 73.142857 0 0 1 51.712 21.430857l249.709715 249.709714a73.142857 73.142857 0 0 1 21.430857 51.712V950.857143a73.142857 73.142857 0 0 1-73.142857 73.142857H146.285714a73.142857 73.142857 0 0 1-73.142857-73.142857V73.142857a73.142857 73.142857 0 0 1 73.142857-73.142857h481.718857z m-231.862857 662.966857l-3.803428 3.145143-87.917715 90.697143-37.888-39.204572a27.574857 27.574857 0 0 0-46.226285 11.922286 26.770286 26.770286 0 0 0 3.803428 21.796572l2.925715 3.657142 57.782857 59.538286a27.428571 27.428571 0 0 0 36.205714 2.925714l3.291429-2.925714 106.934857-110.445714a26.916571 26.916571 0 0 0 0.073143-37.449143 27.648 27.648 0 0 0-35.181715-3.657143zM768 731.428571h-219.428571a36.571429 36.571429 0 0 0-6.582858 72.557715L548.571429 804.571429h219.428571a36.571429 36.571429 0 0 0 6.582857-72.557715L768 731.428571zM396.141714 443.538286l-3.803428 3.145143-87.917715 90.697142-37.888-39.204571a27.574857 27.574857 0 0 0-46.226285 11.922286 26.770286 26.770286 0 0 0 3.803428 21.796571l2.925715 3.657143 57.782857 59.538286a27.428571 27.428571 0 0 0 36.205714 2.925714l3.291429-2.925714 106.934857-110.445715a26.916571 26.916571 0 0 0 0.073143-37.449142 27.648 27.648 0 0 0-35.181715-3.657143zM768 512h-219.428571a36.571429 36.571429 0 0 0-6.582858 72.557714L548.571429 585.142857h219.428571a36.571429 36.571429 0 0 0 6.582857-72.557714L768 512zM396.141714 224.109714l-3.803428 3.145143-87.917715 90.697143-37.888-39.204571a27.574857 27.574857 0 0 0-46.226285 11.922285 26.770286 26.770286 0 0 0 3.803428 21.796572l2.925715 3.657143 57.782857 59.538285a27.428571 27.428571 0 0 0 36.205714 2.925715l3.291429-2.925715 106.934857-110.445714a26.916571 26.916571 0 0 0 0.073143-37.449143 27.648 27.648 0 0 0-35.181715-3.657143zM768 292.571429h-219.428571a36.571429 36.571429 0 0 0-6.582858 72.557714L548.571429 365.714286h219.428571a36.571429 36.571429 0 0 0 6.582857-72.557715L768 292.571429z" fill="#ffffff" p-id="11557"></path></svg>