<?xml version="1.0" standalone="no"?><!DOCTYPE svg PUBLIC "-//W3C//DTD SVG 1.1//EN" "http://www.w3.org/Graphics/SVG/1.1/DTD/svg11.dtd"><svg t="1594623498867" class="icon" viewBox="0 0 1024 1024" version="1.1" xmlns="http://www.w3.org/2000/svg" p-id="9583" xmlns:xlink="http://www.w3.org/1999/xlink" width="200" height="200"><defs><style type="text/css"></style></defs><path d="M702.911523 383.87168a319.9992 319.9992 0 1 1 0 639.9984 319.9992 319.9992 0 0 1 0-639.9984z m182.911542 199.679501a31.167922 31.167922 0 0 0-40.703898 0l-183.039542 181.311547-101.759746-100.735748a31.167922 31.167922 0 0 0-40.703898 0 30.399924 30.399924 0 0 0 0 40.319899l122.047695 120.831698c6.783983 3.391992 13.567966 6.719983 20.351949 6.719983 6.783983 0 16.959958-3.327992 20.351949-6.719983l203.519491-201.407497c13.503966-13.439966 13.503966-30.271924 0-40.319899z" p-id="9584"></path><path d="M822.143225 0.00064a73.599816 73.599816 0 0 1 73.407816 65.023837L895.99904 72.960458v269.567326h-64.895838l-0.064-0.767998-15.615961-5.119988A383.99904 383.99904 0 0 0 416.768238 959.99824l3.455991-0.064-0.063999 3.775991 0.831998 0.831998h-0.831998V1023.99808H73.921095a73.599816 73.599816 0 0 1-73.407816-65.023837L0.00128 951.038262V72.960458C0.00128 35.392552 28.865208 4.416629 65.793116 0.448639L73.857095 0.00064h748.28613z m-558.718604 767.99808h-40.575898a31.87192 31.87192 0 1 0 0 63.743841h40.639898a31.87192 31.87192 0 1 0 0-63.743841z m0-182.783543h-40.575898a31.87192 31.87192 0 1 0 0 63.743841h40.639898a31.87192 31.87192 0 1 0 0-63.743841z m55.039863-182.783543H222.848723a31.87192 31.87192 0 1 0 0 63.80784h95.615761a31.87192 31.87192 0 1 0 0-63.80784z m369.791075-182.783543H222.848723a31.87192 31.87192 0 1 0 0 63.80784h465.406836a31.87192 31.87192 0 1 0 0-63.80784z" p-id="9585"></path></svg>