<?xml version="1.0" standalone="no"?><!DOCTYPE svg PUBLIC "-//W3C//DTD SVG 1.1//EN" "http://www.w3.org/Graphics/SVG/1.1/DTD/svg11.dtd"><svg t="1594631796276" class="icon" viewBox="0 0 1024 1024" version="1.1" xmlns="http://www.w3.org/2000/svg" p-id="11146" xmlns:xlink="http://www.w3.org/1999/xlink" width="200" height="200"><defs><style type="text/css"></style></defs><path d="M613.504 0a64 64 0 0 1 45.248 18.752l218.496 218.496a64 64 0 0 1 18.752 45.248v167.744a93.312 93.312 0 0 0-84.864 23.552l-6.528 6.912c-22.592 26.304-28.48 62.4-17.216 93.824l1.28 3.072h-118.912A94.08 94.08 0 0 0 576 672.128l0.448 9.088a94.08 94.08 0 0 0 93.312 85.376l119.04-0.064-1.28 3.008a94.72 94.72 0 0 0 23.744 100.736c17.472 16.704 40.576 25.792 64.512 25.792l9.6-0.512c3.648-0.384 7.168-0.96 10.688-1.728L896 960a64 64 0 0 1-64 64H64a64 64 0 0 1-64-64V64a64 64 0 0 1 64-64h549.504z m241.792 520.192a29.312 29.312 0 0 1 41.984 1.472l118.528 129.6 0.448 0.512c0.384 0.32 0.64 0.64 0.832 0.96 0.256 0.384 0.384 0.64 0.64 0.832l0.64 0.96 0.64 0.896c0.256 0.32 0.32 0.64 0.64 0.96l0.512 0.96c0.128 0.384 0.384 0.64 0.512 0.96l0.448 1.088c0 0.256 0.128 0.384 0.256 0.64l0.128 0.384c0.256 0.32 0.384 0.704 0.448 1.088l0.192 0.448 0.192 0.512 0.384 1.088 0.32 1.088 0.256 0.96 0.128 0.576 0.192 1.536 0.128 1.216c0.128 0.256 0.128 0.64 0.128 0.96l0.128 1.088v2.176c-0.128 0.384-0.128 0.768-0.128 1.088-0.128 0.256-0.128 0.64-0.128 1.024l-0.128 1.216-0.064 0.96-0.256 1.088-0.256 0.96-0.704 2.176c-0.128 0.384-0.256 0.768-0.128 0.896a4.352 4.352 0 0 0-0.448 1.088c-0.128 0.64-0.256 0.704-0.384 0.96a4.352 4.352 0 0 1-0.448 1.088c-0.128 0.384-0.384 0.64-0.512 0.96-0.256 0.384-0.32 0.64-0.64 1.024l-0.512 0.96-0.32 0.384c-0.512 0.832-0.768 1.088-1.024 1.408-0.128 0.384-0.32 0.64-0.64 0.896l-0.768 0.96c-0.256 0.128-0.384 0.384-0.512 0.448l-118.4 129.664a29.632 29.632 0 0 1-42.24 1.472 30.848 30.848 0 0 1-1.408-43.008l71.552-78.336h-255.744A30.08 30.08 0 0 1 640 672a30.08 30.08 0 0 1 29.76-30.4h255.744l-71.68-78.528a30.848 30.848 0 0 1 1.472-42.944zM480 640h-256a32 32 0 0 0-5.76 63.488L224 704h256a32 32 0 1 0 0-64z m192-192h-448a32 32 0 0 0-5.76 63.488L224 512h448a32 32 0 1 0 0-64z m-256-192h-192a32 32 0 0 0-5.76 63.488L224 320h192a32 32 0 0 0 0-64z m197.504-192H608v224H832v-5.504L613.504 64z" p-id="11147"></path></svg>