<?xml version="1.0" standalone="no"?><!DOCTYPE svg PUBLIC "-//W3C//DTD SVG 1.1//EN" "http://www.w3.org/Graphics/SVG/1.1/DTD/svg11.dtd"><svg t="1594632554459" class="icon" viewBox="0 0 1024 1024" version="1.1" xmlns="http://www.w3.org/2000/svg" p-id="11394" xmlns:xlink="http://www.w3.org/1999/xlink" width="200" height="200"><defs><style type="text/css"></style></defs><path d="M804.571429 0a73.142857 73.142857 0 0 1 67.510857 44.909714l-302.08 302.006857a73.142857 73.142857 0 0 0 103.424 103.424L877.714286 245.979429V950.857143a73.142857 73.142857 0 0 1-73.142857 73.142857H73.142857a73.142857 73.142857 0 0 1-73.142857-73.142857V73.142857a73.142857 73.142857 0 0 1 73.142857-73.142857h731.428572zM694.857143 658.285714h-512a36.571429 36.571429 0 0 0-6.582857 72.557715L182.857143 731.428571h512a36.571429 36.571429 0 0 0 6.582857-72.557714L694.857143 658.285714z m-292.571429-219.428571h-219.428571a36.571429 36.571429 0 0 0-6.582857 72.557714L182.857143 512h219.428571a36.571429 36.571429 0 0 0 6.582857-72.557714L402.285714 438.857143zM1009.590857 10.678857a36.571429 36.571429 0 0 1 0 51.785143l-362.057143 362.057143a36.571429 36.571429 0 0 1-51.712-51.785143l362.057143-362.057143a36.571429 36.571429 0 0 1 51.712 0zM548.571429 219.428571h-365.714286a36.571429 36.571429 0 0 0-6.582857 72.557715L182.857143 292.571429h365.714286a36.571429 36.571429 0 0 0 6.582857-72.557715L548.571429 219.428571z" fill="#ffffff" p-id="11395"></path></svg>